<svg width="40" height="40" viewBox="0 0 40 40" fill="none" xmlns="http://www.w3.org/2000/svg">
<path d="M16.6671 26.6667H23.3338C23.7586 26.6671 24.1672 26.8298 24.476 27.1214C24.7849 27.413 24.9708 27.8116 24.9957 28.2357C25.0206 28.6597 24.8826 29.0773 24.61 29.4031C24.3373 29.7288 23.9506 29.9382 23.5288 29.9883L23.3338 30H16.6671C16.2423 29.9995 15.8337 29.8369 15.5248 29.5453C15.2159 29.2536 15.03 28.8551 15.0051 28.431C14.9802 28.0069 15.1182 27.5894 15.3909 27.2636C15.6635 26.9379 16.0503 26.7285 16.4721 26.6783L16.6671 26.6667ZM13.3338 18.3333H26.6671C27.0919 18.3338 27.5005 18.4965 27.8094 18.7881C28.1183 19.0797 28.3042 19.4783 28.3291 19.9023C28.3539 20.3264 28.216 20.744 27.9433 21.0697C27.6707 21.3955 27.2839 21.6048 26.8621 21.655L26.6671 21.6667H13.3338C12.909 21.6662 12.5004 21.5035 12.1915 21.2119C11.8826 20.9203 11.6967 20.5217 11.6718 20.0977C11.6469 19.6736 11.7849 19.256 12.0575 18.9303C12.3302 18.6045 12.7169 18.3952 13.1388 18.345L13.3338 18.3333ZM8.33377 10H31.6671C32.0919 10.0005 32.5005 10.1631 32.8094 10.4547C33.1183 10.7464 33.3042 11.1449 33.3291 11.569C33.3539 11.9931 33.216 12.4106 32.9433 12.7364C32.6707 13.0621 32.2839 13.2715 31.8621 13.3217L31.6671 13.3333H8.33377C7.90897 13.3329 7.50038 13.1702 7.19148 12.8786C6.88259 12.587 6.69671 12.1884 6.67181 11.7643C6.64692 11.3403 6.78489 10.9227 7.05754 10.5969C7.33019 10.2712 7.71694 10.0618 8.13876 10.0117L8.33377 10Z" fill="#6A7E8A"/>
</svg>
