<svg width="40" height="40" viewBox="0 0 40 40" fill="none" xmlns="http://www.w3.org/2000/svg">
<path d="M25.8338 23.3333H24.5171L24.0504 22.8833C25.092 21.6732 25.8533 20.2479 26.2797 18.7093C26.7061 17.1707 26.7872 15.5569 26.5171 13.9833C25.7338 9.34996 21.8671 5.64996 17.2004 5.08329C15.5598 4.87573 13.8934 5.04624 12.3288 5.58177C10.7642 6.1173 9.34285 7.00366 8.1735 8.17301C7.00414 9.34237 6.11779 10.7637 5.58226 12.3283C5.04673 13.8929 4.87622 15.5593 5.08378 17.2C5.65045 21.8666 9.35045 25.7333 13.9838 26.5166C15.5574 26.7867 17.1712 26.7056 18.7098 26.2792C20.2484 25.8528 21.6737 25.0915 22.8838 24.05L23.3338 24.5166V25.8333L30.4171 32.9166C31.1004 33.6 32.2171 33.6 32.9004 32.9166C33.5838 32.2333 33.5838 31.1166 32.9004 30.4333L25.8338 23.3333ZM15.8338 23.3333C11.6838 23.3333 8.33378 19.9833 8.33378 15.8333C8.33378 11.6833 11.6838 8.33329 15.8338 8.33329C19.9838 8.33329 23.3338 11.6833 23.3338 15.8333C23.3338 19.9833 19.9838 23.3333 15.8338 23.3333Z" fill="#6A7E8A"/>
</svg>
