<?xml version="1.0" standalone="no"?>
<!DOCTYPE svg PUBLIC "-//W3C//DTD SVG 1.1//EN" "http://www.w3.org/Graphics/SVG/1.1/DTD/svg11.dtd" >
<svg xmlns="http://www.w3.org/2000/svg" xmlns:xlink="http://www.w3.org/1999/xlink" version="1.1">
<metadata>
Created by FontForge 20170731 at Sat Sep 30 22:05:37 2023
 By Aleksey,,,
Oleksii Popovtsev
</metadata>
<defs>
<font id="IrpinType-Regular" horiz-adv-x="0" >
  <font-face 
    font-family="Irpin Type"
    font-weight="400"
    font-stretch="normal"
    units-per-em="2048"
    panose-1="1 0 0 0 0 0 0 0 0 0"
    ascent="1638"
    descent="-410"
    x-height="999"
    cap-height="1442"
    bbox="-737 -492 2867 1913"
    underline-thickness="102"
    underline-position="-358"
    unicode-range="U+0020-FB02"
  />
<missing-glyph horiz-adv-x="983" 
d="M989 1516v-1967h-624v1967h624zM510 -315h328v65h-201l137 92h64v66h-328v-66h139l-139 -92v-65zM510 -47h328v221h-328v-221zM510 293h328v221h-197v-108h66v45h65v-93h-197v156h-65v-221zM510 557h328v197h-66v-129h-262v-68zM510 670h197v137h131v65h-328v-65h131v-72
h-131v-65zM510 926h328v67h-131v137h-197v-204zM510 1182h328v63h-131v74h131v65h-326v-65h129v-74h-131v-63zM575 16v95h197v-95h-197zM575 993v70h66v-70h-66z" />
    <glyph glyph-name="f_f" unicode="ff" horiz-adv-x="1654" 
d="M184 0v172h160v655h-180v172h180v168q0 112 57.5 199t146.5 130.5t189 43.5q155 0 242 -57l-102 -148q-62 33 -127 33q-87 0 -148 -54.5t-61 -146.5v-168h524v168q0 112 57.5 199t146.5 130.5t189 43.5q160 0 258 -86l-90 -135q-70 49 -156 49q-87 0 -147.5 -54.5
t-60.5 -146.5v-168h376v-172h-376v-655h159v-172h-516v172h160v655h-524v-655h159v-172h-516z" />
    <glyph glyph-name="f_f_i" unicode="ffi" horiz-adv-x="2134" 
d="M184 0v172h160v655h-180v172h180v168q0 112 57.5 199t146.5 130.5t189 43.5q137 0 221 -57l-81 -148q-54 33 -127 33q-87 0 -148 -54.5t-61 -146.5v-168h524v168q0 112 57.5 199t146.5 130.5t189 43.5q75 0 127 -16l-55 -162q-30 6 -60 6q-87 0 -147.5 -54.5
t-60.5 -146.5v-168h720v-827h160v-172h-516v172h160v655h-524v-655h159v-172h-516v172h160v655h-524v-655h159v-172h-516zM1708 1368l188 186l187 -186l-187 -188z" />
    <glyph glyph-name="f_f_j.liga" unicode="ffj" horiz-adv-x="2041" 
d="M1786 827h-524v-655h159v-172h-516v172h160v655h-524v-655h159v-172h-516v172h160v655h-180v172h180v168q0 112 57.5 199t146.5 130.5t189 43.5q134 0 221 -57l-81 -148q-62 33 -127 33q-87 0 -148 -54.5t-61 -146.5v-168h524v168q0 112 57.5 199t146.5 130.5t189 43.5
q72 0 127 -16l-55 -162q-30 6 -60 6q-87 0 -147.5 -54.5t-60.5 -146.5v-168h720v-1325q0 -57 -38 -95t-95 -38h-399v172h336v1114zM1708 1368l188 186l187 -186l-187 -188z" />
    <glyph glyph-name="f_f_l" unicode="ffl" horiz-adv-x="2134" 
d="M184 0v172h160v655h-180v172h180v168q0 112 57.5 199t146.5 130.5t189 43.5q134 0 221 -57l-81 -148q-62 33 -127 33q-87 0 -148 -54.5t-61 -146.5v-168h524v152q0 112 57.5 199t146.5 130.5t189 43.5h524v-1352h160v-172h-516v172h160v1180h-316q-87 0 -147.5 -54.5
t-60.5 -146.5v-152h335v-172h-335v-655h159v-172h-516v172h160v655h-524v-655h159v-172h-516z" />
    <glyph glyph-name="f_i" unicode="fi" horiz-adv-x="1413" 
d="M184 0v172h160v655h-180v172h180v168q0 112 57.5 199t146.5 130.5t189 43.5q75 0 127 -16l-55 -162q-30 6 -59 6q-87 0 -148 -54.5t-61 -146.5v-168h721v-827h159v-172h-516v172h160v655h-524v-655h159v-172h-516zM983 1368l188 186l187 -186l-187 -188z" />
    <glyph glyph-name="f_j.liga" unicode="fj" horiz-adv-x="1413" 
d="M184 0v172h160v655h-180v172h180v168q0 112 57.5 199t146.5 130.5t189 43.5q75 0 127 -16l-55 -162q-30 6 -59 6q-87 0 -148 -54.5t-61 -146.5v-168h721v-827h159v-172h-516v172h160v655h-524v-655h159v-172h-516zM983 1368l188 186l187 -186l-187 -188z" />
    <glyph glyph-name="f_l" unicode="fl" horiz-adv-x="1413" 
d="M184 0v172h160v655h-180v172h180v152q0 112 57.5 199t146.5 130.5t189 43.5h525v-1352h159v-172h-516v172h160v1180h-315q-87 0 -148 -54.5t-61 -146.5v-152h336v-172h-336v-655h159v-172h-516z" />
    <glyph glyph-name="t_t.liga" unicode="tt" horiz-adv-x="1626" 
d="M1194 0q-57 0 -95 38t-38 95v694h-541v-655h336v-172h-399q-57 0 -95 38t-38 95v694h-201v172h201v287h196v-287h541v287h196v-287h336v-172h-336v-606q0 -22 14 -35.5t36 -13.5h286v-172h-399z" />
    <glyph glyph-name=".notdef" horiz-adv-x="983" 
d="M989 1516v-1967h-624v1967h624zM510 -315h328v65h-201l137 92h64v66h-328v-66h139l-139 -92v-65zM510 -47h328v221h-328v-221zM510 293h328v221h-197v-108h66v45h65v-93h-197v156h-65v-221zM510 557h328v197h-66v-129h-262v-68zM510 670h197v137h131v65h-328v-65h131v-72
h-131v-65zM510 926h328v67h-131v137h-197v-204zM510 1182h328v63h-131v74h131v65h-326v-65h129v-74h-131v-63zM575 16v95h197v-95h-197zM575 993v70h66v-70h-66z" />
    <glyph glyph-name=".null" 
 />
    <glyph glyph-name="nonmarkingreturn" horiz-adv-x="682" 
 />
    <glyph glyph-name="space" unicode=" " horiz-adv-x="507" 
 />
    <glyph glyph-name="exclam" unicode="!" horiz-adv-x="622" 
d="M336 442l-21 557v443h197v-443l-20 -557h-156zM205 115l209 209l209 -209l-209 -209z" />
    <glyph glyph-name="quotedbl" unicode="&#x22;" horiz-adv-x="724" 
d="M205 918v524h196l-41 -524h-155zM549 918v524h196l-40 -524h-156z" />
    <glyph glyph-name="numbersign" unicode="#" horiz-adv-x="1568" 
d="M434 0l74 348h-262v164h299l69 324h-266v163h299l74 344h172l-74 -344h295l74 344h172l-74 -344h283v-163h-316l-69 -324h282v-164h-319l-74 -348h-172l74 348h-295l-74 -348h-172zM717 512h295l69 324h-295z" />
    <glyph glyph-name="dollar" unicode="$" horiz-adv-x="1282" 
d="M623 -29q-282 31 -500 217l119 140q197 -143 381 -172v458l-33 9q-206 56 -308 149t-102 227q0 158 120.5 258t322.5 115v168h151v-168q251 -18 438 -147l-98 -152q-161 98 -340 115v-410l70 -20q401 -110 401 -393q0 -166 -128 -274.5t-343 -123.5v-164h-151v168z
M385 1012q0 -72 59 -116t179 -77v373q-111 -9 -174.5 -56.5t-63.5 -123.5zM774 147q132 9 199 63t67 150q0 87 -58 131t-208 82v-426z" />
    <glyph glyph-name="percent" unicode="%" horiz-adv-x="1687" 
d="M336 0l967 1343h204l-962 -1343h-209zM156 1053q0 134 97 228.5t230 94.5t230.5 -94.5t97.5 -228.5t-97.5 -229t-230.5 -95t-230 95t-97 229zM332 1053q0 -67 43 -109.5t108 -42.5t108.5 42.5t43.5 109.5t-43.5 109t-108.5 42t-108 -42t-43 -109zM1032 291
q0 134 97.5 228.5t230.5 94.5t230.5 -94.5t97.5 -228.5t-97.5 -229t-230.5 -95t-230.5 95t-97.5 229zM1208 291q0 -67 43.5 -109.5t108.5 -42.5t108 42.5t43 109.5t-43 109t-108 42t-108.5 -42t-43.5 -109z" />
    <glyph glyph-name="ampersand" unicode="&#x26;" horiz-adv-x="1505" 
d="M635 -33q-101 0 -183 31.5t-133 84.5t-78.5 119t-27.5 138q0 126 65 221t209 189v16q-109 109 -152.5 184.5t-43.5 163.5q0 111 56.5 195.5t140 125t176.5 40.5q169 0 277 -96.5t108 -256.5q0 -100 -56.5 -175t-214.5 -197v-17l254 -266h17l143 162v194h172v-383h-104
l-97 -112l150 -156h213v-172h-383v78l-94 98h-17q-93 -103 -187 -156t-210 -53zM414 356q0 -80 63.5 -144.5t157.5 -64.5q73 0 131.5 37t146.5 131l-295 312l-73 -54q-131 -94 -131 -217zM487 1122q0 -77 160 -254q205 156 205 254q0 82 -48 127t-136 45q-85 0 -133 -45.5
t-48 -126.5z" />
    <glyph glyph-name="quotesingle" unicode="'" horiz-adv-x="380" 
d="M205 918v524h196l-41 -524h-155z" />
    <glyph glyph-name="parenleft" unicode="(" horiz-adv-x="708" 
d="M528 -328q-172 203 -268 446.5t-96 491.5q0 245 98 493t266 445l140 -98q-144 -175 -230 -400t-86 -440q0 -217 85 -441.5t231 -397.5z" />
    <glyph glyph-name="parenright" unicode=")" horiz-adv-x="708" 
d="M246 -229q145 173 230 397.5t85 441.5q0 215 -86 440t-229 400l139 98q169 -197 267 -445t98 -493q0 -248 -96.5 -491.5t-268.5 -446.5z" />
    <glyph glyph-name="asterisk" unicode="*" horiz-adv-x="958" 
d="M463 713l-127 94l110 139l-32 103l-168 57l45 147l164 -57l86 61v185h164v-185l86 -61l163 57l45 -147l-168 -57l-32 -103l110 -139l-127 -94l-110 151h-99z" />
    <glyph glyph-name="plus" unicode="+" horiz-adv-x="1167" 
d="M623 127v377h-369v176h369v377h176v-377h368v-176h-368v-377h-176z" />
    <glyph glyph-name="comma" unicode="," horiz-adv-x="471" 
d="M205 -336l57 586h230l-132 -586h-155z" />
    <glyph glyph-name="hyphenminus" unicode="-" horiz-adv-x="860" 
d="M246 504v176h655v-176h-655z" />
    <glyph glyph-name="period" unicode="." horiz-adv-x="622" 
d="M455 324l209 -209l-209 -209l-209 209z" />
    <glyph glyph-name="slash" unicode="/" horiz-adv-x="1019" 
d="M123 0l700 1442h197l-696 -1442h-201z" />
    <glyph glyph-name="zero" unicode="0" horiz-adv-x="1224" 
d="M713 -33q-155 0 -273 90.5t-180.5 250.5t-62.5 364t62.5 363.5t180.5 250t273 90.5q153 0 270 -90.5t179.5 -250t62.5 -363.5t-62.5 -364t-179.5 -250.5t-270 -90.5zM397 672q0 -238 84.5 -379t231.5 -141q144 0 227.5 142.5t83.5 377.5t-83.5 377.5t-227.5 142.5
q-146 0 -231 -142t-85 -378z" />
    <glyph glyph-name="one" unicode="1" horiz-adv-x="815" 
d="M274 0v172h160v938l-270 -119v193l340 159h123v-1171h159v-172h-512z" />
    <glyph glyph-name="two" unicode="2" horiz-adv-x="1101" 
d="M250 0v156l463 532q97 113 132.5 173.5t35.5 125.5q0 95 -67.5 154t-174.5 59q-84 0 -148.5 -44.5t-93.5 -113.5v-143h-192v182q40 127 163 211t275 84q193 0 313.5 -108.5t120.5 -280.5q0 -55 -12 -101.5t-43 -98t-68 -98.5t-102 -120l-270 -307l-82 -69l4 -13h385v127
h192v-307h-831z" />
    <glyph glyph-name="three" unicode="3" horiz-adv-x="1146" 
d="M700 -33q-140 0 -264.5 73t-189.5 206v182h192v-147q48 -66 118.5 -104t148.5 -38q114 0 179.5 62t65.5 172q0 97 -79 171t-191 74h-123v173h102q110 0 178 59t68 154q0 90 -60 145t-161 55q-123 0 -209 -86v-133h-192v182q62 96 170 152.5t231 56.5q185 0 301.5 -102.5
t116.5 -265.5q0 -96 -47.5 -172.5t-136.5 -118.5v-17q112 -39 170.5 -124.5t58.5 -198.5q0 -96 -37.5 -175.5t-100.5 -130t-142.5 -77.5t-166.5 -27z" />
    <glyph glyph-name="four" unicode="4" horiz-adv-x="1187" 
d="M791 0v287h-627v172l598 884h221v-884h180v-172h-180v-287h-192zM377 459h414v495l12 123l-12 4l-414 -610v-12z" />
    <glyph glyph-name="five" unicode="5" horiz-adv-x="1159" 
d="M684 -33q-129 0 -252 73.5t-186 188.5v183h192v-140q40 -60 110.5 -96.5t147.5 -36.5q117 0 192 78t75 201q0 128 -78 209.5t-201 81.5q-66 0 -133 -33.5t-105 -85.5l-180 74l86 679h725v-303h-192v127h-377l-49 -368l16 -4q42 38 109 62t129 24q196 0 321 -124t125 -319
q0 -207 -133 -339t-342 -132z" />
    <glyph glyph-name="six" unicode="6" horiz-adv-x="1155" 
d="M676 -33q-212 0 -345.5 128t-133.5 331q0 41 4 70.5t17.5 75t46 101.5t83.5 126l402 544h217l-361 -479l4 -8q62 16 131 16q173 0 293.5 -131.5t120.5 -314.5q0 -203 -133.5 -331t-345.5 -128zM389 426q0 -126 80.5 -206.5t206.5 -80.5q123 0 202.5 80.5t79.5 206.5
q0 125 -79 204t-203 79q-126 0 -206.5 -78.5t-80.5 -204.5z" />
    <glyph glyph-name="seven" unicode="7" horiz-adv-x="1134" 
d="M319 0l541 1061l53 82v16h-524v-127h-192v311h929v-155l-598 -1188h-209z" />
    <glyph glyph-name="eight" unicode="8" horiz-adv-x="1175" 
d="M709 -33q-124 0 -229 48.5t-169.5 141.5t-64.5 212q0 107 58 193t167 138v17q-84 54 -132 125.5t-48 152.5q0 166 117 273.5t301 107.5q183 0 302 -105.5t119 -275.5q0 -82 -48.5 -154.5t-131.5 -123.5v-17q110 -56 168 -140.5t58 -190.5q0 -173 -134.5 -287.5
t-332.5 -114.5zM442 389q0 -106 75.5 -171.5t191.5 -65.5q120 0 195 66t75 171q0 102 -79 165.5t-191 63.5q-109 0 -188 -65t-79 -164zM485 991q0 -92 62.5 -148.5t161.5 -56.5q101 0 164 56.5t63 148.5t-62.5 146.5t-164.5 54.5q-99 0 -161.5 -55t-62.5 -146z" />
    <glyph glyph-name="nine" unicode="9" horiz-adv-x="1155" 
d="M676 1376q212 0 345.5 -127.5t133.5 -330.5q0 -41 -4 -70.5t-17.5 -75t-46 -101.5t-83.5 -126l-402 -545h-217l360 479l-4 8q-62 -16 -131 -16q-173 0 -293 132t-120 315q0 203 133.5 330.5t345.5 127.5zM393 918q0 -125 79.5 -204t203.5 -79q126 0 206.5 78.5
t80.5 204.5t-80.5 206t-206.5 80q-123 0 -203 -80t-80 -206z" />
    <glyph glyph-name="colon" unicode=":" horiz-adv-x="581" 
d="M455 324l209 -209l-209 -209l-209 209zM246 885l209 209l209 -209l-209 -209z" />
    <glyph glyph-name="semicolon" unicode=";" horiz-adv-x="610" 
d="M205 -336l57 586h238l-123 -586h-172zM254 885l209 209l209 -209l-209 -209z" />
    <glyph glyph-name="less" unicode="&#x3c;" horiz-adv-x="1146" 
d="M1139 111l-885 389v176l885 389v-205l-561 -229l-119 -37v-16l119 -37l561 -230v-200z" />
    <glyph glyph-name="equal" unicode="=" horiz-adv-x="1200" 
d="M254 295v176h946v-176h-946zM254 709v176h946v-176h-946z" />
    <glyph glyph-name="greater" unicode="&#x3e;" horiz-adv-x="1146" 
d="M270 111v200l561 230l119 37v16l-119 37l-561 229v205l885 -389v-176z" />
    <glyph glyph-name="question" unicode="?" horiz-adv-x="1062" 
d="M516 518q0 77 39.5 158t118.5 149l86 76q100 87 100 199q0 81 -62 135.5t-171 54.5q-95 0 -155.5 -58.5t-70.5 -141.5v-109h-196v170q30 137 140.5 230.5t285.5 93.5q200 0 316 -108t116 -269q0 -166 -148 -293l-98 -84q-100 -86 -100 -225v-56h-201v78zM408 115l208 209
l209 -209l-209 -209z" />
    <glyph glyph-name="at" unicode="@" horiz-adv-x="1867" 
d="M1061 -225q-236 0 -422.5 104.5t-289.5 291t-103 423.5q0 173 64.5 324t176.5 259t270.5 170t340.5 62q220 0 394 -86.5t271 -242t97 -351.5q0 -221 -118 -362.5t-300 -141.5q-189 0 -234 140h-16q-52 -67 -118.5 -103.5t-131.5 -36.5q-132 0 -203 85t-71 239
q0 109 35.5 202t92 152t124.5 92t137 33q144 0 209 -123h12l20 94h144l-90 -454q-17 -85 7.5 -130.5t110.5 -45.5q107 0 174.5 94t67.5 242q0 246 -169 403.5t-433 157.5q-155 0 -287.5 -50.5t-226 -140t-146.5 -216t-53 -273.5q0 -195 82.5 -347t233 -236.5t344.5 -84.5
q168 0 323 74l62 -123q-183 -94 -381 -94zM823 565q0 -90 44 -143t120 -53q91 0 168.5 91.5t77.5 223.5q0 201 -168 201q-101 0 -171.5 -94t-70.5 -226z" />
    <glyph glyph-name="A" unicode="A" horiz-adv-x="1757" 
d="M147 0v172h218l444 1098h-201v172h436l498 -1270h215v-172h-596v172h168l-102 266h-553l-105 -266h174v-172h-596zM748 623h407l-168 434l-24 114h-17l-24 -114z" />
    <glyph glyph-name="B" unicode="B" horiz-adv-x="1511" 
d="M197 0v172h200v1098h-200v172h811q190 0 312 -110.5t122 -282.5q0 -202 -201 -287v-17q114 -37 184 -129t70 -206q0 -181 -128 -295.5t-331 -114.5h-839zM598 184h446q110 0 178 64t68 166q0 98 -68.5 169.5t-185.5 71.5h-438v-471zM598 836h406q112 0 174.5 57t62.5 151
q0 96 -62.5 154.5t-166.5 58.5h-414v-421z" />
    <glyph glyph-name="C" unicode="C" horiz-adv-x="1548" 
d="M934 -33q-218 0 -386 97t-259.5 268.5t-91.5 388.5t90 388.5t256 268.5t381 97q265 0 434 -152l6 152h164v-398h-180q-89 109 -191.5 161t-232.5 52q-237 0 -380 -157.5t-143 -411.5q0 -256 145.5 -412.5t387.5 -156.5q285 0 438 204l144 -118q-97 -128 -246.5 -199.5
t-335.5 -71.5z" />
    <glyph glyph-name="D" unicode="D" horiz-adv-x="1626" 
d="M197 0v172h200v1098h-200v172h671q165 0 306 -53.5t240.5 -148.5t155.5 -229t56 -290t-56 -290t-155.5 -229t-240.5 -148.5t-306 -53.5h-671zM598 184h270q245 0 399 148t154 389t-154 388.5t-399 147.5h-270v-1073z" />
    <glyph glyph-name="E" unicode="E" horiz-adv-x="1454" 
d="M197 0v172h200v1098h-200v172h1200v-365h-201v180h-598v-421h504v-181h-504v-471h614v181h201v-365h-1216z" />
    <glyph glyph-name="F" unicode="F" horiz-adv-x="1421" 
d="M197 0v172h200v1098h-200v172h1200v-365h-201v180h-598v-438h487v-180h-487v-467h201v-172h-602z" />
    <glyph glyph-name="G" unicode="G" horiz-adv-x="1599" 
d="M1362 0v156l-16 4q-40 -76 -175 -134.5t-270 -58.5q-202 0 -363 96.5t-251 269t-90 388.5q0 217 91.5 388.5t259.5 268.5t386 97q127 0 240.5 -41.5t197.5 -116.5l6 158h164v-398h-178q-176 213 -430 213q-241 0 -387 -157.5t-146 -411.5q0 -256 145.5 -412.5
t387.5 -156.5q97 0 190 36.5t157.5 109t64.5 161.5v139h-447v172h647v-770h-184z" />
    <glyph glyph-name="H" unicode="H" horiz-adv-x="1744" 
d="M197 0v172h200v1098h-200v172h602v-172h-201v-430h745v430h-200v172h602v-172h-201v-1098h201v-172h-602v172h200v483h-745v-483h201v-172h-602z" />
    <glyph glyph-name="I" unicode="I" horiz-adv-x="798" 
d="M197 0v172h200v1098h-200v172h602v-172h-201v-1098h201v-172h-602z" />
    <glyph glyph-name="J" unicode="J" horiz-adv-x="1257" 
d="M512 -33q-124 0 -226 48.5t-171 136.5l143 137q98 -137 258 -137q142 0 228.5 99.5t86.5 264.5v754h-200v172h602v-172h-201v-754q0 -243 -145 -396t-375 -153z" />
    <glyph glyph-name="K" unicode="K" horiz-adv-x="1611" 
d="M197 0v172h200v1098h-200v172h602v-172h-201v-430h301l252 430v172h434v-172h-219l-303 -512l360 -586h189v-172h-426v172l-293 483h-295v-483h201v-172h-602z" />
    <glyph glyph-name="L" unicode="L" horiz-adv-x="1392" 
d="M197 0v172h200v1098h-200v172h602v-172h-201v-1086h582v277h200v-461h-1183z" />
    <glyph glyph-name="M" unicode="M" horiz-adv-x="2080" 
d="M197 0v172h200v1098h-200v172h491l418 -901l29 -115h16l33 115l422 901h475v-172h-201v-1098h201v-172h-602v172h200v877l17 118h-17l-450 -979h-180l-455 1000l-12 -4l16 -119v-893h201v-172h-602z" />
    <glyph glyph-name="N" unicode="N" horiz-adv-x="1798" 
d="M197 0v172h200v1098h-200v172h462l750 -1172l12 4l-12 119v877h-201v172h602v-172h-200v-1270h-262l-750 1171l-12 -4l12 -118v-877h201v-172h-602z" />
    <glyph glyph-name="O" unicode="O" horiz-adv-x="1671" 
d="M934 -33q-218 0 -386 97t-259.5 268.5t-91.5 388.5t91.5 388.5t259.5 268.5t386 97t386 -97t259.5 -268.5t91.5 -388.5t-91.5 -388.5t-259.5 -268.5t-386 -97zM401 721q0 -256 145.5 -412.5t387.5 -156.5q241 0 386.5 157.5t145.5 411.5t-145.5 411.5t-386.5 157.5
t-387 -157.5t-146 -411.5z" />
    <glyph glyph-name="P" unicode="P" horiz-adv-x="1474" 
d="M197 0v172h200v1098h-200v172h819q107 0 195.5 -36.5t145 -97t87.5 -136t31 -156.5q0 -84 -31 -162.5t-87.5 -141.5t-145 -101t-195.5 -38h-418v-401h201v-172h-602zM598 758h418q119 0 186.5 75.5t67.5 178.5q0 102 -67 173.5t-187 71.5h-418v-499z" />
    <glyph glyph-name="Q" unicode="Q" horiz-adv-x="1671" 
d="M1028 553h197v-324q115 72 178 200.5t63 291.5q0 254 -145.5 411.5t-386.5 157.5t-387 -157.5t-146 -411.5q0 -256 145.5 -412.5t387.5 -156.5q48 0 94 6v395zM197 721q0 217 91.5 388.5t259.5 268.5t386 97t386 -97t259.5 -268.5t91.5 -388.5q0 -250 -119 -436.5
t-327 -266.5v-225h-197v178q-62 -4 -94 -4q-218 0 -386 97t-259.5 268.5t-91.5 388.5z" />
    <glyph glyph-name="R" unicode="R" horiz-adv-x="1533" 
d="M197 0v172h200v1098h-200v172h819q107 0 195.5 -36.5t145 -97t87.5 -136t31 -156.5q0 -165 -110.5 -291t-311.5 -147l-9 -13l78 -82l195 -311h192v-172h-422v168l-251 405h-238v-401h201v-172h-602zM598 745h373q77 0 136 23.5t93.5 62.5t52 85t17.5 96q0 102 -67 173.5
t-187 71.5h-418v-512z" />
    <glyph glyph-name="S" unicode="S" horiz-adv-x="1335" 
d="M799 -33q-337 0 -594 238v297h201v-205q76 -72 183 -108.5t226 -36.5q147 0 223 56.5t76 164.5q0 89 -54.5 144t-174.5 89l-221 62q-206 57 -308 157.5t-102 247.5q0 183 144 292.5t376 109.5q143 0 276 -43.5t236 -120.5v-285h-201v176q-69 39 -161.5 63.5t-178.5 24.5
q-130 0 -206 -52t-76 -144q0 -83 65 -136t193 -90l197 -57q405 -120 405 -418q0 -190 -145 -308t-379 -118z" />
    <glyph glyph-name="T" unicode="T" horiz-adv-x="1564" 
d="M602 0v172h201v1085h-357v-276h-200v461h1319v-461h-201v276h-360v-1085h200v-172h-602z" />
    <glyph glyph-name="U" unicode="U" horiz-adv-x="1720" 
d="M942 -33q-161 0 -290.5 69t-204 195t-74.5 285v754h-201v172h602v-172h-201v-754q0 -163 106.5 -263.5t266.5 -100.5q162 0 267.5 100.5t105.5 263.5v754h-201v172h602v-172h-200v-754q0 -241 -163.5 -395t-414.5 -154z" />
    <glyph glyph-name="V" unicode="V" horiz-adv-x="1757" 
d="M1757 1442v-172h-217l-508 -1270h-172l-498 1270h-215v172h428v-172l343 -885l24 -115h16l25 115l352 885h-174v172h596z" />
    <glyph glyph-name="W" unicode="W" horiz-adv-x="2338" 
d="M692 -8l-342 1278h-203v172h408v-172l236 -869l24 -118h16l21 118l223 869h-157v172h450l270 -1045l21 -114h16l21 114l235 873h-194v172h602v-172h-205l-336 -1278h-254l-270 1036l-21 131h-20l-16 -131l-263 -1036h-262z" />
    <glyph glyph-name="X" unicode="X" horiz-adv-x="1583" 
d="M197 0v172h200l377 559l-360 539h-203v172h442v-172l240 -361l246 363v170h426v-172h-207l-352 -529l376 -569h201v-172h-436v172l-262 391l-260 -391v-172h-428z" />
    <glyph glyph-name="Y" unicode="Y" horiz-adv-x="1619" 
d="M580 0v172h200v360l-438 738h-195v172h416v-172l311 -522h17l313 522h-160v172h576v-172h-207l-432 -721v-377h201v-172h-602z" />
    <glyph glyph-name="Z" unicode="Z" horiz-adv-x="1363" 
d="M279 0v135l757 1036l74 74l-4 12h-627v-276h-200v461h1085v-135l-762 -1041l-61 -69l4 -13h618v277h201v-461h-1085z" />
    <glyph glyph-name="bracketleft" unicode="[" horiz-adv-x="667" 
d="M246 -303v1745h422v-168h-246v-1409h246v-168h-422z" />
    <glyph glyph-name="backslash" unicode="\" horiz-adv-x="1019" 
d="M819 0l-696 1442h196l701 -1442h-201z" />
    <glyph glyph-name="bracketright" unicode="]" horiz-adv-x="667" 
d="M246 -303v168h246v1409h-246v168h422v-1745h-422z" />
    <glyph glyph-name="asciicircum" unicode="^" horiz-adv-x="991" 
d="M74 782l393 676h135l389 -676h-205l-200 353l-45 102h-17l-45 -102l-205 -353h-200z" />
    <glyph glyph-name="underscore" unicode="_" horiz-adv-x="1052" 
d="M0 -168v168h1053v-168h-1053z" />
    <glyph glyph-name="grave" unicode="`" horiz-adv-x="458" 
d="M311 1135l-172 307h221l132 -307h-181z" />
    <glyph glyph-name="a" unicode="a" horiz-adv-x="1355" 
d="M668 -33q-214 0 -359 151t-145 382t145 381.5t359 150.5q104 0 190.5 -41.5t145.5 -118.5h12v127h340v-172h-160v-655h160v-172h-340v127h-12q-124 -160 -336 -160zM360 500q0 -160 91.5 -260.5t236.5 -100.5t236.5 100.5t91.5 260.5t-91.5 260t-236.5 100t-236.5 -100
t-91.5 -260z" />
    <glyph glyph-name="b" unicode="b" horiz-adv-x="1355" 
d="M324 -4v1339h-160v172h356v-508l-16 -127h12q59 77 145.5 118.5t190.5 41.5q214 0 359 -150.5t145 -381.5t-145 -382t-359 -151q-104 0 -190.5 41.5t-145.5 118.5h-12v-127zM504 500q0 -160 91 -260.5t236 -100.5t236.5 100.5t91.5 260.5t-91.5 260t-236.5 100t-236 -100
t-91 -260z" />
    <glyph glyph-name="c" unicode="c" horiz-adv-x="1122" 
d="M688 -33q-230 0 -377 150t-147 383t147 382.5t377 149.5q132 0 239 -50.5t179 -141.5v-252h-197v186q-90 78 -221 78q-145 0 -236.5 -98t-91.5 -254q0 -157 91.5 -255t236.5 -98q178 0 287 132l135 -111q-71 -96 -179.5 -148.5t-242.5 -52.5z" />
    <glyph glyph-name="d" unicode="d" horiz-adv-x="1347" 
d="M668 -33q-214 0 -359 151t-145 382t145 381.5t359 150.5q207 0 336 -160h12l-17 127v336h-159v172h356v-1335h160v-172h-340v127h-12q-129 -160 -336 -160zM360 500q0 -160 91.5 -260.5t236.5 -100.5t236.5 100.5t91.5 260.5t-91.5 260t-236.5 100t-236.5 -100
t-91.5 -260z" />
    <glyph glyph-name="e" unicode="e" horiz-adv-x="1183" 
d="M717 -33q-133 0 -241 47t-174.5 125t-102 175t-35.5 202q0 78 20.5 152.5t63.5 140.5t104 115.5t146.5 78.5t185.5 29q94 0 180 -32.5t155.5 -93.5t110.5 -160t41 -222q0 -53 -4 -90h-807q16 -122 112 -208.5t245 -86.5q78 0 161 27t146 76l102 -131q-176 -144 -409 -144
zM365 598h608q-6 124 -94.5 193t-202.5 69q-124 0 -209 -71.5t-102 -190.5z" />
    <glyph glyph-name="f" unicode="f" horiz-adv-x="942" 
d="M184 0v172h160v655h-180v172h180v168q0 112 57.5 199t146.5 130.5t189 43.5q170 0 267 -94l-99 -133q-66 55 -155 55q-87 0 -148 -54.5t-61 -146.5v-168h377v-172h-377v-655h159v-172h-516z" />
    <glyph glyph-name="g" unicode="g" horiz-adv-x="1355" 
d="M688 -492q-142 0 -263.5 57.5t-191.5 172.5v201h197v-142q87 -108 262 -108q64 0 120 18.5t103 57.5t74 107.5t27 160.5v98h-17q-122 -147 -311 -147q-217 0 -362.5 148t-145.5 376q0 155 67 279t183 193t258 69q203 0 328 -164h16v114h340v-172h-160v-794
q0 -107 -30 -196t-80 -149t-118 -101t-142.5 -60t-153.5 -19zM377 508q0 -156 91.5 -254t236.5 -98t236 97.5t91 254.5q0 163 -91 266t-236 103t-236.5 -103t-91.5 -266z" />
    <glyph glyph-name="h" unicode="h" horiz-adv-x="1392" 
d="M164 0v172h160v1163h-160v172h356v-516l-16 -135h12q60 84 151 130t189 46q59 0 114 -16t104.5 -50t86.5 -83t58.5 -119t21.5 -154v-438h160v-172h-357v610q0 119 -64.5 180.5t-160.5 61.5q-55 0 -107.5 -19.5t-95.5 -57t-69.5 -98.5t-26.5 -136v-369h160v-172h-516z" />
    <glyph glyph-name="i" unicode="i" horiz-adv-x="671" 
d="M164 0v172h160v655h-160v172h356v-827h160v-172h-516zM233 1368l189 186l186 -186l-186 -188z" />
    <glyph glyph-name="j" unicode="j" horiz-adv-x="571" 
d="M156 827h-160v172h356v-1325q0 -57 -38 -95t-95 -38h-399v172h336v1114zM66 1368l188 186l186 -186l-186 -188z" />
    <glyph glyph-name="k" unicode="k" horiz-adv-x="1275" 
d="M164 0v172h160v1163h-160v172h356v-901h135l187 221v172h383v-172h-168l-246 -282l305 -373h160v-172h-406v172l-211 262h-139v-434h-356z" />
    <glyph glyph-name="l" unicode="l" horiz-adv-x="671" 
d="M164 0v172h160v1163h-160v172h356v-1335h160v-172h-516z" />
    <glyph glyph-name="m" unicode="m" horiz-adv-x="2080" 
d="M164 0v172h160v655h-160v172h340v-143h16q58 85 144.5 130.5t183.5 45.5q106 0 197 -55t139 -158q56 102 152.5 157.5t224.5 55.5q71 0 135.5 -26t117 -76.5t84 -133t31.5 -186.5v-438h160v-172h-356v610q0 119 -62 180.5t-155 61.5q-54 0 -104.5 -19.5t-93 -57
t-68 -98.5t-25.5 -136v-369h159v-172h-356v610q0 120 -62.5 181t-158.5 61q-114 0 -200.5 -82t-86.5 -229v-369h160v-172h-516z" />
    <glyph glyph-name="n" unicode="n" horiz-adv-x="1392" 
d="M164 0v172h160v655h-160v172h340v-143h16q57 84 147.5 130t188.5 46q59 0 114 -16t104.5 -50t86.5 -83t58.5 -119t21.5 -154v-438h160v-172h-357v610q0 119 -64.5 180.5t-160.5 61.5q-55 0 -107.5 -19.5t-95.5 -57t-69.5 -98.5t-26.5 -136v-369h160v-172h-516z" />
    <glyph glyph-name="o" unicode="o" horiz-adv-x="1212" 
d="M688 -33q-230 0 -377 150t-147 383t147 382.5t377 149.5t377 -149.5t147 -382.5t-147 -383t-377 -150zM360 500q0 -160 91.5 -260.5t236.5 -100.5t236.5 100.5t91.5 260.5t-91.5 260t-236.5 100t-236.5 -100t-91.5 -260z" />
    <glyph glyph-name="p" unicode="p" horiz-adv-x="1355" 
d="M164 -459v172h160v1114h-160v172h340v-127h12q129 160 336 160q214 0 359 -150.5t145 -381.5t-145 -382t-359 -151q-207 0 -336 160h-12l16 -127v-287h160v-172h-516zM504 500q0 -160 91 -260.5t236 -100.5t236.5 100.5t91.5 260.5t-91.5 260t-236.5 100t-236 -100
t-91 -260z" />
    <glyph glyph-name="q" unicode="q" horiz-adv-x="1355" 
d="M840 -459v172h159v287l17 127h-12q-129 -160 -336 -160q-214 0 -359 151t-145 382t145 381.5t359 150.5q207 0 336 -160h12v127h340v-172h-160v-1114h160v-172h-516zM360 500q0 -160 91.5 -260.5t236.5 -100.5t236.5 100.5t91.5 260.5t-91.5 260t-236.5 100t-236.5 -100
t-91.5 -260z" />
    <glyph glyph-name="r" unicode="r" horiz-adv-x="946" 
d="M164 0v172h160v655h-160v172h340v-180h16q106 180 309 180h117v-200h-127q-121 0 -210 -67t-89 -179v-381h160v-172h-516z" />
    <glyph glyph-name="s" unicode="s" horiz-adv-x="1019" 
d="M618 -33q-124 0 -236.5 48t-193.5 132v211h197v-135q105 -84 246 -84q91 0 141.5 33.5t50.5 93.5q0 90 -147 127l-164 41q-148 36 -221.5 112t-73.5 183q0 139 116.5 221t284.5 82q115 0 218 -37.5t163 -97.5v-211h-196v127q-79 47 -185 47q-97 0 -150.5 -29t-53.5 -81
q0 -92 159 -132l152 -36q295 -71 295 -299q0 -97 -55.5 -170t-146 -109.5t-200.5 -36.5z" />
    <glyph glyph-name="t" unicode="t" horiz-adv-x="888" 
d="M457 0q-57 0 -95 38t-38 95v694h-201v172h201v287h196v-287h336v-172h-336v-655h336v-172h-399z" />
    <glyph glyph-name="u" unicode="u" horiz-adv-x="1382" 
d="M764 -33q-205 0 -332 123t-127 320v417h-158v172h355v-606q0 -100 78.5 -173t183.5 -73t183.5 73t78.5 173v434h-158v172h514v-172h-159v-417q0 -197 -127 -320t-332 -123z" />
    <glyph glyph-name="v" unicode="v" horiz-adv-x="1339" 
d="M621 0l-340 827h-158v172h371v-170l198 -497l37 -119h16l37 119l201 495h-149v172h505v-172h-159l-336 -827h-223z" />
    <glyph glyph-name="w" unicode="w" horiz-adv-x="1970" 
d="M565 -16l-282 843h-160v172h366v-172l150 -462l29 -119h16l33 119l162 462h-156v172h448l218 -634l32 -119h17l28 119l152 462h-158v172h510v-172h-160l-282 -843h-205l-238 675l-28 115h-17l-28 -115l-238 -675h-209z" />
    <glyph glyph-name="x" unicode="x" horiz-adv-x="1169" 
d="M829 0v131l-165 227l-160 -215v-143h-340v172h147l246 332l-238 323h-145v172h340v-131l156 -213l149 201v143h340v-172h-147l-236 -317l248 -338h145v-172h-340z" />
    <glyph glyph-name="y" unicode="y" horiz-adv-x="1312" 
d="M369 -459v172h147l115 287l-357 827h-151v172h291l319 -743l230 571h-146v172h496v-172h-158l-442 -1114h125v-172h-469z" />
    <glyph glyph-name="z" unicode="z" horiz-adv-x="1097" 
d="M213 0v152l530 569l93 86l-5 12h-413v-170h-197v350h864v-151l-518 -563l-96 -92l4 -13h426v170h197v-350h-885z" />
    <glyph glyph-name="braceleft" unicode="{" horiz-adv-x="716" 
d="M610 -303q-155 0 -245.5 84t-90.5 231v295q0 176 -151 176v168q77 0 114 44t37 136v299q0 144 91 228t245 84h45v-168h-28q-90 0 -131 -48t-41 -145v-295q0 -162 -140 -213v-16q140 -45 140 -201v-295q0 -100 40.5 -148t131.5 -48h28v-168h-45z" />
    <glyph glyph-name="bar" unicode="|" horiz-adv-x="430" 
d="M246 -303v1913h184v-1913h-184z" />
    <glyph glyph-name="braceright" unicode="}" horiz-adv-x="716" 
d="M246 -303v168h28q91 0 131.5 48t40.5 148v295q0 156 140 201v16q-140 51 -140 213v295q0 97 -41 145t-131 48h-28v168h45q154 0 245 -84t91 -228v-299q0 -92 37 -136t114 -44v-168q-151 0 -151 -176v-295q0 -147 -90.5 -231t-245.5 -84h-45z" />
    <glyph glyph-name="asciitilde" unicode="~" horiz-adv-x="1286" 
d="M979 434q-98 0 -205 62l-90 53q-56 33 -131 33q-107 0 -180 -99l-119 111q53 77 134.5 124.5t160.5 47.5q114 0 213 -57l94 -54q45 -25 72 -31t71 -6q43 0 90.5 26.5t77.5 68.5l119 -111q-50 -74 -135.5 -121t-171.5 -47z" />
    <glyph glyph-name="nbspace" unicode="&#xa0;" horiz-adv-x="507" 
 />
    <glyph glyph-name="exclamdown" unicode="&#xa1;" horiz-adv-x="622" 
d="M336 541h156l20 -557v-443h-197v443zM205 868l209 209l209 -209l-209 -209z" />
    <glyph glyph-name="cent" unicode="&#xa2;" horiz-adv-x="1146" 
d="M631 139q-192 31 -309 174t-117 351t117 350.5t309 173.5v155h151v-151q233 -18 365 -188l-139 -123q-87 113 -226 131v-697q144 12 234 127l135 -110q-62 -86 -157 -137t-212 -60v-135h-151v139zM401 664q0 -128 62.5 -218.5t167.5 -121.5v680q-105 -31 -167.5 -121.5
t-62.5 -218.5z" />
    <glyph glyph-name="sterling" unicode="&#xa3;" horiz-adv-x="1052" 
d="M156 164q99 43 143.5 96t44.5 129q0 20 -8 86h-180v143h118l-45 87q-73 146 -73 262q0 95 37 174t97.5 129.5t135 78t152.5 27.5q134 0 234.5 -68t141.5 -206l-168 -70q-26 82 -87.5 123t-137.5 41q-83 0 -144 -54.5t-61 -150.5q0 -106 66 -250l57 -123h295v-143h-246
q4 -25 4 -74q0 -149 -122 -213l4 -12h356q114 0 164 119l151 -74q-94 -221 -311 -221h-618v164z" />
    <glyph glyph-name="currency" unicode="&#xa4;" horiz-adv-x="1335" 
d="M422 -33l-152 152l131 131q-69 113 -69 250q0 143 69 250l-131 131l152 151l131 -127q109 70 246 70q128 0 250 -74l131 131l155 -151l-139 -136q70 -109 70 -245q0 -137 -70 -246l135 -131l-151 -152l-131 127q-120 -73 -250 -73q-142 0 -246 73zM512 500
q0 -138 80.5 -225t206.5 -87t206 87t80 225t-80 224.5t-206 86.5t-206.5 -86.5t-80.5 -224.5z" />
    <glyph glyph-name="yen" unicode="&#xa5;" horiz-adv-x="1212" 
d="M537 0v299h-291v143h291v66l-52 90h-329v143h250l-340 602h217l352 -634h16l353 634h208l-348 -602h258v-143h-340l-45 -78v-78h299v-143h-299v-299h-200z" />
    <glyph glyph-name="brokenbar" unicode="&#xa6;" horiz-adv-x="503" 
d="M319 -303v819h185v-819h-185zM319 791v819h185v-819h-185z" />
    <glyph glyph-name="section" unicode="&#xa7;" horiz-adv-x="1167" 
d="M725 -492q-118 0 -230 59t-188 163l111 147q75 -99 150 -141.5t169 -42.5q96 0 146.5 52t50.5 128q0 68 -40 133t-112 88l-164 53q-159 53 -241 157.5t-82 227.5q0 85 41.5 152.5t122.5 106.5v16q-66 60 -100.5 136.5t-34.5 154.5q0 71 27.5 138t77 120.5t127 86
t169.5 32.5q107 0 212 -45t173 -119l-106 -156q-122 135 -283 135q-96 0 -148.5 -52t-52.5 -128q0 -63 40 -119t112 -86l159 -61q173 -64 254.5 -157t81.5 -220q0 -149 -168 -258v-16q131 -114 131 -291q0 -76 -27.5 -146.5t-77.5 -126t-128 -88.5t-172 -33zM483 541
q0 -63 49 -120t148 -89l168 -53q63 18 93 67t30 113q0 127 -189 196l-159 58q-68 -18 -104 -65.5t-36 -106.5z" />
    <glyph glyph-name="dieresis" unicode="&#xa8;" horiz-adv-x="901" 
d="M305 1124l-186 187l186 186l187 -186zM528 1311l187 186l186 -186l-186 -187z" />
    <glyph glyph-name="copyright" unicode="&#xa9;" horiz-adv-x="1662" 
d="M913 119q164 0 297 78t209 216t76 308q0 171 -76 310t-209 217.5t-297 78.5t-297 -78.5t-208.5 -217t-75.5 -310.5q0 -127 44.5 -239t121.5 -191.5t184.5 -125.5t230.5 -46zM172 721q0 159 57 299t155 239.5t235.5 157.5t293.5 58q127 0 242.5 -37t207.5 -105
t159.5 -160.5t104 -208.5t36.5 -243t-36.5 -243t-104 -208.5t-159.5 -160.5t-207.5 -105t-242.5 -37q-156 0 -293.5 58t-235.5 157.5t-155 239.5t-57 299zM512 725q0 188 117 307t301 119q218 0 336 -156l-111 -98q-84 111 -225 111q-115 0 -188.5 -79t-73.5 -204t73.5 -204
t188.5 -79q76 0 131.5 25.5t101.5 81.5l107 -90q-56 -77 -143.5 -118.5t-196.5 -41.5q-184 0 -301 119t-117 307z" />
    <glyph glyph-name="ordfeminine" unicode="&#xaa;" horiz-adv-x="1054" 
d="M520 688q-159 0 -266 112t-107 285q0 170 107 280t266 110q157 0 238 -119h8v102h289v-166h-125v-422h125v-165h-289v102h-8q-81 -119 -238 -119zM324 1081q0 -108 62 -174.5t163 -66.5q99 0 154 67t55 174q0 115 -54 178.5t-155 63.5q-102 0 -163.5 -64.5t-61.5 -177.5z
" />
    <glyph glyph-name="guillemotleft" unicode="&#xab;" horiz-adv-x="1118" 
d="M877 201l-279 397l279 401h221l-275 -401l271 -397h-217zM164 598l278 401h217l-274 -401l274 -397h-217z" />
    <glyph glyph-name="logicalnot" unicode="&#xac;" horiz-adv-x="1167" 
d="M942 295v414h-762v176h946v-590h-184z" />
    <glyph glyph-name="softhyphen" unicode="&#xad;" horiz-adv-x="860" 
d="M246 504v176h655v-176h-655z" />
    <glyph glyph-name="registered" unicode="&#xae;" horiz-adv-x="1662" 
d="M913 -33q-156 0 -293.5 58t-235.5 157.5t-155 239.5t-57 299t57 299t155 239.5t235.5 157.5t293.5 58q127 0 242.5 -37t207.5 -105t159.5 -160.5t104 -208.5t36.5 -243t-36.5 -243t-104 -208.5t-159.5 -160.5t-207.5 -105t-242.5 -37zM332 721q0 -127 44.5 -239
t121.5 -191.5t184.5 -125.5t230.5 -46q164 0 297 78t209 216t76 308q0 171 -76 310t-209 217.5t-297 78.5t-297 -78.5t-208.5 -217t-75.5 -310.5zM594 332v786h405q128 0 197.5 -70.5t69.5 -170.5q0 -92 -61 -163.5t-169 -82.5l-8 -8l45 -45l193 -246h-185l-225 295h-106
v-295h-156zM750 754h258q49 0 75.5 35.5t26.5 82.5q0 44 -26.5 77.5t-75.5 33.5h-258v-229z" />
    <glyph glyph-name="macron" unicode="&#xaf;" horiz-adv-x="704" 
d="M147 1180v168h558v-168h-558z" />
    <glyph glyph-name="degree" unicode="&#xb0;" horiz-adv-x="811" 
d="M483 729q-133 0 -230 95t-97 229t97 228.5t230 94.5t230.5 -94.5t97.5 -228.5t-97.5 -229t-230.5 -95zM332 1053q0 -67 43 -109.5t108 -42.5t108.5 42.5t43.5 109.5t-43.5 109t-108.5 42t-108 -42t-43 -109z" />
    <glyph glyph-name="plusminus" unicode="&#xb1;" horiz-adv-x="1167" 
d="M254 127v172h913v-172h-913zM254 631v176h369v250h176v-250h368v-176h-368v-246h-176v246h-369z" />
    <glyph glyph-name="twosuperior" unicode="&#xb2;" horiz-adv-x="647" 
d="M141 770v176l258 230q40 36 59 67.5t19 71.5q0 37 -26 59.5t-74 22.5t-82.5 -33t-30.5 -90l-149 8q-1 121 79 188.5t191 67.5q105 0 179.5 -55t74.5 -154q0 -77 -31.5 -134t-101.5 -120l-117 -104l-67 -49l6 -13l65 4h244v-143h-496z" />
    <glyph glyph-name="threesuperior" unicode="&#xb3;" horiz-adv-x="679" 
d="M393 754q-114 0 -193.5 63.5t-97.5 151.5l152 39q13 -55 53 -85t88 -30q46 0 78.5 27t32.5 75q0 42 -30 72.5t-79 30.5h-104v135h96q42 0 69 26.5t27 59.5q0 41 -29 63.5t-71 22.5q-41 0 -74 -21.5t-45 -60.5l-133 45q25 85 96 128.5t162 43.5q67 0 124.5 -22.5
t95.5 -71.5t38 -115q0 -54 -26 -95t-78 -52v-13q125 -50 125 -176q0 -77 -41 -133.5t-102.5 -82t-133.5 -25.5z" />
    <glyph glyph-name="acute" unicode="&#xb4;" horiz-adv-x="458" 
d="M74 1135l131 307h221l-172 -307h-180z" />
    <glyph glyph-name="mu" unicode="&#xb5;" horiz-adv-x="1163" 
d="M238 -459v1458h196v-610q0 -119 64.5 -180.5t160.5 -61.5q55 0 107.5 20t95.5 57t69.5 98.5t26.5 136.5v540h197v-999h-180v143h-12q-54 -84 -138.5 -130t-173.5 -46q-127 0 -217 78h-16l16 -135v-369h-196z" />
    <glyph glyph-name="paragraph" unicode="&#xb6;" horiz-adv-x="1347" 
d="M721 -459v1041h-90q-125 0 -229 52t-167 151.5t-63 226.5q0 191 130 310.5t329 119.5h643v-1901h-184v1729h-185v-1729h-184z" />
    <glyph glyph-name="periodcentered" unicode="&#xb7;" horiz-adv-x="622" 
d="M455 803l209 -209l-209 -209l-209 209z" />
    <glyph glyph-name="cedilla" unicode="&#xb8;" horiz-adv-x="614" 
d="M373 -442q-72 0 -132.5 27t-93.5 67l78 90q70 -70 148 -70q39 0 66.5 19t27.5 51q0 29 -24 47t-66 18q-34 0 -58 -12l-69 82l102 156h144l-78 -115l4 -8q83 0 137.5 -47.5t54.5 -120.5q0 -77 -61.5 -130.5t-179.5 -53.5z" />
    <glyph glyph-name="onesuperior" unicode="&#xb9;" horiz-adv-x="466" 
d="M303 768v561l-180 -74v156l250 111h94v-754h-164z" />
    <glyph glyph-name="ordmasculine" unicode="&#xba;" horiz-adv-x="921" 
d="M537 688q-165 0 -277.5 113.5t-112.5 279.5t112.5 280t277.5 114q163 0 274 -114t111 -280t-111 -279.5t-274 -113.5zM324 1081q0 -113 57 -177t156 -64q96 0 152 64t56 177t-56 177.5t-152 64.5q-99 0 -156 -64.5t-57 -177.5z" />
    <glyph glyph-name="guillemotright" unicode="&#xbb;" horiz-adv-x="1122" 
d="M209 201l270 397l-274 401h221l279 -401l-279 -397h-217zM643 999h221l279 -401l-279 -397h-217l271 397z" />
    <glyph glyph-name="onequarter" unicode="&#xbc;" horiz-adv-x="1531" 
d="M326 0l966 1343h197l-971 -1343h-192zM242 1077v156l250 110h94v-753h-164v561zM952 147v123l324 484h168v-463h110v-144h-110v-147h-158v147h-334zM1124 291h174v176l2 70l-8 4z" />
    <glyph glyph-name="onehalf" unicode="&#xbd;" horiz-adv-x="1597" 
d="M309 0l967 1343h197l-971 -1343h-193zM242 1077v156l250 110h94v-753h-164v561zM1073 512q-1 121 79 188.5t191 67.5q105 0 179.5 -55t74.5 -154q0 -77 -31.5 -134t-101.5 -120l-116 -104l-68 -49l6 -13l66 4h243v-143h-495v176l258 230q40 36 59 67.5t19 71.5
q0 36 -26.5 59t-74.5 23t-82 -33t-30 -90z" />
    <glyph glyph-name="threequarters" unicode="&#xbe;" horiz-adv-x="1691" 
d="M397 0l967 1343h197l-971 -1343h-193zM160 791l151 38q13 -55 53.5 -84.5t88.5 -29.5q46 0 78 27t32 75q0 42 -29.5 72.5t-78.5 30.5h-105v135h96q42 0 69.5 26.5t27.5 59.5q0 41 -29.5 63.5t-71.5 22.5q-41 0 -73.5 -21.5t-44.5 -60.5l-134 45q25 85 96.5 128.5
t162.5 43.5q67 0 124.5 -22.5t95.5 -71.5t38 -115q0 -54 -26.5 -95t-78.5 -52v-13q125 -50 125 -176q0 -115 -81.5 -178.5t-194.5 -63.5q-114 0 -193.5 64t-97.5 152zM1069 147v123l324 484h168v-463h110v-144h-110v-147h-158v147h-334zM1241 291h174v176l2 70l-8 4z" />
    <glyph glyph-name="questiondown" unicode="&#xbf;" horiz-adv-x="1062" 
d="M752 483q0 -77 -39.5 -158t-118.5 -149l-86 -76q-100 -87 -100 -198q0 -81 62 -136t171 -55q95 0 155 59t70 142v108h197v-170q-30 -137 -140.5 -230t-285.5 -93q-200 0 -316 108t-116 269q0 167 147 293l99 84q100 86 100 225v55h201v-78zM442 887l209 209l209 -209
l-209 -209z" />
    <glyph glyph-name="Agrave" unicode="&#xc0;" horiz-adv-x="1757" 
d="M147 0v172h218l444 1098h-201v172h436l498 -1270h215v-172h-596v172h168l-102 266h-553l-105 -266h174v-172h-596zM631 1847h237l181 -274h-181zM748 623h407l-168 434l-24 114h-17l-24 -114z" />
    <glyph glyph-name="Aacute" unicode="&#xc1;" horiz-adv-x="1757" 
d="M147 0v172h218l444 1098h-201v172h436l498 -1270h215v-172h-596v172h168l-102 266h-553l-105 -266h174v-172h-596zM748 623h407l-168 434l-24 114h-17l-24 -114zM868 1573l181 274h237l-237 -274h-181z" />
    <glyph glyph-name="Acircumflex" unicode="&#xc2;" horiz-adv-x="1757" 
d="M147 0v172h218l444 1098h-201v172h436l498 -1270h215v-172h-596v172h168l-102 266h-553l-105 -266h174v-172h-596zM614 1569l222 274h262l221 -274h-189l-159 155h-8l-160 -155h-189zM748 623h407l-168 434l-24 114h-17l-24 -114z" />
    <glyph glyph-name="Atilde" unicode="&#xc3;" horiz-adv-x="1757" 
d="M147 0v172h218l444 1098h-201v172h436l498 -1270h215v-172h-596v172h168l-102 266h-553l-105 -266h174v-172h-596zM590 1589q0 108 70.5 169t166.5 61q68 0 148 -41q56 -28 78.5 -36.5t48.5 -8.5q80 0 86 69h155q0 -108 -70.5 -168.5t-166.5 -60.5q-68 0 -148 41
q-55 28 -78 36.5t-49 8.5q-36 0 -59.5 -17.5t-26.5 -52.5h-155zM748 623h407l-168 434l-24 114h-17l-24 -114z" />
    <glyph glyph-name="Adieresis" unicode="&#xc4;" horiz-adv-x="1757" 
d="M147 0v172h218l444 1098h-201v172h436l498 -1270h215v-172h-596v172h168l-102 266h-553l-105 -266h174v-172h-596zM535 1724l186 187l186 -187l-186 -186zM748 623h407l-168 434l-24 114h-17l-24 -114zM1010 1726l186 187l186 -187l-186 -186z" />
    <glyph glyph-name="Aring" unicode="&#xc5;" horiz-adv-x="1757" 
d="M147 0v172h218l444 1098h-201v172h256q-62 28 -100.5 85.5t-38.5 127.5q0 95 69 164t164 69t164.5 -69t69.5 -164q0 -71 -40.5 -129.5t-104.5 -85.5l495 -1268h215v-172h-596v172h168l-102 266h-553l-105 -266h174v-172h-596zM748 623h407l-168 434l-24 114h-17l-24 -114
zM864 1659q0 -43 28 -70.5t71 -27.5t70.5 27.5t27.5 70.5q0 40 -28 67t-70 27q-43 0 -71 -27t-28 -67z" />
    <glyph glyph-name="AE" unicode="&#xc6;" horiz-adv-x="2203" 
d="M147 0v172h203l531 1098h-201v172h1462v-365h-200v180h-533l41 -421h397v-181h-377l46 -471h442v181h201v-365h-832l-41 426h-598l-119 -254h174v-172h-596zM778 610h492l-66 647h-119z" />
    <glyph glyph-name="Ccedilla" unicode="&#xc7;" horiz-adv-x="1548" 
d="M909 -442q-72 0 -132 27t-93 67l78 90q70 -70 147 -70q39 0 67 19t28 51q0 28 -24.5 46.5t-66.5 18.5q-33 0 -57 -12l-70 82l62 94q-294 29 -472.5 235.5t-178.5 514.5q0 217 90 388.5t256 268.5t381 97q265 0 434 -152l6 152h164v-398h-180q-89 109 -191.5 161
t-232.5 52q-237 0 -380 -157.5t-143 -411.5q0 -256 145.5 -412.5t387.5 -156.5q285 0 438 204l144 -118q-89 -118 -224.5 -188.5t-302.5 -80.5l-35 -51l4 -8q88 -3 140.5 -48t52.5 -120q0 -77 -61.5 -130.5t-180.5 -53.5z" />
    <glyph glyph-name="Egrave" unicode="&#xc8;" horiz-adv-x="1454" 
d="M197 0v172h200v1098h-200v172h1200v-365h-201v180h-598v-421h504v-181h-504v-471h614v181h201v-365h-1216zM569 1847h238l180 -274h-180z" />
    <glyph glyph-name="Eacute" unicode="&#xc9;" horiz-adv-x="1454" 
d="M197 0v172h200v1098h-200v172h1200v-365h-201v180h-598v-421h504v-181h-504v-471h614v181h201v-365h-1216zM807 1573l180 274h238l-238 -274h-180z" />
    <glyph glyph-name="Ecircumflex" unicode="&#xca;" horiz-adv-x="1454" 
d="M197 0v172h200v1098h-200v172h1200v-365h-201v180h-598v-421h504v-181h-504v-471h614v181h201v-365h-1216zM553 1569l221 274h262l221 -274h-188l-160 155h-8l-160 -155h-188z" />
    <glyph glyph-name="Edieresis" unicode="&#xcb;" horiz-adv-x="1454" 
d="M197 0v172h200v1098h-200v172h1200v-365h-201v180h-598v-421h504v-181h-504v-471h614v181h201v-365h-1216zM473 1724l186 187l187 -187l-187 -186zM948 1726l187 187l186 -187l-186 -186z" />
    <glyph glyph-name="Igrave" unicode="&#xcc;" horiz-adv-x="798" 
d="M172 0v172h201v1098h-201v172h602v-172h-201v-1098h201v-172h-602zM147 1847h238l180 -274h-180z" />
    <glyph glyph-name="Iacute" unicode="&#xcd;" horiz-adv-x="798" 
d="M197 0v172h200v1098h-200v172h602v-172h-201v-1098h201v-172h-602zM410 1573l180 274h237l-237 -274h-180z" />
    <glyph glyph-name="Icircumflex" unicode="&#xce;" horiz-adv-x="798" 
d="M156 0v172h200v1098h-200v172h602v-172h-201v-1098h201v-172h-602zM115 1569l221 274h262l221 -274h-188l-160 155h-8l-160 -155h-188z" />
    <glyph glyph-name="Idieresis" unicode="&#xcf;" horiz-adv-x="798" 
d="M127 0v172h201v1098h-201v172h602v-172h-201v-1098h201v-172h-602zM57 1724l187 187l186 -187l-186 -186zM430 1724l186 187l187 -187l-187 -186z" />
    <glyph glyph-name="Eth" unicode="&#xd0;" horiz-adv-x="1626" 
d="M197 0v172h200v475h-188v176h188v447h-200v172h671q165 0 306 -53.5t240.5 -148.5t155.5 -229t56 -290t-56 -290t-155.5 -229t-240.5 -148.5t-306 -53.5h-671zM598 184h270q245 0 399 148t154 389t-154 388.5t-399 147.5h-270v-434h373v-176h-373v-463z" />
    <glyph glyph-name="Ntilde" unicode="&#xd1;" horiz-adv-x="1798" 
d="M197 0v172h200v1098h-200v172h462l750 -1172l12 4l-12 119v877h-201v172h602v-172h-200v-1270h-262l-750 1171l-12 -4l12 -118v-877h201v-172h-602zM635 1589q0 108 70.5 169t166.5 61q68 0 148 -41q56 -28 78.5 -36.5t48.5 -8.5q80 0 86 69h156q0 -108 -70.5 -168.5
t-167.5 -60.5q-67 0 -147 41q-56 28 -78.5 36.5t-48.5 8.5q-36 0 -59.5 -17.5t-26.5 -52.5h-156z" />
    <glyph glyph-name="Ograve" unicode="&#xd2;" horiz-adv-x="1671" 
d="M934 -33q-218 0 -386 97t-259.5 268.5t-91.5 388.5t91.5 388.5t259.5 268.5t386 97t386 -97t259.5 -268.5t91.5 -388.5t-91.5 -388.5t-259.5 -268.5t-386 -97zM401 721q0 -256 145.5 -412.5t387.5 -156.5q241 0 386.5 157.5t145.5 411.5t-145.5 411.5t-386.5 157.5
t-387 -157.5t-146 -411.5zM606 1847h238l180 -274h-180z" />
    <glyph glyph-name="Oacute" unicode="&#xd3;" horiz-adv-x="1671" 
d="M934 -33q-218 0 -386 97t-259.5 268.5t-91.5 388.5t91.5 388.5t259.5 268.5t386 97t386 -97t259.5 -268.5t91.5 -388.5t-91.5 -388.5t-259.5 -268.5t-386 -97zM401 721q0 -256 145.5 -412.5t387.5 -156.5q241 0 386.5 157.5t145.5 411.5t-145.5 411.5t-386.5 157.5
t-387 -157.5t-146 -411.5zM844 1573l180 274h238l-238 -274h-180z" />
    <glyph glyph-name="Ocircumflex" unicode="&#xd4;" horiz-adv-x="1671" 
d="M934 -33q-218 0 -386 97t-259.5 268.5t-91.5 388.5t91.5 388.5t259.5 268.5t386 97t386 -97t259.5 -268.5t91.5 -388.5t-91.5 -388.5t-259.5 -268.5t-386 -97zM401 721q0 -256 145.5 -412.5t387.5 -156.5q241 0 386.5 157.5t145.5 411.5t-145.5 411.5t-386.5 157.5
t-387 -157.5t-146 -411.5zM590 1569l221 274h262l221 -274h-188l-160 155h-8l-160 -155h-188z" />
    <glyph glyph-name="Otilde" unicode="&#xd5;" horiz-adv-x="1671" 
d="M934 -33q-218 0 -386 97t-259.5 268.5t-91.5 388.5t91.5 388.5t259.5 268.5t386 97t386 -97t259.5 -268.5t91.5 -388.5t-91.5 -388.5t-259.5 -268.5t-386 -97zM401 721q0 -256 145.5 -412.5t387.5 -156.5q241 0 386.5 157.5t145.5 411.5t-145.5 411.5t-386.5 157.5
t-387 -157.5t-146 -411.5zM565 1589q0 108 71 169t167 61q67 0 147 -41q56 -28 78.5 -36.5t48.5 -8.5q80 0 86 69h156q0 -108 -70.5 -168.5t-167.5 -60.5q-67 0 -147 41q-56 28 -78.5 36.5t-48.5 8.5q-36 0 -59.5 -17.5t-26.5 -52.5h-156z" />
    <glyph glyph-name="Odieresis" unicode="&#xd6;" horiz-adv-x="1671" 
d="M934 -33q-218 0 -386 97t-259.5 268.5t-91.5 388.5t91.5 388.5t259.5 268.5t386 97t386 -97t259.5 -268.5t91.5 -388.5t-91.5 -388.5t-259.5 -268.5t-386 -97zM401 721q0 -256 145.5 -412.5t387.5 -156.5q241 0 386.5 157.5t145.5 411.5t-145.5 411.5t-386.5 157.5
t-387 -157.5t-146 -411.5zM510 1724l186 187l187 -187l-187 -186zM985 1726l186 187l187 -187l-187 -186z" />
    <glyph glyph-name="multiply" unicode="&#xd7;" horiz-adv-x="1138" 
d="M393 193l-123 122l312 312l-312 311l123 123l312 -311l307 311l127 -123l-312 -311l308 -308l-123 -122l-307 307z" />
    <glyph glyph-name="Oslash" unicode="&#xd8;" horiz-adv-x="1671" 
d="M934 -33q-202 0 -365 86l-106 -151l-123 98l100 141q-117 102 -180 251t-63 329q0 217 91.5 388.5t259.5 268.5t386 97q212 0 385 -97l111 158l122 -94l-108 -156q108 -101 167.5 -246.5t59.5 -318.5q0 -217 -91.5 -388.5t-259.5 -268.5t-386 -97zM401 721
q0 -262 152 -420l653 922q-118 67 -272 67q-241 0 -387 -157.5t-146 -411.5zM680 209q114 -57 254 -57q241 0 386.5 157.5t145.5 411.5q0 249 -139 403z" />
    <glyph glyph-name="Ugrave" unicode="&#xd9;" horiz-adv-x="1720" 
d="M942 -33q-161 0 -290.5 69t-204 195t-74.5 285v754h-201v172h602v-172h-201v-754q0 -163 106.5 -263.5t266.5 -100.5q162 0 267.5 100.5t105.5 263.5v754h-201v172h602v-172h-200v-754q0 -241 -163.5 -395t-414.5 -154zM614 1847h238l180 -274h-180z" />
    <glyph glyph-name="Uacute" unicode="&#xda;" horiz-adv-x="1720" 
d="M942 -33q-161 0 -290.5 69t-204 195t-74.5 285v754h-201v172h602v-172h-201v-754q0 -163 106.5 -263.5t266.5 -100.5q162 0 267.5 100.5t105.5 263.5v754h-201v172h602v-172h-200v-754q0 -241 -163.5 -395t-414.5 -154zM852 1573l180 274h238l-238 -274h-180z" />
    <glyph glyph-name="Ucircumflex" unicode="&#xdb;" horiz-adv-x="1720" 
d="M942 -33q-161 0 -290.5 69t-204 195t-74.5 285v754h-201v172h602v-172h-201v-754q0 -163 106.5 -263.5t266.5 -100.5q162 0 267.5 100.5t105.5 263.5v754h-201v172h602v-172h-200v-754q0 -241 -163.5 -395t-414.5 -154zM598 1569l221 274h262l222 -274h-189l-160 155h-8
l-160 -155h-188z" />
    <glyph glyph-name="Udieresis" unicode="&#xdc;" horiz-adv-x="1720" 
d="M942 -33q-161 0 -290.5 69t-204 195t-74.5 285v754h-201v172h602v-172h-201v-754q0 -163 106.5 -263.5t266.5 -100.5q162 0 267.5 100.5t105.5 263.5v754h-201v172h602v-172h-200v-754q0 -241 -163.5 -395t-414.5 -154zM518 1724l187 187l186 -187l-186 -186zM993 1726
l187 187l186 -187l-186 -186z" />
    <glyph glyph-name="Yacute" unicode="&#xdd;" horiz-adv-x="1619" 
d="M580 0v172h200v360l-438 738h-195v172h416v-172l311 -522h17l313 522h-160v172h576v-172h-207l-432 -721v-377h201v-172h-602zM793 1573l180 274h237l-237 -274h-180z" />
    <glyph glyph-name="Thorn" unicode="&#xde;" horiz-adv-x="1458" 
d="M197 0v172h200v1098h-200v172h602v-172h-201v-86h385q119 0 214.5 -36.5t155 -97t91 -135.5t31.5 -157q0 -85 -31.5 -163t-91 -141t-155 -101t-214.5 -38h-385v-143h201v-172h-602zM598 500h418q119 0 186.5 75.5t67.5 178.5q0 102 -67 173.5t-187 71.5h-418v-499z" />
    <glyph glyph-name="germandbls" unicode="&#xdf;" horiz-adv-x="1265" 
d="M164 0v172h160v655h-160v172h160v107q0 197 120 315.5t322 118.5q186 0 308 -109t122 -280q0 -217 -176 -295v-16q122 -60 184 -162.5t62 -226.5q0 -126 -52.5 -234t-153 -175t-229.5 -67q-68 0 -147 17v168q67 -13 127 -13q122 0 188 84t66 207q0 60 -18 115.5
t-52.5 101t-90.5 72.5t-126 27h-78v172h54q116 0 180.5 60t64.5 165q0 97 -65.5 157t-167.5 60q-118 0 -182 -70t-64 -192v-1106h-356z" />
    <glyph glyph-name="agrave" unicode="&#xe0;" horiz-adv-x="1355" 
d="M668 -33q-214 0 -359 151t-145 382t145 381.5t359 150.5q104 0 190.5 -41.5t145.5 -118.5h12v127h340v-172h-160v-655h160v-172h-340v127h-12q-124 -160 -336 -160zM360 500q0 -160 91.5 -260.5t236.5 -100.5t236.5 100.5t91.5 260.5t-91.5 260t-236.5 100t-236.5 -100
t-91.5 -260zM455 1442h221l131 -307h-180z" />
    <glyph glyph-name="aacute" unicode="&#xe1;" horiz-adv-x="1355" 
d="M668 -33q-214 0 -359 151t-145 382t145 381.5t359 150.5q104 0 190.5 -41.5t145.5 -118.5h12v127h340v-172h-160v-655h160v-172h-340v127h-12q-124 -160 -336 -160zM360 500q0 -160 91.5 -260.5t236.5 -100.5t236.5 100.5t91.5 260.5t-91.5 260t-236.5 100t-236.5 -100
t-91.5 -260zM610 1135l131 307h222l-172 -307h-181z" />
    <glyph glyph-name="acircumflex" unicode="&#xe2;" horiz-adv-x="1355" 
d="M668 -33q-214 0 -359 151t-145 382t145 381.5t359 150.5q104 0 190.5 -41.5t145.5 -118.5h12v127h340v-172h-160v-655h160v-172h-340v127h-12q-124 -160 -336 -160zM360 500q0 -160 91.5 -260.5t236.5 -100.5t236.5 100.5t91.5 260.5t-91.5 260t-236.5 100t-236.5 -100
t-91.5 -260zM385 1135l205 307h246l204 -307h-172l-147 180h-16l-148 -180h-172z" />
    <glyph glyph-name="atilde" unicode="&#xe3;" horiz-adv-x="1355" 
d="M668 -33q-214 0 -359 151t-145 382t145 381.5t359 150.5q104 0 190.5 -41.5t145.5 -118.5h12v127h340v-172h-160v-655h160v-172h-340v127h-12q-124 -160 -336 -160zM360 500q0 -160 91.5 -260.5t236.5 -100.5t236.5 100.5t91.5 260.5t-91.5 260t-236.5 100t-236.5 -100
t-91.5 -260zM377 1204q0 110 60 170t153 60q67 0 139 -41q78 -45 111 -45q34 0 50 16t19 53h156q0 -110 -60 -169.5t-153 -59.5q-67 0 -139 41q-78 45 -111 45q-34 0 -50.5 -16.5t-19.5 -53.5h-155z" />
    <glyph glyph-name="adieresis" unicode="&#xe4;" horiz-adv-x="1355" 
d="M668 -33q-214 0 -359 151t-145 382t145 381.5t359 150.5q104 0 190.5 -41.5t145.5 -118.5h12v127h340v-172h-160v-655h160v-172h-340v127h-12q-124 -160 -336 -160zM322 1311l186 186l186 -186l-186 -187zM360 500q0 -160 91.5 -260.5t236.5 -100.5t236.5 100.5
t91.5 260.5t-91.5 260t-236.5 100t-236.5 -100t-91.5 -260zM731 1311l187 186l186 -186l-186 -187z" />
    <glyph glyph-name="aring" unicode="&#xe5;" horiz-adv-x="1355" 
d="M668 -33q-214 0 -359 151t-145 382t145 381.5t359 150.5q104 0 190.5 -41.5t145.5 -118.5h12v127h340v-172h-160v-655h160v-172h-340v127h-12q-124 -160 -336 -160zM360 500q0 -160 91.5 -260.5t236.5 -100.5t236.5 100.5t91.5 260.5t-91.5 260t-236.5 100t-236.5 -100
t-91.5 -260zM487 1315q0 92 67 158.5t159 66.5t158.5 -66.5t66.5 -158.5t-66.5 -158.5t-158.5 -66.5t-159 66.5t-67 158.5zM618 1319q0 -42 27 -68t68 -26q40 0 67 26t27 68q0 39 -27 64.5t-67 25.5t-67.5 -25.5t-27.5 -64.5z" />
    <glyph glyph-name="ae" unicode="&#xe6;" horiz-adv-x="1835" 
d="M532 -33q-90 0 -162 26t-116 69.5t-67 97.5t-23 114q0 113 85.5 198t254.5 106l299 36q65 7 65 62q0 96 -69 144t-172 48q-87 0 -162 -35t-113 -100l-159 98q80 100 196 150.5t242 50.5q114 0 208 -42.5t152 -121.5q137 164 365 164q91 0 173.5 -32.5t149 -93.5
t105.5 -160t39 -222q0 -53 -4 -90h-770q16 -124 106 -207.5t234 -83.5q159 0 294 99l99 -127q-174 -148 -393 -148q-276 0 -422 209q-120 -209 -435 -209zM360 279q0 -64 49.5 -106t147.5 -42q154 0 232.5 78.5t78.5 232.5v29l-331 -37q-94 -10 -135.5 -53t-41.5 -102z
M1053 598h585q-6 127 -89 194.5t-197 67.5q-123 0 -201 -74t-98 -188z" />
    <glyph glyph-name="ccedilla" unicode="&#xe7;" horiz-adv-x="1122" 
d="M664 -442q-72 0 -132.5 27t-93.5 67l78 90q70 -70 148 -70q39 0 66.5 19t27.5 51q0 29 -24 47t-66 18q-34 0 -58 -12l-69 82l63 96q-198 28 -319 172t-121 355q0 233 147 382.5t377 149.5q132 0 239 -50.5t179 -141.5v-252h-197v186q-90 78 -221 78q-145 0 -236.5 -98
t-91.5 -254q0 -157 91.5 -255t236.5 -98q178 0 287 132l135 -111q-130 -178 -367 -199l-34 -51l4 -8q83 0 137.5 -47.5t54.5 -120.5q0 -77 -61.5 -130.5t-179.5 -53.5z" />
    <glyph glyph-name="egrave" unicode="&#xe8;" horiz-adv-x="1183" 
d="M717 -33q-133 0 -241 47t-174.5 125t-102 175t-35.5 202q0 78 20.5 152.5t63.5 140.5t104 115.5t146.5 78.5t185.5 29q94 0 180 -32.5t155.5 -93.5t110.5 -160t41 -222q0 -53 -4 -90h-807q16 -122 112 -208.5t245 -86.5q78 0 161 27t146 76l102 -131q-176 -144 -409 -144
zM365 598h608q-6 124 -94.5 193t-202.5 69q-124 0 -209 -71.5t-102 -190.5zM430 1442h221l131 -307h-180z" />
    <glyph glyph-name="eacute" unicode="&#xe9;" horiz-adv-x="1183" 
d="M717 -33q-133 0 -241 47t-174.5 125t-102 175t-35.5 202q0 78 20.5 152.5t63.5 140.5t104 115.5t146.5 78.5t185.5 29q94 0 180 -32.5t155.5 -93.5t110.5 -160t41 -222q0 -53 -4 -90h-807q16 -122 112 -208.5t245 -86.5q78 0 161 27t146 76l102 -131q-176 -144 -409 -144
zM365 598h608q-6 124 -94.5 193t-202.5 69q-124 0 -209 -71.5t-102 -190.5zM586 1135l131 307h221l-172 -307h-180z" />
    <glyph glyph-name="ecircumflex" unicode="&#xea;" horiz-adv-x="1183" 
d="M717 -33q-133 0 -241 47t-174.5 125t-102 175t-35.5 202q0 78 20.5 152.5t63.5 140.5t104 115.5t146.5 78.5t185.5 29q94 0 180 -32.5t155.5 -93.5t110.5 -160t41 -222q0 -53 -4 -90h-807q16 -122 112 -208.5t245 -86.5q78 0 161 27t146 76l102 -131q-176 -144 -409 -144
zM360 1135l205 307h246l205 -307h-172l-148 180h-16l-148 -180h-172zM365 598h608q-6 124 -94.5 193t-202.5 69q-124 0 -209 -71.5t-102 -190.5z" />
    <glyph glyph-name="edieresis" unicode="&#xeb;" horiz-adv-x="1183" 
d="M717 -33q-133 0 -241 47t-174.5 125t-102 175t-35.5 202q0 78 20.5 152.5t63.5 140.5t104 115.5t146.5 78.5t185.5 29q94 0 180 -32.5t155.5 -93.5t110.5 -160t41 -222q0 -53 -4 -90h-807q16 -122 112 -208.5t245 -86.5q78 0 161 27t146 76l102 -131q-176 -144 -409 -144
zM297 1311l186 186l187 -186l-187 -187zM365 598h608q-6 124 -94.5 193t-202.5 69q-124 0 -209 -71.5t-102 -190.5zM707 1311l186 186l186 -186l-186 -187z" />
    <glyph glyph-name="igrave" unicode="&#xec;" horiz-adv-x="671" 
d="M160 0v172h159v655h-159v172h356v-827h160v-172h-516zM156 1442h221l131 -307h-180z" />
    <glyph glyph-name="iacute" unicode="&#xed;" horiz-adv-x="671" 
d="M164 0v172h160v655h-160v172h356v-827h160v-172h-516zM315 1135l131 307h222l-172 -307h-181z" />
    <glyph glyph-name="icircumflex" unicode="&#xee;" horiz-adv-x="671" 
d="M131 0v172h160v655h-160v172h356v-827h160v-172h-516zM98 1135l172 307h230l172 -307h-172l-107 163h-16l-107 -163h-172z" />
    <glyph glyph-name="idieresis" unicode="&#xef;" horiz-adv-x="671" 
d="M45 0v172h160v655h-160v172h356v-827h160v-172h-516zM-74 1366l187 186l186 -186l-186 -186zM299 1366l186 186l187 -186l-187 -186z" />
    <glyph glyph-name="eth" unicode="&#xf0;" horiz-adv-x="1175" 
d="M672 -33q-224 0 -366 143t-142 365q0 210 140 351t351 141q159 0 254 -95l13 9q-39 177 -168 288l-324 -145l-53 135l229 101q-112 49 -250 67l50 156q246 -35 399 -135l252 110l53 -131l-178 -80q235 -238 235 -715q0 -265 -131 -415t-364 -150zM360 479q0 -148 87 -240
t225 -92q135 0 221 91.5t86 236.5q0 137 -84 224t-223 87q-138 0 -225 -86t-87 -221z" />
    <glyph glyph-name="ntilde" unicode="&#xf1;" horiz-adv-x="1392" 
d="M164 0v172h160v655h-160v172h340v-143h16q57 84 147.5 130t188.5 46q59 0 114 -16t104.5 -50t86.5 -83t58.5 -119t21.5 -154v-438h160v-172h-357v610q0 119 -64.5 180.5t-160.5 61.5q-55 0 -107.5 -19.5t-95.5 -57t-69.5 -98.5t-26.5 -136v-369h160v-172h-516zM471 1204
q0 110 60 170t153 60q67 0 139 -41q78 -45 111 -45q34 0 50.5 16t19.5 53h155q0 -110 -60 -169.5t-153 -59.5q-67 0 -139 41q-78 45 -111 45q-34 0 -50 -16.5t-19 -53.5h-156z" />
    <glyph glyph-name="ograve" unicode="&#xf2;" horiz-adv-x="1212" 
d="M688 -33q-230 0 -377 150t-147 383t147 382.5t377 149.5t377 -149.5t147 -382.5t-147 -383t-377 -150zM360 500q0 -160 91.5 -260.5t236.5 -100.5t236.5 100.5t91.5 260.5t-91.5 260t-236.5 100t-236.5 -100t-91.5 -260zM430 1442h221l131 -307h-180z" />
    <glyph glyph-name="oacute" unicode="&#xf3;" horiz-adv-x="1212" 
d="M688 -33q-230 0 -377 150t-147 383t147 382.5t377 149.5t377 -149.5t147 -382.5t-147 -383t-377 -150zM360 500q0 -160 91.5 -260.5t236.5 -100.5t236.5 100.5t91.5 260.5t-91.5 260t-236.5 100t-236.5 -100t-91.5 -260zM586 1135l131 307h221l-172 -307h-180z" />
    <glyph glyph-name="ocircumflex" unicode="&#xf4;" horiz-adv-x="1212" 
d="M688 -33q-230 0 -377 150t-147 383t147 382.5t377 149.5t377 -149.5t147 -382.5t-147 -383t-377 -150zM360 500q0 -160 91.5 -260.5t236.5 -100.5t236.5 100.5t91.5 260.5t-91.5 260t-236.5 100t-236.5 -100t-91.5 -260zM360 1135l205 307h246l205 -307h-172l-148 180
h-16l-148 -180h-172z" />
    <glyph glyph-name="otilde" unicode="&#xf5;" horiz-adv-x="1212" 
d="M688 -33q-230 0 -377 150t-147 383t147 382.5t377 149.5t377 -149.5t147 -382.5t-147 -383t-377 -150zM352 1204q0 110 60 170t153 60q68 0 140 -41q78 -45 110 -45q34 0 50.5 16t19.5 53h155q0 -110 -60 -169.5t-153 -59.5q-67 0 -139 41q-78 45 -110 45
q-34 0 -50.5 -16.5t-19.5 -53.5h-156zM360 500q0 -160 91.5 -260.5t236.5 -100.5t236.5 100.5t91.5 260.5t-91.5 260t-236.5 100t-236.5 -100t-91.5 -260z" />
    <glyph glyph-name="odieresis" unicode="&#xf6;" horiz-adv-x="1212" 
d="M688 -33q-230 0 -377 150t-147 383t147 382.5t377 149.5t377 -149.5t147 -382.5t-147 -383t-377 -150zM297 1311l186 186l187 -186l-187 -187zM360 500q0 -160 91.5 -260.5t236.5 -100.5t236.5 100.5t91.5 260.5t-91.5 260t-236.5 100t-236.5 -100t-91.5 -260zM707 1311
l186 186l186 -186l-186 -187z" />
    <glyph glyph-name="divide" unicode="&#xf7;" horiz-adv-x="1200" 
d="M254 504v176h946v-176h-946zM582 197q0 61 43 104t104 43q62 0 105 -43t43 -104t-43.5 -104.5t-104.5 -43.5t-104 43t-43 105zM582 967q0 61 43 104t104 43q62 0 105 -43t43 -104t-43.5 -104.5t-104.5 -43.5t-104 43t-43 105z" />
    <glyph glyph-name="oslash" unicode="&#xf8;" horiz-adv-x="1212" 
d="M688 -33q-145 0 -264 64l-80 -113l-111 82l80 113q-149 149 -149 387q0 233 147 382.5t377 149.5q135 0 244 -53l67 94l119 -74l-71 -98q165 -152 165 -401q0 -233 -147 -383t-377 -150zM360 500q0 -132 66 -230l401 561q-69 29 -139 29q-145 0 -236.5 -100t-91.5 -260z
M530 178q70 -39 158 -39q145 0 236.5 100.5t91.5 260.5q0 149 -80 245z" />
    <glyph glyph-name="ugrave" unicode="&#xf9;" horiz-adv-x="1382" 
d="M764 -33q-205 0 -332 123t-127 320v417h-158v172h355v-606q0 -100 78.5 -173t183.5 -73t183.5 73t78.5 173v434h-158v172h514v-172h-159v-417q0 -197 -127 -320t-332 -123zM504 1442h221l131 -307h-180z" />
    <glyph glyph-name="uacute" unicode="&#xfa;" horiz-adv-x="1382" 
d="M764 -33q-205 0 -332 123t-127 320v417h-158v172h355v-606q0 -100 78.5 -173t183.5 -73t183.5 73t78.5 173v434h-158v172h514v-172h-159v-417q0 -197 -127 -320t-332 -123zM659 1135l132 307h221l-172 -307h-181z" />
    <glyph glyph-name="ucircumflex" unicode="&#xfb;" horiz-adv-x="1382" 
d="M764 -33q-205 0 -332 123t-127 320v417h-158v172h355v-606q0 -100 78.5 -173t183.5 -73t183.5 73t78.5 173v434h-158v172h514v-172h-159v-417q0 -197 -127 -320t-332 -123zM434 1135l205 307h246l205 -307h-172l-148 180h-16l-148 -180h-172z" />
    <glyph glyph-name="udieresis" unicode="&#xfc;" horiz-adv-x="1382" 
d="M764 -33q-205 0 -332 123t-127 320v417h-158v172h355v-606q0 -100 78.5 -173t183.5 -73t183.5 73t78.5 173v434h-158v172h514v-172h-159v-417q0 -197 -127 -320t-332 -123zM371 1311l186 186l186 -186l-186 -187zM780 1311l187 186l186 -186l-186 -187z" />
    <glyph glyph-name="yacute" unicode="&#xfd;" horiz-adv-x="1312" 
d="M369 -459v172h147l115 287l-357 827h-151v172h291l319 -743l230 571h-146v172h496v-172h-158l-442 -1114h125v-172h-469zM606 1135l131 307h221l-172 -307h-180z" />
    <glyph glyph-name="thorn" unicode="&#xfe;" horiz-adv-x="1355" 
d="M164 -459v172h160v1622h-160v172h356v-508l-16 -127h12q129 160 336 160q214 0 359 -150.5t145 -381.5t-145 -382t-359 -151q-207 0 -336 160h-12l16 -127v-287h160v-172h-516zM504 500q0 -160 91 -260.5t236 -100.5t236.5 100.5t91.5 260.5t-91.5 260t-236.5 100
t-236 -100t-91 -260z" />
    <glyph glyph-name="ydieresis" unicode="&#xff;" horiz-adv-x="1312" 
d="M369 -459v172h147l115 287l-357 827h-151v172h291l319 -743l230 571h-146v172h496v-172h-158l-442 -1114h125v-172h-469zM317 1311l187 186l186 -186l-186 -187zM727 1311l186 186l187 -186l-187 -187z" />
    <glyph glyph-name="Abreve" unicode="&#x102;" horiz-adv-x="1757" 
d="M147 0v172h218l444 1098h-201v172h436l498 -1270h215v-172h-596v172h168l-102 266h-553l-105 -266h174v-172h-596zM647 1851h160q3 -56 40 -95.5t111 -39.5q71 0 108 39.5t40 95.5h164q0 -117 -85.5 -206t-226.5 -89q-138 0 -224.5 89t-86.5 206zM748 623h407l-168 434
l-24 114h-17l-24 -114z" />
    <glyph glyph-name="abreve" unicode="&#x103;" horiz-adv-x="1355" 
d="M668 -33q-214 0 -359 151t-145 382t145 381.5t359 150.5q104 0 190.5 -41.5t145.5 -118.5h12v127h340v-172h-160v-655h160v-172h-340v127h-12q-124 -160 -336 -160zM360 500q0 -160 91.5 -260.5t236.5 -100.5t236.5 100.5t91.5 260.5t-91.5 260t-236.5 100t-236.5 -100
t-91.5 -260zM414 1442h159q3 -56 40.5 -95.5t111.5 -39.5q71 0 107.5 39.5t39.5 95.5h164q0 -75 -35.5 -141.5t-108.5 -110t-167 -43.5q-138 0 -224.5 89t-86.5 206z" />
    <glyph glyph-name="idotless" unicode="&#x131;" horiz-adv-x="671" 
d="M164 0v172h160v655h-160v172h356v-827h160v-172h-516z" />
    <glyph glyph-name="Lslash" unicode="&#x141;" horiz-adv-x="1392" 
d="M197 504v168l200 90v508h-200v172h602v-172h-201v-418l320 143v-168l-320 -143v-500h582v277h200v-461h-1183v172h200v422z" />
    <glyph glyph-name="lslash" unicode="&#x142;" horiz-adv-x="753" 
d="M164 504v168l194 86v577h-159v172h356v-661l178 80v-168l-178 -80v-506h160v-172h-516v172h159v418z" />
    <glyph glyph-name="OE" unicode="&#x152;" horiz-adv-x="2506" 
d="M934 -33q-218 0 -386 97t-259.5 268.5t-91.5 388.5t91.5 388.5t259.5 268.5t386 97q166 0 299.5 -58t224.5 -164l-8 189h999v-365h-200v180h-598v-421h503v-181h-503v-471h614v178h201v-362h-1016l8 188q-91 -106 -224.5 -163.5t-299.5 -57.5zM401 721
q0 -256 145.5 -412.5t387.5 -156.5q241 0 386.5 157.5t145.5 411.5t-145.5 411.5t-386.5 157.5t-387 -157.5t-146 -411.5z" />
    <glyph glyph-name="oe" unicode="&#x153;" horiz-adv-x="1966" 
d="M680 -33q-229 0 -372.5 149.5t-143.5 383.5t143.5 383t372.5 149q138 0 245 -57t173 -160q133 217 401 217q91 0 173.5 -32.5t149 -93.5t105.5 -160t39 -222q0 -53 -4 -90h-770q16 -125 106 -210t234 -85q74 0 152.5 27t142.5 76l98 -127q-174 -148 -393 -148
q-145 0 -256 59t-178 162q-63 -103 -171.5 -162t-246.5 -59zM360 500q0 -161 88 -261t232 -100q145 0 236.5 100.5t91.5 260.5t-91.5 260t-236.5 100q-144 0 -232 -100t-88 -260zM1200 598h586q-6 125 -90 193.5t-197 68.5q-114 0 -194 -69.5t-105 -192.5z" />
    <glyph glyph-name="Scaron" unicode="&#x160;" horiz-adv-x="1335" 
d="M799 -33q-337 0 -594 238v297h201v-205q76 -72 183 -108.5t226 -36.5q147 0 223 56.5t76 164.5q0 89 -54.5 144t-174.5 89l-221 62q-206 57 -308 157.5t-102 247.5q0 183 144 292.5t376 109.5q143 0 276 -43.5t236 -120.5v-285h-201v176q-69 39 -161.5 63.5t-178.5 24.5
q-130 0 -206 -52t-76 -144q0 -83 65 -136t193 -90l197 -57q405 -120 405 -418q0 -190 -145 -308t-379 -118zM434 1843h189l155 -151h17l155 151h189l-221 -274h-263z" />
    <glyph glyph-name="scaron" unicode="&#x161;" horiz-adv-x="1019" 
d="M618 -33q-124 0 -236.5 48t-193.5 132v211h197v-135q105 -84 246 -84q91 0 141.5 33.5t50.5 93.5q0 90 -147 127l-164 41q-148 36 -221.5 112t-73.5 183q0 139 116.5 221t284.5 82q115 0 218 -37.5t163 -97.5v-211h-196v127q-79 47 -185 47q-97 0 -150.5 -29t-53.5 -81
q0 -92 159 -132l152 -36q295 -71 295 -299q0 -97 -55.5 -170t-146 -109.5t-200.5 -36.5zM291 1442h172l147 -180h17l147 180h172l-205 -307h-245z" />
    <glyph glyph-name="Wcircumflex" unicode="&#x174;" horiz-adv-x="2338" 
d="M692 -8l-342 1278h-203v172h408v-172l236 -869l24 -118h16l21 118l223 869h-157v172h450l270 -1045l21 -114h16l21 114l235 873h-194v172h602v-172h-205l-336 -1278h-254l-270 1036l-21 131h-20l-16 -131l-263 -1036h-262zM905 1569l221 274h263l221 -274h-189l-159 155
h-9l-159 -155h-189z" />
    <glyph glyph-name="wcircumflex" unicode="&#x175;" horiz-adv-x="1970" 
d="M565 -16l-282 843h-160v172h366v-172l150 -462l29 -119h16l33 119l162 462h-156v172h448l218 -634l32 -119h17l28 119l152 462h-158v172h510v-172h-160l-282 -843h-205l-238 675l-28 115h-17l-28 -115l-238 -675h-209zM719 1135l205 307h245l205 -307h-172l-147 180h-17
l-147 -180h-172z" />
    <glyph glyph-name="Ycircumflex" unicode="&#x176;" horiz-adv-x="1619" 
d="M580 0v172h200v360l-438 738h-195v172h416v-172l311 -522h17l313 522h-160v172h576v-172h-207l-432 -721v-377h201v-172h-602zM539 1569l221 274h262l221 -274h-188l-160 155h-8l-160 -155h-188z" />
    <glyph glyph-name="ycircumflex" unicode="&#x177;" horiz-adv-x="1312" 
d="M369 -459v172h147l115 287l-357 827h-151v172h291l319 -743l230 571h-146v172h496v-172h-158l-442 -1114h125v-172h-469zM381 1135l205 307h245l205 -307h-172l-147 180h-17l-147 -180h-172z" />
    <glyph glyph-name="Ydieresis" unicode="&#x178;" horiz-adv-x="1619" 
d="M580 0v172h200v360l-438 738h-195v172h416v-172l311 -522h17l313 522h-160v172h576v-172h-207l-432 -721v-377h201v-172h-602zM459 1724l186 187l186 -187l-186 -186zM934 1726l186 187l187 -187l-187 -186z" />
    <glyph glyph-name="Zcaron" unicode="&#x17d;" horiz-adv-x="1363" 
d="M279 0v135l757 1036l74 74l-4 12h-627v-276h-200v461h1085v-135l-762 -1041l-61 -69l4 -13h618v277h201v-461h-1085zM467 1843h188l156 -151h16l156 151h188l-221 -274h-262z" />
    <glyph glyph-name="zcaron" unicode="&#x17e;" horiz-adv-x="1097" 
d="M213 0v152l530 569l93 86l-5 12h-413v-170h-197v350h864v-151l-518 -563l-96 -92l4 -13h426v170h197v-350h-885zM307 1442h172l148 -180h16l148 180h172l-205 -307h-246z" />
    <glyph glyph-name="fhook" unicode="&#x192;" horiz-adv-x="1105" 
d="M0 -33q20 -4 61 -4q52 0 99 14t90.5 45t75.5 87t47 133l110 585h-241v172h274l16 86q18 97 56 176t86 130t105.5 85.5t113.5 49t111 14.5q73 0 102 -8v-176q-20 4 -62 4q-52 0 -99 -14t-91.5 -45t-77 -87t-47.5 -133l-16 -82h282v-172h-311l-111 -589q-18 -97 -56 -176
t-85.5 -130t-105.5 -85.5t-113.5 -49t-110.5 -14.5q-73 0 -102 8v176z" />
    <glyph glyph-name="Scommaaccent" unicode="&#x218;" horiz-adv-x="1335" 
d="M799 -33q-337 0 -594 238v297h201v-205q76 -72 183 -108.5t226 -36.5q147 0 223 56.5t76 164.5q0 89 -54.5 144t-174.5 89l-221 62q-206 57 -308 157.5t-102 247.5q0 183 144 292.5t376 109.5q143 0 276 -43.5t236 -120.5v-285h-201v176q-69 39 -161.5 63.5t-178.5 24.5
q-130 0 -206 -52t-76 -144q0 -83 65 -136t193 -90l197 -57q405 -120 405 -418q0 -190 -145 -308t-379 -118zM639 -492l53 365h193l-103 -365h-143z" />
    <glyph glyph-name="scommaaccent" unicode="&#x219;" horiz-adv-x="1019" 
d="M618 -33q-124 0 -236.5 48t-193.5 132v211h197v-135q105 -84 246 -84q91 0 141.5 33.5t50.5 93.5q0 90 -147 127l-164 41q-148 36 -221.5 112t-73.5 183q0 139 116.5 221t284.5 82q115 0 218 -37.5t163 -97.5v-211h-196v127q-79 47 -185 47q-97 0 -150.5 -29t-53.5 -81
q0 -92 159 -132l152 -36q295 -71 295 -299q0 -97 -55.5 -170t-146 -109.5t-200.5 -36.5zM459 -492l53 365h193l-103 -365h-143z" />
    <glyph glyph-name="Tcommaaccent" unicode="&#x21a;" horiz-adv-x="1564" 
d="M602 0v172h201v1085h-357v-276h-200v461h1319v-461h-201v276h-360v-1085h200v-172h-602zM745 -492l54 365h192l-102 -365h-144z" />
    <glyph glyph-name="tcommaaccent" unicode="&#x21b;" horiz-adv-x="888" 
d="M457 0q-57 0 -95 38t-38 95v694h-201v172h201v287h196v-287h336v-172h-336v-655h336v-172h-399zM307 -492l53 365h193l-102 -365h-144z" />
    <glyph glyph-name="apostrophemod" unicode="&#x2bc;" horiz-adv-x="401" 
d="M205 918v524h196l-41 -524h-155z" />
    <glyph glyph-name="circumflexmod" unicode="&#x2c6;" horiz-adv-x="720" 
d="M66 1135l204 307h246l205 -307h-172l-148 180h-16l-147 -180h-172z" />
    <glyph glyph-name="caronmod" unicode="&#x2c7;" horiz-adv-x="720" 
d="M311 1135l-164 307h160l119 -172h16l119 172h160l-164 -307h-246z" />
    <glyph glyph-name="brevemod" unicode="&#x2d8;" horiz-adv-x="745" 
d="M442 1147q-92 0 -163 43.5t-105.5 110t-34.5 141.5h152q3 -56 40 -95.5t111 -39.5q71 0 108 39.5t40 95.5h155q0 -119 -81.5 -207t-221.5 -88z" />
    <glyph glyph-name="dotaccentmod" unicode="&#x2d9;" horiz-adv-x="491" 
d="M119 1311l186 186l187 -186l-187 -187z" />
    <glyph glyph-name="ringmod" unicode="&#x2da;" horiz-adv-x="598" 
d="M373 1090q-92 0 -159 66.5t-67 158.5t67 158.5t159 66.5t158.5 -66.5t66.5 -158.5t-66.5 -158.5t-158.5 -66.5zM279 1319q0 -42 27 -68t67 -26t67 26t27 68q0 39 -27 64.5t-67 25.5t-67 -25.5t-27 -64.5z" />
    <glyph glyph-name="ogonekmod" unicode="&#x2db;" horiz-adv-x="475" 
d="M365 -442q-100 0 -167 54.5t-67 149.5q0 55 18 100.5t52 77.5t65.5 52.5t73.5 40.5l127 -33q-172 -82 -172 -201q0 -49 30.5 -71.5t75.5 -22.5q34 0 66 8v-139q-39 -16 -102 -16z" />
    <glyph glyph-name="tildemod" unicode="&#x2dc;" horiz-adv-x="835" 
d="M623 1188q-68 0 -140 41q-78 45 -110 45q-34 0 -50.5 -16.5t-19.5 -53.5h-156q0 110 60 170t153 60q68 0 140 -41q78 -45 110 -45q34 0 50.5 16t19.5 53h156q0 -110 -60 -169.5t-153 -59.5z" />
    <glyph glyph-name="doubleacutemod" unicode="&#x2dd;" horiz-adv-x="761" 
d="M115 1135l123 307h208l-172 -307h-159zM406 1135l147 307h209l-209 -307h-147z" />
    <glyph glyph-name="gravecomb" unicode="&#x300;" 
d="M311 1135l-172 307h221l132 -307h-181z" />
    <glyph glyph-name="acutecomb" unicode="&#x301;" 
d="M74 1135l131 307h221l-172 -307h-180z" />
    <glyph glyph-name="circumflexcomb" unicode="&#x302;" 
d="M66 1135l204 307h246l205 -307h-172l-148 180h-16l-147 -180h-172z" />
    <glyph glyph-name="tildecomb" unicode="&#x303;" 
d="M623 1188q-68 0 -140 41q-78 45 -110 45q-34 0 -50.5 -16.5t-19.5 -53.5h-156q0 110 60 170t153 60q68 0 140 -41q78 -45 110 -45q34 0 50.5 16t19.5 53h156q0 -110 -60 -169.5t-153 -59.5z" />
    <glyph glyph-name="brevecomb" unicode="&#x306;" 
d="M434 1147q-138 0 -224.5 89t-86.5 206h160q3 -56 40 -95.5t111 -39.5q71 0 108 39.5t40 95.5h163q0 -75 -35.5 -141.5t-108.5 -110t-167 -43.5z" />
    <glyph glyph-name="dotaccentcomb" unicode="&#x307;" 
d="M119 1311l186 186l187 -186l-187 -187z" />
    <glyph glyph-name="dieresiscomb" unicode="&#x308;" 
d="M305 1124l-186 187l186 186l187 -186zM528 1311l187 186l186 -186l-186 -187z" />
    <glyph glyph-name="ringcomb" unicode="&#x30a;" 
d="M373 1090q-92 0 -159 66.5t-67 158.5t67 158.5t159 66.5t158.5 -66.5t66.5 -158.5t-66.5 -158.5t-158.5 -66.5zM279 1319q0 -42 27 -68t67 -26t67 26t27 68q0 39 -27 64.5t-67 25.5t-67 -25.5t-27 -64.5z" />
    <glyph glyph-name="caroncomb" unicode="&#x30c;" 
d="M270 1135l-204 307h172l147 -180h16l148 180h172l-205 -307h-246z" />
    <glyph glyph-name="commaaccentcomb" unicode="&#x326;" 
d="M205 -492l53 365h193l-103 -365h-143z" />
    <glyph glyph-name="cedillacomb" unicode="&#x327;" 
d="M373 -442q-72 0 -132.5 27t-93.5 67l78 90q70 -70 148 -70q39 0 66.5 19t27.5 51q0 29 -24 47t-66 18q-34 0 -58 -12l-69 82l102 156h144l-78 -115l4 -8q83 0 137.5 -47.5t54.5 -120.5q0 -77 -61.5 -130.5t-179.5 -53.5z" />
    <glyph glyph-name="strokeshortcomb" unicode="&#x335;" 
d="M147 504v176h897v-176h-897z" />
    <glyph glyph-name="soliduslongcomb" unicode="&#x338;" 
d="M365 -82l-111 82l766 1073l119 -74z" />
    <glyph glyph-name="Delta-grek" unicode="&#x394;" horiz-adv-x="1421" 
d="M66 0l577 1454h201l577 -1454h-1355zM352 184h783l-357 914l-33 127h-16l-29 -127z" />
    <glyph glyph-name="Omega-grek" unicode="&#x3a9;" horiz-adv-x="1630" 
d="M205 0v184h307l111 -12l4 12q-81 29 -156 82.5t-137 128.5t-99.5 177t-37.5 214q0 158 59.5 290t159 218t228 133.5t269.5 47.5t269.5 -47.5t228.5 -133.5t159.5 -218t59.5 -290q0 -112 -37.5 -214t-99.5 -177t-137 -128.5t-156 -82.5l4 -12l111 12h307v-184h-618v274
q76 16 149 57.5t135 105t99.5 156t37.5 198.5q0 95 -29 177.5t-79 140.5t-115.5 99.5t-139 61.5t-149.5 20t-149.5 -20t-139 -61.5t-115.5 -99.5t-79 -140.5t-29 -177.5q0 -106 38 -198.5t99.5 -156t135 -105t149.5 -57.5v-274h-618z" />
    <glyph glyph-name="mu-grek" unicode="&#x3bc;" horiz-adv-x="1171" 
d="M254 -459v1458h197v-610q0 -119 64.5 -180.5t160.5 -61.5q55 0 107.5 20t95.5 57t69.5 98.5t26.5 136.5v540h196v-999h-180v143h-12q-54 -84 -138 -130t-173 -46q-127 0 -217 78h-17l17 -135v-369h-197z" />
    <glyph glyph-name="pi-grek" unicode="&#x3c0;" horiz-adv-x="1327" 
d="M1159 -16q-117 0 -179 70t-62 175v594h-373v-823h-197v823h-168v176h1106v-176h-172v-569q0 -98 111 -98q33 0 65 8v-156q-50 -24 -131 -24z" />
    <glyph glyph-name="Io-cyrl" unicode="&#x401;" horiz-adv-x="1454" 
d="M197 0v172h200v1098h-200v172h1200v-365h-201v180h-598v-421h504v-181h-504v-471h614v181h201v-365h-1216zM473 1724l186 187l187 -187l-187 -186zM948 1726l187 187l186 -187l-186 -186z" />
    <glyph glyph-name="Ieukrainian-cyrl" unicode="&#x404;" horiz-adv-x="1548" 
d="M934 -33q-218 0 -386 97t-259.5 268.5t-91.5 388.5t90 388.5t256 268.5t381 97q265 0 434 -152l6 152h164v-398h-180q-89 109 -191.5 161t-232.5 52q-209 0 -346 -123.5t-168 -330.5h692v-181h-699q20 -229 163 -366t368 -137q285 0 438 204l144 -118
q-97 -128 -246.5 -199.5t-335.5 -71.5z" />
    <glyph glyph-name="Ibyelorussianukrainian-cyrl" unicode="&#x406;" horiz-adv-x="798" 
d="M197 0v172h200v1098h-200v172h602v-172h-201v-1098h201v-172h-602z" />
    <glyph glyph-name="Yi-cyrl" unicode="&#x407;" horiz-adv-x="798" 
d="M76 0v172h200v1098h-200v172h602v-172h-201v-1098h201v-172h-602zM-45 1724l186 187l187 -187l-187 -186zM430 1726l186 187l187 -187l-187 -186z" />
    <glyph glyph-name="A-cyrl" unicode="&#x410;" horiz-adv-x="1757" 
d="M147 0v172h218l444 1098h-201v172h436l498 -1270h215v-172h-596v172h168l-102 266h-553l-105 -266h174v-172h-596zM748 623h407l-168 434l-24 114h-17l-24 -114z" />
    <glyph glyph-name="Be-cyrl" unicode="&#x411;" horiz-adv-x="1490" 
d="M1397 1442v-365h-201v180h-598v-389h418q107 0 195.5 -38t145 -100.5t87.5 -141t31 -162.5q0 -81 -31 -156.5t-87.5 -136t-145 -97t-195.5 -36.5h-819v172h200v1098h-200v172h1200zM598 184h418q120 0 187 72t67 174q0 103 -67.5 178.5t-186.5 75.5h-418v-500z" />
    <glyph glyph-name="Ve-cyrl" unicode="&#x412;" horiz-adv-x="1511" 
d="M197 0v172h200v1098h-200v172h811q190 0 312 -110.5t122 -282.5q0 -202 -201 -287v-17q114 -37 184 -129t70 -206q0 -181 -128 -295.5t-331 -114.5h-839zM598 184h446q110 0 178 64t68 166q0 98 -68.5 169.5t-185.5 71.5h-438v-471zM598 836h406q112 0 174.5 57t62.5 151
q0 96 -62.5 154.5t-166.5 58.5h-414v-421z" />
    <glyph glyph-name="Ghe-cyrl" unicode="&#x413;" horiz-adv-x="1421" 
d="M197 0v172h200v1098h-200v172h1200v-365h-201v180h-598v-1085h201v-172h-602z" />
    <glyph glyph-name="De-cyrl" unicode="&#x414;" horiz-adv-x="1814" 
d="M197 172h221l416 1098h-201v172h735l252 -1270h195v-448h-201v276h-1217v-276h-200v448zM623 172h796l-215 1098h-166z" />
    <glyph glyph-name="Ie-cyrl" unicode="&#x415;" horiz-adv-x="1454" 
d="M197 0v172h200v1098h-200v172h1200v-365h-201v180h-598v-421h504v-181h-504v-471h614v181h201v-365h-1216z" />
    <glyph glyph-name="Zhe-cyrl" unicode="&#x416;" horiz-adv-x="2342" 
d="M969 0v172h200v483h-215l-321 -483v-172h-436v172h196l404 600l-340 498h-234v172h447v-172l280 -430h219v430h-200v172h602v-172h-201v-430h219l281 430v172h446v-172h-233l-340 -498l403 -600h197v-172h-436v172l-322 483h-215v-483h201v-172h-602z" />
    <glyph glyph-name="Ze-cyrl" unicode="&#x417;" horiz-adv-x="1304" 
d="M780 -35q-168 0 -315.5 77.5t-226.5 221.5v201h172v-109q54 -93 161.5 -149.5t227.5 -56.5q142 0 223.5 65.5t81.5 183.5q0 103 -98.5 184t-235.5 81h-162v184h125q143 0 231.5 63t88.5 164q0 96 -77 155.5t-202 59.5q-97 0 -182.5 -36t-132.5 -97l4 -106h-172v424h155
l5 -107q136 107 333 107q204 0 338.5 -110.5t134.5 -281.5q0 -106 -55.5 -188t-161.5 -127v-18q133 -40 201 -132t68 -215q0 -103 -44 -188t-118 -138.5t-168.5 -82.5t-198.5 -29z" />
    <glyph glyph-name="I-cyrl" unicode="&#x418;" horiz-adv-x="1810" 
d="M1208 0v172h201v877l12 118l-12 4l-770 -1171h-442v172h200v1098h-200v172h602v-172h-201v-877l-12 -119l12 -4l770 1172h442v-172h-200v-1098h200v-172h-602z" />
    <glyph glyph-name="Ishort-cyrl" unicode="&#x419;" horiz-adv-x="1810" 
d="M1208 0v172h201v877l12 118l-12 4l-770 -1171h-442v172h200v1098h-200v172h602v-172h-201v-877l-12 -119l12 -4l770 1172h442v-172h-200v-1098h200v-172h-602zM692 1851h160q3 -56 40.5 -95.5t111.5 -39.5q71 0 107.5 39.5t39.5 95.5h164q0 -75 -35.5 -141.5t-108.5 -110
t-167 -43.5q-93 0 -165.5 43.5t-109.5 110t-37 141.5z" />
    <glyph glyph-name="Ka-cyrl" unicode="&#x41a;" horiz-adv-x="1611" 
d="M197 0v172h200v1098h-200v172h602v-172h-201v-430h301l252 430v172h434v-172h-219l-303 -512l360 -586h189v-172h-426v172l-293 483h-295v-483h201v-172h-602z" />
    <glyph glyph-name="El-cyrl" unicode="&#x41b;" horiz-adv-x="1757" 
d="M147 0v172h213l416 1098h-201v172h736l252 -1270h194v-172h-596v172h201l-215 1098h-166l-416 -1098h178v-172h-596z" />
    <glyph glyph-name="Em-cyrl" unicode="&#x41c;" horiz-adv-x="2080" 
d="M197 0v172h200v1098h-200v172h491l418 -901l29 -115h16l33 115l422 901h475v-172h-201v-1098h201v-172h-602v172h200v877l17 118h-17l-450 -979h-180l-455 1000l-12 -4l16 -119v-893h201v-172h-602z" />
    <glyph glyph-name="En-cyrl" unicode="&#x41d;" horiz-adv-x="1744" 
d="M197 0v172h200v1098h-200v172h602v-172h-201v-430h745v430h-200v172h602v-172h-201v-1098h201v-172h-602v172h200v483h-745v-483h201v-172h-602z" />
    <glyph glyph-name="O-cyrl" unicode="&#x41e;" horiz-adv-x="1671" 
d="M934 -33q-218 0 -386 97t-259.5 268.5t-91.5 388.5t91.5 388.5t259.5 268.5t386 97t386 -97t259.5 -268.5t91.5 -388.5t-91.5 -388.5t-259.5 -268.5t-386 -97zM401 721q0 -256 145.5 -412.5t387.5 -156.5q241 0 386.5 157.5t145.5 411.5t-145.5 411.5t-386.5 157.5
t-387 -157.5t-146 -411.5z" />
    <glyph glyph-name="Pe-cyrl" unicode="&#x41f;" horiz-adv-x="1744" 
d="M197 0v172h200v1098h-200v172h1548v-172h-201v-1098h201v-172h-602v172h200v1085h-745v-1085h201v-172h-602z" />
    <glyph glyph-name="Er-cyrl" unicode="&#x420;" horiz-adv-x="1474" 
d="M197 0v172h200v1098h-200v172h819q107 0 195.5 -36.5t145 -97t87.5 -136t31 -156.5q0 -84 -31 -162.5t-87.5 -141.5t-145 -101t-195.5 -38h-418v-401h201v-172h-602zM598 758h418q119 0 186.5 75.5t67.5 178.5q0 102 -67 173.5t-187 71.5h-418v-499z" />
    <glyph glyph-name="Es-cyrl" unicode="&#x421;" horiz-adv-x="1548" 
d="M934 -33q-218 0 -386 97t-259.5 268.5t-91.5 388.5t90 388.5t256 268.5t381 97q265 0 434 -152l6 152h164v-398h-180q-89 109 -191.5 161t-232.5 52q-237 0 -380 -157.5t-143 -411.5q0 -256 145.5 -412.5t387.5 -156.5q285 0 438 204l144 -118q-97 -128 -246.5 -199.5
t-335.5 -71.5z" />
    <glyph glyph-name="Te-cyrl" unicode="&#x422;" horiz-adv-x="1564" 
d="M602 0v172h201v1085h-357v-276h-200v461h1319v-461h-201v276h-360v-1085h200v-172h-602z" />
    <glyph glyph-name="U-cyrl" unicode="&#x423;" horiz-adv-x="1701" 
d="M618 0l177 348l-437 922h-211v172h408v-129l350 -748l359 705h-164v172h602v-172h-232l-557 -1098h177v-172h-472z" />
    <glyph glyph-name="Ef-cyrl" unicode="&#x424;" horiz-adv-x="1781" 
d="M688 0v80q-228 71 -359.5 242t-131.5 399t131.5 399t359.5 242v80h602v-80q228 -71 360 -242t132 -399t-132 -399t-360 -242v-80h-602zM401 721q0 -209 131.5 -346.5t356.5 -163.5v1020q-224 -26 -356 -164.5t-132 -345.5zM1090 211q224 26 355.5 164.5t131.5 345.5
t-131.5 345.5t-355.5 164.5v-1020z" />
    <glyph glyph-name="Ha-cyrl" unicode="&#x425;" horiz-adv-x="1583" 
d="M197 0v172h200l377 559l-360 539h-203v172h442v-172l240 -361l246 363v170h426v-172h-207l-352 -529l376 -569h201v-172h-436v172l-262 391l-260 -391v-172h-428z" />
    <glyph glyph-name="Tse-cyrl" unicode="&#x426;" horiz-adv-x="1761" 
d="M1544 -276v276h-1347v172h200v1098h-200v172h602v-172h-201v-1086h745v1086h-200v172h602v-172h-201v-1098h201v-448h-201z" />
    <glyph glyph-name="Che-cyrl" unicode="&#x427;" horiz-adv-x="1662" 
d="M1663 1442v-172h-201v-1098h201v-172h-602v172h201v299h-813q-59 0 -99.5 38.5t-34.5 94.5l66 666h-184v172h575v-172h-199l-57 -565q-1 -22 13 -36t36 -14h697v615h-201v172h602z" />
    <glyph glyph-name="Sha-cyrl" unicode="&#x428;" horiz-adv-x="2281" 
d="M799 1442v-172h-201v-1086h541v1086h-201v172h602v-172h-201v-1086h541v1086h-201v172h602v-172h-200v-1098h200v-172h-2084v172h200v1098h-200v172h602z" />
    <glyph glyph-name="Shcha-cyrl" unicode="&#x429;" horiz-adv-x="2297" 
d="M2081 -276v276h-1884v172h200v1098h-200v172h602v-172h-201v-1086h541v1086h-201v172h602v-172h-201v-1086h541v1086h-201v172h602v-172h-200v-1098h200v-448h-200z" />
    <glyph glyph-name="Signhard-cyrl" unicode="&#x42a;" horiz-adv-x="1546" 
d="M41 1040v402h752v-172h-201v-402h418q107 0 195.5 -38t145 -100.5t87 -141t30.5 -162.5q0 -81 -30.5 -156.5t-87 -136t-145 -97t-195.5 -36.5h-820v172h201v1098h-190l-8 -230h-152zM592 184h418q120 0 187 72t67 174q0 103 -67.5 178.5t-186.5 75.5h-418v-500z" />
    <glyph glyph-name="Yeru-cyrl" unicode="&#x42b;" horiz-adv-x="2191" 
d="M197 1442h602v-172h-201v-402h418q107 0 195.5 -38t145 -100.5t87.5 -141t31 -162.5q0 -81 -31 -156.5t-87.5 -136t-145 -97t-195.5 -36.5h-819v172h200v1098h-200v172zM598 184h418q120 0 187 72t67 174q0 103 -67.5 178.5t-186.5 75.5h-418v-500zM1589 0v172h201v1098
h-201v172h602v-172h-200v-1098h200v-172h-602z" />
    <glyph glyph-name="Signsoft-cyrl" unicode="&#x42c;" horiz-adv-x="1474" 
d="M197 1442h602v-172h-201v-402h418q107 0 195.5 -38t145 -100.5t87.5 -141t31 -162.5q0 -81 -31 -156.5t-87.5 -136t-145 -97t-195.5 -36.5h-819v172h200v1098h-200v172zM598 184h418q120 0 187 72t67 174q0 103 -67.5 178.5t-186.5 75.5h-418v-500z" />
    <glyph glyph-name="E-cyrl" unicode="&#x42d;" horiz-adv-x="1548" 
d="M831 -33q-186 0 -335 71t-246 200l143 118q153 -204 438 -204q225 0 368 137t163 366h-698v181h692q-31 207 -168 330.5t-346 123.5q-130 0 -232.5 -52t-191.5 -161h-180v398h163l7 -152q169 152 434 152q215 0 381 -97t256 -268.5t90 -388.5t-91.5 -388.5t-260 -268.5
t-386.5 -97z" />
    <glyph glyph-name="Yu-cyrl" unicode="&#x42e;" horiz-adv-x="2283" 
d="M1546 -33q-156 0 -289 51.5t-227.5 143t-152 220t-66.5 280.5h-213v-490h201v-172h-602v172h200v1098h-200v172h602v-172h-201v-436h217q36 287 234 464t497 177q218 0 386.5 -97t260 -268.5t91.5 -388.5t-91.5 -388.5t-260 -268.5t-386.5 -97zM1014 721
q0 -256 145 -412.5t387 -156.5q241 0 387 157.5t146 411.5t-146 411.5t-387 157.5t-386.5 -157.5t-145.5 -411.5z" />
    <glyph glyph-name="Ya-cyrl" unicode="&#x42f;" horiz-adv-x="1525" 
d="M940 0v172h201v401h-250l-252 -405v-168h-410v172h193l194 311l78 82l-8 13q-201 21 -311.5 147t-110.5 291q0 81 31 156.5t87.5 136t145 97t195.5 36.5h819v-172h-201v-1098h201v-172h-602zM469 1012q0 -50 17.5 -96t52 -85t93.5 -62.5t136 -23.5h373v512h-418
q-120 0 -187 -71.5t-67 -173.5z" />
    <glyph glyph-name="a-cyrl" unicode="&#x430;" horiz-adv-x="1355" 
d="M668 -33q-214 0 -359 151t-145 382t145 381.5t359 150.5q104 0 190.5 -41.5t145.5 -118.5h12v127h340v-172h-160v-655h160v-172h-340v127h-12q-124 -160 -336 -160zM360 500q0 -160 91.5 -260.5t236.5 -100.5t236.5 100.5t91.5 260.5t-91.5 260t-236.5 100t-236.5 -100
t-91.5 -260z" />
    <glyph glyph-name="be-cyrl" unicode="&#x431;" horiz-adv-x="1183" 
d="M692 -33q-233 0 -364 150t-131 415q0 258 60.5 447.5t207.5 296.5q152 110 455 125v106h172v-280q-205 0 -329 -20t-200 -83q-48 -39 -74.5 -93.5t-56.5 -149.5l12 -9q112 95 265 95q211 0 351 -141t140 -351q0 -222 -142 -365t-366 -143zM385 475q0 -145 86 -236.5
t221 -91.5q138 0 225 92t87 240q0 135 -87 221t-225 86q-139 0 -223 -87t-84 -224z" />
    <glyph glyph-name="ve-cyrl" unicode="&#x432;" horiz-adv-x="1204" 
d="M164 0v172h160v655h-160v172h684q135 0 219 -75.5t84 -198.5q0 -71 -33 -116.5t-106 -76.5v-16q79 -25 127.5 -89t48.5 -144q0 -123 -89.5 -203t-230.5 -80h-704zM512 168h365q55 0 86.5 34t31.5 93t-34.5 97t-92.5 38h-356v-262zM512 598h336q55 0 85 31.5t30 87.5
q0 54 -28.5 84t-82.5 30h-340v-233z" />
    <glyph glyph-name="ghe-cyrl" unicode="&#x433;" horiz-adv-x="1110" 
d="M1085 999v-331h-172v159h-393v-655h160v-172h-516v172h160v655h-160v172h921z" />
    <glyph glyph-name="de-cyrl" unicode="&#x434;" horiz-adv-x="1241" 
d="M690 -33q-232 0 -379 150t-147 385q0 230 145.5 380t362.5 150q223 0 317 -170l10 6q-39 134 -92.5 222t-127.5 137.5t-157 70t-200 23.5v186q169 0 303 -44.5t226 -124t153.5 -195t89 -252.5t27.5 -301q0 -147 -40 -266t-111 -196.5t-168 -119t-212 -41.5zM360 500
q0 -159 91.5 -260t238.5 -101q143 0 234.5 100.5t91.5 258.5q0 161 -91.5 261.5t-234.5 100.5q-148 0 -239 -99.5t-91 -260.5z" />
    <glyph glyph-name="ie-cyrl" unicode="&#x435;" horiz-adv-x="1183" 
d="M717 -33q-133 0 -241 47t-174.5 125t-102 175t-35.5 202q0 78 20.5 152.5t63.5 140.5t104 115.5t146.5 78.5t185.5 29q94 0 180 -32.5t155.5 -93.5t110.5 -160t41 -222q0 -53 -4 -90h-807q16 -122 112 -208.5t245 -86.5q78 0 161 27t146 76l102 -131q-176 -144 -409 -144
zM365 598h608q-6 124 -94.5 193t-202.5 69q-124 0 -209 -71.5t-102 -190.5z" />
    <glyph glyph-name="zhe-cyrl" unicode="&#x436;" horiz-adv-x="1812" 
d="M881 0v434h-138l-200 -262v-172h-379v172h160l268 350l-240 305h-155v172h383v-172l170 -221h131v393h196v-393h135l166 221v172h383v-172h-178l-225 -272l295 -383h159v-172h-397v172l-201 262h-137v-434h-196z" />
    <glyph glyph-name="ze-cyrl" unicode="&#x437;" horiz-adv-x="976" 
d="M586 -35q-124 0 -233 54.5t-165 156.5v160h172v-78q20 -61 82.5 -92t137.5 -31q94 0 144 46t50 110q0 62 -46 106.5t-132 44.5h-137v164h110q73 0 119.5 42t46.5 97q0 49 -41 84t-123 35q-120 0 -194 -71l4 -80h-172v319h151l5 -71q92 71 237 71q151 0 247.5 -73
t96.5 -189q0 -76 -44 -134t-124 -93v-13q95 -28 145 -98.5t50 -161.5q0 -141 -113 -223t-274 -82z" />
    <glyph glyph-name="i-cyrl" unicode="&#x438;" horiz-adv-x="1392" 
d="M1040 0v614l13 119l-13 4l-505 -737h-371v172h160v655h-160v172h352v-614l-12 -119l12 -4l506 737h371v-172h-160v-655h160v-172h-353z" />
    <glyph glyph-name="ishort-cyrl" unicode="&#x439;" horiz-adv-x="1392" 
d="M1040 0v614l13 119l-13 4l-505 -737h-371v172h160v655h-160v172h352v-614l-12 -119l12 -4l506 737h371v-172h-160v-655h160v-172h-353zM467 1409h160q3 -56 40 -95.5t111 -39.5q71 0 108 39.5t40 95.5h164q0 -117 -85.5 -206t-226.5 -89q-138 0 -224.5 89t-86.5 206z" />
    <glyph glyph-name="ka-cyrl" unicode="&#x43a;" horiz-adv-x="1275" 
d="M164 0v172h160v655h-160v172h356v-393h135l189 221v172h381v-172h-166l-248 -282l305 -373h160v-172h-406v172l-211 262h-139v-434h-356z" />
    <glyph glyph-name="el-cyrl" unicode="&#x43b;" horiz-adv-x="1374" 
d="M1069 999l168 -827h137v-172h-461v172h123l-133 655h-158l-231 -655h150v-172h-508v172h157l234 655h-160v172h682z" />
    <glyph glyph-name="em-cyrl" unicode="&#x43c;" horiz-adv-x="1669" 
d="M164 0v172h160v655h-160v172h438l268 -550l41 -119h19l45 119l268 550h426v-172h-160v-655h160v-172h-356v618l12 127l-14 5l-307 -629h-179l-303 624l-14 -4l12 -123v-618h-356z" />
    <glyph glyph-name="en-cyrl" unicode="&#x43d;" horiz-adv-x="1343" 
d="M164 0v172h160v655h-160v172h356v-397h467v225h-160v172h516v-172h-159v-655h159v-172h-356v438h-467v-266h160v-172h-516z" />
    <glyph glyph-name="o-cyrl" unicode="&#x43e;" horiz-adv-x="1212" 
d="M688 -33q-230 0 -377 150t-147 383t147 382.5t377 149.5t377 -149.5t147 -382.5t-147 -383t-377 -150zM360 500q0 -160 91.5 -260.5t236.5 -100.5t236.5 100.5t91.5 260.5t-91.5 260t-236.5 100t-236.5 -100t-91.5 -260z" />
    <glyph glyph-name="pe-cyrl" unicode="&#x43f;" horiz-adv-x="1343" 
d="M164 0v172h160v655h-160v172h1179v-172h-159v-655h159v-172h-516v172h160v655h-467v-655h160v-172h-516z" />
    <glyph glyph-name="er-cyrl" unicode="&#x440;" horiz-adv-x="1355" 
d="M164 -459v172h160v1114h-160v172h340v-127h12q129 160 336 160q214 0 359 -150.5t145 -381.5t-145 -382t-359 -151q-207 0 -336 160h-12l16 -127v-287h160v-172h-516zM504 500q0 -160 91 -260.5t236 -100.5t236.5 100.5t91.5 260.5t-91.5 260t-236.5 100t-236 -100
t-91 -260z" />
    <glyph glyph-name="es-cyrl" unicode="&#x441;" horiz-adv-x="1122" 
d="M688 -33q-230 0 -377 150t-147 383t147 382.5t377 149.5q132 0 239 -50.5t179 -141.5v-252h-197v186q-90 78 -221 78q-145 0 -236.5 -98t-91.5 -254q0 -157 91.5 -255t236.5 -98q178 0 287 132l135 -111q-71 -96 -179.5 -148.5t-242.5 -52.5z" />
    <glyph glyph-name="te-cyrl" unicode="&#x442;" horiz-adv-x="1744" 
d="M1389 0v827h-336v-655h159v-172h-516v172h160v655h-336v-827h-356v172h160v655h-160v172h1581v-172h-160v-655h160v-172h-356z" />
    <glyph glyph-name="u-cyrl" unicode="&#x443;" horiz-adv-x="1312" 
d="M449 -459l182 459l-357 827h-151v172h289l321 -749l230 577h-146v172h496v-172h-156l-442 -1114h194v-172h-460z" />
    <glyph glyph-name="ef-cyrl" unicode="&#x444;" horiz-adv-x="1337" 
d="M653 -27q-228 25 -358.5 165t-130.5 362t130.5 361.5t358.5 164.5v117h-159v172h356v-289q228 -25 357.5 -164.5t129.5 -361.5t-129.5 -362t-357.5 -165v-235h-197v235zM360 500q0 -140 78 -233.5t215 -119.5v705q-137 -26 -215 -119t-78 -233zM850 147q137 26 214 119
t77 234q0 140 -77 233t-214 119v-705z" />
    <glyph glyph-name="ha-cyrl" unicode="&#x445;" horiz-adv-x="1204" 
d="M821 0v172l-139 186l-143 -186v-172h-375v172h151l256 332l-243 323h-154v172h383v-172l129 -172l133 172v172h375v-172h-154l-243 -317l254 -338h153v-172h-383z" />
    <glyph glyph-name="tse-cyrl" unicode="&#x446;" horiz-adv-x="1359" 
d="M164 999h516v-172h-160v-655h467v655h-160v172h516v-172h-159v-655h159v-332h-172v160h-1007v172h160v655h-160v172z" />
    <glyph glyph-name="che-cyrl" unicode="&#x447;" horiz-adv-x="1275" 
d="M1268 999v-172h-160v-655h160v-172h-516v172h159v164h-473q-93 0 -145 52.5t-39 160.5l33 278h-140v172h359l-53 -442q-3 -21 12 -35t37 -14h409v319h-159v172h516z" />
    <glyph glyph-name="sha-cyrl" unicode="&#x448;" horiz-adv-x="1744" 
d="M520 999v-827h336v655h-160v172h357v-827h336v655h-160v172h516v-172h-160v-655h160v-172h-1581v172h160v655h-160v172h356z" />
    <glyph glyph-name="shcha-cyrl" unicode="&#x449;" horiz-adv-x="1761" 
d="M520 999v-827h336v655h-160v172h357v-827h336v655h-160v172h516v-172h-160v-655h160v-332h-172v160h-1409v172h160v655h-160v172h356z" />
    <glyph glyph-name="signhard-cyrl" unicode="&#x44a;" horiz-adv-x="1290" 
d="M41 618v381h672v-172h-160v-196h315q83 0 150 -28t108.5 -74.5t63.5 -103.5t22 -118q0 -60 -21.5 -114t-62.5 -97.5t-108.5 -69.5t-151.5 -26h-671v172h159v655h-155l-8 -209h-152zM553 172h336q61 0 94 41t33 98q0 60 -33 104t-94 44h-336v-287z" />
    <glyph glyph-name="yeru-cyrl" unicode="&#x44b;" horiz-adv-x="1785" 
d="M164 999h516v-172h-160v-196h316q83 0 150 -28t108.5 -74.5t63.5 -103.5t22 -118q0 -60 -21.5 -114t-62.5 -97.5t-108.5 -69.5t-151.5 -26h-672v172h160v655h-160v172zM520 172h336q61 0 94 41t33 98q0 60 -33 104t-94 44h-336v-287zM1278 0v172h160v655h-160v172h356
v-827h160v-172h-516z" />
    <glyph glyph-name="signsoft-cyrl" unicode="&#x44c;" horiz-adv-x="1196" 
d="M164 999h516v-172h-160v-196h316q83 0 150 -28t108.5 -74.5t63.5 -103.5t22 -118q0 -60 -21.5 -114t-62.5 -97.5t-108.5 -69.5t-151.5 -26h-672v172h160v655h-160v172zM520 172h336q61 0 94 41t33 98q0 60 -33 104t-94 44h-336v-287z" />
    <glyph glyph-name="e-cyrl" unicode="&#x44d;" horiz-adv-x="1122" 
d="M610 -33q-134 0 -242.5 52.5t-179.5 148.5l136 111q109 -132 286 -132q128 0 216 78.5t108 208.5h-328v168h320q-28 115 -112.5 182.5t-203.5 67.5q-131 0 -221 -78v-186h-196v252q72 91 178.5 141.5t238.5 50.5q230 0 377.5 -149.5t147.5 -382.5t-147.5 -383
t-377.5 -150z" />
    <glyph glyph-name="yu-cyrl" unicode="&#x44e;" horiz-adv-x="1701" 
d="M164 0v172h160v655h-160v172h356v-393h142q34 192 174.5 309t341.5 117q230 0 377 -149.5t147 -382.5t-147 -383t-377 -150q-213 0 -356 129t-165 336h-137v-432h-356zM850 500q0 -160 91.5 -260.5t236.5 -100.5t236 100.5t91 260.5t-91 260t-236 100t-236.5 -100
t-91.5 -260z" />
    <glyph glyph-name="ya-cyrl" unicode="&#x44f;" horiz-adv-x="1234" 
d="M895 0v377h-147l-154 -205v-172h-397v172h174l110 139l58 58l-9 12q-140 14 -217 103.5t-77 207.5q0 60 21.5 114t62.5 97.5t108.5 69.5t151.5 26h671v-172h-159v-655h159v-172h-356zM432 688q0 -60 33 -103.5t94 -43.5h336v286h-336q-61 0 -94 -41t-33 -98z" />
    <glyph glyph-name="io-cyrl" unicode="&#x451;" horiz-adv-x="1183" 
d="M717 -33q-133 0 -241 47t-174.5 125t-102 175t-35.5 202q0 78 20.5 152.5t63.5 140.5t104 115.5t146.5 78.5t185.5 29q94 0 180 -32.5t155.5 -93.5t110.5 -160t41 -222q0 -53 -4 -90h-807q16 -122 112 -208.5t245 -86.5q78 0 161 27t146 76l102 -131q-176 -144 -409 -144
zM297 1311l186 186l187 -186l-187 -187zM365 598h608q-6 124 -94.5 193t-202.5 69q-124 0 -209 -71.5t-102 -190.5zM707 1311l186 186l186 -186l-186 -187z" />
    <glyph glyph-name="ieukrainian-cyrl" unicode="&#x454;" horiz-adv-x="1122" 
d="M688 -33q-230 0 -377 150t-147 383t147 382.5t377 149.5q132 0 239 -50.5t179 -141.5v-252h-197v186q-90 78 -221 78q-119 0 -203 -67.5t-112 -182.5h319v-168h-327q20 -130 107.5 -208.5t215.5 -78.5q178 0 287 132l135 -111q-71 -96 -179.5 -148.5t-242.5 -52.5z" />
    <glyph glyph-name="ibyelorussianukrainian-cyrl" unicode="&#x456;" horiz-adv-x="671" 
d="M164 0v172h160v655h-160v172h356v-827h160v-172h-516zM233 1368l189 186l186 -186l-186 -188z" />
    <glyph glyph-name="yi-cyrl" unicode="&#x457;" horiz-adv-x="671" 
d="M45 0v172h160v655h-160v172h356v-827h160v-172h-516zM-74 1366l187 186l186 -186l-186 -186zM299 1366l186 186l187 -186l-187 -186z" />
    <glyph glyph-name="Gheupturn-cyrl" unicode="&#x490;" horiz-adv-x="1421" 
d="M197 0v172h200v1098h-200v172h1028v200h172v-385h-799v-1085h201v-172h-602z" />
    <glyph glyph-name="gheupturn-cyrl" unicode="&#x491;" horiz-adv-x="1110" 
d="M913 999v160h172v-332h-565v-655h160v-172h-516v172h160v655h-160v172h749z" />
    <glyph glyph-name="Wgrave" unicode="&#x1e80;" horiz-adv-x="2338" 
d="M692 -8l-342 1278h-203v172h408v-172l236 -869l24 -118h16l21 118l223 869h-157v172h450l270 -1045l21 -114h16l21 114l235 873h-194v172h602v-172h-205l-336 -1278h-254l-270 1036l-21 131h-20l-16 -131l-263 -1036h-262zM922 1847h237l180 -274h-180z" />
    <glyph glyph-name="wgrave" unicode="&#x1e81;" horiz-adv-x="1970" 
d="M565 -16l-282 843h-160v172h366v-172l150 -462l29 -119h16l33 119l162 462h-156v172h448l218 -634l32 -119h17l28 119l152 462h-158v172h510v-172h-160l-282 -843h-205l-238 675l-28 115h-17l-28 -115l-238 -675h-209zM788 1442h222l131 -307h-180z" />
    <glyph glyph-name="Wacute" unicode="&#x1e82;" horiz-adv-x="2338" 
d="M692 -8l-342 1278h-203v172h408v-172l236 -869l24 -118h16l21 118l223 869h-157v172h450l270 -1045l21 -114h16l21 114l235 873h-194v172h602v-172h-205l-336 -1278h-254l-270 1036l-21 131h-20l-16 -131l-263 -1036h-262zM1159 1573l180 274h238l-238 -274h-180z" />
    <glyph glyph-name="wacute" unicode="&#x1e83;" horiz-adv-x="1970" 
d="M565 -16l-282 843h-160v172h366v-172l150 -462l29 -119h16l33 119l162 462h-156v172h448l218 -634l32 -119h17l28 119l152 462h-158v172h510v-172h-160l-282 -843h-205l-238 675l-28 115h-17l-28 -115l-238 -675h-209zM944 1135l131 307h221l-172 -307h-180z" />
    <glyph glyph-name="Wdieresis" unicode="&#x1e84;" horiz-adv-x="2338" 
d="M692 -8l-342 1278h-203v172h408v-172l236 -869l24 -118h16l21 118l223 869h-157v172h450l270 -1045l21 -114h16l21 114l235 873h-194v172h602v-172h-205l-336 -1278h-254l-270 1036l-21 131h-20l-16 -131l-263 -1036h-262zM825 1724l187 187l186 -187l-186 -186z
M1300 1726l187 187l186 -187l-186 -186z" />
    <glyph glyph-name="wdieresis" unicode="&#x1e85;" horiz-adv-x="1970" 
d="M565 -16l-282 843h-160v172h366v-172l150 -462l29 -119h16l33 119l162 462h-156v172h448l218 -634l32 -119h17l28 119l152 462h-158v172h510v-172h-160l-282 -843h-205l-238 675l-28 115h-17l-28 -115l-238 -675h-209zM655 1311l187 186l186 -186l-186 -187zM1065 1311
l186 186l187 -186l-187 -187z" />
    <glyph glyph-name="Germandbls" unicode="&#x1e9e;" horiz-adv-x="1576" 
d="M1085 -33q-150 0 -286 74v297h200v-166q55 -25 107 -25q101 0 173.5 70.5t72.5 181.5q0 109 -85.5 178.5t-219.5 69.5h-101v166l303 381q-121 100 -288 100q-71 0 -135.5 -23t-115.5 -67t-81.5 -115.5t-30.5 -162.5v-926h-401v172h200v782q0 121 47 221t126.5 164.5
t181 100t213.5 35.5q152 0 294.5 -66t243.5 -195l-256 -325l-78 -58v-12q180 -32 286 -145t106 -275q0 -100 -39.5 -183t-105.5 -136.5t-151.5 -83t-179.5 -29.5z" />
    <glyph glyph-name="Ygrave" unicode="&#x1ef2;" horiz-adv-x="1619" 
d="M580 0v172h200v360l-438 738h-195v172h416v-172l311 -522h17l313 522h-160v172h576v-172h-207l-432 -721v-377h201v-172h-602zM555 1847h238l180 -274h-180z" />
    <glyph glyph-name="ygrave" unicode="&#x1ef3;" horiz-adv-x="1312" 
d="M369 -459v172h147l115 287l-357 827h-151v172h291l319 -743l230 571h-146v172h496v-172h-158l-442 -1114h125v-172h-469zM451 1442h221l131 -307h-180z" />
    <glyph glyph-name="enspace" unicode="&#x2002;" horiz-adv-x="1175" 
 />
    <glyph glyph-name="endash" unicode="&#x2013;" horiz-adv-x="1253" 
d="M246 504v176h1048v-176h-1048z" />
    <glyph glyph-name="emdash" unicode="&#x2014;" horiz-adv-x="2158" 
d="M246 504v176h1954v-176h-1954z" />
    <glyph glyph-name="quoteleft" unicode="&#x2018;" horiz-adv-x="454" 
d="M164 918l115 524h155l-49 -524h-221z" />
    <glyph glyph-name="quoteright" unicode="&#x2019;" horiz-adv-x="454" 
d="M205 918l49 524h221l-115 -524h-155z" />
    <glyph glyph-name="quotesinglbase" unicode="&#x201a;" horiz-adv-x="471" 
d="M205 -336l57 586h230l-132 -586h-155z" />
    <glyph glyph-name="quotedblleft" unicode="&#x201c;" horiz-adv-x="823" 
d="M532 918l115 524h156l-49 -524h-222zM164 918l115 524h155l-49 -524h-221z" />
    <glyph glyph-name="quotedblright" unicode="&#x201d;" horiz-adv-x="823" 
d="M573 918l50 524h221l-115 -524h-156zM205 918l49 524h221l-115 -524h-155z" />
    <glyph glyph-name="quotedblbase" unicode="&#x201e;" horiz-adv-x="823" 
d="M573 -274l50 524h221l-115 -524h-156zM205 -274l49 524h221l-115 -524h-155z" />
    <glyph glyph-name="dagger" unicode="&#x2020;" horiz-adv-x="835" 
d="M393 319v648h-262v168h262v307h176v-307h267v-168h-267v-648h-176z" />
    <glyph glyph-name="daggerdbl" unicode="&#x2021;" horiz-adv-x="835" 
d="M393 319v308h-262v168h262v172h-262v168h262v307h176v-307h267v-168h-267v-172h267v-168h-267v-308h-176z" />
    <glyph glyph-name="bullet" unicode="&#x2022;" horiz-adv-x="696" 
d="M492 393q-107 0 -176.5 69.5t-69.5 176.5t69.5 176.5t176.5 69.5t176 -69.5t69 -176.5t-69 -176.5t-176 -69.5z" />
    <glyph glyph-name="ellipsis" unicode="&#x2026;" horiz-adv-x="1900" 
d="M455 324l209 -209l-209 -209l-209 209zM885 115l209 209l209 -209l-209 -209zM1524 115l209 209l209 -209l-209 -209z" />
    <glyph glyph-name="perthousand" unicode="&#x2030;" horiz-adv-x="2166" 
d="M483 729q-133 0 -230 95t-97 229t97 228.5t230 94.5t230.5 -94.5t97.5 -228.5t-97.5 -229t-230.5 -95zM332 1053q0 -67 43 -109.5t108 -42.5t108.5 42.5t43.5 109.5t-43.5 109t-108.5 42t-108 -42t-43 -109zM336 0l967 1343h204l-962 -1343h-209zM1032 291
q0 134 97.5 228.5t230.5 94.5q65 0 126.5 -28.5t106.5 -73.5h17q42 45 103 73.5t126 28.5q133 0 230.5 -94.5t97.5 -228.5t-97.5 -229t-230.5 -95q-65 0 -126 29t-103 74h-17q-45 -45 -107 -74t-126 -29q-133 0 -230.5 95t-97.5 229zM1208 291q0 -67 43.5 -109.5
t108.5 -42.5t108 42.5t43 109.5t-43 109t-108 42t-108.5 -42t-43.5 -109zM1688 291q0 -67 43 -109.5t108 -42.5t108.5 42.5t43.5 109.5t-43.5 109t-108.5 42t-108 -42t-43 -109z" />
    <glyph glyph-name="guilsinglleft" unicode="&#x2039;" horiz-adv-x="679" 
d="M442 201l-278 397l278 401h217l-274 -401l274 -397h-217z" />
    <glyph glyph-name="guilsinglright" unicode="&#x203a;" horiz-adv-x="679" 
d="M205 201l274 397l-274 401h217l278 -401l-278 -397h-217z" />
    <glyph glyph-name="fraction" unicode="&#x2044;" horiz-adv-x="425" 
d="M-737 0l970 1343h193l-971 -1343h-192z" />
    <glyph glyph-name="zerosuperior" unicode="&#x2070;" horiz-adv-x="712" 
d="M420 754q-136 0 -216.5 109.5t-80.5 283.5t80.5 283.5t216.5 109.5q133 0 213 -109.5t80 -283.5t-80 -283.5t-213 -109.5zM291 1147q0 -113 34 -177.5t95 -64.5q58 0 91.5 64.5t33.5 177.5t-33.5 177.5t-91.5 64.5q-61 0 -95 -64.5t-34 -177.5z" />
    <glyph glyph-name="foursuperior" unicode="&#x2074;" horiz-adv-x="714" 
d="M457 770v148h-334v122l323 484h168v-463h111v-143h-111v-148h-157zM295 1061h174v176l2 70l-8 4z" />
    <glyph glyph-name="fivesuperior" unicode="&#x2075;" horiz-adv-x="649" 
d="M373 750q-79 0 -149 37.5t-105 107.5l135 68q15 -33 48 -51.5t71 -18.5q54 0 84 34t30 79t-29 76.5t-83 31.5q-26 0 -53.5 -12t-42.5 -31l-144 66l49 381h416v-152h-289l-18 -137l10 -2q48 30 113 30q110 0 170.5 -72t60.5 -171q0 -107 -73 -185.5t-201 -78.5z" />
    <glyph glyph-name="sixsuperior" unicode="&#x2076;" horiz-adv-x="675" 
d="M397 754q-120 0 -197 71.5t-77 180.5q0 100 86 213l244 317l157 -29l-161 -211l-43 -41l4 -6q10 2 41 2q88 0 156.5 -65.5t68.5 -173.5q0 -114 -78.5 -186t-200.5 -72zM283 1008q0 -50 32 -80.5t86 -30.5q52 0 83.5 30.5t31.5 80.5t-31.5 80t-83.5 30q-54 0 -86 -30
t-32 -80z" />
    <glyph glyph-name="sevensuperior" unicode="&#x2077;" horiz-adv-x="665" 
d="M172 770l272 543l33 45v10h-354v156h543v-121l-320 -633h-174z" />
    <glyph glyph-name="eightsuperior" unicode="&#x2078;" horiz-adv-x="653" 
d="M389 741q-112 0 -189 62t-77 164q0 125 125 184v8q-101 67 -101 164q0 84 66.5 144.5t175.5 60.5t174.5 -60.5t65.5 -144.5q0 -99 -101 -164v-8q125 -58 125 -184q0 -102 -75.5 -164t-188.5 -62zM285 983q0 -45 29 -71.5t75 -26.5q45 0 74 26.5t29 71.5q0 41 -30 67.5
t-73 26.5t-73.5 -26.5t-30.5 -67.5zM309 1309q0 -37 21.5 -57.5t58.5 -20.5q38 0 59 20.5t21 57.5q0 35 -21 55t-59 20q-37 0 -58.5 -20t-21.5 -55z" />
    <glyph glyph-name="ninesuperior" unicode="&#x2079;" horiz-adv-x="675" 
d="M188 782l162 211l43 41l-4 6q-10 -2 -41 -2q-88 0 -156.5 66t-68.5 174q0 114 78 186t200 72q120 0 197.5 -71.5t77.5 -180.5q0 -100 -86 -213l-244 -317zM283 1282q0 -50 31 -80.5t83 -30.5q54 0 86.5 30.5t32.5 80.5t-32.5 80.5t-86.5 30.5q-52 0 -83 -30.5t-31 -80.5z
" />
    <glyph glyph-name="zeroinferior" unicode="&#x2080;" horiz-adv-x="712" 
d="M420 -94q-136 0 -216.5 109.5t-80.5 283.5t80.5 283.5t216.5 109.5q133 0 213 -109.5t80 -283.5t-80 -283.5t-213 -109.5zM291 299q0 -113 34 -177.5t95 -64.5q58 0 91.5 64.5t33.5 177.5t-33.5 177.5t-91.5 64.5q-61 0 -95 -64.5t-34 -177.5z" />
    <glyph glyph-name="oneinferior" unicode="&#x2081;" horiz-adv-x="466" 
d="M303 -78v561l-180 -73v155l250 111h94v-754h-164z" />
    <glyph glyph-name="twoinferior" unicode="&#x2082;" horiz-adv-x="647" 
d="M141 -78v176l258 230q40 36 59 67.5t19 71.5q0 37 -26 59.5t-74 22.5t-82.5 -33t-30.5 -90l-149 8q-1 121 79 188.5t191 67.5q105 0 179.5 -55t74.5 -154q0 -77 -31.5 -134t-101.5 -120l-117 -104l-67 -49l6 -13l65 5h244v-144h-496z" />
    <glyph glyph-name="threeinferior" unicode="&#x2083;" horiz-adv-x="679" 
d="M393 -94q-114 0 -193.5 63.5t-97.5 151.5l152 39q13 -55 53 -85t88 -30q46 0 78.5 27t32.5 75q0 42 -30 72.5t-79 30.5h-104v135h96q42 0 69 26.5t27 59.5q0 41 -29 63.5t-71 22.5q-41 0 -74 -21.5t-45 -60.5l-133 45q25 85 96 128.5t162 43.5q67 0 124.5 -22.5
t95.5 -71.5t38 -115q0 -54 -26 -95t-78 -52v-12q125 -50 125 -177q0 -77 -41 -133.5t-102.5 -82t-133.5 -25.5z" />
    <glyph glyph-name="fourinferior" unicode="&#x2084;" horiz-adv-x="714" 
d="M457 -78v148h-334v123l323 483h168v-463h111v-143h-111v-148h-157zM295 213h174v176l2 70l-8 4z" />
    <glyph glyph-name="fiveinferior" unicode="&#x2085;" horiz-adv-x="649" 
d="M373 -92q-79 0 -149 37.5t-105 107.5l135 68q15 -33 48 -51.5t71 -18.5q54 0 84 34t30 79t-29 76.5t-83 31.5q-26 0 -53.5 -12t-42.5 -31l-144 66l49 381h416v-152h-289l-18 -137l10 -2q50 31 113 31q110 0 170.5 -72.5t60.5 -171.5q0 -107 -73 -185.5t-201 -78.5z" />
    <glyph glyph-name="sixinferior" unicode="&#x2086;" horiz-adv-x="675" 
d="M397 -94q-120 0 -197 71.5t-77 180.5q0 100 86 213l244 317l157 -29l-161 -210l-43 -41l4 -7q10 2 41 2q88 0 156.5 -65.5t68.5 -173.5q0 -114 -78.5 -186t-200.5 -72zM283 160q0 -50 32 -80.5t86 -30.5q52 0 83.5 30.5t31.5 80.5t-31.5 80t-83.5 30q-54 0 -86 -30
t-32 -80z" />
    <glyph glyph-name="seveninferior" unicode="&#x2087;" horiz-adv-x="665" 
d="M172 -78l272 543l33 45v10h-354v156h543v-121l-320 -633h-174z" />
    <glyph glyph-name="eightinferior" unicode="&#x2088;" horiz-adv-x="653" 
d="M389 -94q-112 0 -189 62t-77 163q0 125 125 184v9q-101 67 -101 163q0 84 66.5 144.5t175.5 60.5t174.5 -60.5t65.5 -144.5q0 -98 -101 -163v-9q125 -58 125 -184q0 -102 -75.5 -163.5t-188.5 -61.5zM285 147q0 -45 29 -71.5t75 -26.5q45 0 74 26.5t29 71.5q0 41 -30 68
t-73 27t-73.5 -27t-30.5 -68zM309 473q0 -37 21.5 -57.5t58.5 -20.5q38 0 59 20.5t21 57.5q0 36 -21 56t-59 20q-37 0 -58.5 -20.5t-21.5 -55.5z" />
    <glyph glyph-name="nineinferior" unicode="&#x2089;" horiz-adv-x="675" 
d="M188 -66l162 211l43 41l-4 7q-15 -3 -41 -3q-88 0 -156.5 66t-68.5 174q0 114 78 186t200 72q120 0 197.5 -71.5t77.5 -180.5q0 -100 -86 -213l-244 -317zM283 434q0 -50 31 -80t83 -30q54 0 86.5 30t32.5 80t-32.5 80.5t-86.5 30.5q-52 0 -83 -30.5t-31 -80.5z" />
    <glyph glyph-name="euro" unicode="&#x20ac;" horiz-adv-x="1359" 
d="M938 -33q-243 0 -415.5 131.5t-231.5 352.5h-168v143h143q-3 22 -3 77.5t3 78.5h-143v143h168q59 221 231.5 352t415.5 131q202 0 365 -94l-95 -168q-115 78 -270 78q-158 0 -273.5 -79.5t-168.5 -219.5h594l-86 -143h-541q-3 -22 -3 -77.5t3 -78.5h450l-82 -143h-335
q53 -140 168.5 -219.5t273.5 -79.5q193 0 328 110l94 -160q-174 -135 -422 -135z" />
    <glyph glyph-name="hryvniasign" unicode="&#x20b4;" horiz-adv-x="1275" 
d="M752 -31q-187 0 -305.5 112.5t-118.5 266.5q0 64 24 129h-106v144h203q81 78 202 127l15 6l-420 2v143l676 -4q51 60 51 127q0 77 -65.5 131.5t-182.5 54.5q-94 0 -191.5 -35t-160.5 -94l-107 148q97 73 215.5 111t235.5 38q208 0 335.5 -102t127.5 -246q0 -70 -33 -135
h100v-143l-213 2q-79 -70 -209 -123l-20 -8h442v-144h-688q-43 -58 -43 -127q0 -87 67 -149t187 -62q108 0 219 52.5t174 123.5l113 -127q-114 -106 -252.5 -162.5t-271.5 -56.5z" />
    <glyph glyph-name="trademark" unicode="&#x2122;" horiz-adv-x="1904" 
d="M391 774v152h90v364h-121v-110h-131v262h664v-262h-131v110h-121v-364h90v-152h-340zM971 774v152h90v364h-90v152h299l160 -344h16l168 344h291v-152h-90v-364h90v-152h-242v340l12 111l-12 4l-172 -344h-107l-172 344l-12 -4l12 -111v-340h-241z" />
    <glyph glyph-name="partialdifferential" unicode="&#x2202;" horiz-adv-x="1236" 
d="M627 -33q-122 0 -223.5 50.5t-166.5 157.5t-65 255q0 264 152 416.5t401 152.5q176 0 303 -73q-21 196 -112 284t-257 88q-152 0 -290 -61l-54 152q160 86 377 86q74 0 142.5 -15t143 -58.5t128 -112t88.5 -185t35 -268.5q0 -143 -21 -269.5t-67.5 -237.5t-115.5 -190.5
t-170.5 -125.5t-227.5 -46zM369 430q0 -135 82.5 -213t199.5 -78q80 0 143.5 32.5t105.5 87.5t71 132.5t43 161.5t18 180q-121 94 -295 94q-95 0 -167.5 -30.5t-115.5 -85.5t-64 -125.5t-21 -155.5z" />
    <glyph glyph-name="emptyset" unicode="&#x2205;" horiz-adv-x="1232" 
d="M356 -82l-110 82l86 119q-75 75 -117.5 174t-42.5 207q0 145 71 267.5t194 193.5t268 71q131 0 245 -57l94 131l119 -74l-98 -139q81 -75 126.5 -176.5t45.5 -216.5q0 -145 -71 -268t-193.5 -194t-267.5 -71q-142 0 -263 70zM324 500q0 -146 98 -258l438 606
q-81 33 -155 33q-160 0 -270.5 -110.5t-110.5 -270.5zM532 160q80 -41 173 -41q160 0 270 110.5t110 270.5t-110 270z" />
    <glyph glyph-name="increment" unicode="&#x2206;" horiz-adv-x="1445" 
d="M90 0l578 1450h200l578 -1450h-1356zM377 184h782l-356 914l-33 127h-16l-29 -127z" />
    <glyph glyph-name="naryproduct" unicode="&#x220f;" horiz-adv-x="1294" 
d="M295 0v1257h-148v185h1147v-185h-147v-1257h-201v1257h-450v-1257h-201z" />
    <glyph glyph-name="narysummation" unicode="&#x2211;" horiz-adv-x="1224" 
d="M221 0v176l479 471l78 66v20l-78 66l-479 467v176h1004v-185h-602l-115 13l-4 -13l540 -524v-16l-561 -533l4 -12l136 12h602v-184h-1004z" />
    <glyph glyph-name="minus" unicode="&#x2212;" horiz-adv-x="1150" 
d="M254 504v176h897v-176h-897z" />
    <glyph glyph-name="squareroot" unicode="&#x221a;" horiz-adv-x="1191" 
d="M602 -16l-356 1015h213l192 -577l29 -119h16l29 119l446 1339h390v-180h-242l-545 -1597h-172z" />
    <glyph glyph-name="infinity" unicode="&#x221e;" horiz-adv-x="1691" 
d="M586 242q-160 0 -262.5 98t-102.5 254q0 157 102.5 256.5t262.5 99.5q199 0 368 -221h17q98 111 181 166t175 55q160 0 262.5 -99.5t102.5 -256.5q0 -155 -105.5 -251.5t-267.5 -96.5q-199 0 -361 213h-16q-96 -109 -179.5 -163t-176.5 -54zM401 594q0 -80 50.5 -128
t138.5 -48q127 0 254 160v16q-72 90 -129.5 135t-124.5 45q-87 0 -138 -50.5t-51 -129.5zM1069 590q72 -86 129.5 -129t124.5 -43q88 0 138 48t50 128q0 79 -50.5 129.5t-137.5 50.5q-67 0 -122.5 -40.5t-131.5 -127.5v-16z" />
    <glyph glyph-name="integral" unicode="&#x222b;" horiz-adv-x="962" 
d="M0 -270q12 -4 41 -4q42 0 79 7.5t74 26.5t65 49.5t47.5 79t25.5 111.5l102 1085q8 90 39.5 166.5t76 128.5t99.5 89t110.5 54t108.5 17q70 0 95 -8v-176q-12 4 -41 4q-53 0 -98.5 -13.5t-87.5 -44t-70 -87t-35 -134.5l-103 -1081q-8 -90 -39.5 -166.5t-76 -128.5
t-99.5 -89t-110.5 -54t-108.5 -17q-61 0 -94 9v176z" />
    <glyph glyph-name="almostequalto" unicode="&#x2248;" horiz-adv-x="1294" 
d="M983 221q-98 0 -205 62l-90 53q-56 33 -131 33q-106 0 -180 -99l-123 103q52 76 135.5 124t163.5 48q112 0 213 -58l94 -53q32 -18 57.5 -26t41 -9.5t45.5 -1.5q43 0 90 26.5t77 68.5l123 -103q-49 -73 -137 -120.5t-174 -47.5zM254 770q52 76 135.5 124t163.5 48
q114 0 213 -57l94 -54q31 -18 57.5 -26t40.5 -9t46 -1q43 0 90 26t77 68l123 -103q-49 -73 -137 -120.5t-174 -47.5q-98 0 -205 62l-90 53q-56 33 -131 33q-107 0 -180 -98z" />
    <glyph glyph-name="notequalto" unicode="&#x2260;" horiz-adv-x="1200" 
d="M369 25l131 270h-246v176h332l114 238h-446v176h532l132 270h172l-132 -270h242v-176h-328l-110 -238h438v-176h-524l-131 -270h-176z" />
    <glyph glyph-name="lessthanorequalto" unicode="&#x2264;" horiz-adv-x="1146" 
d="M254 147v168h885v-168h-885zM254 655v131l885 279v-188l-463 -132l-135 -20v-16l135 -17l463 -131v-184z" />
    <glyph glyph-name="greaterthanorequalto" unicode="&#x2265;" horiz-adv-x="1146" 
d="M270 147v168h885v-168h-885zM270 377v184l463 131l135 17v16l-135 20l-463 132v188l885 -279v-131z" />
    <glyph glyph-name="lozenge" unicode="&#x25ca;" horiz-adv-x="1064" 
d="M500 -20l-426 737l430 741h135l426 -741l-430 -737h-135zM274 721l242 -418l45 -102h17l45 102l241 410l-241 422l-45 102h-17l-45 -102z" />
    <glyph glyph-name="fi" unicode="&#xfb01;" horiz-adv-x="1413" 
d="M184 0v172h160v655h-180v172h180v168q0 112 57.5 199t146.5 130.5t189 43.5q75 0 127 -16l-55 -162q-30 6 -59 6q-87 0 -148 -54.5t-61 -146.5v-168h721v-827h159v-172h-516v172h160v655h-524v-655h159v-172h-516zM983 1368l188 186l187 -186l-187 -188z" />
    <glyph glyph-name="fl" unicode="&#xfb02;" horiz-adv-x="1413" 
d="M184 0v172h160v655h-180v172h180v152q0 112 57.5 199t146.5 130.5t189 43.5h525v-1352h159v-172h-516v172h160v1180h-315q-87 0 -148 -54.5t-61 -146.5v-152h336v-172h-336v-655h159v-172h-516z" />
    <glyph glyph-name="G.ss03" horiz-adv-x="1634" 
d="M197 721q0 217 91.5 388.5t259.5 268.5t386 97q276 0 438 -152l6 152h164v-398h-178q-70 102 -180 157.5t-250 55.5q-242 0 -389.5 -158t-147.5 -411q0 -256 145 -412.5t384 -156.5q197 0 325.5 104t153.5 285h-537v180h746v-78q0 -142 -48.5 -266t-136.5 -215t-218 -143
t-285 -52q-216 0 -382.5 97t-256.5 268t-90 389z" />
    <glyph glyph-name="a.ss01" horiz-adv-x="1216" 
d="M532 -33q-90 0 -162 26t-116 69.5t-67 97.5t-23 114q0 113 85.5 198t254.5 106l299 36q31 3 48 19.5t17 42.5q0 96 -69 144t-172 48q-89 0 -163 -34t-112 -101l-159 98q80 100 196 150.5t242 50.5q116 0 212.5 -41.5t159 -131.5t62.5 -216v-471h160v-172h-199
q-57 0 -95 38t-38 95v31h-16q-43 -82 -130.5 -139.5t-214.5 -57.5zM360 279q0 -64 49.5 -106t147.5 -42q155 0 233 83.5t78 244.5v12l-331 -37q-94 -10 -135.5 -53t-41.5 -102z" />
    <glyph glyph-name="aacute.ss01" horiz-adv-x="1216" 
d="M520 1135l131 307h221l-172 -307h-180zM164 274q0 113 85.5 198t254.5 106l299 36q31 3 48 19.5t17 42.5q0 96 -69 144t-172 48q-89 0 -163 -34t-112 -101l-159 98q80 100 196 150.5t242 50.5q116 0 212.5 -41.5t159 -131.5t62.5 -216v-471h160v-172h-199q-57 0 -95 38
t-38 95v31h-16q-43 -82 -130.5 -139.5t-214.5 -57.5q-90 0 -162 26t-116 69.5t-67 97.5t-23 114zM360 279q0 -64 49.5 -106t147.5 -42q155 0 233 83.5t78 244.5v12l-331 -37q-94 -10 -135.5 -53t-41.5 -102z" />
    <glyph glyph-name="abreve.ss01" horiz-adv-x="1216" 
d="M631 1147q-93 0 -165.5 43.5t-109.5 110t-37 141.5h160q3 -56 40.5 -95.5t111.5 -39.5q71 0 107.5 39.5t39.5 95.5h164q0 -75 -35.5 -141.5t-108.5 -110t-167 -43.5zM164 274q0 113 85.5 198t254.5 106l299 36q31 3 48 19.5t17 42.5q0 96 -69 144t-172 48q-89 0 -163 -34
t-112 -101l-159 98q80 100 196 150.5t242 50.5q116 0 212.5 -41.5t159 -131.5t62.5 -216v-471h160v-172h-199q-57 0 -95 38t-38 95v31h-16q-43 -82 -130.5 -139.5t-214.5 -57.5q-90 0 -162 26t-116 69.5t-67 97.5t-23 114zM360 279q0 -64 49.5 -106t147.5 -42
q155 0 233 83.5t78 244.5v12l-331 -37q-94 -10 -135.5 -53t-41.5 -102z" />
    <glyph glyph-name="acircumflex.ss01" horiz-adv-x="1216" 
d="M295 1135l205 307h245l205 -307h-172l-147 180h-17l-147 -180h-172zM164 274q0 113 85.5 198t254.5 106l299 36q31 3 48 19.5t17 42.5q0 96 -69 144t-172 48q-89 0 -163 -34t-112 -101l-159 98q80 100 196 150.5t242 50.5q116 0 212.5 -41.5t159 -131.5t62.5 -216v-471
h160v-172h-199q-57 0 -95 38t-38 95v31h-16q-43 -82 -130.5 -139.5t-214.5 -57.5q-90 0 -162 26t-116 69.5t-67 97.5t-23 114zM360 279q0 -64 49.5 -106t147.5 -42q155 0 233 83.5t78 244.5v12l-331 -37q-94 -10 -135.5 -53t-41.5 -102z" />
    <glyph glyph-name="adieresis.ss01" horiz-adv-x="1216" 
d="M418 1124l-187 187l187 186l186 -186zM164 274q0 113 85.5 198t254.5 106l299 36q31 3 48 19.5t17 42.5q0 96 -69 144t-172 48q-89 0 -163 -34t-112 -101l-159 98q80 100 196 150.5t242 50.5q116 0 212.5 -41.5t159 -131.5t62.5 -216v-471h160v-172h-199q-57 0 -95 38
t-38 95v31h-16q-43 -82 -130.5 -139.5t-214.5 -57.5q-90 0 -162 26t-116 69.5t-67 97.5t-23 114zM360 279q0 -64 49.5 -106t147.5 -42q155 0 233 83.5t78 244.5v12l-331 -37q-94 -10 -135.5 -53t-41.5 -102zM641 1311l186 186l187 -186l-187 -187z" />
    <glyph glyph-name="agrave.ss01" horiz-adv-x="1216" 
d="M537 1135l-172 307h221l131 -307h-180zM164 274q0 113 85.5 198t254.5 106l299 36q31 3 48 19.5t17 42.5q0 96 -69 144t-172 48q-89 0 -163 -34t-112 -101l-159 98q80 100 196 150.5t242 50.5q116 0 212.5 -41.5t159 -131.5t62.5 -216v-471h160v-172h-199q-57 0 -95 38
t-38 95v31h-16q-43 -82 -130.5 -139.5t-214.5 -57.5q-90 0 -162 26t-116 69.5t-67 97.5t-23 114zM360 279q0 -64 49.5 -106t147.5 -42q155 0 233 83.5t78 244.5v12l-331 -37q-94 -10 -135.5 -53t-41.5 -102z" />
    <glyph glyph-name="aring.ss01" horiz-adv-x="1216" 
d="M623 1090q-92 0 -159 66.5t-67 158.5t67 158.5t159 66.5t158.5 -66.5t66.5 -158.5t-66.5 -158.5t-158.5 -66.5zM164 274q0 113 85.5 198t254.5 106l299 36q31 3 48 19.5t17 42.5q0 96 -69 144t-172 48q-89 0 -163 -34t-112 -101l-159 98q80 100 196 150.5t242 50.5
q116 0 212.5 -41.5t159 -131.5t62.5 -216v-471h160v-172h-199q-57 0 -95 38t-38 95v31h-16q-43 -82 -130.5 -139.5t-214.5 -57.5q-90 0 -162 26t-116 69.5t-67 97.5t-23 114zM360 279q0 -64 49.5 -106t147.5 -42q155 0 233 83.5t78 244.5v12l-331 -37q-94 -10 -135.5 -53
t-41.5 -102zM528 1319q0 -42 27 -68t68 -26q40 0 67 26t27 68q0 39 -27 64.5t-67 25.5t-67.5 -25.5t-27.5 -64.5z" />
    <glyph glyph-name="atilde.ss01" horiz-adv-x="1216" 
d="M762 1188q-67 0 -139 41q-78 45 -111 45q-34 0 -50.5 -16.5t-19.5 -53.5h-155q0 110 60 170t153 60q67 0 139 -41q78 -45 111 -45q34 0 50 16t19 53h156q0 -110 -60 -169.5t-153 -59.5zM164 274q0 113 85.5 198t254.5 106l299 36q31 3 48 19.5t17 42.5q0 96 -69 144
t-172 48q-89 0 -163 -34t-112 -101l-159 98q80 100 196 150.5t242 50.5q116 0 212.5 -41.5t159 -131.5t62.5 -216v-471h160v-172h-199q-57 0 -95 38t-38 95v31h-16q-43 -82 -130.5 -139.5t-214.5 -57.5q-90 0 -162 26t-116 69.5t-67 97.5t-23 114zM360 279q0 -64 49.5 -106
t147.5 -42q155 0 233 83.5t78 244.5v12l-331 -37q-94 -10 -135.5 -53t-41.5 -102z" />
    <glyph glyph-name="u.ss01" horiz-adv-x="1392" 
d="M1384 999v-172h-159v-655h159v-172h-340v143h-16q-57 -84 -147.5 -130t-188.5 -46q-59 0 -114 16t-104.5 50t-86.5 83t-58.5 119t-21.5 154v438h-160v172h357v-610q0 -119 64.5 -180.5t160.5 -61.5q55 0 107.5 20t95.5 57t69.5 98.5t26.5 136.5v368h-160v172h516z" />
    <glyph glyph-name="uacute.ss01" horiz-adv-x="1392" 
d="M1384 999v-172h-159v-655h159v-172h-340v143h-16q-57 -84 -147.5 -130t-188.5 -46q-59 0 -114 16t-104.5 50t-86.5 83t-58.5 119t-21.5 154v438h-160v172h357v-610q0 -119 64.5 -180.5t160.5 -61.5q55 0 107.5 20t95.5 57t69.5 98.5t26.5 136.5v368h-160v172h516z
M651 1135l131 307h222l-173 -307h-180z" />
    <glyph glyph-name="ucircumflex.ss01" horiz-adv-x="1392" 
d="M1384 999v-172h-159v-655h159v-172h-340v143h-16q-57 -84 -147.5 -130t-188.5 -46q-59 0 -114 16t-104.5 50t-86.5 83t-58.5 119t-21.5 154v438h-160v172h357v-610q0 -119 64.5 -180.5t160.5 -61.5q55 0 107.5 20t95.5 57t69.5 98.5t26.5 136.5v368h-160v172h516z
M426 1135l205 307h246l204 -307h-172l-147 180h-17l-147 -180h-172z" />
    <glyph glyph-name="udieresis.ss01" horiz-adv-x="1392" 
d="M1384 999v-172h-159v-655h159v-172h-340v143h-16q-57 -84 -147.5 -130t-188.5 -46q-59 0 -114 16t-104.5 50t-86.5 83t-58.5 119t-21.5 154v438h-160v172h357v-610q0 -119 64.5 -180.5t160.5 -61.5q55 0 107.5 20t95.5 57t69.5 98.5t26.5 136.5v368h-160v172h516z
M362 1311l187 186l186 -186l-186 -187zM772 1311l186 186l187 -186l-187 -187z" />
    <glyph glyph-name="ugrave.ss01" horiz-adv-x="1392" 
d="M1384 999v-172h-159v-655h159v-172h-340v143h-16q-57 -84 -147.5 -130t-188.5 -46q-59 0 -114 16t-104.5 50t-86.5 83t-58.5 119t-21.5 154v438h-160v172h357v-610q0 -119 64.5 -180.5t160.5 -61.5q55 0 107.5 20t95.5 57t69.5 98.5t26.5 136.5v368h-160v172h516z
M496 1442h221l131 -307h-180z" />
    <glyph glyph-name="f_b" horiz-adv-x="2101" 
d="M184 0v172h160v655h-180v172h180v152q0 112 57.5 199t146.5 130.5t189 43.5h529v-525l-17 -127h13q129 160 335 160q214 0 359 -150.5t145 -381.5t-145 -382t-359 -151q-206 0 -335 160h-13v-127h-180v1352h-319q-87 0 -148 -54.5t-61 -146.5v-152h336v-172h-336v-655
h159v-172h-516zM1249 500q0 -160 91.5 -260.5t236.5 -100.5t236.5 100.5t91.5 260.5t-91.5 260t-236.5 100t-236.5 -100t-91.5 -260z" />
    <glyph glyph-name="f_f_b" horiz-adv-x="2801" 
d="M184 0v172h160v655h-180v172h180v168q0 112 57.5 199t146.5 130.5t189 43.5q137 0 221 -57l-81 -148q-54 33 -127 33q-87 0 -148 -54.5t-61 -146.5v-168h503v168q9 162 125 259.5t269 97.5h528v-525l-16 -127h12q129 160 336 160q214 0 359 -150.5t145 -381.5t-145 -382
t-359 -151q-207 0 -336 160h-12v-127h-181v1352h-319q-87 0 -148 -54.5t-61 -146.5v-152h336v-172h-336v-655h160v-172h-516v172h159v655h-503v-655h159v-172h-516zM1950 500q0 -160 91 -260.5t236 -100.5t236.5 100.5t91.5 260.5t-91.5 260t-236.5 100t-236 -100t-91 -260z
" />
    <glyph glyph-name="f_f_h" horiz-adv-x="2859" 
d="M184 0v172h160v655h-180v172h180v168q0 112 57.5 199t146.5 130.5t189 43.5q134 0 221 -57l-81 -148q-62 33 -127 33q-87 0 -148 -54.5t-61 -146.5v-168h524v152q0 112 57.5 199t146.5 130.5t189 43.5h529v-533l-17 -135h12q60 85 150.5 130.5t189.5 45.5q59 0 114 -16
t104.5 -50t86.5 -83t58.5 -119t21.5 -154v-438h160v-172h-356v610q0 119 -64.5 180.5t-160.5 61.5q-55 0 -107.5 -19.5t-95.5 -57t-69.5 -98.5t-26.5 -136v-369h159v-172h-516v172h160v1180h-320q-87 0 -147.5 -54.5t-60.5 -146.5v-152h335v-172h-335v-655h159v-172h-516
v172h160v655h-524v-655h159v-172h-516z" />
    <glyph glyph-name="f_f_j" horiz-adv-x="2041" 
d="M1786 827h-524v-655h159v-172h-516v172h160v655h-524v-655h159v-172h-516v172h160v655h-180v172h180v168q0 112 57.5 199t146.5 130.5t189 43.5q134 0 221 -57l-81 -148q-62 33 -127 33q-87 0 -148 -54.5t-61 -146.5v-168h524v168q0 112 57.5 199t146.5 130.5t189 43.5
q72 0 127 -16l-55 -162q-30 6 -60 6q-87 0 -147.5 -54.5t-60.5 -146.5v-168h720v-1325q0 -57 -38 -95t-95 -38h-399v172h336v1114zM1708 1368l188 186l187 -186l-187 -188z" />
    <glyph glyph-name="f_f_k" horiz-adv-x="2738" 
d="M184 0v172h160v655h-180v172h180v168q0 112 57.5 199t146.5 130.5t189 43.5q134 0 221 -57l-81 -148q-62 33 -127 33q-87 0 -148 -54.5t-61 -146.5v-168h524v152q0 112 57.5 199t146.5 130.5t189 43.5h524v-918h136l186 221v172h383v-172h-168l-246 -282l305 -373h160
v-172h-405v172l-211 262h-140v-434h-356v172h160v1180h-316q-87 0 -147.5 -54.5t-60.5 -146.5v-152h335v-172h-335v-655h159v-172h-516v172h160v655h-524v-655h159v-172h-516z" />
    <glyph glyph-name="f_h" horiz-adv-x="2134" 
d="M184 0v172h160v655h-180v172h180v152q0 112 57.5 199t146.5 130.5t189 43.5h525v-533l-17 -135h12q58 82 149.5 129t190.5 47q59 0 114 -16t104.5 -50t86.5 -83t58.5 -119t21.5 -154v-438h160v-172h-356v610q0 119 -64.5 180.5t-160.5 61.5q-55 0 -107.5 -19.5t-95.5 -57
t-69.5 -98.5t-26.5 -136v-369h159v-172h-516v172h160v1180h-315q-87 0 -148 -54.5t-61 -146.5v-152h336v-172h-336v-655h159v-172h-516z" />
    <glyph glyph-name="f_j" horiz-adv-x="1316" 
d="M1065 827h-524v-655h159v-172h-516v172h160v655h-180v172h180v168q0 112 57.5 199t146.5 130.5t189 43.5q72 0 127 -16l-55 -162q-30 6 -59 6q-87 0 -148 -54.5t-61 -146.5v-168h721v-1325q0 -57 -38.5 -95t-95.5 -38h-399v172h336v1114zM983 1368l188 186l187 -186
l-187 -188z" />
    <glyph glyph-name="f_k" horiz-adv-x="2017" 
d="M184 0v172h160v655h-180v172h180v152q0 112 57.5 199t146.5 130.5t189 43.5h525v-918h135l188 221h-2v172h383v-172h-166l-248 -282l306 -373h159v-172h-405v172l-211 262h-139v-434h-357v172h160v1180h-315q-87 0 -148 -54.5t-61 -146.5v-152h336v-172h-336v-655h159
v-172h-516z" />
    <glyph glyph-name="f_t" horiz-adv-x="1607" 
d="M184 0v172h160v655h-180v172h180v168q0 112 57.5 199t146.5 130.5t189 43.5q137 0 221 -57l-81 -148q-56 33 -127 33q-87 0 -148 -54.5t-61 -146.5v-168h522v287h197v-287h335v-172h-335v-655h335v-172h-399q-57 0 -95 38t-38 95v694h-522v-655h159v-172h-516z" />
    <glyph glyph-name="t_t" horiz-adv-x="1626" 
d="M1194 0q-57 0 -95 38t-38 95v694h-541v-655h336v-172h-399q-57 0 -95 38t-38 95v694h-201v172h201v287h196v-287h541v287h196v-287h336v-172h-336v-606q0 -22 14 -35.5t36 -13.5h286v-172h-399z" />
    <glyph glyph-name="a.sc" horiz-adv-x="1339" 
d="M592 438h274l-90 230l-37 118h-16l-37 -118zM123 0v172h166l268 655h-160v172h443l342 -827h157v-172h-514v172h150l-43 107h-402l-45 -107h152v-172h-514z" />
    <glyph glyph-name="aacute.sc" horiz-adv-x="1339" 
d="M592 438h274l-90 230l-37 118h-16l-37 -118zM123 0v172h166l268 655h-160v172h443l342 -827h157v-172h-514v172h150l-43 107h-402l-45 -107h152v-172h-514zM631 1135l131 307h221l-172 -307h-180z" />
    <glyph glyph-name="abreve.sc" horiz-adv-x="1339" 
d="M592 438h274l-90 230l-37 118h-16l-37 -118zM123 0v172h166l268 655h-160v172h443l342 -827h157v-172h-514v172h150l-43 107h-402l-45 -107h152v-172h-514zM434 1442h160q3 -56 40 -95.5t111 -39.5q71 0 108 39.5t40 95.5h164q0 -117 -85.5 -206t-226.5 -89
q-138 0 -224.5 89t-86.5 206z" />
    <glyph glyph-name="acircumflex.sc" horiz-adv-x="1339" 
d="M592 438h274l-90 230l-37 118h-16l-37 -118zM123 0v172h166l268 655h-160v172h443l342 -827h157v-172h-514v172h150l-43 107h-402l-45 -107h152v-172h-514zM406 1135l204 307h246l205 -307h-172l-148 180h-16l-147 -180h-172z" />
    <glyph glyph-name="adieresis.sc" horiz-adv-x="1339" 
d="M592 438h274l-90 230l-37 118h-16l-37 -118zM123 0v172h166l268 655h-160v172h443l342 -827h157v-172h-514v172h150l-43 107h-402l-45 -107h152v-172h-514zM342 1311l186 186l187 -186l-187 -187zM752 1311l186 186l186 -186l-186 -187z" />
    <glyph glyph-name="agrave.sc" horiz-adv-x="1339" 
d="M592 438h274l-90 230l-37 118h-16l-37 -118zM123 0v172h166l268 655h-160v172h443l342 -827h157v-172h-514v172h150l-43 107h-402l-45 -107h152v-172h-514zM475 1442h221l131 -307h-180z" />
    <glyph glyph-name="aring.sc" horiz-adv-x="1339" 
d="M592 438h274l-90 230l-37 118h-16l-37 -118zM123 0v172h166l268 655h-160v172h443l342 -827h157v-172h-514v172h150l-43 107h-402l-45 -107h152v-172h-514zM508 1315q0 92 66.5 158.5t158.5 66.5t158.5 -66.5t66.5 -158.5t-66.5 -158.5t-158.5 -66.5t-158.5 66.5
t-66.5 158.5zM639 1319q0 -42 27 -68t67 -26t67 26t27 68q0 39 -27 64.5t-67 25.5t-67 -25.5t-27 -64.5z" />
    <glyph glyph-name="atilde.sc" horiz-adv-x="1339" 
d="M592 438h274l-90 230l-37 118h-16l-37 -118zM123 0v172h166l268 655h-160v172h443l342 -827h157v-172h-514v172h150l-43 107h-402l-45 -107h152v-172h-514zM397 1204q0 110 60 170t153 60q68 0 140 -41q78 -45 110 -45q34 0 50.5 16t19.5 53h155q0 -110 -60 -169.5
t-153 -59.5q-67 0 -139 41q-78 45 -110 45q-34 0 -50.5 -16.5t-19.5 -53.5h-156z" />
    <glyph glyph-name="ae.sc" horiz-adv-x="1736" 
d="M637 438h299l-62 348h-45l-57 -118zM123 0v172h164l381 655h-160v172h1171v-331h-172v159h-442l39 -225h317v-168h-288l45 -262h342v160h172v-332h-680l-47 279h-418l-62 -107h152v-172h-514z" />
    <glyph glyph-name="b.sc" horiz-adv-x="1204" 
d="M164 0v172h160v655h-160v172h684q135 0 219 -75.5t84 -198.5q0 -71 -33 -116.5t-106 -76.5v-16q79 -25 127.5 -89t48.5 -144q0 -123 -89.5 -203t-230.5 -80h-704zM512 168h365q55 0 86.5 34t31.5 93t-34.5 97t-92.5 38h-356v-262zM512 598h336q55 0 85 31.5t30 87.5
q0 54 -28.5 84t-82.5 30h-340v-233z" />
    <glyph glyph-name="c.sc" horiz-adv-x="1157" 
d="M688 -33q-230 0 -377 150t-147 383t147 382.5t377 149.5q162 0 289 -96l4 96h164v-315h-178q-110 135 -279 135q-145 0 -236.5 -98t-91.5 -254q0 -157 91.5 -255t236.5 -98q178 0 287 132l135 -111q-71 -96 -179.5 -148.5t-242.5 -52.5z" />
    <glyph glyph-name="ccedilla.sc" horiz-adv-x="1157" 
d="M664 -442q-72 0 -132.5 27t-93.5 67l78 90q70 -70 148 -70q39 0 66.5 19t27.5 51q0 29 -24 47t-66 18q-34 0 -58 -12l-69 82l63 96q-198 28 -319 172t-121 355q0 233 147 382.5t377 149.5q162 0 289 -96l4 96h164v-315h-178q-110 135 -279 135q-145 0 -236.5 -98
t-91.5 -254q0 -157 91.5 -255t236.5 -98q178 0 287 132l135 -111q-130 -178 -367 -199l-34 -51l4 -8q83 0 137.5 -47.5t54.5 -120.5q0 -77 -61.5 -130.5t-179.5 -53.5z" />
    <glyph glyph-name="d.sc" horiz-adv-x="1236" 
d="M164 0v172h160v655h-160v172h549q233 0 378.5 -139t145.5 -360q0 -222 -145.5 -361t-378.5 -139h-549zM512 172h205q150 0 238.5 90.5t88.5 241.5q0 150 -89.5 236.5t-241.5 86.5h-201v-655z" />
    <glyph glyph-name="eth.sc" horiz-adv-x="1245" 
d="M172 0v172h160v240h-168v176h168v239h-160v172h549q233 0 378.5 -139t145.5 -360q0 -222 -145.5 -361t-378.5 -139h-549zM520 172h205q150 0 239 90.5t89 241.5q0 150 -90 236.5t-242 86.5h-201v-239h244v-176h-244v-240z" />
    <glyph glyph-name="e.sc" horiz-adv-x="1130" 
d="M164 0v172h160v655h-160v172h930v-331h-172v159h-402v-225h316v-168h-316v-262h414v160h172v-332h-942z" />
    <glyph glyph-name="eacute.sc" horiz-adv-x="1130" 
d="M164 0v172h160v655h-160v172h930v-331h-172v159h-402v-225h316v-168h-316v-262h414v160h172v-332h-942zM612 1135l131 307h222l-172 -307h-181z" />
    <glyph glyph-name="ecircumflex.sc" horiz-adv-x="1130" 
d="M164 0v172h160v655h-160v172h930v-331h-172v159h-402v-225h316v-168h-316v-262h414v160h172v-332h-942zM387 1135l205 307h246l204 -307h-172l-147 180h-16l-148 -180h-172z" />
    <glyph glyph-name="edieresis.sc" horiz-adv-x="1130" 
d="M164 0v172h160v655h-160v172h930v-331h-172v159h-402v-225h316v-168h-316v-262h414v160h172v-332h-942zM324 1311l186 186l186 -186l-186 -187zM733 1311l187 186l186 -186l-186 -187z" />
    <glyph glyph-name="egrave.sc" horiz-adv-x="1130" 
d="M164 0v172h160v655h-160v172h930v-331h-172v159h-402v-225h316v-168h-316v-262h414v160h172v-332h-942zM457 1442h221l131 -307h-180z" />
    <glyph glyph-name="f.sc" horiz-adv-x="1118" 
d="M164 0v172h160v655h-160v172h930v-331h-172v159h-402v-237h297v-168h-297v-250h160v-172h-516z" />
    <glyph glyph-name="g.sc" horiz-adv-x="1204" 
d="M668 -33q-103 0 -194.5 36t-160.5 102.5t-109 168.5t-40 226q0 233 155 382.5t398 149.5q171 0 270 -71l4 71h164v-315h-178q-26 63 -97.5 99t-162.5 36q-157 0 -257 -98t-100 -254q0 -158 94.5 -255.5t250.5 -97.5q116 0 189 59t73 159v32h-283v160h471v-557h-172v123
l-16 4q-88 -160 -299 -160z" />
    <glyph glyph-name="h.sc" horiz-adv-x="1343" 
d="M164 0v172h160v655h-160v172h516v-172h-160v-221h467v221h-160v172h516v-172h-159v-655h159v-172h-516v172h160v262h-467v-262h160v-172h-516z" />
    <glyph glyph-name="i.sc" horiz-adv-x="684" 
d="M164 0v172h160v655h-160v172h520v-172h-160v-655h160v-172h-520z" />
    <glyph glyph-name="iacute.sc" horiz-adv-x="684" 
d="M164 0v172h160v655h-160v172h520v-172h-160v-655h160v-172h-520zM319 1135l132 307h221l-172 -307h-181z" />
    <glyph glyph-name="icircumflex.sc" horiz-adv-x="684" 
d="M135 0v172h160v655h-160v172h520v-172h-159v-655h159v-172h-520zM106 1135l173 307h229l172 -307h-172l-107 163h-16l-106 -163h-173z" />
    <glyph glyph-name="idieresis.sc" horiz-adv-x="684" 
d="M49 0v172h160v655h-160v172h520v-172h-159v-655h159v-172h-520zM-66 1366l187 186l186 -186l-186 -186zM307 1366l187 186l186 -186l-186 -186z" />
    <glyph glyph-name="igrave.sc" horiz-adv-x="684" 
d="M164 0v172h160v655h-160v172h520v-172h-160v-655h160v-172h-520zM164 1442h221l131 -307h-180z" />
    <glyph glyph-name="j.sc" horiz-adv-x="1032" 
d="M475 -33q-99 0 -191.5 40.5t-144.5 107.5l123 135q41 -53 100 -82t117 -29q91 0 142 68t51 186v434h-160v172h516v-172h-160v-434q0 -188 -106 -307t-287 -119z" />
    <glyph glyph-name="k.sc" horiz-adv-x="1275" 
d="M164 0v172h160v655h-160v172h356v-393h135l189 221v172h381v-172h-166l-248 -282l305 -373h160v-172h-406v172l-211 262h-139v-434h-356z" />
    <glyph glyph-name="l.sc" horiz-adv-x="1110" 
d="M164 0v172h160v655h-160v172h516v-172h-160v-655h393v160h172v-332h-921z" />
    <glyph glyph-name="lslash.sc" horiz-adv-x="1110" 
d="M168 289v168l156 69v301h-160v172h516v-172h-160v-213l217 97v-168l-217 -97v-274h393v160h172v-332h-921v172h160v186z" />
    <glyph glyph-name="m.sc" horiz-adv-x="1669" 
d="M164 0v172h160v655h-160v172h444l264 -520l39 -119h19l41 119l272 520h426v-172h-160v-655h160v-172h-516v172h160v426l12 127l-14 4l-295 -598h-199l-295 594l-14 -4l12 -123v-426h160v-172h-516z" />
    <glyph glyph-name="n.sc" horiz-adv-x="1392" 
d="M164 0v172h160v655h-160v172h397l479 -737l13 4l-13 119v442h-159v172h512v-172h-160v-827h-238l-479 737l-12 -4l12 -119v-442h160v-172h-512z" />
    <glyph glyph-name="ntilde.sc" horiz-adv-x="1392" 
d="M164 0v172h160v655h-160v172h397l479 -737l13 4l-13 119v442h-159v172h512v-172h-160v-827h-238l-479 737l-12 -4l12 -119v-442h160v-172h-512zM442 1204q0 110 60 170t153 60q68 0 140 -41q78 -45 110 -45q34 0 50.5 16t19.5 53h155q0 -110 -59.5 -169.5t-152.5 -59.5
q-68 0 -140 41q-78 45 -110 45q-34 0 -50.5 -16.5t-19.5 -53.5h-156z" />
    <glyph glyph-name="o.sc" horiz-adv-x="1212" 
d="M688 -33q-230 0 -377 150t-147 383t147 382.5t377 149.5t377 -149.5t147 -382.5t-147 -383t-377 -150zM360 500q0 -160 91.5 -260.5t236.5 -100.5t236.5 100.5t91.5 260.5t-91.5 260t-236.5 100t-236.5 -100t-91.5 -260z" />
    <glyph glyph-name="oacute.sc" horiz-adv-x="1212" 
d="M688 -33q-230 0 -377 150t-147 383t147 382.5t377 149.5t377 -149.5t147 -382.5t-147 -383t-377 -150zM360 500q0 -160 91.5 -260.5t236.5 -100.5t236.5 100.5t91.5 260.5t-91.5 260t-236.5 100t-236.5 -100t-91.5 -260zM586 1135l131 307h221l-172 -307h-180z" />
    <glyph glyph-name="ocircumflex.sc" horiz-adv-x="1212" 
d="M688 -33q-230 0 -377 150t-147 383t147 382.5t377 149.5t377 -149.5t147 -382.5t-147 -383t-377 -150zM360 500q0 -160 91.5 -260.5t236.5 -100.5t236.5 100.5t91.5 260.5t-91.5 260t-236.5 100t-236.5 -100t-91.5 -260zM360 1135l205 307h246l205 -307h-172l-148 180
h-16l-148 -180h-172z" />
    <glyph glyph-name="odieresis.sc" horiz-adv-x="1212" 
d="M688 -33q-230 0 -377 150t-147 383t147 382.5t377 149.5t377 -149.5t147 -382.5t-147 -383t-377 -150zM297 1311l186 186l187 -186l-187 -187zM360 500q0 -160 91.5 -260.5t236.5 -100.5t236.5 100.5t91.5 260.5t-91.5 260t-236.5 100t-236.5 -100t-91.5 -260zM707 1311
l186 186l186 -186l-186 -187z" />
    <glyph glyph-name="ograve.sc" horiz-adv-x="1212" 
d="M688 -33q-230 0 -377 150t-147 383t147 382.5t377 149.5t377 -149.5t147 -382.5t-147 -383t-377 -150zM360 500q0 -160 91.5 -260.5t236.5 -100.5t236.5 100.5t91.5 260.5t-91.5 260t-236.5 100t-236.5 -100t-91.5 -260zM430 1442h221l131 -307h-180z" />
    <glyph glyph-name="oslash.sc" horiz-adv-x="1212" 
d="M688 -33q-148 0 -268 68l-84 -117l-111 82l84 119q-145 148 -145 381t147 382.5t377 149.5q130 0 238 -51l65 92l119 -74l-68 -94q81 -73 125.5 -177t44.5 -228q0 -233 -147 -383t-377 -150zM360 500q0 -132 64 -224l397 558q-59 26 -133 26q-145 0 -236.5 -100
t-91.5 -260zM524 182q70 -43 164 -43q145 0 236.5 100.5t91.5 260.5q0 152 -84 252z" />
    <glyph glyph-name="otilde.sc" horiz-adv-x="1212" 
d="M688 -33q-230 0 -377 150t-147 383t147 382.5t377 149.5t377 -149.5t147 -382.5t-147 -383t-377 -150zM352 1204q0 110 60 170t153 60q68 0 140 -41q78 -45 110 -45q34 0 50.5 16t19.5 53h155q0 -110 -60 -169.5t-153 -59.5q-67 0 -139 41q-78 45 -110 45
q-34 0 -50.5 -16.5t-19.5 -53.5h-156zM360 500q0 -160 91.5 -260.5t236.5 -100.5t236.5 100.5t91.5 260.5t-91.5 260t-236.5 100t-236.5 -100t-91.5 -260z" />
    <glyph glyph-name="oe.sc" horiz-adv-x="1822" 
d="M688 -33q-230 0 -377 150t-147 383t147 382.5t377 149.5q201 0 328 -121v88h770v-331h-172v159h-402v-225h316v-168h-316v-262h414v160h172v-332h-782v88q-127 -121 -328 -121zM360 500q0 -160 91.5 -260.5t236.5 -100.5t236.5 100.5t91.5 260.5t-91.5 260t-236.5 100
t-236.5 -100t-91.5 -260z" />
    <glyph glyph-name="p.sc" horiz-adv-x="1196" 
d="M164 0v172h160v655h-160v172h672q84 0 151.5 -26t108.5 -69.5t62.5 -97.5t21.5 -114q0 -61 -22 -118t-63.5 -103t-108.5 -74t-150 -28h-316v-197h160v-172h-516zM520 541h336q61 0 94 43.5t33 103.5q0 57 -33 98t-94 41h-336v-286z" />
    <glyph glyph-name="thorn.sc" horiz-adv-x="1196" 
d="M856 367q61 0 94 43.5t33 103.5q0 57 -33 98t-94 41h-336v-286h336zM164 0v172h160v655h-160v172h356v-174h316q84 0 151.5 -26t108.5 -69.5t62.5 -97.5t21.5 -114q0 -61 -22 -118t-63.5 -103t-108.5 -74t-150 -28h-316v-195h-356z" />
    <glyph glyph-name="q.sc" horiz-adv-x="1212" 
d="M711 385h174v-182q62 48 96.5 124.5t34.5 172.5q0 160 -91.5 260t-236.5 100t-236.5 -100t-91.5 -260t91.5 -260.5t236.5 -100.5h23v246zM164 500q0 233 147 382.5t377 149.5t377 -149.5t147 -382.5q0 -178 -88 -311t-239 -189v-158h-174v125h-23q-230 0 -377 150
t-147 383z" />
    <glyph glyph-name="r.sc" horiz-adv-x="1239" 
d="M164 0v172h160v655h-160v172h672q84 0 151.5 -26t108.5 -69.5t62.5 -97.5t21.5 -114q0 -76 -31.5 -141.5t-100 -112.5t-163.5 -57l-8 -12l57 -58l110 -139h175v-172h-406v172l-154 205h-139v-205h160v-172h-516zM520 541h336q61 0 94 43.5t33 103.5q0 57 -33 98t-94 41
h-336v-286z" />
    <glyph glyph-name="s.sc" horiz-adv-x="1019" 
d="M618 -33q-124 0 -236.5 48t-193.5 132v211h197v-135q105 -84 246 -84q91 0 141.5 33.5t50.5 93.5q0 90 -147 127l-164 41q-148 36 -221.5 112t-73.5 183q0 139 116.5 221t284.5 82q115 0 218 -37.5t163 -97.5v-211h-196v127q-79 47 -185 47q-97 0 -150.5 -29t-53.5 -81
q0 -92 159 -132l152 -36q295 -71 295 -299q0 -97 -55.5 -170t-146 -109.5t-200.5 -36.5z" />
    <glyph glyph-name="scaron.sc" horiz-adv-x="1019" 
d="M618 -33q-124 0 -236.5 48t-193.5 132v211h197v-135q105 -84 246 -84q91 0 141.5 33.5t50.5 93.5q0 90 -147 127l-164 41q-148 36 -221.5 112t-73.5 183q0 139 116.5 221t284.5 82q115 0 218 -37.5t163 -97.5v-211h-196v127q-79 47 -185 47q-97 0 -150.5 -29t-53.5 -81
q0 -92 159 -132l152 -36q295 -71 295 -299q0 -97 -55.5 -170t-146 -109.5t-200.5 -36.5zM270 1442h172l148 -180h16l148 180h172l-205 -307h-246z" />
    <glyph glyph-name="scommaaccent.sc" horiz-adv-x="1019" 
d="M618 -33q-124 0 -236.5 48t-193.5 132v211h197v-135q105 -84 246 -84q91 0 141.5 33.5t50.5 93.5q0 90 -147 127l-164 41q-148 36 -221.5 112t-73.5 183q0 139 116.5 221t284.5 82q115 0 218 -37.5t163 -97.5v-211h-196v127q-79 47 -185 47q-97 0 -150.5 -29t-53.5 -81
q0 -92 159 -132l152 -36q295 -71 295 -299q0 -97 -55.5 -170t-146 -109.5t-200.5 -36.5zM442 -492l54 365h192l-102 -365h-144z" />
    <glyph glyph-name="germandbls.sc" horiz-adv-x="1228" 
d="M147 0v172h160v494q0 87 37.5 158t100 115.5t140.5 68.5t163 24q135 0 251.5 -54.5t182.5 -162.5l-195 -192l-90 -50v-8q141 -3 230.5 -88.5t89.5 -204.5q0 -141 -104.5 -223t-250.5 -82q-113 0 -209 51v252h197v-131h8q80 0 123 39.5t43 93.5q0 55 -43 93t-123 38h-125
v211l203 185q-75 61 -188 61q-101 0 -174.5 -58.5t-73.5 -156.5v-645h-353z" />
    <glyph glyph-name="t.sc" horiz-adv-x="1163" 
d="M422 0v172h160v655h-213v-159h-172v331h966v-331h-172v159h-217v-655h160v-172h-512z" />
    <glyph glyph-name="tcommaaccent.sc" horiz-adv-x="1163" 
d="M422 0v172h160v655h-213v-159h-172v331h966v-331h-172v159h-217v-655h160v-172h-512zM518 -492l53 365h193l-102 -365h-144z" />
    <glyph glyph-name="u.sc" horiz-adv-x="1382" 
d="M764 -33q-205 0 -332 123t-127 320v417h-158v172h355v-606q0 -100 78.5 -173t183.5 -73t183.5 73t78.5 173v434h-158v172h514v-172h-159v-417q0 -197 -127 -320t-332 -123z" />
    <glyph glyph-name="uacute.sc" horiz-adv-x="1382" 
d="M764 -33q-205 0 -332 123t-127 320v417h-158v172h355v-606q0 -100 78.5 -173t183.5 -73t183.5 73t78.5 173v434h-158v172h514v-172h-159v-417q0 -197 -127 -320t-332 -123zM664 1135l131 307h221l-172 -307h-180z" />
    <glyph glyph-name="ucircumflex.sc" horiz-adv-x="1382" 
d="M764 -33q-205 0 -332 123t-127 320v417h-158v172h355v-606q0 -100 78.5 -173t183.5 -73t183.5 73t78.5 173v434h-158v172h514v-172h-159v-417q0 -197 -127 -320t-332 -123zM438 1135l205 307h246l205 -307h-172l-148 180h-16l-148 -180h-172z" />
    <glyph glyph-name="udieresis.sc" horiz-adv-x="1382" 
d="M764 -33q-205 0 -332 123t-127 320v417h-158v172h355v-606q0 -100 78.5 -173t183.5 -73t183.5 73t78.5 173v434h-158v172h514v-172h-159v-417q0 -197 -127 -320t-332 -123zM375 1311l186 186l187 -186l-187 -187zM784 1311l187 186l186 -186l-186 -187z" />
    <glyph glyph-name="ugrave.sc" horiz-adv-x="1382" 
d="M764 -33q-205 0 -332 123t-127 320v417h-158v172h355v-606q0 -100 78.5 -173t183.5 -73t183.5 73t78.5 173v434h-158v172h514v-172h-159v-417q0 -197 -127 -320t-332 -123zM508 1442h221l131 -307h-180z" />
    <glyph glyph-name="v.sc" horiz-adv-x="1339" 
d="M621 0l-340 827h-158v172h371v-170l198 -497l37 -119h16l37 119l201 495h-149v172h505v-172h-159l-336 -827h-223z" />
    <glyph glyph-name="w.sc" horiz-adv-x="1970" 
d="M565 -16l-282 843h-160v172h366v-172l150 -462l29 -119h16l33 119l162 462h-156v172h448l218 -634l32 -119h17l28 119l152 462h-158v172h510v-172h-160l-282 -843h-205l-238 675l-28 115h-17l-28 -115l-238 -675h-209z" />
    <glyph glyph-name="wacute.sc" horiz-adv-x="1970" 
d="M565 -16l-282 843h-160v172h366v-172l150 -462l29 -119h16l33 119l162 462h-156v172h448l218 -634l32 -119h17l28 119l152 462h-158v172h510v-172h-160l-282 -843h-205l-238 675l-28 115h-17l-28 -115l-238 -675h-209zM944 1135l131 307h221l-172 -307h-180z" />
    <glyph glyph-name="wcircumflex.sc" horiz-adv-x="1970" 
d="M565 -16l-282 843h-160v172h366v-172l150 -462l29 -119h16l33 119l162 462h-156v172h448l218 -634l32 -119h17l28 119l152 462h-158v172h510v-172h-160l-282 -843h-205l-238 675l-28 115h-17l-28 -115l-238 -675h-209zM719 1135l205 307h245l205 -307h-172l-147 180h-17
l-147 -180h-172z" />
    <glyph glyph-name="wdieresis.sc" horiz-adv-x="1970" 
d="M565 -16l-282 843h-160v172h366v-172l150 -462l29 -119h16l33 119l162 462h-156v172h448l218 -634l32 -119h17l28 119l152 462h-158v172h510v-172h-160l-282 -843h-205l-238 675l-28 115h-17l-28 -115l-238 -675h-209zM655 1311l187 186l186 -186l-186 -187zM1065 1311
l186 186l187 -186l-187 -187z" />
    <glyph glyph-name="wgrave.sc" horiz-adv-x="1970" 
d="M565 -16l-282 843h-160v172h366v-172l150 -462l29 -119h16l33 119l162 462h-156v172h448l218 -634l32 -119h17l28 119l152 462h-158v172h510v-172h-160l-282 -843h-205l-238 675l-28 115h-17l-28 -115l-238 -675h-209zM788 1442h222l131 -307h-180z" />
    <glyph glyph-name="x.sc" horiz-adv-x="1204" 
d="M821 0v172l-139 186l-143 -186v-172h-375v172h151l256 332l-243 323h-154v172h383v-172l129 -172l133 172v172h375v-172h-154l-243 -317l254 -338h153v-172h-383z" />
    <glyph glyph-name="y.sc" horiz-adv-x="1210" 
d="M408 0v172h159v164l-284 491h-160v172h377v-170l157 -276h17l162 274h-154v172h528v-172h-159l-287 -479v-176h160v-172h-516z" />
    <glyph glyph-name="yacute.sc" horiz-adv-x="1210" 
d="M408 0v172h159v164l-284 491h-160v172h377v-170l157 -276h17l162 274h-154v172h528v-172h-159l-287 -479v-176h160v-172h-516zM563 1135l131 307h221l-172 -307h-180z" />
    <glyph glyph-name="ycircumflex.sc" horiz-adv-x="1210" 
d="M408 0v172h159v164l-284 491h-160v172h377v-170l157 -276h17l162 274h-154v172h528v-172h-159l-287 -479v-176h160v-172h-516zM338 1135l205 307h245l205 -307h-172l-147 180h-17l-147 -180h-172z" />
    <glyph glyph-name="ydieresis.sc" horiz-adv-x="1210" 
d="M408 0v172h159v164l-284 491h-160v172h377v-170l157 -276h17l162 274h-154v172h528v-172h-159l-287 -479v-176h160v-172h-516zM274 1311l187 186l186 -186l-186 -187zM684 1311l186 186l187 -186l-187 -187z" />
    <glyph glyph-name="ygrave.sc" horiz-adv-x="1210" 
d="M408 0v172h159v164l-284 491h-160v172h377v-170l157 -276h17l162 274h-154v172h528v-172h-159l-287 -479v-176h160v-172h-516zM408 1442h221l131 -307h-180z" />
    <glyph glyph-name="z.sc" horiz-adv-x="1097" 
d="M213 0v152l530 569l93 86l-5 12h-413v-170h-197v350h864v-151l-518 -563l-96 -92l4 -13h426v170h197v-350h-885z" />
    <glyph glyph-name="zcaron.sc" horiz-adv-x="1097" 
d="M213 0v152l530 569l93 86l-5 12h-413v-170h-197v350h864v-151l-518 -563l-96 -92l4 -13h426v170h197v-350h-885zM307 1442h172l148 -180h16l148 180h172l-205 -307h-246z" />
    <glyph glyph-name="g.sc.ss03" horiz-adv-x="1224" 
d="M700 -33q-246 0 -391 143.5t-145 389.5q0 230 154 381t387 151q188 0 321 -106l4 102h164v-315h-178q-121 139 -316 139q-140 0 -240 -97t-100 -255q0 -159 93.5 -256t242.5 -97q131 0 209.5 62.5t93.5 175.5h-344v164h549v-103q0 -206 -139 -342.5t-365 -136.5z" />
    <glyph glyph-name="a-cyrl.ss01" horiz-adv-x="1216" 
d="M532 -33q-90 0 -162 26t-116 69.5t-67 97.5t-23 114q0 113 85.5 198t254.5 106l299 36q31 3 48 19.5t17 42.5q0 96 -69 144t-172 48q-89 0 -163 -34t-112 -101l-159 98q80 100 196 150.5t242 50.5q116 0 212.5 -41.5t159 -131.5t62.5 -216v-471h160v-172h-199
q-57 0 -95 38t-38 95v31h-16q-43 -82 -130.5 -139.5t-214.5 -57.5zM360 279q0 -64 49.5 -106t147.5 -42q155 0 233 83.5t78 244.5v12l-331 -37q-94 -10 -135.5 -53t-41.5 -102z" />
    <glyph glyph-name="de-cyrl.ss02" horiz-adv-x="1372" 
d="M197 172h141l233 655h-159v172h641l168 -827h151v-332h-172v160h-831v-160h-172v332zM537 172h483l-133 655h-117z" />
    <glyph glyph-name="te-cyrl.ss02" horiz-adv-x="1163" 
d="M422 0v172h160v655h-213v-159h-172v331h966v-331h-172v159h-217v-655h160v-172h-512z" />
    <glyph glyph-name="ibyelorussianukrainian_yi-cyrl" horiz-adv-x="1343" 
d="M662 1366l186 186l186 -186l-186 -186zM164 0v172h160v655h-160v172h356v-827h160v-172h-516zM233 1368l189 186l186 -186l-186 -188zM836 0v172h159v655h-159v172h356v-827h160v-172h-516zM1090 1366l186 186l186 -186l-186 -186z" />
    <glyph glyph-name="yi_yi-cyrl" horiz-adv-x="1343" 
d="M8 0v172h160v655h-160v172h357v-827h159v-172h-516zM-147 1366l186 186l186 -186l-186 -186zM225 1366l187 186l186 -186l-186 -186zM598 1366l186 186l187 -186l-187 -186zM680 0v172h160v655h-160v172h356v-827h160v-172h-516zM971 1366l186 186l186 -186l-186 -186z
" />
    <glyph glyph-name="zero.zero" horiz-adv-x="1224" 
d="M713 -33q-155 0 -273 90.5t-180.5 250.5t-62.5 364t62.5 363.5t180.5 250t273 90.5q153 0 270 -90.5t179.5 -250t62.5 -363.5t-62.5 -364t-179.5 -250.5t-270 -90.5zM397 672q0 -140 33 -262l488 675q-81 107 -205 107q-146 0 -231 -142t-85 -378zM512 250
q79 -98 201 -98q144 0 227.5 142.5t83.5 377.5q0 134 -33 250z" />
    <glyph glyph-name="zero.dnom" horiz-adv-x="712" 
d="M420 -16q-136 0 -216.5 109.5t-80.5 283.5t80.5 283.5t216.5 109.5q133 0 213 -109.5t80 -283.5t-80 -283.5t-213 -109.5zM291 377q0 -113 34 -177.5t95 -64.5q58 0 91.5 64.5t33.5 177.5t-33.5 177t-91.5 64q-61 0 -95 -64t-34 -177z" />
    <glyph glyph-name="one.dnom" horiz-adv-x="466" 
d="M303 0v561l-180 -74v156l250 111h94v-754h-164z" />
    <glyph glyph-name="two.dnom" horiz-adv-x="647" 
d="M141 0v176l258 230q40 36 59 67.5t19 71.5q0 37 -26 59.5t-74 22.5t-82.5 -33t-30.5 -90l-149 8q-1 121 79 188.5t191 67.5q105 0 179.5 -55t74.5 -154q0 -77 -31.5 -134t-101.5 -120l-117 -104l-67 -49l6 -13l65 4h244v-143h-496z" />
    <glyph glyph-name="three.dnom" horiz-adv-x="679" 
d="M393 -16q-114 0 -193.5 63.5t-97.5 151.5l152 39q13 -55 53 -85t88 -30q46 0 78.5 27t32.5 75q0 42 -30 72.5t-79 30.5h-104v135h96q42 0 69 26.5t27 59.5q0 41 -29 63.5t-71 22.5q-41 0 -74 -21.5t-45 -60.5l-133 45q25 85 96 128.5t162 43.5q67 0 124.5 -22.5
t95.5 -71.5t38 -115q0 -54 -26 -95t-78 -52v-13q125 -50 125 -176q0 -77 -41 -133.5t-102.5 -82t-133.5 -25.5z" />
    <glyph glyph-name="four.dnom" horiz-adv-x="714" 
d="M457 0v147h-334v123l323 484h168v-463h111v-144h-111v-147h-157zM295 291h174v176l2 70l-8 4z" />
    <glyph glyph-name="five.dnom" horiz-adv-x="649" 
d="M373 -16q-79 0 -149 37.5t-105 107.5l135 68q15 -33 48 -51.5t71 -18.5q54 0 84 34t30 79t-29 76.5t-83 31.5q-26 0 -53.5 -12t-42.5 -31l-144 66l49 381h416v-152h-289l-18 -137l10 -2q50 31 113 31q110 0 170.5 -72.5t60.5 -171.5q0 -107 -73 -185.5t-201 -78.5z" />
    <glyph glyph-name="six.dnom" horiz-adv-x="675" 
d="M397 -18q-120 0 -197 71t-77 180q0 100 86 213l244 318l157 -29l-161 -211l-43 -41l4 -6q10 2 41 2q88 0 156.5 -65.5t68.5 -173.5q0 -114 -78.5 -186t-200.5 -72zM283 236q0 -50 32 -80.5t86 -30.5q52 0 83.5 30.5t31.5 80.5t-31.5 80t-83.5 30q-54 0 -86 -30t-32 -80z
" />
    <glyph glyph-name="seven.dnom" horiz-adv-x="665" 
d="M172 2l272 543l33 45v10h-354v156h543v-121l-320 -633h-174z" />
    <glyph glyph-name="eight.dnom" horiz-adv-x="653" 
d="M389 -16q-112 0 -189 62t-77 163q0 125 125 184v8q-101 67 -101 164q0 84 66.5 144.5t175.5 60.5t174.5 -60.5t65.5 -144.5q0 -99 -101 -164v-8q125 -58 125 -184q0 -102 -75.5 -163.5t-188.5 -61.5zM285 225q0 -45 29 -71.5t75 -26.5q45 0 74 26.5t29 71.5
q0 41 -30 67.5t-73 26.5t-73.5 -26.5t-30.5 -67.5zM309 551q0 -37 21.5 -57.5t58.5 -20.5q38 0 59 20.5t21 57.5q0 36 -21 56t-59 20q-37 0 -58.5 -20.5t-21.5 -55.5z" />
    <glyph glyph-name="nine.dnom" horiz-adv-x="675" 
d="M188 16l162 211l43 41l-4 6q-10 -2 -41 -2q-88 0 -156.5 66t-68.5 174q0 114 78 186t200 72q120 0 197.5 -71.5t77.5 -180.5q0 -100 -86 -213l-244 -317zM283 516q0 -50 31 -80t83 -30q54 0 86.5 30t32.5 80t-32.5 80.5t-86.5 30.5q-52 0 -83 -30.5t-31 -80.5z" />
    <glyph glyph-name="zero.numr" horiz-adv-x="712" 
d="M420 676q-136 0 -216.5 109.5t-80.5 283.5t80.5 283.5t216.5 109.5q133 0 213 -109.5t80 -283.5t-80 -283.5t-213 -109.5zM291 1069q0 -113 34 -177.5t95 -64.5q58 0 91.5 64.5t33.5 177.5t-33.5 177.5t-91.5 64.5q-61 0 -95 -64.5t-34 -177.5z" />
    <glyph glyph-name="one.numr" horiz-adv-x="466" 
d="M303 688v561l-180 -73v155l250 111h94v-754h-164z" />
    <glyph glyph-name="two.numr" horiz-adv-x="647" 
d="M141 688v176l258 230q40 36 59 67.5t19 71.5q0 37 -26 59.5t-74 22.5t-82.5 -33t-30.5 -90l-149 8q-1 121 79 188.5t191 67.5q105 0 179.5 -55t74.5 -154q0 -77 -31.5 -134t-101.5 -120l-117 -104l-67 -49l6 -13l65 4h244v-143h-496z" />
    <glyph glyph-name="three.numr" horiz-adv-x="679" 
d="M393 672q-114 0 -193.5 63.5t-97.5 151.5l152 39q13 -55 53 -85t88 -30q46 0 78.5 27t32.5 75q0 42 -30 72.5t-79 30.5h-104v135h96q42 0 69 26.5t27 59.5q0 41 -29 63.5t-71 22.5q-41 0 -74 -21.5t-45 -60.5l-133 45q25 85 96 128.5t162 43.5q67 0 124.5 -22.5
t95.5 -71.5t38 -115q0 -54 -26 -95t-78 -52v-12q125 -50 125 -177q0 -77 -41 -133.5t-102.5 -82t-133.5 -25.5z" />
    <glyph glyph-name="four.numr" horiz-adv-x="714" 
d="M457 688v148h-334v122l323 484h168v-463h111v-143h-111v-148h-157zM295 979h174v176l2 70l-8 4z" />
    <glyph glyph-name="five.numr" horiz-adv-x="649" 
d="M373 672q-79 0 -149 37.5t-105 107.5l135 68q15 -33 48 -51.5t71 -18.5q54 0 84 34t30 79t-29 76.5t-83 31.5q-26 0 -53.5 -12t-42.5 -31l-144 66l49 381h416v-152h-289l-18 -137l10 -2q50 31 113 31q110 0 170.5 -72.5t60.5 -171.5q0 -107 -73 -185.5t-201 -78.5z" />
    <glyph glyph-name="six.numr" horiz-adv-x="675" 
d="M397 670q-120 0 -197 71.5t-77 180.5q0 100 86 213l244 317l157 -29l-161 -211l-43 -41l4 -6q10 2 41 2q88 0 156.5 -65.5t68.5 -173.5q0 -114 -78.5 -186t-200.5 -72zM283 924q0 -50 32 -80.5t86 -30.5q52 0 83.5 30.5t31.5 80.5t-31.5 80t-83.5 30q-54 0 -86 -30
t-32 -80z" />
    <glyph glyph-name="seven.numr" horiz-adv-x="665" 
d="M172 690l272 543l33 45v10h-354v156h543v-121l-320 -633h-174z" />
    <glyph glyph-name="eight.numr" horiz-adv-x="653" 
d="M389 672q-112 0 -189 62t-77 163q0 125 125 184v9q-101 67 -101 163q0 84 66.5 144.5t175.5 60.5t174.5 -60.5t65.5 -144.5q0 -98 -101 -163v-9q125 -58 125 -184q0 -102 -75.5 -163.5t-188.5 -61.5zM285 913q0 -45 29 -71.5t75 -26.5q45 0 74 26.5t29 71.5q0 41 -30 68
t-73 27t-73.5 -27t-30.5 -68zM309 1239q0 -37 21.5 -57.5t58.5 -20.5q38 0 59 20.5t21 57.5q0 36 -21 56t-59 20q-37 0 -58.5 -20.5t-21.5 -55.5z" />
    <glyph glyph-name="nine.numr" horiz-adv-x="675" 
d="M188 705l162 210l43 41l-4 7q-10 -2 -41 -2q-88 0 -156.5 65.5t-68.5 173.5q0 114 78 186t200 72q120 0 197.5 -71.5t77.5 -180.5q0 -100 -86 -213l-244 -317zM283 1204q0 -50 31 -80t83 -30q54 0 86.5 30t32.5 80t-32.5 80.5t-86.5 30.5q-52 0 -83 -30.5t-31 -80.5z" />
    <glyph glyph-name="colon.alt" horiz-adv-x="622" 
d="M455 487l209 -208l-209 -209l-209 209zM246 1049l209 208l209 -208l-209 -209z" />
    <glyph glyph-name="ampersand.ss04" horiz-adv-x="1359" 
d="M750 -33q-224 0 -368 135t-144 344q0 119 59.5 224t161.5 172q-69 83 -98 142.5t-29 129.5q0 111 56.5 195.5t140 125t176.5 40.5q138 0 237.5 -65.5t134.5 -180.5v-170h-196v129q-20 50 -65.5 78t-106.5 28q-71 0 -126 -45.5t-55 -126.5q0 -19 5 -37.5t11 -32t23 -37
t29 -38t42 -50t50 -59.5l402 -491q36 55 77 153v168h197v-170q-59 -170 -152 -303l185 -225h-238l-74 90q-154 -123 -335 -123zM438 446q0 -125 88 -212t224 -87q119 0 217 82l-389 469q-65 -40 -102.5 -106.5t-37.5 -145.5z" />
    <glyph glyph-name="brevecomb.cy" 
d="M434 1556q-138 0 -224.5 89t-86.5 206h160q3 -56 40 -95.5t111 -39.5q71 0 108 39.5t40 95.5h163q0 -75 -35.5 -141.5t-108.5 -110t-167 -43.5z" />
    <glyph glyph-name="dieresiscomb.case" 
d="M289 1538l-187 186l187 187l186 -187zM578 1726l186 187l186 -187l-186 -186z" />
    <glyph glyph-name="dotaccentcomb.case" 
d="M119 1724l186 187l187 -187l-187 -186z" />
    <glyph glyph-name="gravecomb.case" 
d="M377 1573l-238 274h238l180 -274h-180z" />
    <glyph glyph-name="acutecomb.case" 
d="M74 1573l180 274h238l-238 -274h-180z" />
    <glyph glyph-name="circumflexcomb.case" 
d="M66 1569l221 274h262l221 -274h-188l-160 155h-8l-160 -155h-188z" />
    <glyph glyph-name="caroncomb.case" 
d="M287 1569l-221 274h188l156 -151h16l156 151h188l-221 -274h-262z" />
    <glyph glyph-name="brevecomb.case" 
d="M434 1556q-138 0 -224.5 89t-86.5 206h160q3 -56 40 -95.5t111 -39.5q71 0 108 39.5t40 95.5h163q0 -75 -35.5 -141.5t-108.5 -110t-167 -43.5z" />
    <glyph glyph-name="ringcomb.case" 
d="M381 1421q-95 0 -164.5 69.5t-69.5 164.5t69.5 164t164.5 69t164 -69t69 -164t-69 -164.5t-164 -69.5zM287 1659q0 -43 27.5 -70.5t70.5 -27.5t70.5 27.5t27.5 70.5q0 40 -28 67t-70 27t-70 -27t-28 -67z" />
    <glyph glyph-name="tildecomb.case" 
d="M147 1589q0 108 71 169t167 61q67 0 147 -41q56 -28 78.5 -36.5t48.5 -8.5q80 0 86 69h156q0 -108 -70.5 -168.5t-166.5 -60.5q-68 0 -148 41q-56 28 -78.5 36.5t-48.5 8.5q-36 0 -59.5 -17.5t-26.5 -52.5h-156z" />
    <glyph glyph-name="cedillacomb.case" 
d="M373 -442q-72 0 -132.5 27t-93.5 67l78 90q70 -70 148 -70q39 0 66.5 19t27.5 51q0 29 -24 47t-66 18q-34 0 -58 -12l-69 82l102 156h144l-78 -115l4 -8q87 -3 139.5 -47.5t52.5 -120.5q0 -77 -61.5 -130.5t-179.5 -53.5z" />
    <glyph glyph-name="strokeshortcomb.case" 
d="M147 504v176h762v-176h-762z" />
    <glyph glyph-name="soliduslongcomb.case" 
d="M377 -98l-123 98l1089 1536l123 -94z" />
    <glyph glyph-name="dieresiscomb.narrow" 
d="M293 1180l-187 186l187 186l186 -186zM479 1366l187 186l186 -186l-186 -186z" />
    <glyph glyph-name="circumflexcomb.narrow" 
d="M66 1135l172 307h229l172 -307h-172l-107 163h-16l-106 -163h-172z" />
    <glyph glyph-name="dieresiscomb.case.narrow" 
d="M106 1724l187 187l186 -187l-186 -186zM479 1724l187 187l186 -187l-186 -186z" />
    <glyph glyph-name="wsc" horiz-adv-x="1970" 
d="M565 -16l-282 843h-160v172h366v-172l150 -462l29 -119h16l33 119l162 462h-156v172h448l218 -634l32 -119h17l28 119l152 462h-158v172h510v-172h-160l-282 -843h-205l-238 675l-28 115h-17l-28 -115l-238 -675h-209z" />
    </font>
</defs>
</svg>
