<?xml version="1.0" standalone="no"?>
<!DOCTYPE svg PUBLIC "-//W3C//DTD SVG 1.1//EN" "http://www.w3.org/Graphics/SVG/1.1/DTD/svg11.dtd" >
<svg xmlns="http://www.w3.org/2000/svg" xmlns:xlink="http://www.w3.org/1999/xlink" version="1.1">
<metadata>
Created by FontForge 20170731 at Sat Sep 30 22:05:38 2023
 By Aleksey,,,
Oleksii Popovtsev
</metadata>
<defs>
<font id="IrpinType-Light" horiz-adv-x="0" >
  <font-face 
    font-family="Irpin Type Light"
    font-weight="300"
    font-stretch="normal"
    units-per-em="2048"
    panose-1="1 0 0 0 0 0 0 0 0 0"
    ascent="1638"
    descent="-410"
    x-height="999"
    cap-height="1442"
    bbox="-369 -492 2736 1878"
    underline-thickness="102"
    underline-position="-358"
    unicode-range="U+0020-FB02"
  />
<missing-glyph horiz-adv-x="983" 
d="M807 1516v-1967h-625v1967h625zM328 -315h327v65h-200l137 92h63v66h-327v-66h139l-139 -92v-65zM328 -47h327v221h-327v-221zM328 293h327v221h-196v-108h65v45h66v-93h-197v156h-65v-221zM328 557h327v197h-65v-129h-262v-68zM328 670h196v137h131v65h-327v-65h131v-72
h-131v-65zM328 926h327v67h-131v137h-196v-204zM328 1182h327v63h-131v74h131v65h-325v-65h129v-74h-131v-63zM393 16v95h197v-95h-197zM393 993v70h66v-70h-66z" />
    <glyph glyph-name="f_f" unicode="ff" horiz-adv-x="1546" 
d="M102 0v102h160v799h-180v98h180v205q0 145 103 240.5t262 95.5q120 0 192 -57l-57 -82q-56 37 -139 37q-107 0 -176.5 -67t-69.5 -171v-201h592v201q0 146 102.5 243t261.5 97q121 0 193 -57l-58 -82q-56 37 -139 37q-107 0 -176.5 -67t-69.5 -171v-201h377v-98h-377
v-799h160v-102h-434v102h160v799h-592v-799h160v-102h-435z" />
    <glyph glyph-name="f_f_i" unicode="ffi" horiz-adv-x="2025" 
d="M102 0v102h160v799h-180v98h180v205q0 145 103 240.5t262 95.5q120 0 192 -57l-57 -82q-56 37 -139 37q-107 0 -176.5 -67t-69.5 -171v-201h592v201q0 146 102.5 243t261.5 97q77 0 135 -24l-36 -95q-53 17 -103 17q-107 0 -176.5 -67t-69.5 -171v-201h709v-897h160v-102
h-434v102h159v799h-594v-799h160v-102h-434v102h160v799h-592v-799h160v-102h-435zM1606 1399l129 129l129 -127l-129 -129z" />
    <glyph glyph-name="f_f_j.liga" unicode="ffj" horiz-adv-x="1902" 
d="M1675 901h-592v-799h160v-102h-434v102h160v799h-592v-799h160v-102h-435v102h160v799h-180v98h180v205q0 145 103 240.5t262 95.5q120 0 192 -57l-57 -82q-56 37 -139 37q-107 0 -176.5 -67t-69.5 -171v-201h592v201q0 146 102.5 243t261.5 97q77 0 135 -24l-36 -95
q-53 17 -103 17q-107 0 -176.5 -67t-69.5 -171v-201h707v-1382q0 -32 -22 -54t-54 -22h-395v99h356v1261zM1604 1399l129 129l129 -127l-129 -129z" />
    <glyph glyph-name="f_f_l" unicode="ffl" horiz-adv-x="2027" 
d="M102 0v102h160v799h-180v98h180v205q0 145 103 240.5t262 95.5q120 0 192 -57l-57 -82q-56 37 -139 37q-107 0 -176.5 -67t-69.5 -171v-201h592v189q0 145 102.5 240.5t261.5 95.5h461v-1422h160v-102h-434v102h159v1323h-350q-107 0 -176.5 -66.5t-69.5 -170.5v-189h332
v-98h-332v-799h160v-102h-434v102h160v799h-592v-799h160v-102h-435z" />
    <glyph glyph-name="f_i" unicode="fi" horiz-adv-x="1316" 
d="M102 0v102h160v799h-180v98h180v205q0 145 103 240.5t262 95.5q77 0 135 -24l-37 -95q-53 17 -102 17q-107 0 -176.5 -67t-69.5 -171v-201h706v-897h160v-102h-434v102h160v799h-592v-799h160v-102h-435zM897 1401l129 129l129 -127l-129 -129z" />
    <glyph glyph-name="f_j.liga" unicode="fj" horiz-adv-x="1316" 
d="M102 0v102h160v799h-180v98h180v205q0 145 103 240.5t262 95.5q77 0 135 -24l-37 -95q-53 17 -102 17q-107 0 -176.5 -67t-69.5 -171v-201h706v-897h160v-102h-434v102h160v799h-592v-799h160v-102h-435zM897 1401l129 129l129 -127l-129 -129z" />
    <glyph glyph-name="f_l" unicode="fl" horiz-adv-x="1320" 
d="M102 0v102h160v799h-180v98h180v189q0 145 103 240.5t262 95.5h460v-1422h160v-102h-434v102h160v1323h-350q-107 0 -176.5 -66.5t-69.5 -170.5v-189h332v-98h-332v-799h160v-102h-435z" />
    <glyph glyph-name="t_t.liga" unicode="tt" horiz-adv-x="1472" 
d="M983 0q-32 0 -54 22t-22 54v825h-551v-803h357v-98h-396q-32 0 -53.5 22t-21.5 54v825h-181v98h181v287h114v-287h551v287h115v-287h336v-98h-336v-778q0 -11 7 -18t18 -7h331v-98h-395z" />
    <glyph glyph-name=".notdef" horiz-adv-x="983" 
d="M807 1516v-1967h-625v1967h625zM328 -315h327v65h-200l137 92h63v66h-327v-66h139l-139 -92v-65zM328 -47h327v221h-327v-221zM328 293h327v221h-196v-108h65v45h66v-93h-197v156h-65v-221zM328 557h327v197h-65v-129h-262v-68zM328 670h196v137h131v65h-327v-65h131v-72
h-131v-65zM328 926h327v67h-131v137h-196v-204zM328 1182h327v63h-131v74h131v65h-325v-65h129v-74h-131v-63zM393 16v95h197v-95h-197zM393 993v70h66v-70h-66z" />
    <glyph glyph-name=".null" 
 />
    <glyph glyph-name="nonmarkingreturn" horiz-adv-x="682" 
 />
    <glyph glyph-name="space" unicode=" " horiz-adv-x="507" 
 />
    <glyph glyph-name="exclam" unicode="!" horiz-adv-x="483" 
d="M203 479l-25 520v443h127v-443l-24 -520h-78zM102 82l140 139l139 -139l-139 -139z" />
    <glyph glyph-name="quotedbl" unicode="&#x22;" horiz-adv-x="638" 
d="M102 954v488h119l-33 -488h-86zM438 954v488h119l-33 -488h-86z" />
    <glyph glyph-name="numbersign" unicode="#" horiz-adv-x="1568" 
d="M352 0l82 385h-311v94h332l82 389h-312v95h332l82 380h98l-82 -380h361l82 380h98l-82 -380h332v-95h-352l-82 -389h331v-94h-352l-82 -385h-98l82 385h-361l-81 -385h-99zM553 479h360l82 389h-360z" />
    <glyph glyph-name="dollar" unicode="$" horiz-adv-x="1265" 
d="M569 -29q-254 18 -467 193l70 82q197 -155 397 -172v581l-45 13q-191 50 -284 140t-93 228q0 62 28.5 119.5t81 104.5t133.5 78t179 38v164h103v-164q224 -12 409 -131l-57 -86q-151 97 -352 111v-525l102 -28q352 -100 352 -373q0 -160 -124.5 -264t-329.5 -113v-164
h-103v168zM262 1032q0 -88 73 -149.5t234 -108.5v500q-139 -6 -223 -71t-84 -171zM672 70q161 3 248.5 72.5t87.5 197.5q0 121 -74.5 182.5t-261.5 108.5v-561z" />
    <glyph glyph-name="percent" unicode="%" horiz-adv-x="1687" 
d="M299 0l971 1348h114l-970 -1348h-115zM119 1085q0 120 83.5 203.5t203.5 83.5t203 -83.5t83 -203.5t-83 -203t-203 -83t-203.5 83t-83.5 203zM221 1085q0 -83 52.5 -135.5t132.5 -52.5t132 52.5t52 135.5t-52 136t-132 53t-132.5 -53t-52.5 -136zM995 254
q0 120 83.5 203.5t203.5 83.5t203.5 -83.5t83.5 -203.5t-83.5 -203.5t-203.5 -83.5t-203.5 83.5t-83.5 203.5zM1098 254q0 -83 52 -135.5t132 -52.5t132 52.5t52 135.5t-52 135.5t-132 52.5t-132 -52.5t-52 -135.5z" />
    <glyph glyph-name="ampersand" unicode="&#x26;" horiz-adv-x="1525" 
d="M549 -33q-178 0 -290 99t-112 253q0 89 29 152.5t89.5 121.5t189.5 152v17q-138 150 -182 222t-44 159q0 81 30 146t81 105t114 60.5t132 20.5q68 0 129.5 -20.5t112 -60.5t80.5 -105t30 -146q0 -56 -13.5 -97.5t-53 -88t-91.5 -89t-149 -114.5v-17l336 -356h16l188 213
v221h103v-366h-103l-127 -146l191 -201h201v-102h-353v102l-104 111h-16q-109 -136 -199.5 -191t-214.5 -55zM262 336q0 -110 83.5 -188t203.5 -78q92 0 161 44.5t191 180.5l-369 385l-106 -82q-82 -63 -123 -125.5t-41 -136.5zM344 1143q0 -83 38.5 -140t170.5 -184
q69 51 100 74.5t69.5 56t51.5 49t28 42t18 48t3 54.5q0 108 -72 168.5t-169 60.5t-167.5 -59.5t-70.5 -169.5z" />
    <glyph glyph-name="quotesingle" unicode="'" horiz-adv-x="303" 
d="M102 954v488h119l-33 -488h-86z" />
    <glyph glyph-name="parenleft" unicode="(" horiz-adv-x="638" 
d="M438 -307q-177 219 -266.5 452.5t-89.5 464.5q0 230 91.5 467t264.5 447l78 -54q-155 -199 -239 -425t-84 -435q0 -214 83.5 -439t239.5 -425z" />
    <glyph glyph-name="parenright" unicode=")" horiz-adv-x="638" 
d="M123 -254q156 200 239.5 425t83.5 439q0 209 -84 435t-239 425l78 54q173 -210 264.5 -447t91.5 -467q0 -231 -89.5 -464.5t-266.5 -452.5z" />
    <glyph glyph-name="asterisk" unicode="*" horiz-adv-x="950" 
d="M317 725l-94 70l144 176l-25 80l-219 75l35 109l209 -76l67 51v232h123v-232l72 -49l205 74l34 -109l-217 -75l-24 -80l141 -176l-94 -70l-121 160h-115z" />
    <glyph glyph-name="plus" unicode="+" horiz-adv-x="1249" 
d="M573 127v418h-405v98h405v414h107v-414h401v-98h-401v-418h-107z" />
    <glyph glyph-name="comma" unicode="," horiz-adv-x="405" 
d="M102 -258l78 508h144l-136 -508h-86z" />
    <glyph glyph-name="hyphenminus" unicode="-" horiz-adv-x="860" 
d="M123 541v102h655v-102h-655z" />
    <glyph glyph-name="period" unicode="." horiz-adv-x="483" 
d="M262 221l139 -139l-139 -139l-139 139z" />
    <glyph glyph-name="slash" unicode="/" horiz-adv-x="942" 
d="M61 0l701 1442h119l-697 -1442h-123z" />
    <glyph glyph-name="zero" unicode="0" horiz-adv-x="1163" 
d="M586 -33q-218 0 -353 194.5t-135 510.5q0 209 61 369t172 247.5t255 87.5q213 0 346 -194.5t133 -509.5q0 -317 -132 -511t-347 -194zM217 676q0 -281 99.5 -443.5t273.5 -162.5q163 0 259.5 164.5t96.5 441.5q0 271 -97 434.5t-259 163.5q-172 0 -272.5 -162
t-100.5 -436z" />
    <glyph glyph-name="one" unicode="1" horiz-adv-x="733" 
d="M193 0v102h159v1102l-270 -119v115l307 143h74v-1241h160v-102h-430z" />
    <glyph glyph-name="two" unicode="2" horiz-adv-x="1028" 
d="M131 0v94l479 594q95 118 131.5 190.5t36.5 145.5q0 110 -79.5 180t-202.5 70q-92 0 -171.5 -46.5t-119.5 -121.5v-127h-103v160q46 105 157 171t241 66q176 0 284.5 -96.5t108.5 -255.5q0 -94 -42 -176t-163 -230l-344 -421l-78 -78l8 -13h529v160h102v-266h-774z" />
    <glyph glyph-name="three" unicode="3" horiz-adv-x="1089" 
d="M532 -33q-139 0 -251 67.5t-158 174.5v160h102v-140q36 -71 118.5 -117t180.5 -46q140 0 234 81.5t94 208.5q0 132 -92.5 215.5t-239.5 83.5h-86v99h62q134 0 218.5 77t84.5 197q0 107 -77.5 176.5t-197.5 69.5q-158 0 -258 -100v-125h-102v159q62 81 160 124.5t200 43.5
q172 0 280.5 -97t108.5 -251q0 -94 -53.5 -175.5t-142.5 -127.5v-16q114 -42 182 -137.5t68 -219.5q0 -160 -127 -272.5t-308 -112.5z" />
    <glyph glyph-name="four" unicode="4" horiz-adv-x="1105" 
d="M709 0v324h-627v122l606 897h131v-921h180v-98h-180v-324h-110zM201 422h508v631l16 147l-12 4l-512 -766v-16z" />
    <glyph glyph-name="five" unicode="5" horiz-adv-x="1110" 
d="M528 -37q-120 0 -233 64.5t-172 165.5v159h102v-127q46 -72 128.5 -115.5t170.5 -43.5q155 0 254 96.5t99 247.5t-99 247.5t-254 96.5q-66 0 -138.5 -33.5t-119.5 -85.5l-98 37l90 671h668v-266h-103v160h-479l-61 -467l12 -4q40 40 112 65t146 25q191 0 312.5 -125
t121.5 -321t-129 -321.5t-330 -125.5z" />
    <glyph glyph-name="six" unicode="6" horiz-adv-x="1114" 
d="M561 -33q-203 0 -333 125.5t-130 321.5q0 84 27 159.5t125 208.5l414 561h127l-394 -528l13 -8q74 41 188 41q173 0 295.5 -125.5t122.5 -308.5q0 -190 -130.5 -318.5t-324.5 -128.5zM213 414q0 -151 97.5 -247.5t250.5 -96.5q151 0 245.5 95.5t94.5 248.5
q0 147 -96 241.5t-244 94.5q-156 0 -252 -93.5t-96 -242.5z" />
    <glyph glyph-name="seven" unicode="7" horiz-adv-x="1089" 
d="M242 -4l573 1134l57 91l-8 16h-663v-160h-103v266h885v-110l-623 -1237h-118z" />
    <glyph glyph-name="eight" unicode="8" horiz-adv-x="1122" 
d="M561 -33q-190 0 -314 109t-124 272q0 118 67 214t183 138v13q-90 36 -145.5 125t-55.5 190q0 148 111.5 248t277.5 100t277.5 -100t111.5 -248q0 -101 -55 -190t-145 -125v-13q116 -42 182.5 -138t66.5 -214q0 -163 -124 -272t-314 -109zM238 373q0 -137 89 -220t234 -83
t234.5 83t89.5 220q0 120 -93 199t-231 79t-230.5 -79t-92.5 -199zM287 1024q0 -125 75 -197.5t199 -72.5t199.5 72.5t75.5 197.5q0 113 -75.5 181.5t-199.5 68.5q-123 0 -198.5 -68t-75.5 -182z" />
    <glyph glyph-name="nine" unicode="9" horiz-adv-x="1114" 
d="M553 1376q203 0 333 -125t130 -321q0 -84 -27 -160t-125 -209l-413 -561h-127l393 528l-12 9q-74 -41 -189 -41q-173 0 -295.5 125.5t-122.5 308.5q0 190 130.5 318t324.5 128zM213 930q0 -147 96 -241.5t244 -94.5q156 0 252 93.5t96 242.5q0 151 -97.5 247.5
t-250.5 96.5q-151 0 -245.5 -95.5t-94.5 -248.5z" />
    <glyph glyph-name="colon" unicode=":" horiz-adv-x="442" 
d="M262 221l139 -139l-139 -139l-139 139zM123 918l139 139l139 -139l-139 -140z" />
    <glyph glyph-name="semicolon" unicode=";" horiz-adv-x="462" 
d="M127 -258l78 508h143l-135 -508h-86zM143 934l140 139l139 -139l-139 -139z" />
    <glyph glyph-name="less" unicode="&#x3c;" horiz-adv-x="1228" 
d="M1053 152l-885 389v94l885 389v-127l-607 -258l-143 -45v-16l143 -46l607 -258v-122z" />
    <glyph glyph-name="equal" unicode="=" horiz-adv-x="1282" 
d="M168 332v102h946v-102h-946zM168 745v103h946v-103h-946z" />
    <glyph glyph-name="greater" unicode="&#x3e;" horiz-adv-x="1228" 
d="M176 152v122l606 258l144 46v16l-144 45l-606 258v127l885 -389v-94z" />
    <glyph glyph-name="question" unicode="?" horiz-adv-x="942" 
d="M369 524q0 138 159 303l103 107q86 92 86 196q0 99 -70 168.5t-184 69.5q-90 0 -160.5 -53t-97.5 -135v-131h-103v159q31 116 132 191.5t229 75.5q167 0 272 -100t105 -240q0 -138 -103 -250l-119 -127q-71 -78 -98.5 -127t-27.5 -111v-41h-123v45zM287 82l139 139
l139 -139l-139 -139z" />
    <glyph glyph-name="at" unicode="@" horiz-adv-x="1867" 
d="M938 -201q-229 0 -408 101t-278.5 282t-99.5 412q0 224 107 405t295 283t421 102q212 0 379.5 -84t260.5 -233.5t93 -337.5q0 -143 -55 -262t-148 -186.5t-202 -67.5q-86 0 -140 41.5t-69 118.5h-13q-48 -74 -114.5 -117t-143.5 -43q-117 0 -191.5 93.5t-74.5 238.5
q0 212 108 355.5t265 143.5q156 0 217 -135h12l25 103h94l-94 -475q-23 -119 10.5 -176.5t128.5 -57.5q108 0 193.5 119.5t85.5 277.5q0 258 -172.5 422t-442.5 164q-156 0 -291.5 -52t-231.5 -143.5t-151 -221t-55 -279.5t50.5 -279t139.5 -219.5t214.5 -142t271.5 -51.5
q168 0 307 65l41 -86q-170 -78 -344 -78zM668 557q0 -117 48.5 -185.5t131.5 -68.5q69 0 130.5 56.5t98.5 150.5t37 199q0 245 -188 245q-107 0 -182.5 -115.5t-75.5 -281.5z" />
    <glyph glyph-name="A" unicode="A" horiz-adv-x="1671" 
d="M74 0v102h184l483 1237h-200v103h362l510 -1340h184v-102h-479v102h168l-135 361h-635l-139 -361h176v-102h-479zM559 573h551l-223 598l-41 115h-17l-41 -115z" />
    <glyph glyph-name="B" unicode="B" horiz-adv-x="1429" 
d="M98 0v102h201v1237h-201v103h770q172 0 283 -102.5t111 -262.5q0 -110 -57.5 -190.5t-164.5 -120.5v-16q116 -25 195.5 -128t79.5 -233q0 -169 -117 -279t-301 -110h-799zM418 106h483q129 0 210 78t81 201q0 135 -83.5 221t-215.5 86h-475v-586zM418 799h442
q125 0 204 79t79 203q0 114 -75.5 184t-195.5 70h-454v-536z" />
    <glyph glyph-name="C" unicode="C" horiz-adv-x="1503" 
d="M831 -33q-158 0 -294 56t-232.5 155t-151.5 239.5t-55 303.5t55 303.5t151.5 239.5t232.5 155t294 56q138 0 257.5 -48t191.5 -133l8 181h96v-312h-110q-76 98 -191 151.5t-243 53.5q-178 0 -319 -81.5t-220.5 -229.5t-79.5 -336q0 -139 46.5 -259.5t128 -205.5
t196.5 -133.5t248 -48.5t257 53t206 147l81 -65q-97 -112 -243 -177t-310 -65z" />
    <glyph glyph-name="D" unicode="D" horiz-adv-x="1544" 
d="M98 0v102h201v1237h-201v103h631q156 0 289.5 -53t227.5 -147t147 -227.5t53 -289.5q0 -209 -90.5 -374t-254.5 -258t-372 -93h-631zM418 106h311q172 0 307.5 79t211 220.5t75.5 319.5q0 270 -166.5 440t-427.5 170h-311v-1229z" />
    <glyph glyph-name="E" unicode="E" horiz-adv-x="1372" 
d="M98 0v102h201v1237h-201v103h1119v-291h-119v180h-680v-532h536v-107h-536v-581h696v180h119v-291h-1135z" />
    <glyph glyph-name="F" unicode="F" horiz-adv-x="1339" 
d="M98 0v102h201v1237h-201v103h1119v-291h-119v180h-680v-549h520v-106h-520v-574h200v-102h-520z" />
    <glyph glyph-name="G" unicode="G" horiz-adv-x="1536" 
d="M1282 0v197l-12 4q-70 -107 -191.5 -170.5t-283.5 -63.5q-148 0 -277.5 56t-221.5 154.5t-145 238t-53 301.5q0 220 94 393t261 269t378 96q139 0 258 -48t191 -133l8 181h96v-312h-110q-85 95 -198.5 150t-241.5 55q-268 0 -440.5 -182t-172.5 -465q0 -185 77 -333.5
t211 -231t298 -82.5q205 0 332 109t127 270v182h-445v98h563v-733h-102z" />
    <glyph glyph-name="H" unicode="H" horiz-adv-x="1662" 
d="M98 0v102h201v1237h-201v103h520v-103h-200v-536h827v536h-201v103h521v-103h-201v-1237h201v-102h-521v102h201v590h-827v-590h200v-102h-520z" />
    <glyph glyph-name="I" unicode="I" horiz-adv-x="716" 
d="M98 0v102h201v1237h-201v103h520v-103h-200v-1237h200v-102h-520z" />
    <glyph glyph-name="J" unicode="J" horiz-adv-x="1163" 
d="M406 -33q-217 0 -349 144l88 79q99 -116 256 -116q154 0 257.5 109t103.5 296v860h-201v103h520v-103h-200v-860q0 -243 -133.5 -377.5t-341.5 -134.5z" />
    <glyph glyph-name="K" unicode="K" horiz-adv-x="1556" 
d="M98 0v102h201v1237h-201v103h520v-103h-200v-536h293l391 538v101h336v-103h-193l-436 -596l455 -641h194v-102h-340v100l-418 592h-282v-590h200v-102h-520z" />
    <glyph glyph-name="L" unicode="L" horiz-adv-x="1310" 
d="M98 0v102h201v1237h-201v103h520v-103h-200v-1228h663v276h119v-387h-1102z" />
    <glyph glyph-name="M" unicode="M" horiz-adv-x="1998" 
d="M98 0v102h201v1237h-201v103h332l520 -950l45 -103h17l45 103l520 950h324v-103h-201v-1237h201v-102h-521v102h201v1012l12 107l-12 4l-545 -1000h-73l-545 1000l-12 -4l12 -107v-1012h200v-102h-520z" />
    <glyph glyph-name="N" unicode="N" horiz-adv-x="1683" 
d="M98 0v102h201v1237h-201v103h340l840 -1258l12 4l-12 103v1048h-201v103h520v-103h-200v-1339h-135l-848 1262l-13 -5l17 -106v-1049h200v-102h-520z" />
    <glyph glyph-name="O" unicode="O" horiz-adv-x="1662" 
d="M831 -33q-212 0 -379.5 96t-260.5 268t-93 390t93 390t260.5 268t379.5 96t379.5 -95.5t261 -268t93.5 -390.5t-93.5 -390.5t-261 -268t-379.5 -95.5zM221 721q0 -186 78 -334t217 -230.5t315 -82.5q269 0 440 182t171 465q0 286 -170.5 466.5t-440.5 180.5
q-176 0 -315 -81.5t-217 -229.5t-78 -336z" />
    <glyph glyph-name="P" unicode="P" horiz-adv-x="1392" 
d="M98 0v102h201v1237h-201v103h779q99 0 180 -35t132 -93.5t78 -131t27 -150.5q0 -82 -28.5 -156.5t-83 -134.5t-142 -95.5t-196.5 -35.5h-426v-508h200v-102h-520zM418 717h459q67 0 123.5 27t93 72t57 101t20.5 115q0 125 -76 214t-210 89h-467v-618z" />
    <glyph glyph-name="Q" unicode="Q" horiz-adv-x="1662" 
d="M1012 553h114v-408q147 77 231.5 229t84.5 347q0 286 -170.5 466.5t-440.5 180.5q-176 0 -315 -81.5t-217 -229.5t-78 -336q0 -186 78 -334t217 -230.5t315 -82.5q99 0 181 24v455zM98 721q0 218 93 390t260.5 268t379.5 96t379.5 -95.5t261 -268t93.5 -390.5
q0 -246 -118 -430.5t-321 -267.5v-230h-114v195q-85 -21 -181 -21q-212 0 -379.5 96t-260.5 268t-93 390z" />
    <glyph glyph-name="R" unicode="R" horiz-adv-x="1482" 
d="M98 0v102h201v1237h-201v103h779q196 0 306.5 -110t110.5 -292q0 -173 -134.5 -293t-332.5 -120l-8 -13l68 -77l264 -435h209v-102h-342v100l-322 527h-278v-525h200v-102h-520zM418 733h385q175 0 271.5 81.5t96.5 229.5q0 129 -82.5 210t-211.5 81h-459v-602z" />
    <glyph glyph-name="S" unicode="S" horiz-adv-x="1241" 
d="M643 -33q-145 0 -286 56.5t-255 160.5v277h119v-232q92 -76 205 -115.5t229 -39.5q164 0 256.5 74.5t92.5 207.5q0 217 -263 291l-221 62q-377 106 -377 385q0 118 66 205.5t176 131.5t246 44q118 0 234.5 -36.5t211.5 -107.5v-264h-119v209q-159 92 -340 92
q-97 0 -175 -28t-127.5 -88.5t-49.5 -145.5q0 -100 70 -166t217 -109l221 -65q173 -51 262.5 -152.5t89.5 -248.5q0 -97 -39 -174t-106 -125t-153.5 -73.5t-184.5 -25.5z" />
    <glyph glyph-name="T" unicode="T" horiz-adv-x="1478" 
d="M477 0v102h201v1229h-436v-276h-119v387h1233v-387h-119v276h-440v-1229h200v-102h-520z" />
    <glyph glyph-name="U" unicode="U" horiz-adv-x="1687" 
d="M844 -33q-108 0 -207 33t-177.5 94t-125.5 159t-47 218v868h-201v103h520v-103h-200v-868q0 -93 37 -169.5t99 -124.5t138.5 -73.5t159.5 -25.5q67 0 130.5 15.5t120.5 47.5t99 78t67 111t25 141v868h-201v103h521v-103h-201v-868q0 -122 -47.5 -220t-127 -159
t-177.5 -93t-205 -32z" />
    <glyph glyph-name="V" unicode="V" horiz-adv-x="1671" 
d="M1597 1442v-103h-184l-522 -1339h-123l-510 1339h-184v103h311v-103l399 -1069l41 -114h17l41 114l411 1069h-176v103h479z" />
    <glyph glyph-name="W" unicode="W" horiz-adv-x="2238" 
d="M643 0l-364 1339h-205v103h325v-99l289 -1064l21 -115h12l20 115l287 1060h-154v103h326l316 -1163l20 -115h12l21 115l286 1060h-210v103h520v-103h-201l-354 -1339h-140l-315 1171l-20 115h-17l-20 -115l-312 -1171h-143z" />
    <glyph glyph-name="X" unicode="X" horiz-adv-x="1570" 
d="M98 0v102h201l416 627l-406 610h-200v103h342v-99l335 -507l336 503v103h336v-103h-198l-404 -608l418 -629h199v-102h-338v98l-351 527l-346 -523v-102h-340z" />
    <glyph glyph-name="Y" unicode="Y" horiz-adv-x="1599" 
d="M543 0v102h200v430l-469 807h-200v103h329v-99l394 -679h16l389 675h-196v103h520v-103h-199l-465 -807v-430h201v-102h-520z" />
    <glyph glyph-name="Z" unicode="Z" horiz-adv-x="1282" 
d="M139 0v86l783 1147l82 86l-9 12h-737v-276h-119v387h1004v-86l-787 -1151l-69 -82l8 -12h729v276h119v-387h-1004z" />
    <glyph glyph-name="bracketleft" unicode="[" horiz-adv-x="585" 
d="M123 -303v1745h340v-99h-234v-1548h234v-98h-340z" />
    <glyph glyph-name="backslash" unicode="\" horiz-adv-x="942" 
d="M758 0l-697 1442h119l701 -1442h-123z" />
    <glyph glyph-name="bracketright" unicode="]" horiz-adv-x="585" 
d="M123 -303v98h233v1548h-233v99h340v-1745h-340z" />
    <glyph glyph-name="asciicircum" unicode="^" horiz-adv-x="978" 
d="M78 782l389 676h45l389 -676h-110l-242 410l-53 123h-21l-53 -123l-238 -410h-106z" />
    <glyph glyph-name="underscore" unicode="_" horiz-adv-x="1052" 
d="M0 -102v102h1053v-102h-1053z" />
    <glyph glyph-name="grave" unicode="`" horiz-adv-x="458" 
d="M287 1135l-185 307h140l139 -307h-94z" />
    <glyph glyph-name="a" unicode="a" horiz-adv-x="1347" 
d="M590 -33q-219 0 -363.5 150.5t-144.5 382.5t144.5 382t363.5 150q124 0 229.5 -52t163.5 -144h12v163h271v-102h-160v-795h160v-102h-271v164h-16q-59 -93 -161.5 -145t-227.5 -52zM197 500q0 -190 115 -310t294 -120q175 0 286.5 120t111.5 310t-111.5 310t-286.5 120
q-179 0 -294 -120t-115 -310z" />
    <glyph glyph-name="b" unicode="b" horiz-adv-x="1343" 
d="M242 0v1405h-160v102h274v-565l-12 -106h16q62 92 167 144t231 52q219 0 361.5 -149.5t142.5 -382.5q0 -232 -141.5 -382.5t-354.5 -150.5q-126 0 -233 52.5t-168 144.5h-13v-164h-110zM340 500q0 -188 111.5 -309t289.5 -121t292 121t114 309t-114 309t-292 121
t-289.5 -121t-111.5 -309z" />
    <glyph glyph-name="c" unicode="c" horiz-adv-x="1085" 
d="M598 -33q-227 0 -371.5 149.5t-144.5 383.5q0 231 145 381.5t371 150.5q247 0 389 -168v-250h-115v220q-116 96 -274 96q-178 0 -289.5 -121t-111.5 -309t111.5 -309t289.5 -121q108 0 181 32.5t139 98.5l73 -62q-147 -172 -393 -172z" />
    <glyph glyph-name="d" unicode="d" horiz-adv-x="1335" 
d="M584 -33q-215 0 -358.5 150.5t-143.5 382.5t144 382t362 150q125 0 231 -52t164 -144h16l-12 106v463h-160v102h275v-1405h160v-102h-271v164h-12q-58 -92 -164 -144.5t-231 -52.5zM197 500q0 -188 115.5 -309t293.5 -121q174 0 286 121t112 309t-112 309t-286 121
q-178 0 -293.5 -121t-115.5 -309z" />
    <glyph glyph-name="e" unicode="e" horiz-adv-x="1167" 
d="M614 -33q-243 0 -387.5 151.5t-144.5 393.5q0 232 142.5 376t365.5 144q215 0 349 -138t134 -357q0 -26 -4 -66h-872q12 -186 124.5 -293.5t301.5 -107.5q198 0 344 135l65 -74q-173 -164 -418 -164zM197 565h761q0 161 -104 263t-272 102q-163 0 -266.5 -98t-118.5 -267
z" />
    <glyph glyph-name="f" unicode="f" horiz-adv-x="851" 
d="M102 0v102h160v799h-180v98h180v205q0 145 103 240.5t262 95.5q131 0 204 -67l-57 -80q-58 45 -151 45q-107 0 -176.5 -66.5t-69.5 -167.5v-205h377v-98h-377v-799h160v-102h-435z" />
    <glyph glyph-name="g" unicode="g" horiz-adv-x="1347" 
d="M614 -492q-311 0 -446 226v188h115v-149q45 -79 130.5 -120.5t200.5 -41.5q187 0 286 110.5t99 331.5v111h-16q-58 -95 -157.5 -146t-223.5 -51q-223 0 -367.5 149t-144.5 384q0 232 144.5 382t363.5 150q124 0 229.5 -52t163.5 -144h13v163h270v-102h-160v-844
q0 -268 -132.5 -406.5t-367.5 -138.5zM205 500q0 -190 115 -310t294 -120q175 0 286.5 120t111.5 310q0 188 -112 309t-286 121q-178 0 -293.5 -121t-115.5 -309z" />
    <glyph glyph-name="h" unicode="h" horiz-adv-x="1372" 
d="M82 0v102h160v1303h-160v102h274v-561l-12 -127h16q57 97 156.5 155t220.5 58q176 0 289 -121t113 -313v-496h159v-102h-274v598q0 145 -89 238.5t-230 93.5q-151 0 -250 -110t-99 -279v-439h160v-102h-434z" />
    <glyph glyph-name="i" unicode="i" horiz-adv-x="589" 
d="M82 0v102h160v795h-160v102h274v-897h160v-102h-434zM170 1401l129 129l129 -127l-129 -129z" />
    <glyph glyph-name="j" unicode="j" horiz-adv-x="493" 
d="M266 897h-160v102h275v-1382q0 -32 -22 -54t-54 -22h-395v99h356v1257zM195 1401l129 129l129 -127l-129 -129z" />
    <glyph glyph-name="k" unicode="k" horiz-adv-x="1239" 
d="M82 0v102h160v1303h-160v102h274v-934h158l313 324v102h310v-102h-168l-357 -365l379 -430h166v-102h-311v100l-326 371h-164v-471h-274z" />
    <glyph glyph-name="l" unicode="l" horiz-adv-x="589" 
d="M82 0v102h160v1303h-160v102h274v-1405h160v-102h-434z" />
    <glyph glyph-name="m" unicode="m" horiz-adv-x="2117" 
d="M82 0v102h160v795h-160v102h262v-180h16q56 100 154 156.5t219 56.5q132 0 229.5 -73.5t131.5 -196.5q51 123 157 196.5t244 73.5q172 0 280.5 -120.5t108.5 -313.5v-496h160v-102h-275v598q0 146 -85 239t-222 93q-148 0 -244 -110t-96 -279v-439h160v-102h-274v598
q0 146 -85.5 239t-222.5 93q-148 0 -246 -110.5t-98 -278.5v-439h160v-102h-434z" />
    <glyph glyph-name="n" unicode="n" horiz-adv-x="1372" 
d="M82 0v102h160v795h-160v102h262v-180h16q57 97 156.5 155t220.5 58q176 0 289 -121t113 -313v-496h159v-102h-274v598q0 145 -89 238.5t-230 93.5q-151 0 -250 -110t-99 -279v-439h160v-102h-434z" />
    <glyph glyph-name="o" unicode="o" horiz-adv-x="1204" 
d="M602 -33q-230 0 -375 149.5t-145 383.5t145 383t375 149t375 -149t145 -383t-145 -383.5t-375 -149.5zM197 500q0 -188 113.5 -309t291.5 -121t292 121t114 309t-114 309t-292 121t-291.5 -121t-113.5 -309z" />
    <glyph glyph-name="p" unicode="p" horiz-adv-x="1343" 
d="M82 -459v103h160v1253h-160v102h270v-163h13q55 92 162.5 144t242.5 52q211 0 351.5 -150t140.5 -382t-141.5 -382.5t-354.5 -150.5q-132 0 -239.5 52.5t-166.5 144.5h-16l12 -107v-413h160v-103h-434zM340 500q0 -188 111.5 -309t289.5 -121t292 121t114 309t-114 309
t-292 121t-289.5 -121t-111.5 -309z" />
    <glyph glyph-name="q" unicode="q" horiz-adv-x="1343" 
d="M827 -459v103h160v413l12 107h-16q-59 -92 -166 -144.5t-239 -52.5q-213 0 -354.5 150.5t-141.5 382.5t140 382t351 150q129 0 237 -52t169 -144h12v163h271v-102h-160v-1253h160v-103h-435zM197 500q0 -188 113.5 -309t291.5 -121t290 121t112 309t-112 309t-290 121
t-291.5 -121t-113.5 -309z" />
    <glyph glyph-name="r" unicode="r" horiz-adv-x="847" 
d="M82 0v102h160v795h-160v102h258v-233h16q47 103 133 168t183 65h94v-127h-119q-126 0 -208.5 -97t-82.5 -218v-455h160v-102h-434z" />
    <glyph glyph-name="s" unicode="s" horiz-adv-x="925" 
d="M471 -33q-207 0 -377 144v229h115v-180q125 -94 270 -94q113 0 175.5 53.5t62.5 126.5q0 65 -46 119.5t-134 76.5l-164 41q-131 33 -196.5 103.5t-65.5 163.5q0 114 98.5 198t265.5 84q91 0 180.5 -26.5t155.5 -75.5v-230h-115v177q-100 57 -225 57q-115 0 -180.5 -51
t-65.5 -125q0 -123 193 -172l151 -37q128 -31 195 -109.5t67 -173.5q0 -122 -97 -210.5t-263 -88.5z" />
    <glyph glyph-name="t" unicode="t" horiz-adv-x="806" 
d="M317 0q-32 0 -53.5 22t-21.5 54v825h-181v98h181v287h114v-287h336v-98h-336v-803h357v-98h-396z" />
    <glyph glyph-name="u" unicode="u" horiz-adv-x="1363" 
d="M684 -33q-211 0 -331 120t-120 327v483h-159v102h274v-610q0 -141 94 -230t242 -89q145 0 238.5 89t93.5 230v508h-160v102h434v-102h-160v-483q0 -207 -119 -327t-327 -120z" />
    <glyph glyph-name="v" unicode="v" horiz-adv-x="1261" 
d="M567 0l-360 897h-146v102h265v-102l241 -598l45 -143h17l49 143l250 598h-146v102h418v-102h-160l-370 -897h-103z" />
    <glyph glyph-name="w" unicode="w" horiz-adv-x="1900" 
d="M508 0l-287 897h-160v102h275v-102l192 -598l37 -143h13l49 143l235 598h-119v102h261l282 -700l45 -143h12l33 143l193 598h-160v102h430v-102h-160l-286 -897h-99l-286 705l-45 139h-17l-45 -144l-274 -700h-119z" />
    <glyph glyph-name="x" unicode="x" horiz-adv-x="1134" 
d="M801 0v102l-238 334l-237 -334v-102h-244v102h119l301 422l-264 373h-136v102h269v-102l198 -279l199 279v102h264v-102h-139l-262 -367l303 -428h119v-102h-252z" />
    <glyph glyph-name="y" unicode="y" horiz-adv-x="1236" 
d="M225 -459v103h174l150 356l-328 897h-160v102h244l307 -845l314 743h-138v102h388v-102h-136l-524 -1253h170v-103h-461z" />
    <glyph glyph-name="z" unicode="z" horiz-adv-x="1056" 
d="M106 0v70l586 712l90 99l-8 12h-553v-203h-115v309h832v-65l-578 -705l-94 -106l8 -17h562v203h114v-309h-844z" />
    <glyph glyph-name="braceleft" unicode="{" horiz-adv-x="655" 
d="M508 -303q-128 0 -211.5 84t-83.5 211v315q0 184 -152 205v106q79 6 115.5 54t36.5 151v316q0 127 83.5 211t211.5 84h24v-99h-12q-96 0 -148.5 -59.5t-52.5 -169.5v-332q0 -84 -34.5 -129.5t-108.5 -71.5v-16q74 -26 108.5 -71.5t34.5 -129.5v-331q0 -110 52.5 -170
t148.5 -60h12v-98h-24z" />
    <glyph glyph-name="bar" unicode="|" horiz-adv-x="352" 
d="M123 -303v1913h106v-1913h-106z" />
    <glyph glyph-name="braceright" unicode="}" horiz-adv-x="655" 
d="M123 -303v98h12q96 0 148.5 60t52.5 170v331q0 84 34.5 129.5t108.5 71.5v16q-74 26 -108.5 71.5t-34.5 129.5v332q0 110 -52.5 169.5t-148.5 59.5h-12v99h24q128 0 211.5 -84t83.5 -211v-316q0 -103 36.5 -151t115.5 -54v-106q-152 -21 -152 -205v-315
q0 -127 -83.5 -211t-211.5 -84h-24z" />
    <glyph glyph-name="asciitilde" unicode="~" horiz-adv-x="1331" 
d="M885 479q-61 0 -105 10.5t-92 38.5l-90 54q-67 41 -147 41q-108 0 -205 -115l-78 65q54 69 132.5 110.5t145.5 41.5q107 0 197 -53l90 -54q59 -36 148 -36q119 0 209 106l73 -61q-54 -66 -133 -107t-145 -41z" />
    <glyph glyph-name="nbspace" unicode="&#xa0;" horiz-adv-x="507" 
 />
    <glyph glyph-name="exclamdown" unicode="&#xa1;" horiz-adv-x="483" 
d="M203 504h78l24 -520v-443h-127v443zM102 901l140 139l139 -139l-139 -139z" />
    <glyph glyph-name="cent" unicode="&#xa2;" horiz-adv-x="1134" 
d="M549 172q-182 28 -294 162.5t-112 329.5t111.5 329t294.5 162v188h106v-184q203 -12 336 -151l-82 -74q-98 110 -254 123v-787q162 12 263 119l77 -61q-123 -148 -340 -160v-168h-106v172zM258 664q0 -151 79.5 -255.5t211.5 -129.5v770q-132 -25 -211.5 -129.5
t-79.5 -255.5z" />
    <glyph glyph-name="sterling" unicode="&#xa3;" horiz-adv-x="1081" 
d="M160 102q92 46 140 140t48 192q0 42 -12 86h-217v98h184l-61 144q-56 129 -70 183q-12 51 -12 99q0 143 97.5 237.5t254.5 94.5q124 0 221.5 -60.5t134.5 -156.5l-94 -37q-37 72 -103.5 112t-154.5 40q-110 0 -176 -63t-66 -167q0 -41 12 -88.5t25.5 -81.5t39.5 -92
q6 -13 9 -20l62 -144h315v-98h-286q4 -20 4 -69q0 -102 -36 -197.5t-112 -134.5l4 -17h422q58 0 104.5 31t71.5 84l86 -49q-40 -80 -107.5 -124t-150.5 -44h-577v102z" />
    <glyph glyph-name="currency" unicode="&#xa4;" horiz-adv-x="1331" 
d="M250 8l-74 70l152 155q-90 117 -90 267q0 153 90 270l-152 156l74 69l147 -151q122 94 267 94q154 0 266 -98l151 155l74 -69l-156 -160q91 -118 91 -266q0 -147 -86 -267l151 -155l-74 -70l-147 152q-120 -99 -270 -99q-153 0 -267 99zM344 500q0 -149 90.5 -242.5
t229.5 -93.5t229 93.5t90 242.5q0 151 -89 245.5t-230 94.5t-230.5 -94.5t-89.5 -245.5z" />
    <glyph glyph-name="yen" unicode="&#xa5;" horiz-adv-x="1228" 
d="M557 0v324h-336v98h336v94l-61 107h-365v98h307l-364 622h131l405 -700h17l413 700h115l-360 -622h303v-98h-361l-61 -107v-94h336v-98h-336v-324h-119z" />
    <glyph glyph-name="brokenbar" unicode="&#xa6;" horiz-adv-x="507" 
d="M201 -303v819h106v-819h-106zM201 791v819h106v-819h-106z" />
    <glyph glyph-name="section" unicode="&#xa7;" horiz-adv-x="1138" 
d="M578 -492q-111 0 -216 50t-174 143l74 66q53 -75 140 -117.5t176 -42.5q122 0 190 72t68 174q0 83 -48 153.5t-137 104.5l-151 57q-163 62 -237.5 141.5t-74.5 198.5q0 88 40.5 157t127.5 134v16q-84 58 -126 139.5t-42 171.5q0 142 100 245.5t265 103.5q216 0 377 -164
l-66 -78q-140 143 -315 143q-115 0 -180.5 -69.5t-65.5 -167.5q0 -88 47 -160.5t137 -106.5l152 -57q163 -62 237 -141.5t74 -198.5q0 -169 -164 -291v-16q164 -113 164 -303q0 -92 -42 -172t-129 -132.5t-201 -52.5zM303 516q0 -79 55.5 -139.5t161.5 -97.5l160 -58
q67 34 111.5 97t44.5 149q0 79 -56 140t-162 98l-159 57q-67 -34 -111.5 -97t-44.5 -149z" />
    <glyph glyph-name="dieresis" unicode="&#xa8;" horiz-adv-x="901" 
d="M258 1198l-133 133l133 133l133 -133zM510 1331l133 133l133 -133l-133 -133z" />
    <glyph glyph-name="copyright" unicode="&#xa9;" horiz-adv-x="1736" 
d="M868 57q182 0 329.5 87t230.5 239t83 338q0 188 -83.5 340t-230.5 237.5t-329 85.5q-135 0 -254 -50.5t-204.5 -138t-135 -210.5t-49.5 -264q0 -186 84 -338t231.5 -239t327.5 -87zM127 721q0 127 36 243t102.5 208.5t156.5 160.5t203.5 105t238.5 37q157 0 295.5 -58
t237.5 -157.5t156 -239.5t57 -299t-57 -299t-156 -239.5t-237.5 -157.5t-295.5 -58q-125 0 -238.5 37t-203.5 105t-156.5 160.5t-102.5 208.5t-36 243zM479 725q0 179 112 294.5t286 115.5q192 0 299 -131l-62 -54q-88 99 -237 99q-135 0 -219.5 -89.5t-84.5 -234.5
t84.5 -236.5t219.5 -91.5q80 0 136.5 25.5t104.5 77.5l62 -54q-113 -131 -303 -131q-175 0 -286.5 114.5t-111.5 295.5z" />
    <glyph glyph-name="ordfeminine" unicode="&#xaa;" horiz-adv-x="983" 
d="M446 721q-144 0 -237.5 103.5t-93.5 260.5q0 154 93.5 255.5t237.5 101.5q81 0 150.5 -34t108.5 -89h16v102h188v-94h-94v-491h94v-95h-188v103h-16q-35 -56 -103.5 -89.5t-155.5 -33.5zM213 1081q0 -121 72.5 -199.5t185.5 -78.5q108 0 179 78t71 200t-71 200.5
t-179 78.5q-117 0 -187.5 -76.5t-70.5 -202.5z" />
    <glyph glyph-name="guillemotleft" unicode="&#xab;" horiz-adv-x="1028" 
d="M791 201l-275 401l279 397h131l-275 -393l275 -405h-135zM82 602l278 397h132l-275 -393l275 -405h-136z" />
    <glyph glyph-name="logicalnot" unicode="&#xac;" horiz-adv-x="1212" 
d="M934 295v455h-803v102h909v-557h-106z" />
    <glyph glyph-name="softhyphen" unicode="&#xad;" horiz-adv-x="860" 
d="M123 541v102h655v-102h-655z" />
    <glyph glyph-name="registered" unicode="&#xae;" horiz-adv-x="1736" 
d="M864 -33q-125 0 -238.5 37t-203.5 105t-156.5 160.5t-102.5 208.5t-36 243t36 243t102.5 208.5t156.5 160.5t203.5 105t238.5 37q157 0 295.5 -58t237.5 -157.5t156 -239.5t57 -299t-57 -299t-156 -239.5t-237.5 -157.5t-295.5 -58zM225 721q0 -186 84 -338t231.5 -239
t327.5 -87q182 0 329.5 87t230.5 239t83 338q0 188 -83.5 340t-230.5 237.5t-329 85.5q-135 0 -254 -50.5t-204.5 -138t-135 -210.5t-49.5 -264zM578 332v786h352q122 0 190 -68t68 -161q0 -97 -68 -167.5t-190 -70.5l-8 -8l65 -65l193 -246h-107l-246 319h-159v-319h-90z
M668 729h282q70 0 109 45.5t39 110.5q0 63 -39 109t-109 46h-282v-311z" />
    <glyph glyph-name="macron" unicode="&#xaf;" horiz-adv-x="786" 
d="M115 1217v98h557v-98h-557z" />
    <glyph glyph-name="degree" unicode="&#xb0;" horiz-adv-x="811" 
d="M406 803q-120 0 -203.5 83.5t-83.5 203.5t83.5 203t203.5 83t203 -83t83 -203t-83 -203.5t-203 -83.5zM221 1090q0 -83 52.5 -136t132.5 -53t132 53t52 136t-52 135.5t-132 52.5t-132.5 -52.5t-52.5 -135.5z" />
    <glyph glyph-name="plusminus" unicode="&#xb1;" horiz-adv-x="1249" 
d="M168 160v102h913v-102h-913zM168 668v102h405v287h103v-287h405v-102h-405v-283h-103v283h-405z" />
    <glyph glyph-name="twosuperior" unicode="&#xb2;" horiz-adv-x="606" 
d="M82 770v115l270 274q90 90 90 172q0 55 -37.5 87t-97.5 32q-58 0 -98.5 -30t-52.5 -81l-95 25q25 83 93 129.5t161 46.5q102 0 166 -58t64 -155q0 -52 -26 -101.5t-97 -123.5l-152 -160l-86 -68l4 -10h357v-94h-463z" />
    <glyph glyph-name="threesuperior" unicode="&#xb3;" horiz-adv-x="622" 
d="M309 754q-82 0 -147.5 39.5t-100.5 111.5l84 51q20 -51 63.5 -81.5t98.5 -30.5q65 0 108.5 39t43.5 100q0 63 -46 103t-110 40h-49v78h49q62 0 96.5 36t34.5 91q0 58 -37 88.5t-92 30.5q-80 0 -125 -57l-76 55q74 92 209 92q103 0 163.5 -58.5t60.5 -135.5
q0 -108 -107 -162v-13q131 -56 131 -186q0 -93 -69.5 -162t-182.5 -69z" />
    <glyph glyph-name="acute" unicode="&#xb4;" horiz-adv-x="458" 
d="M86 1135l135 307h139l-180 -307h-94z" />
    <glyph glyph-name="mu" unicode="&#xb5;" horiz-adv-x="1146" 
d="M160 -459v1458h106v-610q0 -130 72 -208.5t194 -78.5q147 0 243.5 101.5t96.5 255.5v540h107v-999h-90v209h-17q-64 -101 -155 -155t-193 -54q-88 0 -156.5 37t-105.5 102l-16 -4l20 -168v-426h-106z" />
    <glyph glyph-name="paragraph" unicode="&#xb6;" horiz-adv-x="1347" 
d="M676 -459v1114h-131q-181 0 -299.5 112t-118.5 282q0 173 117 283t301 110h602v-1901h-115v1798h-241v-1798h-115z" />
    <glyph glyph-name="periodcentered" unicode="&#xb7;" horiz-adv-x="483" 
d="M262 733l139 -139l-139 -139l-139 139z" />
    <glyph glyph-name="cedilla" unicode="&#xb8;" horiz-adv-x="614" 
d="M311 -418q-55 0 -107.5 19t-88.5 55l45 65q59 -53 143 -53q49 0 80 18t31 56q0 40 -32.5 59t-82.5 19q-17 0 -49 -4l-45 65l94 152h111l-95 -139l4 -9q89 9 139 -28t50 -99q0 -83 -56.5 -129.5t-140.5 -46.5z" />
    <glyph glyph-name="onesuperior" unicode="&#xb9;" horiz-adv-x="401" 
d="M242 770v643l-181 -78v90l218 99h61v-754h-98z" />
    <glyph glyph-name="ordmasculine" unicode="&#xba;" horiz-adv-x="929" 
d="M467 721q-151 0 -251.5 103t-100.5 257t100.5 257.5t251.5 103.5q148 0 248 -103.5t100 -257.5t-100 -257t-248 -103zM213 1081q0 -129 68.5 -203.5t185.5 -74.5q114 0 182 75t68 203q0 129 -68 204t-182 75q-117 0 -185.5 -75t-68.5 -204z" />
    <glyph glyph-name="guillemotright" unicode="&#xbb;" horiz-adv-x="1028" 
d="M102 201l275 393l-275 405h136l274 -401l-279 -397h-131zM537 201l274 393l-274 405h135l274 -401l-278 -397h-131z" />
    <glyph glyph-name="onequarter" unicode="&#xbc;" horiz-adv-x="1597" 
d="M262 0l971 1348h115l-971 -1348h-115zM121 1155v90l217 98h61v-753h-98v643zM915 172v74l312 508h119v-500h90v-82h-90v-172h-99v172h-332zM1022 254h225v270l13 107l-9 4z" />
    <glyph glyph-name="onehalf" unicode="&#xbd;" horiz-adv-x="1613" 
d="M221 0l971 1348h115l-971 -1348h-115zM121 1155v90l217 98h61v-753h-98v643zM975 594q25 83 93 129.5t161 46.5q102 0 165.5 -58t63.5 -155q0 -52 -26 -101.5t-97 -123.5l-151 -160l-86 -68l4 -10h356v-94h-463v115l271 274q90 90 90 172q0 55 -37.5 87t-97.5 32
q-58 0 -99 -30t-53 -81z" />
    <glyph glyph-name="threequarters" unicode="&#xbe;" horiz-adv-x="1724" 
d="M397 0l971 1348h115l-971 -1348h-115zM147 707l84 51q20 -52 63.5 -82.5t98.5 -30.5q65 0 108.5 39t43.5 100q0 63 -46.5 103.5t-109.5 40.5h-49v78h49q62 0 96.5 36t34.5 91q0 58 -37 88t-92 30q-80 0 -125 -57l-76 55q74 92 209 92q103 0 163.5 -58.5t60.5 -135.5
q0 -50 -27 -92.5t-80 -69.5v-12q66 -28 98.5 -77.5t32.5 -109.5q0 -93 -69.5 -162t-182.5 -69q-82 0 -147.5 40t-100.5 112zM1040 172v74l312 508h118v-500h91v-82h-91v-172h-98v172h-332zM1147 254h225v270l12 107l-8 4z" />
    <glyph glyph-name="questiondown" unicode="&#xbf;" horiz-adv-x="942" 
d="M573 477q0 -138 -159 -303l-103 -106q-86 -92 -86 -197q0 -99 70 -168.5t184 -69.5q90 0 160.5 53.5t97.5 135.5v131h103v-160q-31 -116 -132 -191t-229 -75q-167 0 -272 100t-105 240q0 138 103 250l119 127q72 78 99.5 127t27.5 110v41h122v-45zM377 920l139 139
l139 -139l-139 -140z" />
    <glyph glyph-name="Agrave" unicode="&#xc0;" horiz-adv-x="1671" 
d="M74 0v102h184l483 1237h-200v103h362l510 -1340h184v-102h-479v102h168l-135 361h-635l-139 -361h176v-102h-479zM559 573h551l-223 598l-41 115h-17l-41 -115zM559 1847h148l180 -274h-103z" />
    <glyph glyph-name="Aacute" unicode="&#xc1;" horiz-adv-x="1671" 
d="M74 0v102h184l483 1237h-200v103h362l510 -1340h184v-102h-479v102h168l-135 361h-635l-139 -361h176v-102h-479zM559 573h551l-223 598l-41 115h-17l-41 -115zM797 1573l180 274h147l-225 -274h-102z" />
    <glyph glyph-name="Acircumflex" unicode="&#xc2;" horiz-adv-x="1671" 
d="M74 0v102h184l483 1237h-200v103h362l510 -1340h184v-102h-479v102h168l-135 361h-635l-139 -361h176v-102h-479zM498 1569l266 274h172l266 -274h-106l-238 192h-16l-238 -192h-106zM559 573h551l-223 598l-41 115h-17l-41 -115z" />
    <glyph glyph-name="Atilde" unicode="&#xc3;" horiz-adv-x="1671" 
d="M74 0v102h184l483 1237h-200v103h362l510 -1340h184v-102h-479v102h168l-135 361h-635l-139 -361h176v-102h-479zM473 1589q0 98 55.5 153.5t149.5 55.5q10 0 22.5 -2t22.5 -4t25.5 -7t24 -8t27 -10.5t25.5 -10.5t27.5 -12t26.5 -11q104 -45 143 -45q98 0 98 106h107
q0 -95 -55.5 -150t-149.5 -55q-65 0 -201 62q-103 49 -143 49q-98 0 -98 -111h-107zM559 573h551l-223 598l-41 115h-17l-41 -115z" />
    <glyph glyph-name="Adieresis" unicode="&#xc4;" horiz-adv-x="1671" 
d="M74 0v102h184l483 1237h-200v103h362l510 -1340h184v-102h-479v102h168l-135 361h-635l-139 -361h176v-102h-479zM479 1729l133 133l133 -133l-133 -134zM559 573h551l-223 598l-41 115h-17l-41 -115zM934 1729l133 133l133 -133l-133 -134z" />
    <glyph glyph-name="Aring" unicode="&#xc5;" horiz-adv-x="1671" 
d="M74 0v102h184l483 1237h-200v103h209q-50 25 -79.5 71.5t-29.5 104.5q0 83 57 140t140 57t139.5 -57t56.5 -140q0 -63 -35.5 -113t-91.5 -71l506 -1332h184v-102h-479v102h168l-135 361h-635l-139 -361h176v-102h-479zM559 573h551l-223 598l-41 115h-17l-41 -115z
M739 1618q0 -42 29 -70t70 -28q40 0 69 28t29 70q0 40 -29 69t-69 29t-69.5 -29t-29.5 -69z" />
    <glyph glyph-name="AE" unicode="&#xc6;" horiz-adv-x="2166" 
d="M74 0v102h176l598 1237h-201v103h1344v-291h-119v180h-619l50 -532h426v-107h-414l53 -581h520v180h119v-291h-750l-45 463h-659l-172 -361h172v-102h-479zM602 573h598l-70 758h-167z" />
    <glyph glyph-name="Ccedilla" unicode="&#xc7;" horiz-adv-x="1503" 
d="M815 -418q-55 0 -108 19t-89 55l52 70q28 -25 66.5 -41.5t70.5 -16.5q53 0 82 19.5t29 54.5q0 32 -30.5 51t-84.5 19q-9 0 -49 -5l-52 74l56 90q-292 25 -476 232.5t-184 517.5q0 163 55 303.5t151.5 239.5t232.5 155t294 56q138 0 257.5 -48t191.5 -133l8 181h96v-312
h-110q-76 98 -191 151.5t-243 53.5q-178 0 -319 -81.5t-220.5 -229.5t-79.5 -336q0 -139 46.5 -259.5t128 -205.5t196.5 -133.5t248 -48.5t257 53t206 147l81 -65q-92 -106 -227.5 -170.5t-288.5 -71.5l-49 -67l4 -9q86 9 140.5 -33t54.5 -116q0 -70 -57 -115t-146 -45z" />
    <glyph glyph-name="Egrave" unicode="&#xc8;" horiz-adv-x="1372" 
d="M98 0v102h201v1237h-201v103h1119v-291h-119v180h-680v-532h536v-107h-536v-581h696v180h119v-291h-1135zM475 1847h148l180 -274h-103z" />
    <glyph glyph-name="Eacute" unicode="&#xc9;" horiz-adv-x="1372" 
d="M98 0v102h201v1237h-201v103h1119v-291h-119v180h-680v-532h536v-107h-536v-581h696v180h119v-291h-1135zM713 1573l180 274h147l-225 -274h-102z" />
    <glyph glyph-name="Ecircumflex" unicode="&#xca;" horiz-adv-x="1372" 
d="M98 0v102h201v1237h-201v103h1119v-291h-119v180h-680v-532h536v-107h-536v-581h696v180h119v-291h-1135zM414 1569l266 274h172l266 -274h-106l-238 192h-16l-238 -192h-106z" />
    <glyph glyph-name="Edieresis" unicode="&#xcb;" horiz-adv-x="1372" 
d="M98 0v102h201v1237h-201v103h1119v-291h-119v180h-680v-532h536v-107h-536v-581h696v180h119v-291h-1135zM395 1729l133 133l134 -133l-134 -134zM850 1729l133 133l133 -133l-133 -134z" />
    <glyph glyph-name="Igrave" unicode="&#xcc;" horiz-adv-x="716" 
d="M98 0v102h201v1237h-201v103h520v-103h-200v-1237h200v-102h-520zM78 1847h147l181 -274h-103z" />
    <glyph glyph-name="Iacute" unicode="&#xcd;" horiz-adv-x="716" 
d="M98 0v102h201v1237h-201v103h520v-103h-200v-1237h200v-102h-520zM315 1573l181 274h147l-225 -274h-103z" />
    <glyph glyph-name="Icircumflex" unicode="&#xce;" horiz-adv-x="716" 
d="M98 0v102h201v1237h-201v103h520v-103h-200v-1237h200v-102h-520zM16 1569l267 274h172l266 -274h-107l-237 192h-17l-237 -192h-107z" />
    <glyph glyph-name="Idieresis" unicode="&#xcf;" horiz-adv-x="716" 
d="M98 0v102h201v1237h-201v103h520v-103h-200v-1237h200v-102h-520zM47 1724l133 134l133 -134l-133 -133zM408 1724l133 134l133 -134l-133 -133z" />
    <glyph glyph-name="Eth" unicode="&#xd0;" horiz-adv-x="1544" 
d="M98 0v102h201v582h-147v102h147v553h-201v103h631q156 0 289.5 -53t227.5 -147t147 -227.5t53 -289.5q0 -209 -90.5 -374t-254.5 -258t-372 -93h-631zM418 106h311q172 0 307.5 79t211 220.5t75.5 319.5q0 270 -166.5 440t-427.5 170h-311v-549h311v-102h-311v-578z" />
    <glyph glyph-name="Ntilde" unicode="&#xd1;" horiz-adv-x="1683" 
d="M98 0v102h201v1237h-201v103h340l840 -1258l12 4l-12 103v1048h-201v103h520v-103h-200v-1339h-135l-848 1262l-13 -5l17 -106v-1049h200v-102h-520zM479 1589q0 98 55.5 153.5t149.5 55.5q10 0 22.5 -2t22.5 -4t25.5 -7t24 -8t27 -10.5t25.5 -10.5t27.5 -12t26.5 -11
q104 -45 143 -45q98 0 98 106h107q0 -95 -55.5 -150t-149.5 -55q-65 0 -201 62q-103 49 -143 49q-98 0 -98 -111h-107z" />
    <glyph glyph-name="Ograve" unicode="&#xd2;" horiz-adv-x="1662" 
d="M831 -33q-212 0 -379.5 96t-260.5 268t-93 390t93 390t260.5 268t379.5 96t379.5 -95.5t261 -268t93.5 -390.5t-93.5 -390.5t-261 -268t-379.5 -95.5zM221 721q0 -186 78 -334t217 -230.5t315 -82.5q269 0 440 182t171 465q0 286 -170.5 466.5t-440.5 180.5
q-176 0 -315 -81.5t-217 -229.5t-78 -336zM549 1847h147l181 -274h-103z" />
    <glyph glyph-name="Oacute" unicode="&#xd3;" horiz-adv-x="1662" 
d="M831 -33q-212 0 -379.5 96t-260.5 268t-93 390t93 390t260.5 268t379.5 96t379.5 -95.5t261 -268t93.5 -390.5t-93.5 -390.5t-261 -268t-379.5 -95.5zM221 721q0 -186 78 -334t217 -230.5t315 -82.5q269 0 440 182t171 465q0 286 -170.5 466.5t-440.5 180.5
q-176 0 -315 -81.5t-217 -229.5t-78 -336zM786 1573l181 274h147l-225 -274h-103z" />
    <glyph glyph-name="Ocircumflex" unicode="&#xd4;" horiz-adv-x="1662" 
d="M831 -33q-212 0 -379.5 96t-260.5 268t-93 390t93 390t260.5 268t379.5 96t379.5 -95.5t261 -268t93.5 -390.5t-93.5 -390.5t-261 -268t-379.5 -95.5zM221 721q0 -186 78 -334t217 -230.5t315 -82.5q269 0 440 182t171 465q0 286 -170.5 466.5t-440.5 180.5
q-176 0 -315 -81.5t-217 -229.5t-78 -336zM487 1569l267 274h172l266 -274h-107l-237 192h-17l-237 -192h-107z" />
    <glyph glyph-name="Otilde" unicode="&#xd5;" horiz-adv-x="1662" 
d="M831 -33q-212 0 -379.5 96t-260.5 268t-93 390t93 390t260.5 268t379.5 96t379.5 -95.5t261 -268t93.5 -390.5t-93.5 -390.5t-261 -268t-379.5 -95.5zM221 721q0 -186 78 -334t217 -230.5t315 -82.5q269 0 440 182t171 465q0 286 -170.5 466.5t-440.5 180.5
q-176 0 -315 -81.5t-217 -229.5t-78 -336zM463 1589q0 98 55.5 153.5t149.5 55.5q12 0 24.5 -1.5t28.5 -6t26.5 -8t30.5 -11.5t28 -11t32 -13.5t30 -13.5q104 -45 144 -45q98 0 98 106h107q0 -95 -55.5 -150t-149.5 -55q-65 0 -201 62q-103 49 -143 49q-99 0 -99 -111h-106z
" />
    <glyph glyph-name="Odieresis" unicode="&#xd6;" horiz-adv-x="1662" 
d="M831 -33q-212 0 -379.5 96t-260.5 268t-93 390t93 390t260.5 268t379.5 96t379.5 -95.5t261 -268t93.5 -390.5t-93.5 -390.5t-261 -268t-379.5 -95.5zM221 721q0 -186 78 -334t217 -230.5t315 -82.5q269 0 440 182t171 465q0 286 -170.5 466.5t-440.5 180.5
q-176 0 -315 -81.5t-217 -229.5t-78 -336zM469 1729l133 133l133 -133l-133 -134zM924 1729l133 133l133 -133l-133 -134z" />
    <glyph glyph-name="multiply" unicode="&#xd7;" horiz-adv-x="1171" 
d="M250 221l-70 66l336 340l-340 336l78 73l336 -336l336 332l65 -69l-332 -332l336 -336l-73 -78l-336 340z" />
    <glyph glyph-name="Oslash" unicode="&#xd8;" horiz-adv-x="1662" 
d="M831 -33q-218 0 -391 103l-104 -148l-82 66l102 143q-123 101 -190.5 253t-67.5 337q0 218 93 390t260.5 268t379.5 96q230 0 404 -111l113 160l82 -66l-111 -155q117 -103 181.5 -252.5t64.5 -329.5q0 -218 -93.5 -390.5t-261 -268t-379.5 -95.5zM221 721
q0 -152 53 -279.5t150 -216.5l745 1049q-150 94 -338 94q-176 0 -315 -81.5t-217 -229.5t-78 -336zM508 162q147 -88 323 -88q269 0 440 182t171 465q0 305 -191 487z" />
    <glyph glyph-name="Ugrave" unicode="&#xd9;" horiz-adv-x="1687" 
d="M844 -33q-108 0 -207 33t-177.5 94t-125.5 159t-47 218v868h-201v103h520v-103h-200v-868q0 -93 37 -169.5t99 -124.5t138.5 -73.5t159.5 -25.5q67 0 130.5 15.5t120.5 47.5t99 78t67 111t25 141v868h-201v103h521v-103h-201v-868q0 -122 -47.5 -220t-127 -159
t-177.5 -93t-205 -32zM557 1847h148l180 -274h-103z" />
    <glyph glyph-name="Uacute" unicode="&#xda;" horiz-adv-x="1687" 
d="M844 -33q-108 0 -207 33t-177.5 94t-125.5 159t-47 218v868h-201v103h520v-103h-200v-868q0 -93 37 -169.5t99 -124.5t138.5 -73.5t159.5 -25.5q67 0 130.5 15.5t120.5 47.5t99 78t67 111t25 141v868h-201v103h521v-103h-201v-868q0 -122 -47.5 -220t-127 -159
t-177.5 -93t-205 -32zM795 1573l180 274h147l-225 -274h-102z" />
    <glyph glyph-name="Ucircumflex" unicode="&#xdb;" horiz-adv-x="1687" 
d="M844 -33q-108 0 -207 33t-177.5 94t-125.5 159t-47 218v868h-201v103h520v-103h-200v-868q0 -93 37 -169.5t99 -124.5t138.5 -73.5t159.5 -25.5q67 0 130.5 15.5t120.5 47.5t99 78t67 111t25 141v868h-201v103h521v-103h-201v-868q0 -122 -47.5 -220t-127 -159
t-177.5 -93t-205 -32zM496 1569l266 274h172l266 -274h-106l-238 192h-16l-238 -192h-106z" />
    <glyph glyph-name="Udieresis" unicode="&#xdc;" horiz-adv-x="1687" 
d="M844 -33q-108 0 -207 33t-177.5 94t-125.5 159t-47 218v868h-201v103h520v-103h-200v-868q0 -93 37 -169.5t99 -124.5t138.5 -73.5t159.5 -25.5q67 0 130.5 15.5t120.5 47.5t99 78t67 111t25 141v868h-201v103h521v-103h-201v-868q0 -122 -47.5 -220t-127 -159
t-177.5 -93t-205 -32zM477 1729l133 133l133 -133l-133 -134zM932 1729l133 133l133 -133l-133 -134z" />
    <glyph glyph-name="Yacute" unicode="&#xdd;" horiz-adv-x="1599" 
d="M543 0v102h200v430l-469 807h-200v103h329v-99l394 -679h16l389 675h-196v103h520v-103h-199l-465 -807v-430h201v-102h-520zM760 1573l180 274h147l-225 -274h-102z" />
    <glyph glyph-name="Thorn" unicode="&#xde;" horiz-adv-x="1376" 
d="M98 0v102h201v1237h-201v103h520v-103h-200v-176h459q98 0 178.5 -35t131.5 -93t79 -130.5t28 -150.5q0 -109 -47.5 -203.5t-144.5 -156.5t-225 -62h-459v-230h200v-102h-520zM418 438h459q139 0 216.5 94.5t77.5 221.5q0 126 -77 214.5t-217 88.5h-459v-619z" />
    <glyph glyph-name="germandbls" unicode="&#xdf;" horiz-adv-x="1249" 
d="M82 0v102h160v795h-160v102h160v144q0 98 34.5 175.5t93 125t129.5 72t148 24.5q102 0 187.5 -38.5t141.5 -122t56 -199.5q0 -107 -57.5 -193.5t-175.5 -130.5v-12q110 -18 185.5 -81t108.5 -146t33 -179q0 -209 -125 -329.5t-325 -120.5q-60 0 -127 12v106q66 -8 98 -8
q166 0 263.5 84t97.5 248q0 69 -23 132t-65.5 113.5t-111.5 80.5t-153 30h-106v107h106q106 0 184.5 80t78.5 190q0 130 -82.5 202.5t-192.5 72.5q-55 0 -105.5 -18.5t-91.5 -53.5t-65.5 -92.5t-24.5 -130.5v-1143h-274z" />
    <glyph glyph-name="agrave" unicode="&#xe0;" horiz-adv-x="1347" 
d="M590 -33q-219 0 -363.5 150.5t-144.5 382.5t144.5 382t363.5 150q124 0 229.5 -52t163.5 -144h12v163h271v-102h-160v-795h160v-102h-271v164h-16q-59 -93 -161.5 -145t-227.5 -52zM197 500q0 -190 115 -310t294 -120q175 0 286.5 120t111.5 310t-111.5 310t-286.5 120
q-179 0 -294 -120t-115 -310zM381 1442h139l139 -307h-94z" />
    <glyph glyph-name="aacute" unicode="&#xe1;" horiz-adv-x="1347" 
d="M590 -33q-219 0 -363.5 150.5t-144.5 382.5t144.5 382t363.5 150q124 0 229.5 -52t163.5 -144h12v163h271v-102h-160v-795h160v-102h-271v164h-16q-59 -93 -161.5 -145t-227.5 -52zM197 500q0 -190 115 -310t294 -120q175 0 286.5 120t111.5 310t-111.5 310t-286.5 120
q-179 0 -294 -120t-115 -310zM553 1135l135 307h139l-180 -307h-94z" />
    <glyph glyph-name="acircumflex" unicode="&#xe2;" horiz-adv-x="1347" 
d="M590 -33q-219 0 -363.5 150.5t-144.5 382.5t144.5 382t363.5 150q124 0 229.5 -52t163.5 -144h12v163h271v-102h-160v-795h160v-102h-271v164h-16q-59 -93 -161.5 -145t-227.5 -52zM197 500q0 -190 115 -310t294 -120q175 0 286.5 120t111.5 310t-111.5 310t-286.5 120
q-179 0 -294 -120t-115 -310zM299 1135l221 307h172l221 -307h-98l-201 229h-16l-201 -229h-98z" />
    <glyph glyph-name="atilde" unicode="&#xe3;" horiz-adv-x="1347" 
d="M590 -33q-219 0 -363.5 150.5t-144.5 382.5t144.5 382t363.5 150q124 0 229.5 -52t163.5 -144h12v163h271v-102h-160v-795h160v-102h-271v164h-16q-59 -93 -161.5 -145t-227.5 -52zM197 500q0 -190 115 -310t294 -120q175 0 286.5 120t111.5 310t-111.5 310t-286.5 120
q-179 0 -294 -120t-115 -310zM270 1241q0 83 49 131.5t132 48.5q58 0 188 -53q96 -41 131 -41q44 0 69 22.5t25 67.5h94q0 -83 -48.5 -131.5t-131.5 -48.5q-64 0 -188 53q-91 41 -131 41q-44 0 -69 -22.5t-25 -67.5h-95z" />
    <glyph glyph-name="adieresis" unicode="&#xe4;" horiz-adv-x="1347" 
d="M590 -33q-219 0 -363.5 150.5t-144.5 382.5t144.5 382t363.5 150q124 0 229.5 -52t163.5 -144h12v163h271v-102h-160v-795h160v-102h-271v164h-16q-59 -93 -161.5 -145t-227.5 -52zM197 500q0 -190 115 -310t294 -120q175 0 286.5 120t111.5 310t-111.5 310t-286.5 120
q-179 0 -294 -120t-115 -310zM281 1331l133 133l133 -133l-133 -133zM666 1331l133 133l133 -133l-133 -133z" />
    <glyph glyph-name="aring" unicode="&#xe5;" horiz-adv-x="1347" 
d="M590 -33q-219 0 -363.5 150.5t-144.5 382.5t144.5 382t363.5 150q124 0 229.5 -52t163.5 -144h12v163h271v-102h-160v-795h160v-102h-271v164h-16q-59 -93 -161.5 -145t-227.5 -52zM197 500q0 -190 115 -310t294 -120q175 0 286.5 120t111.5 310t-111.5 310t-286.5 120
q-179 0 -294 -120t-115 -310zM418 1327q0 80 54.5 134.5t133.5 54.5q80 0 134.5 -55t54.5 -134t-54.5 -133.5t-134.5 -54.5t-134 54.5t-54 133.5zM508 1327q0 -42 29 -70t69 -28q41 0 70 28t29 70q0 40 -29.5 69t-69.5 29t-69 -29t-29 -69z" />
    <glyph glyph-name="ae" unicode="&#xe6;" horiz-adv-x="1867" 
d="M426 -33q-151 0 -247.5 78.5t-96.5 204.5q0 122 82.5 198t232.5 93l357 41q50 6 66 25t16 61q0 117 -87.5 189.5t-228.5 72.5q-104 0 -187.5 -41t-127.5 -115l-99 57q157 201 422 201q139 0 237 -54.5t144 -154.5q59 99 164.5 154t237.5 55q209 0 336 -132.5t127 -350.5
q0 -16 -5 -66h-819q15 -190 118 -301.5t280 -111.5q188 0 323 123l62 -74q-79 -73 -181.5 -112.5t-212.5 -39.5q-155 0 -270 73t-176 198q-43 -118 -173 -194.5t-294 -76.5zM197 262q0 -83 69 -137.5t176 -54.5q74 0 143 20.5t126 59t91 102t34 141.5v107l-414 -49
q-106 -12 -165.5 -62t-59.5 -127zM950 582h709q0 159 -96 253.5t-256 94.5q-153 0 -247.5 -89.5t-109.5 -258.5z" />
    <glyph glyph-name="ccedilla" unicode="&#xe7;" horiz-adv-x="1085" 
d="M582 -418q-55 0 -108 19t-89 55l45 65q59 -53 143 -53q49 0 80 18t31 56q0 40 -32.5 59t-82.5 19q-17 0 -49 -4l-45 65l55 90q-200 23 -324 168t-124 361q0 231 145 381.5t371 150.5q247 0 389 -168v-250h-115v220q-116 96 -274 96q-178 0 -289.5 -121t-111.5 -309
t111.5 -309t289.5 -121q108 0 181 32.5t139 98.5l73 -62q-134 -158 -354 -170l-51 -75l4 -9q88 9 138 -28t50 -99q0 -83 -56 -129.5t-140 -46.5z" />
    <glyph glyph-name="egrave" unicode="&#xe8;" horiz-adv-x="1167" 
d="M614 -33q-243 0 -387.5 151.5t-144.5 393.5q0 232 142.5 376t365.5 144q215 0 349 -138t134 -357q0 -26 -4 -66h-872q12 -186 124.5 -293.5t301.5 -107.5q198 0 344 135l65 -74q-173 -164 -418 -164zM197 565h761q0 161 -104 263t-272 102q-163 0 -266.5 -98t-118.5 -267
zM373 1442h139l139 -307h-94z" />
    <glyph glyph-name="eacute" unicode="&#xe9;" horiz-adv-x="1167" 
d="M614 -33q-243 0 -387.5 151.5t-144.5 393.5q0 232 142.5 376t365.5 144q215 0 349 -138t134 -357q0 -26 -4 -66h-872q12 -186 124.5 -293.5t301.5 -107.5q198 0 344 135l65 -74q-173 -164 -418 -164zM197 565h761q0 161 -104 263t-272 102q-163 0 -266.5 -98t-118.5 -267
zM545 1135l135 307h139l-180 -307h-94z" />
    <glyph glyph-name="ecircumflex" unicode="&#xea;" horiz-adv-x="1167" 
d="M614 -33q-243 0 -387.5 151.5t-144.5 393.5q0 232 142.5 376t365.5 144q215 0 349 -138t134 -357q0 -26 -4 -66h-872q12 -186 124.5 -293.5t301.5 -107.5q198 0 344 135l65 -74q-173 -164 -418 -164zM197 565h761q0 161 -104 263t-272 102q-163 0 -266.5 -98t-118.5 -267
zM291 1135l221 307h172l221 -307h-98l-201 229h-16l-201 -229h-98z" />
    <glyph glyph-name="edieresis" unicode="&#xeb;" horiz-adv-x="1167" 
d="M614 -33q-243 0 -387.5 151.5t-144.5 393.5q0 232 142.5 376t365.5 144q215 0 349 -138t134 -357q0 -26 -4 -66h-872q12 -186 124.5 -293.5t301.5 -107.5q198 0 344 135l65 -74q-173 -164 -418 -164zM197 565h761q0 161 -104 263t-272 102q-163 0 -266.5 -98t-118.5 -267
zM272 1331l134 133l133 -133l-133 -133zM657 1331l134 133l133 -133l-133 -133z" />
    <glyph glyph-name="igrave" unicode="&#xec;" horiz-adv-x="589" 
d="M82 0v102h160v795h-160v102h274v-897h160v-102h-434zM78 1442h139l139 -307h-94z" />
    <glyph glyph-name="iacute" unicode="&#xed;" horiz-adv-x="589" 
d="M82 0v102h160v795h-160v102h274v-897h160v-102h-434zM250 1135l135 307h139l-180 -307h-94z" />
    <glyph glyph-name="icircumflex" unicode="&#xee;" horiz-adv-x="589" 
d="M82 0v102h160v795h-160v102h274v-897h160v-102h-434zM61 1155l160 287h164l160 -287h-94l-140 209h-16l-139 -209h-95z" />
    <glyph glyph-name="idieresis" unicode="&#xef;" horiz-adv-x="589" 
d="M82 0v102h160v795h-160v102h274v-897h160v-102h-434zM2 1399l133 133l133 -133l-133 -133zM338 1399l133 133l133 -133l-133 -133z" />
    <glyph glyph-name="eth" unicode="&#xf0;" horiz-adv-x="1167" 
d="M586 -33q-228 0 -366 139.5t-138 360.5q0 220 135.5 360t355.5 140q189 0 353 -154l16 8q-22 118 -87 219.5t-167 176.5l-315 -140l-33 78l258 117q-120 63 -270 84l24 86q199 -29 357 -121l233 104l33 -82l-184 -81q139 -114 212.5 -286t73.5 -394q0 -292 -129 -453.5
t-362 -161.5zM197 475q0 -177 108.5 -291t284.5 -114q162 0 267.5 112.5t105.5 284.5q0 186 -110.5 291.5t-274.5 105.5q-169 0 -275 -108.5t-106 -280.5z" />
    <glyph glyph-name="ntilde" unicode="&#xf1;" horiz-adv-x="1372" 
d="M82 0v102h160v795h-160v102h262v-180h16q57 97 156.5 155t220.5 58q176 0 289 -121t113 -313v-496h159v-102h-274v598q0 145 -89 238.5t-230 93.5q-151 0 -250 -110t-99 -279v-439h160v-102h-434zM401 1241q0 83 49 131.5t132 48.5q58 0 188 -53q96 -41 131 -41
q44 0 69 22.5t25 67.5h95q0 -83 -49 -131.5t-132 -48.5q-64 0 -188 53q-91 41 -131 41q-44 0 -69 -22.5t-25 -67.5h-95z" />
    <glyph glyph-name="ograve" unicode="&#xf2;" horiz-adv-x="1204" 
d="M602 -33q-230 0 -375 149.5t-145 383.5t145 383t375 149t375 -149t145 -383t-145 -383.5t-375 -149.5zM197 500q0 -188 113.5 -309t291.5 -121t292 121t114 309t-114 309t-292 121t-291.5 -121t-113.5 -309zM377 1442h139l139 -307h-94z" />
    <glyph glyph-name="oacute" unicode="&#xf3;" horiz-adv-x="1204" 
d="M602 -33q-230 0 -375 149.5t-145 383.5t145 383t375 149t375 -149t145 -383t-145 -383.5t-375 -149.5zM197 500q0 -188 113.5 -309t291.5 -121t292 121t114 309t-114 309t-292 121t-291.5 -121t-113.5 -309zM549 1135l135 307h139l-180 -307h-94z" />
    <glyph glyph-name="ocircumflex" unicode="&#xf4;" horiz-adv-x="1204" 
d="M602 -33q-230 0 -375 149.5t-145 383.5t145 383t375 149t375 -149t145 -383t-145 -383.5t-375 -149.5zM197 500q0 -188 113.5 -309t291.5 -121t292 121t114 309t-114 309t-292 121t-291.5 -121t-113.5 -309zM295 1135l221 307h172l221 -307h-98l-201 229h-16l-201 -229
h-98z" />
    <glyph glyph-name="otilde" unicode="&#xf5;" horiz-adv-x="1204" 
d="M602 -33q-230 0 -375 149.5t-145 383.5t145 383t375 149t375 -149t145 -383t-145 -383.5t-375 -149.5zM197 500q0 -188 113.5 -309t291.5 -121t292 121t114 309t-114 309t-292 121t-291.5 -121t-113.5 -309zM266 1241q0 83 48.5 131.5t131.5 48.5q59 0 189 -53
q96 -41 131 -41q44 0 69 22.5t25 67.5h94q0 -83 -48.5 -131.5t-131.5 -48.5q-64 0 -188 53q-91 41 -131 41q-44 0 -69.5 -22.5t-25.5 -67.5h-94z" />
    <glyph glyph-name="odieresis" unicode="&#xf6;" horiz-adv-x="1204" 
d="M602 -33q-230 0 -375 149.5t-145 383.5t145 383t375 149t375 -149t145 -383t-145 -383.5t-375 -149.5zM197 500q0 -188 113.5 -309t291.5 -121t292 121t114 309t-114 309t-292 121t-291.5 -121t-113.5 -309zM276 1331l134 133l133 -133l-133 -133zM662 1331l133 133
l133 -133l-133 -133z" />
    <glyph glyph-name="divide" unicode="&#xf7;" horiz-adv-x="1282" 
d="M168 541v102h946v-102h-946zM541 164q0 43 27.5 70.5t70.5 27.5t70.5 -27.5t27.5 -70.5t-27.5 -70.5t-70.5 -27.5t-70.5 27.5t-27.5 70.5zM541 999q0 43 27.5 71t70.5 28t70.5 -28t27.5 -71t-27.5 -70.5t-70.5 -27.5t-70.5 27.5t-27.5 70.5z" />
    <glyph glyph-name="oslash" unicode="&#xf8;" horiz-adv-x="1204" 
d="M602 -33q-142 0 -256 60l-80 -113l-69 61l73 103q-90 71 -139 180t-49 242q0 234 145 383t375 149q164 0 289 -80l96 138l78 -54l-100 -141q157 -148 157 -395q0 -234 -145 -383.5t-375 -149.5zM197 500q0 -102 36 -187.5t101 -144.5l493 696q-97 66 -225 66
q-178 0 -291.5 -121t-113.5 -309zM410 115q85 -45 192 -45q178 0 292 121t114 309q0 181 -109 303z" />
    <glyph glyph-name="ugrave" unicode="&#xf9;" horiz-adv-x="1363" 
d="M684 -33q-211 0 -331 120t-120 327v483h-159v102h274v-610q0 -141 94 -230t242 -89q145 0 238.5 89t93.5 230v508h-160v102h434v-102h-160v-483q0 -207 -119 -327t-327 -120zM426 1442h139l140 -307h-95z" />
    <glyph glyph-name="uacute" unicode="&#xfa;" horiz-adv-x="1363" 
d="M684 -33q-211 0 -331 120t-120 327v483h-159v102h274v-610q0 -141 94 -230t242 -89q145 0 238.5 89t93.5 230v508h-160v102h434v-102h-160v-483q0 -207 -119 -327t-327 -120zM598 1135l135 307h139l-180 -307h-94z" />
    <glyph glyph-name="ucircumflex" unicode="&#xfb;" horiz-adv-x="1363" 
d="M684 -33q-211 0 -331 120t-120 327v483h-159v102h274v-610q0 -141 94 -230t242 -89q145 0 238.5 89t93.5 230v508h-160v102h434v-102h-160v-483q0 -207 -119 -327t-327 -120zM344 1135l221 307h172l221 -307h-98l-201 229h-16l-201 -229h-98z" />
    <glyph glyph-name="udieresis" unicode="&#xfc;" horiz-adv-x="1363" 
d="M684 -33q-211 0 -331 120t-120 327v483h-159v102h274v-610q0 -141 94 -230t242 -89q145 0 238.5 89t93.5 230v508h-160v102h434v-102h-160v-483q0 -207 -119 -327t-327 -120zM326 1331l133 133l133 -133l-133 -133zM711 1331l133 133l133 -133l-133 -133z" />
    <glyph glyph-name="yacute" unicode="&#xfd;" horiz-adv-x="1236" 
d="M225 -459v103h174l150 356l-328 897h-160v102h244l307 -845l314 743h-138v102h388v-102h-136l-524 -1253h170v-103h-461zM565 1135l135 307h140l-181 -307h-94z" />
    <glyph glyph-name="thorn" unicode="&#xfe;" horiz-adv-x="1343" 
d="M82 -459v103h160v1761h-160v102h274v-565l-12 -106h16q145 196 410 196q211 0 351.5 -150t140.5 -382t-141.5 -382.5t-354.5 -150.5q-132 0 -239.5 52.5t-166.5 144.5h-16l12 -107v-413h160v-103h-434zM340 500q0 -188 111.5 -309t289.5 -121t292 121t114 309t-114 309
t-292 121t-289.5 -121t-111.5 -309z" />
    <glyph glyph-name="ydieresis" unicode="&#xff;" horiz-adv-x="1236" 
d="M225 -459v103h174l150 356l-328 897h-160v102h244l307 -845l314 743h-138v102h388v-102h-136l-524 -1253h170v-103h-461zM293 1331l133 133l133 -133l-133 -133zM678 1331l133 133l133 -133l-133 -133z" />
    <glyph glyph-name="Abreve" unicode="&#x102;" horiz-adv-x="1671" 
d="M74 0v102h184l483 1237h-200v103h362l510 -1340h184v-102h-479v102h168l-135 361h-635l-139 -361h176v-102h-479zM535 1851h102q0 -83 60 -139.5t149 -56.5q86 0 145.5 56.5t59.5 139.5h102q0 -123 -90.5 -209t-216.5 -86q-129 0 -220 86t-91 209zM559 573h551l-223 598
l-41 115h-17l-41 -115z" />
    <glyph glyph-name="abreve" unicode="&#x103;" horiz-adv-x="1347" 
d="M590 -33q-219 0 -363.5 150.5t-144.5 382.5t144.5 382t363.5 150q124 0 229.5 -52t163.5 -144h12v163h271v-102h-160v-795h160v-102h-271v164h-16q-59 -93 -161.5 -145t-227.5 -52zM197 500q0 -190 115 -310t294 -120q175 0 286.5 120t111.5 310t-111.5 310t-286.5 120
q-179 0 -294 -120t-115 -310zM324 1454h98q0 -83 56 -137.5t140 -54.5q77 0 135 56.5t58 135.5h94q0 -120 -85.5 -205.5t-205.5 -85.5t-205 85.5t-85 205.5z" />
    <glyph glyph-name="idotless" unicode="&#x131;" horiz-adv-x="589" 
d="M82 0v102h160v795h-160v102h274v-897h160v-102h-434z" />
    <glyph glyph-name="Lslash" unicode="&#x141;" horiz-adv-x="1310" 
d="M98 541v110l201 90v598h-201v103h520v-103h-200v-544l334 149v-110l-334 -150v-573h663v276h119v-387h-1102v102h201v529z" />
    <glyph glyph-name="lslash" unicode="&#x142;" horiz-adv-x="749" 
d="M82 537v106l233 105v657h-159v102h274v-708l217 98v-106l-217 -99v-590h160v-102h-434v102h159v539z" />
    <glyph glyph-name="OE" unicode="&#x152;" horiz-adv-x="2424" 
d="M795 -29q-150 0 -279.5 56t-221.5 154.5t-144 238t-52 301.5q0 216 89 387t248 266.5t360 95.5q194 0 343.5 -88t225.5 -247l-12 307h917v-291h-119v180h-680v-532h418v-107h-418v-581h697v180h119v-291h-934l12 307q-83 -160 -232.5 -248t-336.5 -88zM221 725
q0 -186 73 -334t204 -230.5t297 -82.5t295 83t199.5 230t70.5 334q0 185 -70.5 330.5t-199.5 227t-295 81.5q-252 0 -413 -178.5t-161 -460.5z" />
    <glyph glyph-name="oe" unicode="&#x153;" horiz-adv-x="1998" 
d="M582 -33q-223 0 -361.5 149t-138.5 384t138.5 383.5t361.5 148.5q148 0 261.5 -70.5t176.5 -195.5q59 126 172.5 196t261.5 70q205 0 334 -138t129 -357q0 -26 -4 -66h-836q12 -187 119.5 -294t290.5 -107q190 0 319 123l66 -74q-172 -152 -393 -152q-160 0 -277.5 73
t-177.5 202q-59 -130 -174 -202.5t-268 -72.5zM197 500q0 -189 107 -309.5t278 -120.5q168 0 274.5 121t106.5 309t-106.5 309t-274.5 121q-174 0 -279.5 -118t-105.5 -312zM1077 569h725q0 161 -97 261t-259 100q-157 0 -255.5 -96t-113.5 -265z" />
    <glyph glyph-name="Scaron" unicode="&#x160;" horiz-adv-x="1241" 
d="M643 -33q-145 0 -286 56.5t-255 160.5v277h119v-232q92 -76 205 -115.5t229 -39.5q164 0 256.5 74.5t92.5 207.5q0 217 -263 291l-221 62q-377 106 -377 385q0 118 66 205.5t176 131.5t246 44q118 0 234.5 -36.5t211.5 -107.5v-264h-119v209q-159 92 -340 92
q-97 0 -175 -28t-127.5 -88.5t-49.5 -145.5q0 -100 70 -166t217 -109l221 -65q173 -51 262.5 -152.5t89.5 -248.5q0 -97 -39 -174t-106 -125t-153.5 -73.5t-184.5 -25.5zM283 1843h106l238 -192h16l238 192h106l-266 -274h-172z" />
    <glyph glyph-name="scaron" unicode="&#x161;" horiz-adv-x="925" 
d="M471 -33q-207 0 -377 144v229h115v-180q125 -94 270 -94q113 0 175.5 53.5t62.5 126.5q0 65 -46 119.5t-134 76.5l-164 41q-131 33 -196.5 103.5t-65.5 163.5q0 114 98.5 198t265.5 84q91 0 180.5 -26.5t155.5 -75.5v-230h-115v177q-100 57 -225 57q-115 0 -180.5 -51
t-65.5 -125q0 -123 193 -172l151 -37q128 -31 195 -109.5t67 -173.5q0 -122 -97 -210.5t-263 -88.5zM168 1442h98l201 -230h16l201 230h98l-221 -307h-172z" />
    <glyph glyph-name="Wcircumflex" unicode="&#x174;" horiz-adv-x="2238" 
d="M643 0l-364 1339h-205v103h325v-99l289 -1064l21 -115h12l20 115l287 1060h-154v103h326l316 -1163l20 -115h12l21 115l286 1060h-210v103h520v-103h-201l-354 -1339h-140l-315 1171l-20 115h-17l-20 -115l-312 -1171h-143zM778 1569l266 274h173l266 -274h-107l-237 192
h-17l-237 -192h-107z" />
    <glyph glyph-name="wcircumflex" unicode="&#x175;" horiz-adv-x="1900" 
d="M508 0l-287 897h-160v102h275v-102l192 -598l37 -143h13l49 143l235 598h-119v102h261l282 -700l45 -143h12l33 143l193 598h-160v102h430v-102h-160l-286 -897h-99l-286 705l-45 139h-17l-45 -144l-274 -700h-119zM651 1135l221 307h172l222 -307h-99l-200 229h-17
l-200 -229h-99z" />
    <glyph glyph-name="Ycircumflex" unicode="&#x176;" horiz-adv-x="1599" 
d="M543 0v102h200v430l-469 807h-200v103h329v-99l394 -679h16l389 675h-196v103h520v-103h-199l-465 -807v-430h201v-102h-520zM461 1569l266 274h172l266 -274h-106l-238 192h-16l-238 -192h-106z" />
    <glyph glyph-name="ycircumflex" unicode="&#x177;" horiz-adv-x="1236" 
d="M225 -459v103h174l150 356l-328 897h-160v102h244l307 -845l314 743h-138v102h388v-102h-136l-524 -1253h170v-103h-461zM311 1135l221 307h173l221 -307h-99l-200 229h-17l-200 -229h-99z" />
    <glyph glyph-name="Ydieresis" unicode="&#x178;" horiz-adv-x="1599" 
d="M543 0v102h200v430l-469 807h-200v103h329v-99l394 -679h16l389 675h-196v103h520v-103h-199l-465 -807v-430h201v-102h-520zM442 1729l133 133l134 -133l-134 -134zM897 1729l133 133l133 -133l-133 -134z" />
    <glyph glyph-name="Zcaron" unicode="&#x17d;" horiz-adv-x="1282" 
d="M139 0v86l783 1147l82 86l-9 12h-737v-276h-119v387h1004v-86l-787 -1151l-69 -82l8 -12h729v276h119v-387h-1004zM291 1843h106l238 -192h16l238 192h106l-266 -274h-172z" />
    <glyph glyph-name="zcaron" unicode="&#x17e;" horiz-adv-x="1056" 
d="M106 0v70l586 712l90 99l-8 12h-553v-203h-115v309h832v-65l-578 -705l-94 -106l8 -17h562v203h114v-309h-844zM201 1442h98l201 -230h16l201 230h98l-221 -307h-172z" />
    <glyph glyph-name="fhook" unicode="&#x192;" horiz-adv-x="1040" 
d="M0 -106h20q141 0 235 81t122 226l131 700h-299v98h319l21 115q35 193 152.5 309.5t277.5 116.5q45 0 61 -4v-98h-20q-140 0 -234 -83t-122 -229l-25 -127h324v-98h-340l-131 -688q-37 -194 -154 -310t-277 -116q-45 0 -61 4v103z" />
    <glyph glyph-name="Scommaaccent" unicode="&#x218;" horiz-adv-x="1241" 
d="M643 -33q-145 0 -286 56.5t-255 160.5v277h119v-232q92 -76 205 -115.5t229 -39.5q164 0 256.5 74.5t92.5 207.5q0 217 -263 291l-221 62q-377 106 -377 385q0 118 66 205.5t176 131.5t246 44q118 0 234.5 -36.5t211.5 -107.5v-264h-119v209q-159 92 -340 92
q-97 0 -175 -28t-127.5 -88.5t-49.5 -145.5q0 -100 70 -166t217 -109l221 -65q173 -51 262.5 -152.5t89.5 -248.5q0 -97 -39 -174t-106 -125t-153.5 -73.5t-184.5 -25.5zM514 -492l66 365h118l-102 -365h-82z" />
    <glyph glyph-name="scommaaccent" unicode="&#x219;" horiz-adv-x="925" 
d="M471 -33q-207 0 -377 144v229h115v-180q125 -94 270 -94q113 0 175.5 53.5t62.5 126.5q0 65 -46 119.5t-134 76.5l-164 41q-131 33 -196.5 103.5t-65.5 163.5q0 114 98.5 198t265.5 84q91 0 180.5 -26.5t155.5 -75.5v-230h-115v177q-100 57 -225 57q-115 0 -180.5 -51
t-65.5 -125q0 -123 193 -172l151 -37q128 -31 195 -109.5t67 -173.5q0 -122 -97 -210.5t-263 -88.5zM342 -492l66 365h118l-102 -365h-82z" />
    <glyph glyph-name="Tcommaaccent" unicode="&#x21a;" horiz-adv-x="1478" 
d="M477 0v102h201v1229h-436v-276h-119v387h1233v-387h-119v276h-440v-1229h200v-102h-520zM606 -492l66 365h119l-103 -365h-82z" />
    <glyph glyph-name="tcommaaccent" unicode="&#x21b;" horiz-adv-x="806" 
d="M317 0q-32 0 -53.5 22t-21.5 54v825h-181v98h181v287h114v-287h336v-98h-336v-803h357v-98h-396zM203 -492l65 365h119l-102 -365h-82z" />
    <glyph glyph-name="apostrophemod" unicode="&#x2bc;" horiz-adv-x="323" 
d="M102 954v488h119l-33 -488h-86z" />
    <glyph glyph-name="circumflexmod" unicode="&#x2c6;" horiz-adv-x="720" 
d="M53 1135l221 307h172l222 -307h-99l-200 229h-17l-200 -229h-99z" />
    <glyph glyph-name="caronmod" unicode="&#x2c7;" horiz-adv-x="720" 
d="M274 1135l-221 307h99l200 -230h17l200 230h99l-222 -307h-172z" />
    <glyph glyph-name="brevemod" unicode="&#x2d8;" horiz-adv-x="745" 
d="M369 1163q-120 0 -205.5 85.5t-85.5 205.5h98q0 -83 56.5 -137.5t140.5 -54.5q77 0 134.5 56.5t57.5 135.5h94q0 -120 -85 -205.5t-205 -85.5z" />
    <glyph glyph-name="dotaccentmod" unicode="&#x2d9;" horiz-adv-x="491" 
d="M246 1468l133 -133l-133 -133l-133 133z" />
    <glyph glyph-name="ringmod" unicode="&#x2da;" horiz-adv-x="598" 
d="M299 1139q-79 0 -133.5 54.5t-54.5 133.5q0 80 54.5 134.5t133.5 54.5t133.5 -54.5t54.5 -134.5q0 -79 -54.5 -133.5t-133.5 -54.5zM201 1327q0 -42 29 -70t69 -28t69 28t29 70q0 40 -29 69t-69 29t-69 -29t-29 -69z" />
    <glyph glyph-name="ogonekmod" unicode="&#x2db;" horiz-adv-x="475" 
d="M291 -442q-89 0 -141 54t-52 146q0 88 47.5 152t145.5 123l98 -33q-87 -29 -133.5 -91.5t-46.5 -129.5q0 -52 32 -85.5t91 -33.5q21 0 61 8v-94q-39 -16 -102 -16z" />
    <glyph glyph-name="tildemod" unicode="&#x2dc;" horiz-adv-x="835" 
d="M582 1237q-65 0 -189 53q-91 41 -131 41q-44 0 -69 -22.5t-25 -67.5h-94q0 83 48.5 131.5t131.5 48.5q58 0 188 -53q96 -41 131 -41q44 0 69.5 22.5t25.5 67.5h94q0 -83 -48.5 -131.5t-131.5 -48.5z" />
    <glyph glyph-name="doubleacutemod" unicode="&#x2dd;" horiz-adv-x="782" 
d="M98 1135l123 307h144l-181 -307h-86zM352 1135l189 307h151l-246 -307h-94z" />
    <glyph glyph-name="gravecomb" unicode="&#x300;" 
d="M287 1135l-185 307h140l139 -307h-94z" />
    <glyph glyph-name="acutecomb" unicode="&#x301;" 
d="M86 1135l135 307h139l-180 -307h-94z" />
    <glyph glyph-name="circumflexcomb" unicode="&#x302;" 
d="M53 1135l221 307h172l222 -307h-99l-200 229h-17l-200 -229h-99z" />
    <glyph glyph-name="tildecomb" unicode="&#x303;" 
d="M582 1237q-65 0 -189 53q-91 41 -131 41q-44 0 -69 -22.5t-25 -67.5h-94q0 83 48.5 131.5t131.5 48.5q58 0 188 -53q96 -41 131 -41q44 0 69.5 22.5t25.5 67.5h94q0 -83 -48.5 -131.5t-131.5 -48.5z" />
    <glyph glyph-name="brevecomb" unicode="&#x306;" 
d="M369 1163q-120 0 -205.5 85.5t-85.5 205.5h98q0 -83 56.5 -137.5t140.5 -54.5q77 0 134.5 56.5t57.5 135.5h94q0 -120 -85 -205.5t-205 -85.5z" />
    <glyph glyph-name="dotaccentcomb" unicode="&#x307;" 
d="M246 1468l133 -133l-133 -133l-133 133z" />
    <glyph glyph-name="dieresiscomb" unicode="&#x308;" 
d="M258 1198l-133 133l133 133l133 -133zM510 1331l133 133l133 -133l-133 -133z" />
    <glyph glyph-name="ringcomb" unicode="&#x30a;" 
d="M299 1139q-79 0 -133.5 54.5t-54.5 133.5q0 80 54.5 134.5t133.5 54.5t133.5 -54.5t54.5 -134.5q0 -79 -54.5 -133.5t-133.5 -54.5zM201 1327q0 -42 29 -70t69 -28t69 28t29 70q0 40 -29 69t-69 29t-69 -29t-29 -69z" />
    <glyph glyph-name="caroncomb" unicode="&#x30c;" 
d="M274 1135l-221 307h99l200 -230h17l200 230h99l-222 -307h-172z" />
    <glyph glyph-name="commaaccentcomb" unicode="&#x326;" 
d="M127 -492l66 365h118l-102 -365h-82z" />
    <glyph glyph-name="cedillacomb" unicode="&#x327;" 
d="M311 -418q-55 0 -107.5 19t-88.5 55l45 65q59 -53 143 -53q49 0 80 18t31 56q0 40 -32.5 59t-82.5 19q-17 0 -49 -4l-45 65l94 152h111l-95 -139l4 -9q89 9 139 -28t50 -99q0 -83 -56.5 -129.5t-140.5 -46.5z" />
    <glyph glyph-name="strokeshortcomb" unicode="&#x335;" 
d="M115 545v98h897v-98h-897z" />
    <glyph glyph-name="soliduslongcomb" unicode="&#x338;" 
d="M205 -90l-70 61l791 1114l78 -53z" />
    <glyph glyph-name="Delta-grek" unicode="&#x394;" horiz-adv-x="1413" 
d="M74 0l573 1442h111l581 -1442h-1265zM242 102h929l-401 1004l-57 156h-21l-57 -156z" />
    <glyph glyph-name="Omega-grek" unicode="&#x3a9;" horiz-adv-x="1646" 
d="M127 0v106h279l180 -16v66q-224 79 -345.5 244.5t-121.5 390.5q0 196 91 352.5t251.5 244t361.5 87.5q151 0 282.5 -52t224 -142.5t145.5 -217.5t53 -272q0 -225 -121.5 -390.5t-345.5 -244.5v-66l180 16h279v-106h-566v217q215 61 335 215t120 367q0 163 -76 293.5
t-210 203t-300 72.5t-299.5 -72.5t-209.5 -202.5t-76 -294q0 -213 119.5 -367t334.5 -215v-217h-565z" />
    <glyph glyph-name="mu-grek" unicode="&#x3bc;" horiz-adv-x="1155" 
d="M168 -459v1458h106v-610q0 -130 72.5 -208.5t194.5 -78.5q147 0 243.5 101.5t96.5 255.5v540h106v-999h-90v209h-16q-64 -100 -155.5 -154.5t-193.5 -54.5q-88 0 -156.5 37t-105.5 102l-16 -4l20 -168v-426h-106z" />
    <glyph glyph-name="pi-grek" unicode="&#x3c0;" horiz-adv-x="1327" 
d="M1069 -8q-85 0 -143 65.5t-58 167.5v672h-454v-897h-115v897h-168v102h1024v-102h-172v-672q0 -61 36 -98t95 -37h45v-94q-29 -4 -90 -4z" />
    <glyph glyph-name="Io-cyrl" unicode="&#x401;" horiz-adv-x="1372" 
d="M98 0v102h201v1237h-201v103h1119v-291h-119v180h-680v-532h536v-107h-536v-581h696v180h119v-291h-1135zM395 1729l133 133l134 -133l-134 -134zM850 1729l133 133l133 -133l-133 -134z" />
    <glyph glyph-name="Ieukrainian-cyrl" unicode="&#x404;" horiz-adv-x="1503" 
d="M831 -33q-158 0 -294 56t-232.5 155t-151.5 239.5t-55 303.5t55 303.5t151.5 239.5t232.5 155t294 56q138 0 257.5 -48t191.5 -133l8 181h96v-312h-110q-76 98 -191 151.5t-243 53.5q-251 0 -420.5 -157.5t-194.5 -411.5h729v-107h-733q6 -179 86.5 -320t219.5 -219.5
t313 -78.5q133 0 257 53t206 147l81 -65q-97 -112 -243 -177t-310 -65z" />
    <glyph glyph-name="Ibyelorussianukrainian-cyrl" unicode="&#x406;" horiz-adv-x="716" 
d="M98 0v102h201v1237h-201v103h520v-103h-200v-1237h200v-102h-520z" />
    <glyph glyph-name="Yi-cyrl" unicode="&#x407;" horiz-adv-x="716" 
d="M98 0v102h201v1237h-201v103h520v-103h-200v-1237h200v-102h-520zM-2 1729l133 133l133 -133l-133 -134zM453 1729l133 133l133 -133l-133 -134z" />
    <glyph glyph-name="A-cyrl" unicode="&#x410;" horiz-adv-x="1671" 
d="M74 0v102h184l483 1237h-200v103h362l510 -1340h184v-102h-479v102h168l-135 361h-635l-139 -361h176v-102h-479zM559 573h551l-223 598l-41 115h-17l-41 -115z" />
    <glyph glyph-name="Be-cyrl" unicode="&#x411;" horiz-adv-x="1409" 
d="M1217 1442v-291h-119v180h-680v-500h426q109 0 196.5 -35.5t142 -95.5t83 -134t28.5 -156q0 -78 -27 -150.5t-78 -131t-132 -93.5t-180 -35h-779v102h201v1237h-201v103h1119zM418 106h467q134 0 210 89.5t76 214.5q0 59 -20.5 115t-57 101t-93 72t-123.5 27h-459v-619z
" />
    <glyph glyph-name="Ve-cyrl" unicode="&#x412;" horiz-adv-x="1429" 
d="M98 0v102h201v1237h-201v103h770q172 0 283 -102.5t111 -262.5q0 -110 -57.5 -190.5t-164.5 -120.5v-16q116 -25 195.5 -128t79.5 -233q0 -169 -117 -279t-301 -110h-799zM418 106h483q129 0 210 78t81 201q0 135 -83.5 221t-215.5 86h-475v-586zM418 799h442
q125 0 204 79t79 203q0 114 -75.5 184t-195.5 70h-454v-536z" />
    <glyph glyph-name="Ghe-cyrl" unicode="&#x413;" horiz-adv-x="1339" 
d="M98 0v102h201v1237h-201v103h1119v-291h-119v180h-680v-1229h200v-102h-520z" />
    <glyph glyph-name="De-cyrl" unicode="&#x414;" horiz-adv-x="1728" 
d="M98 102h193l471 1237h-201v103h580l317 -1340h172v-378h-119v276h-1294v-276h-119v378zM410 102h923l-291 1237h-161z" />
    <glyph glyph-name="Ie-cyrl" unicode="&#x415;" horiz-adv-x="1372" 
d="M98 0v102h201v1237h-201v103h1119v-291h-119v180h-680v-532h536v-107h-536v-581h696v180h119v-291h-1135z" />
    <glyph glyph-name="Zhe-cyrl" unicode="&#x416;" horiz-adv-x="2314" 
d="M897 0v102h201v590h-201l-453 -590v-102h-346v102h205l490 635l-484 602h-190v103h344v-103l424 -536h211v536h-201v103h520v-103h-200v-536h210l424 536v103h344v-103h-198l-475 -591l497 -646h197v-102h-346v102l-453 590h-200v-590h200v-102h-520z" />
    <glyph glyph-name="Ze-cyrl" unicode="&#x417;" horiz-adv-x="1228" 
d="M604 -33q-166 0 -297.5 71t-187.5 185v201h102v-145q36 -88 139.5 -146.5t231.5 -58.5q171 0 285 86.5t114 222.5q0 141 -111.5 230t-291.5 89h-103v107h72q163 0 268 81.5t105 205.5q0 119 -95 195.5t-239 76.5q-92 0 -183 -34t-153 -99l4 -141h-102v381h92l2 -111
q63 54 153.5 82.5t188.5 28.5q197 0 326 -102.5t129 -258.5q0 -108 -63 -196.5t-169 -139.5v-18q133 -45 213 -147t80 -234q0 -112 -67.5 -206.5t-185 -150t-257.5 -55.5z" />
    <glyph glyph-name="I-cyrl" unicode="&#x418;" horiz-adv-x="1695" 
d="M1077 0v102h201v1049l16 106l-12 5l-864 -1262h-320v102h201v1237h-201v103h520v-103h-200v-1048l-12 -103l12 -4l856 1258h323v-103h-200v-1237h200v-102h-520z" />
    <glyph glyph-name="Ishort-cyrl" unicode="&#x419;" horiz-adv-x="1695" 
d="M1077 0v102h201v1049l16 106l-12 5l-864 -1262h-320v102h201v1237h-201v103h520v-103h-200v-1048l-12 -103l12 -4l856 1258h323v-103h-200v-1237h200v-102h-520zM541 1851h102q0 -83 60 -139.5t149 -56.5q86 0 145.5 56.5t59.5 139.5h102q0 -123 -90.5 -209t-216.5 -86
q-129 0 -220 86t-91 209z" />
    <glyph glyph-name="Ka-cyrl" unicode="&#x41a;" horiz-adv-x="1556" 
d="M98 0v102h201v1237h-201v103h520v-103h-200v-536h293l391 538v101h336v-103h-193l-436 -596l455 -641h194v-102h-340v100l-418 592h-282v-590h200v-102h-520z" />
    <glyph glyph-name="El-cyrl" unicode="&#x41b;" horiz-adv-x="1671" 
d="M74 0v102h184l471 1237h-201v103h580l317 -1340h172v-102h-479v102h182l-290 1237h-162l-471 -1237h176v-102h-479z" />
    <glyph glyph-name="Em-cyrl" unicode="&#x41c;" horiz-adv-x="1998" 
d="M98 0v102h201v1237h-201v103h332l520 -950l45 -103h17l45 103l520 950h324v-103h-201v-1237h201v-102h-521v102h201v1012l12 107l-12 4l-545 -1000h-73l-545 1000l-12 -4l12 -107v-1012h200v-102h-520z" />
    <glyph glyph-name="En-cyrl" unicode="&#x41d;" horiz-adv-x="1662" 
d="M98 0v102h201v1237h-201v103h520v-103h-200v-536h827v536h-201v103h521v-103h-201v-1237h201v-102h-521v102h201v590h-827v-590h200v-102h-520z" />
    <glyph glyph-name="O-cyrl" unicode="&#x41e;" horiz-adv-x="1662" 
d="M831 -33q-212 0 -379.5 96t-260.5 268t-93 390t93 390t260.5 268t379.5 96t379.5 -95.5t261 -268t93.5 -390.5t-93.5 -390.5t-261 -268t-379.5 -95.5zM221 721q0 -186 78 -334t217 -230.5t315 -82.5q269 0 440 182t171 465q0 286 -170.5 466.5t-440.5 180.5
q-176 0 -315 -81.5t-217 -229.5t-78 -336z" />
    <glyph glyph-name="Pe-cyrl" unicode="&#x41f;" horiz-adv-x="1662" 
d="M98 0v102h201v1237h-201v103h1467v-103h-201v-1237h201v-102h-521v102h201v1229h-827v-1229h200v-102h-520z" />
    <glyph glyph-name="Er-cyrl" unicode="&#x420;" horiz-adv-x="1392" 
d="M98 0v102h201v1237h-201v103h779q99 0 180 -35t132 -93.5t78 -131t27 -150.5q0 -82 -28.5 -156.5t-83 -134.5t-142 -95.5t-196.5 -35.5h-426v-508h200v-102h-520zM418 717h459q67 0 123.5 27t93 72t57 101t20.5 115q0 125 -76 214t-210 89h-467v-618z" />
    <glyph glyph-name="Es-cyrl" unicode="&#x421;" horiz-adv-x="1503" 
d="M831 -33q-158 0 -294 56t-232.5 155t-151.5 239.5t-55 303.5t55 303.5t151.5 239.5t232.5 155t294 56q138 0 257.5 -48t191.5 -133l8 181h96v-312h-110q-76 98 -191 151.5t-243 53.5q-178 0 -319 -81.5t-220.5 -229.5t-79.5 -336q0 -139 46.5 -259.5t128 -205.5
t196.5 -133.5t248 -48.5t257 53t206 147l81 -65q-97 -112 -243 -177t-310 -65z" />
    <glyph glyph-name="Te-cyrl" unicode="&#x422;" horiz-adv-x="1478" 
d="M477 0v102h201v1229h-436v-276h-119v387h1233v-387h-119v276h-440v-1229h200v-102h-520z" />
    <glyph glyph-name="U-cyrl" unicode="&#x423;" horiz-adv-x="1699" 
d="M600 0l180 348l-493 991h-213v103h325v-74l447 -893l446 864h-186v103h520v-103h-215l-639 -1237h189v-102h-361z" />
    <glyph glyph-name="Ef-cyrl" unicode="&#x424;" horiz-adv-x="1798" 
d="M639 0v61q-248 64 -394.5 240t-146.5 420q0 245 146 421t395 240v60h520v-60q249 -64 395 -240t146 -421q0 -244 -146.5 -420t-394.5 -240v-61h-520zM221 721q0 -245 173.5 -410t445.5 -182v1184q-180 -11 -320.5 -88t-219.5 -208.5t-79 -295.5zM958 129
q275 17 447 181.5t172 410.5q0 249 -171.5 412t-447.5 180v-1184z" />
    <glyph glyph-name="Ha-cyrl" unicode="&#x425;" horiz-adv-x="1570" 
d="M98 0v102h201l416 627l-406 610h-200v103h342v-99l335 -507l336 503v103h336v-103h-198l-404 -608l418 -629h199v-102h-338v98l-351 527l-346 -523v-102h-340z" />
    <glyph glyph-name="Tse-cyrl" unicode="&#x426;" horiz-adv-x="1679" 
d="M1446 -276v276h-1348v102h201v1237h-201v103h520v-103h-200v-1228h827v1228h-201v103h521v-103h-201v-1237h201v-378h-119z" />
    <glyph glyph-name="Che-cyrl" unicode="&#x427;" horiz-adv-x="1581" 
d="M1483 1442v-103h-201v-1237h201v-102h-520v102h200v424h-870q-33 0 -56 22t-20 54l72 737h-191v103h504v-103h-201l-65 -677q-1 -10 6 -17.5t18 -7.5h803v702h-200v103h520z" />
    <glyph glyph-name="Sha-cyrl" unicode="&#x428;" horiz-adv-x="2076" 
d="M618 1442v-103h-200v-1228h561v1228h-201v103h520v-103h-200v-1228h561v1228h-201v103h520v-103h-200v-1237h200v-102h-1880v102h201v1237h-201v103h520z" />
    <glyph glyph-name="Shcha-cyrl" unicode="&#x429;" horiz-adv-x="2093" 
d="M1860 -276v276h-1762v102h201v1237h-201v103h520v-103h-200v-1228h561v1228h-201v103h520v-103h-200v-1228h561v1228h-201v103h520v-103h-200v-1237h200v-378h-118z" />
    <glyph glyph-name="Signhard-cyrl" unicode="&#x42a;" horiz-adv-x="1433" 
d="M41 1040v402h618v-103h-200v-508h426q109 0 196.5 -35.5t142 -95.5t83 -134t28.5 -156q0 -78 -27 -150.5t-78 -131t-132 -93.5t-180 -35h-779v102h201v1237h-199l-10 -299h-90zM459 106h467q134 0 210 89.5t76 214.5q0 59 -20.5 115t-57 101t-93 72t-123.5 27h-459v-619z
" />
    <glyph glyph-name="Yeru-cyrl" unicode="&#x42b;" horiz-adv-x="2027" 
d="M98 1442h520v-103h-200v-508h426q109 0 196.5 -35.5t142 -95.5t83 -134t28.5 -156q0 -78 -27 -150.5t-78 -131t-132 -93.5t-180 -35h-779v102h201v1237h-201v103zM418 106h467q134 0 210 89.5t76 214.5q0 59 -20.5 115t-57 101t-93 72t-123.5 27h-459v-619zM1409 0v102
h201v1237h-201v103h520v-103h-200v-1237h200v-102h-520z" />
    <glyph glyph-name="Signsoft-cyrl" unicode="&#x42c;" horiz-adv-x="1392" 
d="M98 1442h520v-103h-200v-508h426q109 0 196.5 -35.5t142 -95.5t83 -134t28.5 -156q0 -78 -27 -150.5t-78 -131t-132 -93.5t-180 -35h-779v102h201v1237h-201v103zM418 106h467q134 0 210 89.5t76 214.5q0 59 -20.5 115t-57 101t-93 72t-123.5 27h-459v-619z" />
    <glyph glyph-name="E-cyrl" unicode="&#x42d;" horiz-adv-x="1503" 
d="M672 -33q-164 0 -310 65t-243 177l82 65q82 -94 206 -147t257 -53q174 0 313 78.5t219 219.5t86 320h-733v107h729q-25 254 -194 411.5t-420 157.5q-129 0 -244 -54t-191 -151h-110v312h96l8 -181q72 85 191.5 133t257.5 48q158 0 294 -56t232.5 -155t151.5 -239.5
t55 -303.5t-55 -303.5t-151.5 -239.5t-232.5 -155t-294 -56z" />
    <glyph glyph-name="Yu-cyrl" unicode="&#x42e;" horiz-adv-x="2275" 
d="M1444 -33q-208 0 -373.5 92.5t-260 259t-99.5 379.5h-293v-596h200v-102h-520v102h201v1237h-201v103h520v-103h-200v-534h297q26 298 227.5 484t501.5 186q212 0 379.5 -96t260.5 -268t93 -390t-93 -390t-260.5 -268t-379.5 -96zM834 721q0 -186 78 -334t217 -230.5
t315 -82.5q178 0 317 82.5t216 230t77 334.5q0 188 -77 335.5t-216 229.5t-317 82q-176 0 -315 -81.5t-217 -229.5t-78 -336z" />
    <glyph glyph-name="Ya-cyrl" unicode="&#x42f;" horiz-adv-x="1474" 
d="M856 0v102h201v525h-285l-321 -527v-100h-336v102h209l264 435l67 77l-8 13q-198 0 -332.5 120t-134.5 293q0 182 111 292t307 110h778v-103h-200v-1237h200v-102h-520zM303 1044q0 -148 97 -229.5t272 -81.5h385v602h-459q-129 0 -212 -81t-83 -210z" />
    <glyph glyph-name="a-cyrl" unicode="&#x430;" horiz-adv-x="1347" 
d="M590 -33q-219 0 -363.5 150.5t-144.5 382.5t144.5 382t363.5 150q124 0 229.5 -52t163.5 -144h12v163h271v-102h-160v-795h160v-102h-271v164h-16q-59 -93 -161.5 -145t-227.5 -52zM197 500q0 -190 115 -310t294 -120q175 0 286.5 120t111.5 310t-111.5 310t-286.5 120
q-179 0 -294 -120t-115 -310z" />
    <glyph glyph-name="be-cyrl" unicode="&#x431;" horiz-adv-x="1175" 
d="M590 -33q-233 0 -362.5 161.5t-129.5 453.5q0 212 68 392.5t199 285.5q88 71 210.5 97.5t309.5 31.5v118h102v-219q-231 0 -357 -19t-210 -87q-73 -60 -120.5 -159t-66.5 -202l17 -8q164 154 352 154q220 0 356 -140t136 -360q0 -221 -138 -360.5t-366 -139.5zM213 467
q0 -172 105.5 -284.5t267.5 -112.5q176 0 284.5 114t108.5 291q0 172 -106 280.5t-275 108.5q-164 0 -274.5 -105.5t-110.5 -291.5z" />
    <glyph glyph-name="ve-cyrl" unicode="&#x432;" horiz-adv-x="1150" 
d="M82 0v102h160v795h-160v102h639q129 0 212 -69t83 -176q0 -68 -39 -128.5t-100 -88.5v-17q77 -26 126.5 -94t49.5 -147q0 -123 -87 -201t-225 -78h-659zM356 102h389q86 0 139.5 50.5t53.5 130.5q0 83 -55.5 133.5t-145.5 50.5h-381v-365zM356 565h357q83 0 135.5 48
t52.5 124q0 71 -50.5 115.5t-133.5 44.5h-361v-332z" />
    <glyph glyph-name="ghe-cyrl" unicode="&#x433;" horiz-adv-x="1044" 
d="M938 999v-262h-102v160h-480v-795h160v-102h-434v102h160v795h-160v102h856z" />
    <glyph glyph-name="de-cyrl" unicode="&#x434;" horiz-adv-x="1236" 
d="M600 -33q-229 0 -373.5 150t-144.5 383t145.5 382.5t378.5 149.5q228 0 371 -180l12 4q-25 75 -51.5 135t-64.5 124t-85.5 111t-108 86t-139.5 59t-173 20v114q155 0 284.5 -56t217.5 -149t149 -216t89 -255t28 -268q0 -273 -150 -433.5t-385 -160.5zM197 508
q0 -191 113 -314.5t290 -123.5q180 0 294 121t114 309q0 205 -110 317.5t-288 112.5q-184 0 -298.5 -117t-114.5 -305z" />
    <glyph glyph-name="ie-cyrl" unicode="&#x435;" horiz-adv-x="1167" 
d="M614 -33q-243 0 -387.5 151.5t-144.5 393.5q0 232 142.5 376t365.5 144q215 0 349 -138t134 -357q0 -26 -4 -66h-872q12 -186 124.5 -293.5t301.5 -107.5q198 0 344 135l65 -74q-173 -164 -418 -164zM197 565h761q0 161 -104 263t-272 102q-163 0 -266.5 -98t-118.5 -267
z" />
    <glyph glyph-name="zhe-cyrl" unicode="&#x436;" horiz-adv-x="1757" 
d="M821 0v471h-159l-281 -369h2v-102h-301v102h176l322 426l-308 369h-170v102h310v-102l264 -324h145v426h115v-426h158l252 324v102h309v-102h-180l-287 -367l323 -428h164v-102h-299v102l-280 369h-160v-471h-115z" />
    <glyph glyph-name="ze-cyrl" unicode="&#x437;" horiz-adv-x="940" 
d="M455 -33q-122 0 -220.5 51t-140.5 132v159h103v-102q28 -60 89.5 -99.5t155.5 -39.5q121 0 203 57t82 149t-84.5 152.5t-214.5 60.5h-59v95h57q113 0 184.5 51.5t71.5 128.5q0 73 -64 121.5t-165 48.5q-147 0 -248 -82l4 -105h-103v287h93l2 -69q106 69 254 69t245 -73.5
t97 -188.5q0 -134 -152 -221v-17q98 -36 147.5 -101.5t49.5 -151.5q0 -134 -111.5 -223t-275.5 -89z" />
    <glyph glyph-name="i-cyrl" unicode="&#x438;" horiz-adv-x="1327" 
d="M975 0v733l12 127l-12 4l-590 -864h-303v102h160v795h-160v102h270v-733l-12 -127l12 -4l590 864h303v-102h-160v-795h160v-102h-270z" />
    <glyph glyph-name="ishort-cyrl" unicode="&#x439;" horiz-adv-x="1327" 
d="M975 0v733l12 127l-12 4l-590 -864h-303v102h160v795h-160v102h270v-733l-12 -127l12 -4l590 864h303v-102h-160v-795h160v-102h-270zM356 1409h103q0 -83 60 -140t149 -57q86 0 145 57t59 140h103q0 -123 -90.5 -209t-216.5 -86q-129 0 -220.5 86t-91.5 209z" />
    <glyph glyph-name="ka-cyrl" unicode="&#x43a;" horiz-adv-x="1239" 
d="M82 0v102h160v795h-160v102h274v-426h158l313 324v102h310v-102h-166l-359 -365l379 -430h166v-102h-311v100l-326 371h-164v-471h-274z" />
    <glyph glyph-name="el-cyrl" unicode="&#x43b;" horiz-adv-x="1298" 
d="M881 999l211 -897h129v-102h-381v102h133l-187 795h-122l-310 -795h160v-102h-436v102h158l309 795h-160v102h496z" />
    <glyph glyph-name="em-cyrl" unicode="&#x43c;" horiz-adv-x="1511" 
d="M82 0v102h160v795h-160v102h293l330 -639l45 -106h16l45 106l328 639h291v-102h-160v-795h160v-102h-271v684l12 127l-12 4l-360 -704h-86l-361 700l-12 -4l12 -123v-684h-270z" />
    <glyph glyph-name="en-cyrl" unicode="&#x43d;" horiz-adv-x="1302" 
d="M82 0v102h160v795h-160v102h274v-426h590v324h-160v102h435v-102h-160v-795h160v-102h-275v471h-590v-369h160v-102h-434z" />
    <glyph glyph-name="o-cyrl" unicode="&#x43e;" horiz-adv-x="1204" 
d="M602 -33q-230 0 -375 149.5t-145 383.5t145 383t375 149t375 -149t145 -383t-145 -383.5t-375 -149.5zM197 500q0 -188 113.5 -309t291.5 -121t292 121t114 309t-114 309t-292 121t-291.5 -121t-113.5 -309z" />
    <glyph glyph-name="pe-cyrl" unicode="&#x43f;" horiz-adv-x="1302" 
d="M82 0v102h160v795h-160v102h1139v-102h-160v-795h160v-102h-435v102h160v795h-590v-795h160v-102h-434z" />
    <glyph glyph-name="er-cyrl" unicode="&#x440;" horiz-adv-x="1343" 
d="M82 -459v103h160v1253h-160v102h270v-163h13q55 92 162.5 144t242.5 52q211 0 351.5 -150t140.5 -382t-141.5 -382.5t-354.5 -150.5q-132 0 -239.5 52.5t-166.5 144.5h-16l12 -107v-413h160v-103h-434zM340 500q0 -188 111.5 -309t289.5 -121t292 121t114 309t-114 309
t-292 121t-289.5 -121t-111.5 -309z" />
    <glyph glyph-name="es-cyrl" unicode="&#x441;" horiz-adv-x="1085" 
d="M598 -33q-227 0 -371.5 149.5t-144.5 383.5q0 231 145 381.5t371 150.5q247 0 389 -168v-250h-115v220q-116 96 -274 96q-178 0 -289.5 -121t-111.5 -309t111.5 -309t289.5 -121q108 0 181 32.5t139 98.5l73 -62q-147 -172 -393 -172z" />
    <glyph glyph-name="te-cyrl" unicode="&#x442;" horiz-adv-x="1695" 
d="M1339 0v897h-434v-795h160v-102h-434v102h160v795h-435v-897h-274v102h160v795h-160v102h1532v-102h-160v-795h160v-102h-275z" />
    <glyph glyph-name="u-cyrl" unicode="&#x443;" horiz-adv-x="1236" 
d="M356 -459l193 459l-328 897h-160v102h244l309 -847l312 745h-138v102h388v-102h-136l-524 -1253h211v-103h-371z" />
    <glyph glyph-name="ef-cyrl" unicode="&#x444;" horiz-adv-x="1312" 
d="M598 -31q-239 15 -377.5 157t-138.5 374t138 373.5t378 156.5v96h-160v103h275v-199q241 -15 379.5 -156.5t138.5 -373.5t-138.5 -374t-379.5 -157v-198h-115v198zM197 500q0 -185 107 -299t294 -129v856q-187 -15 -294 -129t-107 -299zM713 72q188 15 295.5 129.5
t107.5 298.5t-107.5 298.5t-295.5 129.5v-856z" />
    <glyph glyph-name="ha-cyrl" unicode="&#x445;" horiz-adv-x="1208" 
d="M862 0v100l-262 340l-260 -338v-102h-258v102h129l326 422l-287 373h-125v102h260v-100l219 -287l219 285v102h252v-102h-123l-282 -367l327 -428h129v-102h-264z" />
    <glyph glyph-name="tse-cyrl" unicode="&#x446;" horiz-adv-x="1318" 
d="M82 999h434v-102h-160v-795h590v795h-160v102h435v-102h-160v-795h160v-262h-103v160h-1036v102h160v795h-160v102z" />
    <glyph glyph-name="che-cyrl" unicode="&#x447;" horiz-adv-x="1232" 
d="M1151 999v-102h-160v-795h160v-102h-434v102h160v277h-609q-41 0 -69.5 28t-22.5 80l45 410h-147v102h274l-55 -497q-1 -10 6 -17.5t18 -7.5h560v420h-160v102h434z" />
    <glyph glyph-name="sha-cyrl" unicode="&#x448;" horiz-adv-x="1695" 
d="M356 999v-897h435v795h-160v102h274v-897h434v795h-159v102h434v-102h-160v-795h160v-102h-1532v102h160v795h-160v102h274z" />
    <glyph glyph-name="shcha-cyrl" unicode="&#x449;" horiz-adv-x="1712" 
d="M356 999v-897h435v795h-160v102h274v-897h434v795h-159v102h434v-102h-160v-795h160v-262h-103v160h-1429v102h160v795h-160v102h274z" />
    <glyph glyph-name="signhard-cyrl" unicode="&#x44a;" horiz-adv-x="1150" 
d="M20 639v360h533v-102h-160v-303h332q153 0 240.5 -81t87.5 -222q0 -135 -87.5 -213t-240.5 -78h-606v102h160v795h-158l-10 -258h-91zM393 102h357q89 0 138.5 58t49.5 135q0 80 -49 138.5t-139 58.5h-357v-390z" />
    <glyph glyph-name="yeru-cyrl" unicode="&#x44b;" horiz-adv-x="1642" 
d="M82 999h434v-102h-160v-303h332q153 0 240.5 -81t87.5 -222q0 -135 -87.5 -213t-240.5 -78h-606v102h160v795h-160v102zM356 102h357q89 0 138.5 58t49.5 135q0 80 -49 138.5t-139 58.5h-357v-390zM1135 0v102h159v795h-159v102h274v-897h160v-102h-434z" />
    <glyph glyph-name="signsoft-cyrl" unicode="&#x44c;" horiz-adv-x="1114" 
d="M82 999h434v-102h-160v-303h332q153 0 240.5 -81t87.5 -222q0 -135 -87.5 -213t-240.5 -78h-606v102h160v795h-160v102zM356 102h357q89 0 138.5 58t49.5 135q0 80 -49 138.5t-139 58.5h-357v-390z" />
    <glyph glyph-name="e-cyrl" unicode="&#x44d;" horiz-adv-x="1085" 
d="M487 -33q-246 0 -393 172l74 62q67 -67 139 -99t180 -32q169 0 280 110.5t122 286.5h-387v102h383q-22 161 -130 261t-268 100q-158 0 -274 -96v-220h-115v250q142 168 389 168q226 0 371.5 -150.5t145.5 -381.5q0 -233 -145 -383t-372 -150z" />
    <glyph glyph-name="yu-cyrl" unicode="&#x44e;" horiz-adv-x="1634" 
d="M82 0v102h160v795h-160v102h274v-426h160q23 205 164 332t352 127q230 0 375 -149t145 -383t-145 -383.5t-375 -149.5q-222 0 -366.5 140.5t-153.5 363.5h-156v-471h-274zM627 500q0 -188 113.5 -309t291.5 -121t292 121t114 309t-114 309t-292 121t-291.5 -121
t-113.5 -309z" />
    <glyph glyph-name="ya-cyrl" unicode="&#x44f;" horiz-adv-x="1202" 
d="M846 0v406h-205l-233 -304v-102h-310v102h176l166 209l82 82l-8 13q-153 0 -240.5 81t-87.5 222q0 135 87.5 212.5t240.5 77.5h606v-102h-159v-795h159v-102h-274zM301 705q0 -80 49 -138.5t139 -58.5h357v389h-357q-89 0 -138.5 -57.5t-49.5 -134.5z" />
    <glyph glyph-name="io-cyrl" unicode="&#x451;" horiz-adv-x="1167" 
d="M614 -33q-243 0 -387.5 151.5t-144.5 393.5q0 232 142.5 376t365.5 144q215 0 349 -138t134 -357q0 -26 -4 -66h-872q12 -186 124.5 -293.5t301.5 -107.5q198 0 344 135l65 -74q-173 -164 -418 -164zM197 565h761q0 161 -104 263t-272 102q-163 0 -266.5 -98t-118.5 -267
zM272 1331l134 133l133 -133l-133 -133zM657 1331l134 133l133 -133l-133 -133z" />
    <glyph glyph-name="ieukrainian-cyrl" unicode="&#x454;" horiz-adv-x="1085" 
d="M598 -33q-227 0 -371.5 149.5t-144.5 383.5q0 231 145 381.5t371 150.5q247 0 389 -168v-250h-115v220q-116 96 -274 96q-160 0 -267.5 -99.5t-129.5 -261.5h383v-102h-387q11 -176 121.5 -286.5t279.5 -110.5q108 0 181 32.5t139 98.5l73 -62q-147 -172 -393 -172z" />
    <glyph glyph-name="ibyelorussianukrainian-cyrl" unicode="&#x456;" horiz-adv-x="589" 
d="M82 0v102h160v795h-160v102h274v-897h160v-102h-434zM170 1401l129 129l129 -127l-129 -129z" />
    <glyph glyph-name="yi-cyrl" unicode="&#x457;" horiz-adv-x="589" 
d="M82 0v102h160v795h-160v102h274v-897h160v-102h-434zM2 1399l133 133l133 -133l-133 -133zM338 1399l133 133l133 -133l-133 -133z" />
    <glyph glyph-name="Gheupturn-cyrl" unicode="&#x490;" horiz-adv-x="1339" 
d="M98 0v102h201v1237h-201v103h1016v200h103v-311h-799v-1229h200v-102h-520z" />
    <glyph glyph-name="gheupturn-cyrl" unicode="&#x491;" horiz-adv-x="1044" 
d="M836 999v160h102v-262h-582v-795h160v-102h-434v102h160v795h-160v102h754z" />
    <glyph glyph-name="Wgrave" unicode="&#x1e80;" horiz-adv-x="2238" 
d="M643 0l-364 1339h-205v103h325v-99l289 -1064l21 -115h12l20 115l287 1060h-154v103h326l316 -1163l20 -115h12l21 115l286 1060h-210v103h520v-103h-201l-354 -1339h-140l-315 1171l-20 115h-17l-20 -115l-312 -1171h-143zM840 1847h147l180 -274h-102z" />
    <glyph glyph-name="wgrave" unicode="&#x1e81;" horiz-adv-x="1900" 
d="M508 0l-287 897h-160v102h275v-102l192 -598l37 -143h13l49 143l235 598h-119v102h261l282 -700l45 -143h12l33 143l193 598h-160v102h430v-102h-160l-286 -897h-99l-286 705l-45 139h-17l-45 -144l-274 -700h-119zM733 1442h139l140 -307h-94z" />
    <glyph glyph-name="Wacute" unicode="&#x1e82;" horiz-adv-x="2238" 
d="M643 0l-364 1339h-205v103h325v-99l289 -1064l21 -115h12l20 115l287 1060h-154v103h326l316 -1163l20 -115h12l21 115l286 1060h-210v103h520v-103h-201l-354 -1339h-140l-315 1171l-20 115h-17l-20 -115l-312 -1171h-143zM1077 1573l180 274h148l-225 -274h-103z" />
    <glyph glyph-name="wacute" unicode="&#x1e83;" horiz-adv-x="1900" 
d="M508 0l-287 897h-160v102h275v-102l192 -598l37 -143h13l49 143l235 598h-119v102h261l282 -700l45 -143h12l33 143l193 598h-160v102h430v-102h-160l-286 -897h-99l-286 705l-45 139h-17l-45 -144l-274 -700h-119zM905 1135l135 307h140l-181 -307h-94z" />
    <glyph glyph-name="Wdieresis" unicode="&#x1e84;" horiz-adv-x="2238" 
d="M643 0l-364 1339h-205v103h325v-99l289 -1064l21 -115h12l20 115l287 1060h-154v103h326l316 -1163l20 -115h12l21 115l286 1060h-210v103h520v-103h-201l-354 -1339h-140l-315 1171l-20 115h-17l-20 -115l-312 -1171h-143zM760 1729l133 133l133 -133l-133 -134z
M1214 1729l134 133l133 -133l-133 -134z" />
    <glyph glyph-name="wdieresis" unicode="&#x1e85;" horiz-adv-x="1900" 
d="M508 0l-287 897h-160v102h275v-102l192 -598l37 -143h13l49 143l235 598h-119v102h261l282 -700l45 -143h12l33 143l193 598h-160v102h430v-102h-160l-286 -897h-99l-286 705l-45 139h-17l-45 -144l-274 -700h-119zM633 1331l133 133l133 -133l-133 -133zM1018 1331
l133 133l133 -133l-133 -133z" />
    <glyph glyph-name="Germandbls" unicode="&#x1e9e;" horiz-adv-x="1492" 
d="M909 -33q-163 0 -293 62v297h119v-226q85 -26 176 -26q149 0 243.5 90t94.5 231q0 138 -94.5 227t-243.5 89h-73v133l313 391q-136 133 -330 133q-180 0 -291.5 -112t-111.5 -293v-963h-320v102h201v861q0 231 147.5 371.5t378.5 140.5q143 0 270 -58.5t218 -165.5
l-275 -342l-75 -75v-15q196 -17 305.5 -127.5t109.5 -292.5q0 -190 -131.5 -311t-337.5 -121z" />
    <glyph glyph-name="Ygrave" unicode="&#x1ef2;" horiz-adv-x="1599" 
d="M543 0v102h200v430l-469 807h-200v103h329v-99l394 -679h16l389 675h-196v103h520v-103h-199l-465 -807v-430h201v-102h-520zM522 1847h148l180 -274h-102z" />
    <glyph glyph-name="ygrave" unicode="&#x1ef3;" horiz-adv-x="1236" 
d="M225 -459v103h174l150 356l-328 897h-160v102h244l307 -845l314 743h-138v102h388v-102h-136l-524 -1253h170v-103h-461zM393 1442h139l140 -307h-94z" />
    <glyph glyph-name="enspace" unicode="&#x2002;" horiz-adv-x="1175" 
 />
    <glyph glyph-name="endash" unicode="&#x2013;" horiz-adv-x="1253" 
d="M123 541v102h1048v-102h-1048z" />
    <glyph glyph-name="emdash" unicode="&#x2014;" horiz-adv-x="2158" 
d="M123 545v102h1954v-102h-1954z" />
    <glyph glyph-name="quoteleft" unicode="&#x2018;" horiz-adv-x="397" 
d="M82 971l127 471h86l-70 -471h-143z" />
    <glyph glyph-name="quoteright" unicode="&#x2019;" horiz-adv-x="397" 
d="M102 971l70 471h143l-127 -471h-86z" />
    <glyph glyph-name="quotesinglbase" unicode="&#x201a;" horiz-adv-x="405" 
d="M102 -258l78 508h144l-136 -508h-86z" />
    <glyph glyph-name="quotedblleft" unicode="&#x201c;" horiz-adv-x="778" 
d="M463 971l127 471h86l-70 -471h-143zM82 971l127 471h86l-70 -471h-143z" />
    <glyph glyph-name="quotedblright" unicode="&#x201d;" horiz-adv-x="778" 
d="M483 971l70 471h143l-127 -471h-86zM102 971l70 471h143l-127 -471h-86z" />
    <glyph glyph-name="quotedblbase" unicode="&#x201e;" horiz-adv-x="778" 
d="M483 -221l70 471h143l-127 -471h-86zM102 -221l70 471h143l-127 -471h-86z" />
    <glyph glyph-name="dagger" unicode="&#x2020;" horiz-adv-x="835" 
d="M365 319v685h-299v98h299v340h106v-340h299v-98h-299v-685h-106z" />
    <glyph glyph-name="daggerdbl" unicode="&#x2021;" horiz-adv-x="835" 
d="M365 319v345h-299v98h299v242h-299v98h299v340h106v-340h299v-98h-299v-242h299v-98h-299v-345h-106z" />
    <glyph glyph-name="bullet" unicode="&#x2022;" horiz-adv-x="614" 
d="M328 430q-90 0 -147.5 58.5t-57.5 150.5t57.5 150.5t147.5 58.5q89 0 146.5 -58.5t57.5 -150.5t-57.5 -150.5t-146.5 -58.5z" />
    <glyph glyph-name="ellipsis" unicode="&#x2026;" horiz-adv-x="1761" 
d="M262 221l139 -139l-139 -139l-139 139zM762 82l139 139l139 -139l-139 -139zM1401 82l139 139l139 -139l-139 -139z" />
    <glyph glyph-name="perthousand" unicode="&#x2030;" horiz-adv-x="2158" 
d="M406 799q-120 0 -203.5 83t-83.5 203t83.5 203.5t203.5 83.5t203 -83.5t83 -203.5t-83 -203t-203 -83zM221 1085q0 -83 52.5 -135.5t132.5 -52.5t132 52.5t52 135.5t-52 136t-132 53t-132.5 -53t-52.5 -136zM299 0l971 1348h114l-970 -1348h-115zM995 254
q0 120 83.5 203.5t203.5 83.5q143 0 229 -123h13q39 55 98.5 89t130.5 34q120 0 203.5 -83.5t83.5 -203.5t-83.5 -203.5t-203.5 -83.5q-141 0 -225 123h-17q-86 -123 -229 -123q-120 0 -203.5 83.5t-83.5 203.5zM1098 254q0 -83 52 -135.5t132 -52.5t132 52.5t52 135.5
t-52 135.5t-132 52.5t-132 -52.5t-52 -135.5zM1569 254q0 -83 52 -135.5t132 -52.5t132 52.5t52 135.5t-52 135.5t-132 52.5t-132 -52.5t-52 -135.5z" />
    <glyph glyph-name="guilsinglleft" unicode="&#x2039;" horiz-adv-x="593" 
d="M360 201l-278 397l274 401h136l-275 -405l275 -393h-132z" />
    <glyph glyph-name="guilsinglright" unicode="&#x203a;" horiz-adv-x="593" 
d="M102 201l275 393l-275 405h136l274 -401l-279 -397h-131z" />
    <glyph glyph-name="fraction" unicode="&#x2044;" horiz-adv-x="348" 
d="M-369 0l971 1348h115l-971 -1348h-115z" />
    <glyph glyph-name="zerosuperior" unicode="&#x2070;" horiz-adv-x="661" 
d="M334 754q-122 0 -197.5 108t-75.5 285t75.5 285t197.5 108q119 0 192.5 -108t73.5 -285t-73 -285t-193 -108zM164 1149q0 -142 45.5 -221.5t126.5 -79.5q76 0 119 80t43 221q0 139 -43 218t-119 79q-81 0 -126.5 -79t-45.5 -218z" />
    <glyph glyph-name="foursuperior" unicode="&#x2074;" horiz-adv-x="643" 
d="M393 768v172h-332v74l312 508h119v-500h90v-82h-90v-172h-99zM168 1022h225v270l13 107l-9 4z" />
    <glyph glyph-name="fivesuperior" unicode="&#x2075;" horiz-adv-x="610" 
d="M293 752q-68 0 -134 36.5t-98 92.5l86 49q22 -44 61 -66t83 -22q71 0 115.5 44.5t44.5 114.5q0 73 -47 116.5t-111 43.5q-71 0 -123 -55l-92 43l51 375h385v-94h-303l-29 -216l11 -4q58 39 116 39q106 0 173 -69.5t67 -178.5t-72 -179t-184 -70z" />
    <glyph glyph-name="sixsuperior" unicode="&#x2076;" horiz-adv-x="636" 
d="M317 752q-114 0 -185 70.5t-71 185.5q0 48 18 91t68 111l232 314h117l-181 -246l-43 -43l4 -6q31 8 74 8q100 0 162.5 -69.5t62.5 -170.5q0 -107 -72 -176t-186 -69zM164 995q0 -67 43.5 -110t109.5 -43q68 0 112 43t44 110q0 69 -44 112.5t-112 43.5q-66 0 -109.5 -43.5
t-43.5 -112.5z" />
    <glyph glyph-name="sevensuperior" unicode="&#x2077;" horiz-adv-x="657" 
d="M141 768l291 584l41 63l-4 10h-408v97h535v-62l-348 -692h-107z" />
    <glyph glyph-name="eightsuperior" unicode="&#x2078;" horiz-adv-x="630" 
d="M315 752q-113 0 -183.5 60.5t-70.5 152.5q0 68 34.5 121.5t97.5 76.5v8q-49 20 -77 68.5t-28 106.5q0 84 64 139t163 55q98 0 162 -55t64 -139q0 -58 -27.5 -107t-77.5 -68v-8q64 -23 98.5 -76.5t34.5 -121.5q0 -92 -71 -152.5t-183 -60.5zM164 981q0 -62 41.5 -100.5
t109.5 -38.5q69 0 110.5 38.5t41.5 100.5q0 61 -42 99t-110 38t-109.5 -38t-41.5 -99zM190 1335q0 -51 34 -83.5t91 -32.5q56 0 89.5 32t33.5 84t-33.5 83.5t-89.5 31.5q-57 0 -91 -32t-34 -83z" />
    <glyph glyph-name="ninesuperior" unicode="&#x2079;" horiz-adv-x="636" 
d="M141 768l181 246l43 43l-5 6q-35 -8 -73 -8q-100 0 -163 69t-63 170q0 108 72 177t186 69t185 -70.5t71 -185.5q0 -48 -18 -91.5t-68 -111.5l-231 -313h-117zM164 1296q0 -69 43.5 -112t111.5 -43q67 0 110.5 43.5t43.5 111.5q0 67 -44 110.5t-110 43.5
q-68 0 -111.5 -43.5t-43.5 -110.5z" />
    <glyph glyph-name="zeroinferior" unicode="&#x2080;" horiz-adv-x="661" 
d="M334 -94q-122 0 -197.5 108t-75.5 285t75.5 285t197.5 108q119 0 192.5 -108t73.5 -285t-73 -285t-193 -108zM164 301q0 -142 45.5 -221.5t126.5 -79.5q76 0 119 80t43 221q0 139 -43 218t-119 79q-81 0 -126.5 -79t-45.5 -218z" />
    <glyph glyph-name="oneinferior" unicode="&#x2081;" horiz-adv-x="401" 
d="M242 -78v643l-181 -78v91l218 98h61v-754h-98z" />
    <glyph glyph-name="twoinferior" unicode="&#x2082;" horiz-adv-x="606" 
d="M82 -78v115l270 274q90 90 90 172q0 55 -37.5 87t-97.5 32q-58 0 -98.5 -29.5t-52.5 -80.5l-95 24q25 83 93 129.5t161 46.5q102 0 166 -58t64 -155q0 -52 -26 -101.5t-97 -123.5l-152 -160l-86 -67l4 -11h357v-94h-463z" />
    <glyph glyph-name="threeinferior" unicode="&#x2083;" horiz-adv-x="622" 
d="M309 -94q-82 0 -147.5 39.5t-100.5 111.5l84 52q20 -52 63.5 -82.5t98.5 -30.5q65 0 108.5 39t43.5 100q0 63 -46.5 103.5t-109.5 40.5h-49v77h49q62 0 96.5 36t34.5 91q0 58 -37 88.5t-92 30.5q-80 0 -125 -57l-76 55q74 92 209 92q103 0 163.5 -58.5t60.5 -135.5
q0 -108 -107 -162v-12q66 -28 98.5 -77.5t32.5 -109.5q0 -93 -69.5 -162t-182.5 -69z" />
    <glyph glyph-name="fourinferior" unicode="&#x2084;" horiz-adv-x="643" 
d="M393 -78v172h-332v74l312 508h119v-500h90v-82h-90v-172h-99zM168 176h225v270l13 107l-9 4z" />
    <glyph glyph-name="fiveinferior" unicode="&#x2085;" horiz-adv-x="610" 
d="M293 -94q-68 0 -134 36.5t-98 92.5l86 49q22 -44 61 -66t83 -22q71 0 115.5 45t44.5 115q0 73 -47 116t-111 43q-71 0 -123 -55l-92 43l51 375h385v-94h-303l-29 -215l11 -4q56 38 116 38q106 0 173 -69t67 -178t-72 -179.5t-184 -70.5z" />
    <glyph glyph-name="sixinferior" unicode="&#x2086;" horiz-adv-x="636" 
d="M317 -94q-114 0 -185 70.5t-71 185.5q0 48 18 91.5t68 111.5l232 313h117l-181 -246l-43 -43l4 -6q31 8 74 8q100 0 162.5 -69t62.5 -170q0 -108 -72 -177t-186 -69zM164 150q0 -67 43.5 -110.5t109.5 -43.5q68 0 112 43.5t44 110.5q0 69 -44 112t-112 43
q-67 0 -110 -43.5t-43 -111.5z" />
    <glyph glyph-name="seveninferior" unicode="&#x2087;" horiz-adv-x="657" 
d="M141 -78l291 584l41 63l-4 11h-408v96h535v-62l-348 -692h-107z" />
    <glyph glyph-name="eightinferior" unicode="&#x2088;" horiz-adv-x="630" 
d="M315 -94q-113 0 -183.5 60.5t-70.5 152.5q0 68 34.5 121.5t97.5 76.5v9q-49 20 -77 68t-28 106q0 84 64 139t163 55q98 0 162 -55t64 -139q0 -58 -27.5 -106.5t-77.5 -67.5v-9q64 -23 98.5 -76.5t34.5 -121.5q0 -92 -71 -152.5t-183 -60.5zM164 135q0 -62 41.5 -100.5
t109.5 -38.5q69 0 110.5 38.5t41.5 100.5q0 61 -42 99t-110 38t-109.5 -38t-41.5 -99zM190 489q0 -51 34 -83.5t91 -32.5q56 0 89.5 32t33.5 84t-33.5 83.5t-89.5 31.5q-57 0 -91 -32t-34 -83z" />
    <glyph glyph-name="nineinferior" unicode="&#x2089;" horiz-adv-x="636" 
d="M141 -80l181 246l43 43l-5 6q-35 -8 -73 -8q-100 0 -163 69t-63 170q0 108 72 177t186 69t185 -70.5t71 -185.5q0 -48 -18 -91.5t-68 -111.5l-231 -313h-117zM164 449q0 -69 43.5 -112.5t111.5 -43.5q67 0 110.5 43.5t43.5 112.5q0 67 -44 110t-110 43q-68 0 -111.5 -43
t-43.5 -110z" />
    <glyph glyph-name="euro" unicode="&#x20ac;" horiz-adv-x="1376" 
d="M885 -33q-247 0 -421.5 138t-230.5 370h-131v98h115q-6 40 -5.5 105t5.5 96h-115v98h136q56 230 229.5 367t417.5 137q181 0 327 -73l-61 -91q-124 62 -274 62q-192 0 -332 -108t-193 -294h611l-62 -98h-565q-18 -100 -4 -201h459l-62 -98h-377q50 -188 189.5 -296.5
t335.5 -108.5q195 0 340 94l57 -82q-172 -115 -389 -115z" />
    <glyph glyph-name="hryvniasign" unicode="&#x20b4;" horiz-adv-x="1187" 
d="M584 -27q-91 0 -165.5 29.5t-121 79.5t-71.5 113.5t-25 132.5q0 105 51 194h-129v99h207q60 57 147 94l92 39l-446 2v98l627 -4q102 88 102 199q0 93 -77.5 157t-215.5 64q-90 0 -181.5 -28t-162.5 -79l-61 80q177 129 395 129q191 0 303.5 -95t112.5 -230
q0 -99 -68 -199h147v-98l-241 2q-65 -52 -156 -93l-90 -38h487v-99h-647q-84 -87 -84 -200q0 -103 72.5 -174.5t202.5 -71.5q101 0 209.5 44t195.5 124l72 -74q-102 -95 -230 -146t-251 -51z" />
    <glyph glyph-name="trademark" unicode="&#x2122;" horiz-adv-x="1851" 
d="M283 774v98h98v471h-168v-98h-98v197h643v-197h-99v98h-167v-471h98v-98h-307zM868 774v98h99v471h-99v99h222l204 -410h17l205 410h221v-99h-99v-471h99v-98h-201v365l16 135l-16 4l-201 -393h-65l-201 393l-16 -4l16 -135v-365h-201z" />
    <glyph glyph-name="partialdifferential" unicode="&#x2202;" horiz-adv-x="1236" 
d="M541 -33q-188 0 -301 123t-113 328q0 272 137.5 426.5t374.5 154.5q103 0 196 -33t152 -89q-6 261 -107.5 380t-306.5 119q-131 0 -266 -65l-28 94q146 70 327 70q249 0 372.5 -158t123.5 -477q0 -440 -139 -656.5t-422 -216.5zM242 418q0 -156 90.5 -252t232.5 -96
q195 0 304 185t118 519q-156 119 -336 119q-195 0 -302 -122t-107 -353z" />
    <glyph glyph-name="emptyset" unicode="&#x2205;" horiz-adv-x="1314" 
d="M299 -70l-78 54l78 110q-81 72 -126.5 177t-45.5 229q0 234 148 383t384 149q153 0 263 -61l90 127l82 -54l-90 -122q90 -71 139 -181t49 -241q0 -234 -148.5 -383.5t-384.5 -149.5q-164 0 -282 74zM233 500q0 -193 127 -320l508 713q-95 45 -209 45q-185 0 -305.5 -124
t-120.5 -314zM434 123q100 -62 225 -62q185 0 305.5 124.5t120.5 314.5q0 103 -37.5 190t-105.5 146z" />
    <glyph glyph-name="increment" unicode="&#x2206;" horiz-adv-x="1437" 
d="M86 0l573 1442h111l582 -1442h-1266zM254 102h930l-402 1004l-57 156h-20l-58 -156z" />
    <glyph glyph-name="naryproduct" unicode="&#x220f;" horiz-adv-x="1376" 
d="M311 0v1343h-196v99h1147v-99h-193v-1343h-106v1343h-545v-1343h-107z" />
    <glyph glyph-name="narysummation" unicode="&#x2211;" horiz-adv-x="1224" 
d="M152 0v119l499 504l111 94v16l-107 90l-503 500v119h921v-107h-614l-148 13l-8 -17l594 -598v-16l-594 -606l8 -17l148 12h614v-106h-921z" />
    <glyph glyph-name="minus" unicode="&#x2212;" horiz-adv-x="1232" 
d="M168 541v102h897v-102h-897z" />
    <glyph glyph-name="squareroot" unicode="&#x221a;" horiz-adv-x="1159" 
d="M520 -16l-356 1015h127l225 -688l37 -147h16l37 147l479 1450h320v-106h-229l-574 -1671h-82z" />
    <glyph glyph-name="infinity" unicode="&#x221e;" horiz-adv-x="1699" 
d="M471 279q-141 0 -230 89t-89 230q0 138 89 226.5t230 88.5q213 0 377 -217h16q36 39 59.5 63t62.5 56.5t73 51.5t79 32.5t91 13.5q141 0 230 -89t89 -230q0 -138 -89 -226.5t-230 -88.5q-213 0 -377 217h-16q-36 -39 -59.5 -63t-62.5 -56.5t-73 -51.5t-79 -32.5
t-91 -13.5zM258 598q0 -98 60.5 -159.5t156.5 -61.5q95 0 184.5 62.5t139.5 146.5v16q-140 213 -324 213q-95 0 -156 -61t-61 -156zM901 590q140 -213 324 -213q95 0 156 61t61 156q0 98 -60.5 159.5t-156.5 61.5q-95 0 -184.5 -62.5t-139.5 -146.5v-16z" />
    <glyph glyph-name="integral" unicode="&#x222b;" horiz-adv-x="880" 
d="M0 -352h20q130 0 214 99.5t98 248.5l102 1085q12 124 66 228.5t140.5 167.5t186.5 63h54v-106h-21q-131 0 -214 -98t-97 -251l-103 -1081q-11 -124 -64.5 -229.5t-140.5 -169.5t-188 -64h-53v107z" />
    <glyph glyph-name="almostequalto" unicode="&#x2248;" horiz-adv-x="1331" 
d="M885 270q-61 0 -105 10.5t-92 38.5l-90 54q-67 41 -147 41q-108 0 -205 -115l-78 66q54 68 132.5 109.5t145.5 41.5q107 0 197 -53l90 -53q61 -37 148 -37q119 0 209 106l73 -61q-54 -66 -133 -107t-145 -41zM168 745q54 69 132.5 110.5t145.5 41.5q107 0 197 -53l90 -53
q61 -37 148 -37q119 0 209 106l73 -61q-54 -66 -133 -107t-145 -41q-61 0 -105 10.5t-92 38.5l-90 54q-67 41 -147 41q-108 0 -205 -115z" />
    <glyph glyph-name="notequalto" unicode="&#x2260;" horiz-adv-x="1282" 
d="M311 25l148 307h-291v102h344l147 311h-491v103h545l147 307h115l-148 -307h287v-103h-336l-151 -311h487v-102h-536l-148 -307h-119z" />
    <glyph glyph-name="lessthanorequalto" unicode="&#x2264;" horiz-adv-x="1228" 
d="M168 180v103h885v-103h-885zM168 680v78l885 270v-110l-549 -168l-168 -25v-16l168 -25l549 -164v-106z" />
    <glyph glyph-name="greaterthanorequalto" unicode="&#x2265;" horiz-adv-x="1228" 
d="M176 180v103h885v-103h-885zM176 414v106l549 164l168 25v16l-168 25l-549 168v110l885 -270v-78z" />
    <glyph glyph-name="lozenge" unicode="&#x25ca;" horiz-adv-x="1056" 
d="M483 -25l-405 742l409 741h86l406 -741l-410 -742h-86zM188 721l250 -475l82 -148h17l81 148l250 467l-250 475l-81 147h-17l-82 -147z" />
    <glyph glyph-name="fi" unicode="&#xfb01;" horiz-adv-x="1316" 
d="M102 0v102h160v799h-180v98h180v205q0 145 103 240.5t262 95.5q77 0 135 -24l-37 -95q-53 17 -102 17q-107 0 -176.5 -67t-69.5 -171v-201h706v-897h160v-102h-434v102h160v799h-592v-799h160v-102h-435zM897 1401l129 129l129 -127l-129 -129z" />
    <glyph glyph-name="fl" unicode="&#xfb02;" horiz-adv-x="1320" 
d="M102 0v102h160v799h-180v98h180v189q0 145 103 240.5t262 95.5h460v-1422h160v-102h-434v102h160v1323h-350q-107 0 -176.5 -66.5t-69.5 -170.5v-189h332v-98h-332v-799h160v-102h-435z" />
    <glyph glyph-name="G.ss03" horiz-adv-x="1597" 
d="M98 721q0 163 55 303.5t151.5 239.5t232.5 155t294 56q138 0 261.5 -42.5t216.5 -119.5l8 162h96v-312h-110q-83 98 -205 151.5t-258 53.5q-178 0 -319 -81.5t-220.5 -229.5t-79.5 -336q0 -140 46 -260t126.5 -205t195 -133.5t247.5 -48.5q234 0 379 146.5t145 373.5
h-610v106h729v-106q0 -132 -48 -248t-132.5 -199.5t-206 -131.5t-261.5 -48q-158 0 -294 56t-232.5 155t-151.5 239.5t-55 303.5z" />
    <glyph glyph-name="a.ss01" horiz-adv-x="1183" 
d="M426 -33q-151 0 -247.5 79.5t-96.5 203.5q0 126 83 206t232 97l357 41q46 5 64 23.5t18 62.5q0 116 -87 183t-233 67q-101 0 -183 -41t-128 -115l-99 57q157 201 431 201q194 0 303.5 -99.5t109.5 -277.5v-553h160v-102h-195q-32 0 -53.5 22t-21.5 54v84h-17
q-56 -94 -163.5 -143.5t-233.5 -49.5zM197 262q0 -83 69 -137.5t176 -54.5q74 0 143 20.5t126 59t91 102t34 141.5v119l-414 -49q-106 -12 -165.5 -65t-59.5 -136z" />
    <glyph glyph-name="aacute.ss01" horiz-adv-x="1183" 
d="M487 1135l136 307h139l-180 -307h-95zM82 250q0 126 83 206t232 97l357 41q46 5 64 23.5t18 62.5q0 116 -87 183t-233 67q-101 0 -183 -41t-128 -115l-99 57q157 201 431 201q194 0 303.5 -99.5t109.5 -277.5v-553h160v-102h-195q-32 0 -53.5 22t-21.5 54v84h-17
q-56 -94 -163.5 -143.5t-233.5 -49.5q-151 0 -247.5 79.5t-96.5 203.5zM197 262q0 -83 69 -137.5t176 -54.5q74 0 143 20.5t126 59t91 102t34 141.5v119l-414 -49q-106 -12 -165.5 -65t-59.5 -136z" />
    <glyph glyph-name="abreve.ss01" horiz-adv-x="1183" 
d="M545 1163q-120 0 -205.5 85.5t-85.5 205.5h98q0 -83 56.5 -137.5t140.5 -54.5q77 0 134.5 56.5t57.5 135.5h95q0 -120 -85.5 -205.5t-205.5 -85.5zM82 250q0 126 83 206t232 97l357 41q46 5 64 23.5t18 62.5q0 116 -87 183t-233 67q-101 0 -183 -41t-128 -115l-99 57
q157 201 431 201q194 0 303.5 -99.5t109.5 -277.5v-553h160v-102h-195q-32 0 -53.5 22t-21.5 54v84h-17q-56 -94 -163.5 -143.5t-233.5 -49.5q-151 0 -247.5 79.5t-96.5 203.5zM197 262q0 -83 69 -137.5t176 -54.5q74 0 143 20.5t126 59t91 102t34 141.5v119l-414 -49
q-106 -12 -165.5 -65t-59.5 -136z" />
    <glyph glyph-name="acircumflex.ss01" horiz-adv-x="1183" 
d="M233 1135l222 307h172l221 -307h-98l-201 229h-17l-200 -229h-99zM82 250q0 126 83 206t232 97l357 41q46 5 64 23.5t18 62.5q0 116 -87 183t-233 67q-101 0 -183 -41t-128 -115l-99 57q157 201 431 201q194 0 303.5 -99.5t109.5 -277.5v-553h160v-102h-195
q-32 0 -53.5 22t-21.5 54v84h-17q-56 -94 -163.5 -143.5t-233.5 -49.5q-151 0 -247.5 79.5t-96.5 203.5zM197 262q0 -83 69 -137.5t176 -54.5q74 0 143 20.5t126 59t91 102t34 141.5v119l-414 -49q-106 -12 -165.5 -65t-59.5 -136z" />
    <glyph glyph-name="adieresis.ss01" horiz-adv-x="1183" 
d="M348 1198l-133 133l133 133l133 -133zM82 250q0 126 83 206t232 97l357 41q46 5 64 23.5t18 62.5q0 116 -87 183t-233 67q-101 0 -183 -41t-128 -115l-99 57q157 201 431 201q194 0 303.5 -99.5t109.5 -277.5v-553h160v-102h-195q-32 0 -53.5 22t-21.5 54v84h-17
q-56 -94 -163.5 -143.5t-233.5 -49.5q-151 0 -247.5 79.5t-96.5 203.5zM197 262q0 -83 69 -137.5t176 -54.5q74 0 143 20.5t126 59t91 102t34 141.5v119l-414 -49q-106 -12 -165.5 -65t-59.5 -136zM600 1331l133 133l133 -133l-133 -133z" />
    <glyph glyph-name="agrave.ss01" horiz-adv-x="1183" 
d="M500 1135l-185 307h140l139 -307h-94zM82 250q0 126 83 206t232 97l357 41q46 5 64 23.5t18 62.5q0 116 -87 183t-233 67q-101 0 -183 -41t-128 -115l-99 57q157 201 431 201q194 0 303.5 -99.5t109.5 -277.5v-553h160v-102h-195q-32 0 -53.5 22t-21.5 54v84h-17
q-56 -94 -163.5 -143.5t-233.5 -49.5q-151 0 -247.5 79.5t-96.5 203.5zM197 262q0 -83 69 -137.5t176 -54.5q74 0 143 20.5t126 59t91 102t34 141.5v119l-414 -49q-106 -12 -165.5 -65t-59.5 -136z" />
    <glyph glyph-name="aring.ss01" horiz-adv-x="1183" 
d="M541 1139q-80 0 -134.5 54.5t-54.5 133.5t55 134t134 55t133.5 -54.5t54.5 -134.5q0 -79 -54.5 -133.5t-133.5 -54.5zM82 250q0 126 83 206t232 97l357 41q46 5 64 23.5t18 62.5q0 116 -87 183t-233 67q-101 0 -183 -41t-128 -115l-99 57q157 201 431 201
q194 0 303.5 -99.5t109.5 -277.5v-553h160v-102h-195q-32 0 -53.5 22t-21.5 54v84h-17q-56 -94 -163.5 -143.5t-233.5 -49.5q-151 0 -247.5 79.5t-96.5 203.5zM197 262q0 -83 69 -137.5t176 -54.5q74 0 143 20.5t126 59t91 102t34 141.5v119l-414 -49q-106 -12 -165.5 -65
t-59.5 -136zM442 1327q0 -42 29 -70t70 -28q40 0 69 28t29 70q0 40 -29 69t-69 29t-69.5 -29t-29.5 -69z" />
    <glyph glyph-name="atilde.ss01" horiz-adv-x="1183" 
d="M713 1237q-65 0 -189 53q-91 41 -131 41q-44 0 -69 -22.5t-25 -67.5h-94q0 83 48.5 131.5t131.5 48.5q58 0 188 -53q96 -41 132 -41q44 0 69 22.5t25 67.5h94q0 -83 -48.5 -131.5t-131.5 -48.5zM82 250q0 126 83 206t232 97l357 41q46 5 64 23.5t18 62.5q0 116 -87 183
t-233 67q-101 0 -183 -41t-128 -115l-99 57q157 201 431 201q194 0 303.5 -99.5t109.5 -277.5v-553h160v-102h-195q-32 0 -53.5 22t-21.5 54v84h-17q-56 -94 -163.5 -143.5t-233.5 -49.5q-151 0 -247.5 79.5t-96.5 203.5zM197 262q0 -83 69 -137.5t176 -54.5q74 0 143 20.5
t126 59t91 102t34 141.5v119l-414 -49q-106 -12 -165.5 -65t-59.5 -136z" />
    <glyph glyph-name="u.ss01" horiz-adv-x="1372" 
d="M1290 999v-102h-160v-795h160v-102h-262v180h-16q-57 -97 -156.5 -155t-220.5 -58q-176 0 -289 121t-113 313v496h-159v102h274v-598q0 -145 89.5 -238t230.5 -93q151 0 249.5 110t98.5 279v438h-160v102h434z" />
    <glyph glyph-name="uacute.ss01" horiz-adv-x="1372" 
d="M1290 999v-102h-160v-795h160v-102h-262v180h-16q-57 -97 -156.5 -155t-220.5 -58q-176 0 -289 121t-113 313v496h-159v102h274v-598q0 -145 89.5 -238t230.5 -93q151 0 249.5 110t98.5 279v438h-160v102h434zM639 1135l135 307h139l-180 -307h-94z" />
    <glyph glyph-name="ucircumflex.ss01" horiz-adv-x="1372" 
d="M1290 999v-102h-160v-795h160v-102h-262v180h-16q-57 -97 -156.5 -155t-220.5 -58q-176 0 -289 121t-113 313v496h-159v102h274v-598q0 -145 89.5 -238t230.5 -93q151 0 249.5 110t98.5 279v438h-160v102h434zM385 1135l221 307h172l221 -307h-98l-201 229h-16l-201 -229
h-98z" />
    <glyph glyph-name="udieresis.ss01" horiz-adv-x="1372" 
d="M1290 999v-102h-160v-795h160v-102h-262v180h-16q-57 -97 -156.5 -155t-220.5 -58q-176 0 -289 121t-113 313v496h-159v102h274v-598q0 -145 89.5 -238t230.5 -93q151 0 249.5 110t98.5 279v438h-160v102h434zM367 1331l133 133l133 -133l-133 -133zM752 1331l133 133
l133 -133l-133 -133z" />
    <glyph glyph-name="ugrave.ss01" horiz-adv-x="1372" 
d="M1290 999v-102h-160v-795h160v-102h-262v180h-16q-57 -97 -156.5 -155t-220.5 -58q-176 0 -289 121t-113 313v496h-159v102h274v-598q0 -145 89.5 -238t230.5 -93q151 0 249.5 110t98.5 279v438h-160v102h434zM467 1442h139l139 -307h-94z" />
    <glyph glyph-name="f_b" horiz-adv-x="2070" 
d="M102 0v102h160v799h-180v98h180v189q0 145 103 240.5t262 95.5h456v-582l-12 -106h16q62 92 167 144t231 52q219 0 361.5 -149.5t142.5 -382.5q0 -232 -141.5 -382.5t-354.5 -150.5q-126 0 -233 52.5t-168 144.5h-13v-164h-110v1425h-346q-107 0 -176.5 -66.5
t-69.5 -170.5v-189h332v-98h-332v-799h160v-102h-435zM1067 500q0 -188 111.5 -309t289.5 -121t292 121t114 309t-114 309t-292 121t-289.5 -119.5t-111.5 -310.5z" />
    <glyph glyph-name="f_f_b" horiz-adv-x="2781" 
d="M102 0v102h160v799h-180v98h180v205q0 145 103 240.5t262 95.5q120 0 192 -57l-57 -82q-56 37 -139 37q-107 0 -176.5 -67t-69.5 -171v-201h592v189q0 145 102.5 240.5t261.5 95.5h461v-582l-12 -106h16q62 92 166.5 144t230.5 52q219 0 361.5 -149.5t142.5 -382.5
q0 -232 -141 -382.5t-354 -150.5q-126 0 -233.5 52.5t-168.5 144.5h-12v-164h-111v1425h-350q-107 0 -176.5 -66.5t-69.5 -170.5v-189h332v-98h-332v-799h160v-102h-434v102h160v799h-592v-799h160v-102h-435zM1778 500q0 -188 111.5 -309t289.5 -121t292 121t114 309
t-114 309t-292 121t-289.5 -119.5t-111.5 -310.5z" />
    <glyph glyph-name="f_f_h" horiz-adv-x="2809" 
d="M102 0v102h160v799h-180v98h180v205q0 145 103 240.5t262 95.5q120 0 192 -57l-57 -82q-56 37 -139 37q-107 0 -176.5 -67t-69.5 -171v-201h592v189q0 145 102.5 240.5t261.5 95.5h461v-578l-12 -127h16q57 97 156.5 155t220.5 58q176 0 288.5 -121t112.5 -313v-496h160
v-102h-274v598q0 145 -89.5 238.5t-230.5 93.5q-151 0 -249.5 -110t-98.5 -279v-439h160v-102h-434v102h159v1323h-350q-107 0 -176.5 -66.5t-69.5 -170.5v-189h332v-98h-332v-799h160v-102h-434v102h160v799h-592v-799h160v-102h-435z" />
    <glyph glyph-name="f_f_j" horiz-adv-x="1902" 
d="M1675 901h-592v-799h160v-102h-434v102h160v799h-592v-799h160v-102h-435v102h160v799h-180v98h180v205q0 145 103 240.5t262 95.5q120 0 192 -57l-57 -82q-56 37 -139 37q-107 0 -176.5 -67t-69.5 -171v-201h592v201q0 146 102.5 243t261.5 97q77 0 135 -24l-36 -95
q-53 17 -103 17q-107 0 -176.5 -67t-69.5 -171v-201h707v-1382q0 -32 -22 -54t-54 -22h-395v99h356v1261zM1604 1399l129 129l129 -127l-129 -129z" />
    <glyph glyph-name="f_f_k" horiz-adv-x="2676" 
d="M102 0v102h160v799h-180v98h180v205q0 145 103 240.5t262 95.5q120 0 192 -57l-57 -82q-56 37 -139 37q-107 0 -176.5 -67t-69.5 -171v-201h592v189q0 145 102.5 240.5t261.5 95.5h461v-951h158l313 324h-172v102h481v-102h-166l-358 -365l379 -430h166v-102h-311v100
l-326 371h-164v-471h-274v102h159v1323h-350q-107 0 -176.5 -66.5t-69.5 -170.5v-189h332v-98h-332v-799h160v-102h-434v102h160v799h-592v-799h160v-102h-435z" />
    <glyph glyph-name="f_h" horiz-adv-x="2103" 
d="M102 0v102h160v799h-180v98h180v189q0 145 103 240.5t262 95.5h460v-578l-12 -127h17q57 97 156 155t220 58q176 0 289 -121t113 -313v-496h160v-102h-275v598q0 145 -89 238.5t-230 93.5q-151 0 -250 -110t-99 -279v-439h160v-102h-434v102h160v1323h-350
q-107 0 -176.5 -66.5t-69.5 -170.5v-189h332v-98h-332v-799h160v-102h-435z" />
    <glyph glyph-name="f_j" horiz-adv-x="1196" 
d="M969 901h-592v-799h160v-102h-435v102h160v799h-180v98h180v205q0 145 103 240.5t262 95.5q77 0 135 -24l-37 -95q-53 17 -102 17q-107 0 -176.5 -67t-69.5 -171v-201h706v-1382q0 -32 -21.5 -54t-53.5 -22h-396v99h357v1261zM897 1401l129 129l129 -127l-129 -129z" />
    <glyph glyph-name="f_k" horiz-adv-x="1970" 
d="M102 0v102h160v799h-180v98h180v189q0 145 103 240.5t262 95.5h460v-951h158l314 324h-173v102h482v-102h-166l-359 -365l379 -430h166v-102h-311v100l-326 371h-164v-471h-274v102h160v1323h-350q-107 0 -176.5 -66.5t-69.5 -170.5v-189h332v-98h-332v-799h160v-102
h-435z" />
    <glyph glyph-name="f_t" horiz-adv-x="1529" 
d="M102 0v102h160v799h-180v98h180v205q0 145 103 240.5t262 95.5q123 0 192 -57l-57 -82q-49 37 -139 37q-107 0 -176.5 -67t-69.5 -171v-201h588v287h114v-287h336v-98h-336v-803h357v-98h-396q-32 0 -53.5 22t-21.5 54v825h-588v-799h160v-102h-435z" />
    <glyph glyph-name="t_t" horiz-adv-x="1472" 
d="M983 0q-32 0 -54 22t-22 54v825h-551v-803h357v-98h-396q-32 0 -53.5 22t-21.5 54v825h-181v98h181v287h114v-287h551v287h115v-287h336v-98h-336v-778q0 -11 7 -18t18 -7h331v-98h-395z" />
    <glyph glyph-name="a.sc" horiz-adv-x="1267" 
d="M455 410l364 -4l-123 294l-49 144h-16l-53 -144zM61 0v102h160l332 795h-160v102h303l361 -897h149v-102h-430v102h158l-86 213h-426l-90 -213h160v-102h-431z" />
    <glyph glyph-name="aacute.sc" horiz-adv-x="1267" 
d="M455 410l364 -4l-123 294l-49 144h-16l-53 -144zM61 0v102h160l332 795h-160v102h303l361 -897h149v-102h-430v102h158l-86 213h-426l-90 -213h160v-102h-431zM586 1135l135 307h139l-180 -307h-94z" />
    <glyph glyph-name="abreve.sc" horiz-adv-x="1267" 
d="M455 410l364 -4l-123 294l-49 144h-16l-53 -144zM61 0v102h160l332 795h-160v102h303l361 -897h149v-102h-430v102h158l-86 213h-426l-90 -213h160v-102h-431zM356 1454h99q0 -83 56 -137.5t140 -54.5q77 0 135 56.5t58 135.5h94q0 -120 -85.5 -205.5t-205.5 -85.5
t-205.5 85.5t-85.5 205.5z" />
    <glyph glyph-name="acircumflex.sc" horiz-adv-x="1267" 
d="M455 410l364 -4l-123 294l-49 144h-16l-53 -144zM61 0v102h160l332 795h-160v102h303l361 -897h149v-102h-430v102h158l-86 213h-426l-90 -213h160v-102h-431zM332 1135l221 307h172l221 -307h-98l-201 229h-16l-201 -229h-98z" />
    <glyph glyph-name="adieresis.sc" horiz-adv-x="1267" 
d="M455 410l364 -4l-123 294l-49 144h-16l-53 -144zM61 0v102h160l332 795h-160v102h303l361 -897h149v-102h-430v102h158l-86 213h-426l-90 -213h160v-102h-431zM313 1331l133 133l134 -133l-134 -133zM698 1331l133 133l134 -133l-134 -133z" />
    <glyph glyph-name="agrave.sc" horiz-adv-x="1267" 
d="M455 410l364 -4l-123 294l-49 144h-16l-53 -144zM61 0v102h160l332 795h-160v102h303l361 -897h149v-102h-430v102h158l-86 213h-426l-90 -213h160v-102h-431zM414 1442h139l139 -307h-94z" />
    <glyph glyph-name="aring.sc" horiz-adv-x="1267" 
d="M455 410l364 -4l-123 294l-49 144h-16l-53 -144zM61 0v102h160l332 795h-160v102h303l361 -897h149v-102h-430v102h158l-86 213h-426l-90 -213h160v-102h-431zM451 1327q0 80 54.5 134.5t133.5 54.5t133.5 -54.5t54.5 -134.5q0 -79 -54.5 -133.5t-133.5 -54.5
t-133.5 54.5t-54.5 133.5zM541 1327q0 -42 29 -70t69 -28t69 28t29 70q0 40 -29 69t-69 29t-69 -29t-29 -69z" />
    <glyph glyph-name="atilde.sc" horiz-adv-x="1267" 
d="M455 410l364 -4l-123 294l-49 144h-16l-53 -144zM61 0v102h160l332 795h-160v102h303l361 -897h149v-102h-430v102h158l-86 213h-426l-90 -213h160v-102h-431zM303 1241q0 83 48.5 131.5t131.5 48.5q59 0 189 -53q96 -41 131 -41q44 0 69 22.5t25 67.5h94
q0 -83 -48.5 -131.5t-131.5 -48.5q-64 0 -188 53q-91 41 -131 41q-44 0 -69.5 -22.5t-25.5 -67.5h-94z" />
    <glyph glyph-name="ae.sc" horiz-adv-x="1691" 
d="M526 410l377 -4l-84 491h-12l-107 -197zM61 0v102h168l471 795h-159v102h1032v-262h-103v160h-542l57 -328h352v-102h-336l64 -365h418v160h102v-262h-610l-55 315h-443l-127 -213h142v-102h-431z" />
    <glyph glyph-name="b.sc" horiz-adv-x="1150" 
d="M82 0v102h160v795h-160v102h639q129 0 212 -69t83 -176q0 -68 -39 -128.5t-100 -88.5v-17q77 -26 126.5 -94t49.5 -147q0 -123 -87 -201t-225 -78h-659zM356 102h389q86 0 139.5 50.5t53.5 130.5q0 83 -55.5 133.5t-145.5 50.5h-381v-365zM356 565h357q83 0 135.5 48
t52.5 124q0 71 -50.5 115.5t-133.5 44.5h-361v-332z" />
    <glyph glyph-name="c.sc" horiz-adv-x="1118" 
d="M598 -33q-227 0 -371.5 149.5t-144.5 383.5q0 231 145 381.5t371 150.5q200 0 315 -112l5 112h106v-250h-115q-120 148 -311 148q-178 0 -289.5 -121t-111.5 -309t111.5 -309t289.5 -121q189 0 320 131l73 -62q-147 -172 -393 -172z" />
    <glyph glyph-name="ccedilla.sc" horiz-adv-x="1118" 
d="M584 -418q-55 0 -108 19t-89 55l45 65q59 -53 143 -53q49 0 80 18t31 56q0 40 -32.5 59t-82.5 19q-17 0 -49 -4l-45 65l55 90q-201 22 -325.5 167.5t-124.5 361.5q0 231 145 381.5t371 150.5q200 0 315 -112l5 112h106v-250h-115q-120 148 -311 148q-178 0 -289.5 -121
t-111.5 -309t111.5 -309t289.5 -121q189 0 320 131l73 -62q-137 -158 -352 -170l-51 -75l4 -9q88 9 138 -28t50 -99q0 -83 -56 -129.5t-140 -46.5z" />
    <glyph glyph-name="d.sc" horiz-adv-x="1177" 
d="M82 0v102h158v795h-158v102h489q236 0 380.5 -138t144.5 -365q0 -222 -144.5 -359t-380.5 -137h-489zM354 102h221q183 0 294.5 111t111.5 287q0 179 -113 288t-297 109h-217v-795z" />
    <glyph glyph-name="eth.sc" horiz-adv-x="1177" 
d="M82 0v102h158v349h-158v98h158v348h-158v102h489q236 0 380.5 -138t144.5 -365q0 -222 -144.5 -359t-380.5 -137h-489zM354 102h221q183 0 294.5 111t111.5 287q0 179 -113 288t-297 109h-217v-348h303v-98h-303v-349z" />
    <glyph glyph-name="e.sc" horiz-adv-x="1064" 
d="M82 0v102h160v795h-160v102h864v-262h-102v160h-488v-328h355v-102h-355v-365h500v160h102v-262h-876z" />
    <glyph glyph-name="eacute.sc" horiz-adv-x="1064" 
d="M82 0v102h160v795h-160v102h864v-262h-102v160h-488v-328h355v-102h-355v-365h500v160h102v-262h-876zM547 1135l135 307h139l-180 -307h-94z" />
    <glyph glyph-name="ecircumflex.sc" horiz-adv-x="1064" 
d="M82 0v102h160v795h-160v102h864v-262h-102v160h-488v-328h355v-102h-355v-365h500v160h102v-262h-876zM293 1135l221 307h172l221 -307h-98l-201 229h-16l-201 -229h-98z" />
    <glyph glyph-name="edieresis.sc" horiz-adv-x="1064" 
d="M82 0v102h160v795h-160v102h864v-262h-102v160h-488v-328h355v-102h-355v-365h500v160h102v-262h-876zM274 1331l134 133l133 -133l-133 -133zM659 1331l134 133l133 -133l-133 -133z" />
    <glyph glyph-name="egrave.sc" horiz-adv-x="1064" 
d="M82 0v102h160v795h-160v102h864v-262h-102v160h-488v-328h355v-102h-355v-365h500v160h102v-262h-876zM375 1442h139l139 -307h-94z" />
    <glyph glyph-name="f.sc" horiz-adv-x="1052" 
d="M82 0v102h160v795h-160v102h864v-262h-102v160h-488v-344h389v-102h-389v-349h160v-102h-434z" />
    <glyph glyph-name="g.sc" horiz-adv-x="1155" 
d="M573 -33q-218 0 -354.5 150t-136.5 387q0 233 152.5 380.5t392.5 147.5q80 0 157 -25t129 -73l5 98h106v-250h-115q-27 67 -109 107.5t-173 40.5q-190 0 -310 -119t-120 -307q0 -191 116 -312.5t297 -121.5q134 0 218.5 76t84.5 194v78h-307v102h418v-520h-90v131l-16 4
q-43 -79 -134 -123.5t-211 -44.5z" />
    <glyph glyph-name="h.sc" horiz-adv-x="1302" 
d="M82 0v102h160v795h-160v102h434v-102h-160v-324h590v324h-160v102h435v-102h-160v-795h160v-102h-435v102h160v369h-590v-369h160v-102h-434z" />
    <glyph glyph-name="i.sc" horiz-adv-x="598" 
d="M82 0v102h160v795h-160v102h434v-102h-160v-795h160v-102h-434z" />
    <glyph glyph-name="iacute.sc" horiz-adv-x="598" 
d="M82 0v102h160v795h-160v102h434v-102h-160v-795h160v-102h-434zM246 1135l135 307h139l-180 -307h-94z" />
    <glyph glyph-name="icircumflex.sc" horiz-adv-x="598" 
d="M82 0v102h160v795h-160v102h434v-102h-160v-795h160v-102h-434zM57 1155l160 287h164l160 -287h-95l-139 209h-16l-139 -209h-95z" />
    <glyph glyph-name="idieresis.sc" horiz-adv-x="598" 
d="M82 0v102h160v795h-160v102h434v-102h-160v-795h160v-102h-434zM-2 1399l133 133l133 -133l-133 -133zM334 1399l133 133l133 -133l-133 -133z" />
    <glyph glyph-name="igrave.sc" horiz-adv-x="598" 
d="M82 0v102h160v795h-160v102h434v-102h-160v-795h160v-102h-434zM74 1442h139l139 -307h-94z" />
    <glyph glyph-name="j.sc" horiz-adv-x="958" 
d="M365 -33q-174 0 -295 139l82 78q85 -114 208 -114q104 0 177 75t73 195v557h-159v102h434v-102h-160v-557q0 -165 -107.5 -269t-252.5 -104z" />
    <glyph glyph-name="k.sc" horiz-adv-x="1239" 
d="M82 0v102h160v795h-160v102h274v-426h158l313 324v102h310v-102h-166l-359 -365l379 -430h166v-102h-311v100l-326 371h-164v-471h-274z" />
    <glyph glyph-name="l.sc" horiz-adv-x="1044" 
d="M82 0v102h160v795h-160v102h434v-102h-160v-795h480v160h102v-262h-856z" />
    <glyph glyph-name="lslash.sc" horiz-adv-x="1044" 
d="M82 324v106l160 72v395h-160v102h434v-102h-160v-344l283 127v-107l-283 -127v-344h480v160h102v-262h-856v102h160v293z" />
    <glyph glyph-name="m.sc" horiz-adv-x="1511" 
d="M82 0v102h160v795h-160v102h291l332 -639l45 -106h16l45 106l332 639h287v-102h-160v-795h160v-102h-431v102h160v582l12 127l-12 4l-360 -704h-86l-361 700l-12 -4l12 -123v-582h160v-102h-430z" />
    <glyph glyph-name="n.sc" horiz-adv-x="1327" 
d="M82 0v102h160v795h-160v102h307l586 -864l12 4l-12 127v631h-160v102h430v-102h-160v-897h-147l-586 864l-12 -4l12 -127v-631h160v-102h-430z" />
    <glyph glyph-name="ntilde.sc" horiz-adv-x="1327" 
d="M82 0v102h160v795h-160v102h307l586 -864l12 4l-12 127v631h-160v102h430v-102h-160v-897h-147l-586 864l-12 -4l12 -127v-631h160v-102h-430zM328 1241q0 83 48.5 131.5t131.5 48.5q58 0 188 -53q96 -41 131 -41q44 0 69.5 22.5t25.5 67.5h94q0 -83 -48.5 -131.5
t-131.5 -48.5q-65 0 -189 53q-91 41 -131 41q-44 0 -69 -22.5t-25 -67.5h-94z" />
    <glyph glyph-name="o.sc" horiz-adv-x="1204" 
d="M602 -33q-230 0 -375 149.5t-145 383.5t145 383t375 149t375 -149t145 -383t-145 -383.5t-375 -149.5zM197 500q0 -188 113.5 -309t291.5 -121t292 121t114 309t-114 309t-292 121t-291.5 -121t-113.5 -309z" />
    <glyph glyph-name="oacute.sc" horiz-adv-x="1204" 
d="M602 -33q-230 0 -375 149.5t-145 383.5t145 383t375 149t375 -149t145 -383t-145 -383.5t-375 -149.5zM197 500q0 -188 113.5 -309t291.5 -121t292 121t114 309t-114 309t-292 121t-291.5 -121t-113.5 -309zM549 1135l135 307h139l-180 -307h-94z" />
    <glyph glyph-name="ocircumflex.sc" horiz-adv-x="1204" 
d="M602 -33q-230 0 -375 149.5t-145 383.5t145 383t375 149t375 -149t145 -383t-145 -383.5t-375 -149.5zM197 500q0 -188 113.5 -309t291.5 -121t292 121t114 309t-114 309t-292 121t-291.5 -121t-113.5 -309zM295 1135l221 307h172l221 -307h-98l-201 229h-16l-201 -229
h-98z" />
    <glyph glyph-name="odieresis.sc" horiz-adv-x="1204" 
d="M602 -33q-230 0 -375 149.5t-145 383.5t145 383t375 149t375 -149t145 -383t-145 -383.5t-375 -149.5zM197 500q0 -188 113.5 -309t291.5 -121t292 121t114 309t-114 309t-292 121t-291.5 -121t-113.5 -309zM276 1331l134 133l133 -133l-133 -133zM662 1331l133 133
l133 -133l-133 -133z" />
    <glyph glyph-name="ograve.sc" horiz-adv-x="1204" 
d="M602 -33q-230 0 -375 149.5t-145 383.5t145 383t375 149t375 -149t145 -383t-145 -383.5t-375 -149.5zM197 500q0 -188 113.5 -309t291.5 -121t292 121t114 309t-114 309t-292 121t-291.5 -121t-113.5 -309zM377 1442h139l139 -307h-94z" />
    <glyph glyph-name="oslash.sc" horiz-adv-x="1204" 
d="M602 -33q-139 0 -260 62l-84 -119l-70 61l78 109q-87 73 -135.5 181.5t-48.5 238.5q0 234 145 383t375 149q161 0 285 -76l92 129l78 -53l-96 -133q161 -152 161 -399q0 -234 -145 -383.5t-375 -149.5zM197 500q0 -101 35 -186t98 -142l493 694q-95 64 -221 64
q-178 0 -291.5 -121t-113.5 -309zM406 117q86 -47 196 -47q178 0 292 121t114 309t-113 307z" />
    <glyph glyph-name="otilde.sc" horiz-adv-x="1204" 
d="M602 -33q-230 0 -375 149.5t-145 383.5t145 383t375 149t375 -149t145 -383t-145 -383.5t-375 -149.5zM197 500q0 -188 113.5 -309t291.5 -121t292 121t114 309t-114 309t-292 121t-291.5 -121t-113.5 -309zM266 1241q0 83 48.5 131.5t131.5 48.5q59 0 189 -53
q96 -41 131 -41q44 0 69 22.5t25 67.5h94q0 -83 -48.5 -131.5t-131.5 -48.5q-64 0 -188 53q-91 41 -131 41q-44 0 -69.5 -22.5t-25.5 -67.5h-94z" />
    <glyph glyph-name="oe.sc" horiz-adv-x="1830" 
d="M602 -33q-230 0 -375 149.5t-145 383.5t145 383t375 149q134 0 237 -52.5t169 -148.5v168h704v-262h-102v160h-488v-328h355v-102h-355v-365h500v160h102v-262h-716v168q-66 -96 -169 -148.5t-237 -52.5zM197 500q0 -188 113.5 -309t291.5 -121t292 121t114 309t-114 309
t-292 121t-291.5 -121t-113.5 -309z" />
    <glyph glyph-name="p.sc" horiz-adv-x="1114" 
d="M82 0v102h160v795h-160v102h606q153 0 240.5 -77.5t87.5 -212.5q0 -141 -87.5 -222t-240.5 -81h-332v-304h160v-102h-434zM356 508h357q90 0 139 58.5t49 138.5q0 77 -49.5 134.5t-138.5 57.5h-357v-389z" />
    <glyph glyph-name="thorn.sc" horiz-adv-x="1114" 
d="M713 303q90 0 139 58.5t49 138.5q0 77 -49.5 134.5t-138.5 57.5h-357v-389h357zM82 0v102h160v795h-160v102h434v-102h-160v-102h332q153 0 240.5 -78t87.5 -213q0 -141 -87.5 -222t-240.5 -81h-332v-99h160v-102h-434z" />
    <glyph glyph-name="q.sc" horiz-adv-x="1204" 
d="M717 381h98v-254q90 55 141.5 152.5t51.5 220.5q0 188 -114 309t-292 121t-291.5 -121t-113.5 -309t113.5 -309t291.5 -121q50 0 115 14v297zM82 500q0 234 145 383t375 149t375 -149t145 -383q0 -173 -82.5 -304t-224.5 -188v-170h-98v139q-62 -10 -115 -10
q-230 0 -375 149.5t-145 383.5z" />
    <glyph glyph-name="r.sc" horiz-adv-x="1206" 
d="M82 0v102h160v795h-160v102h606q153 0 240.5 -77.5t87.5 -212.5q0 -141 -87.5 -222t-240.5 -81l-8 -13l82 -82l166 -209h176v-102h-313v102l-234 304h-201v-304h160v-102h-434zM356 508h357q90 0 139 58.5t49 138.5q0 77 -49.5 134.5t-138.5 57.5h-357v-389z" />
    <glyph glyph-name="s.sc" horiz-adv-x="925" 
d="M471 -33q-207 0 -377 144v229h115v-180q125 -94 270 -94q113 0 175.5 53.5t62.5 126.5q0 65 -46 119.5t-134 76.5l-164 41q-131 33 -196.5 103.5t-65.5 163.5q0 114 98.5 198t265.5 84q91 0 180.5 -26.5t155.5 -75.5v-230h-115v177q-100 57 -225 57q-115 0 -180.5 -51
t-65.5 -125q0 -123 193 -172l151 -37q128 -31 195 -109.5t67 -173.5q0 -122 -97 -210.5t-263 -88.5z" />
    <glyph glyph-name="scaron.sc" horiz-adv-x="925" 
d="M471 -33q-207 0 -377 144v229h115v-180q125 -94 270 -94q113 0 175.5 53.5t62.5 126.5q0 65 -46 119.5t-134 76.5l-164 41q-131 33 -196.5 103.5t-65.5 163.5q0 114 98.5 198t265.5 84q91 0 180.5 -26.5t155.5 -75.5v-230h-115v177q-100 57 -225 57q-115 0 -180.5 -51
t-65.5 -125q0 -123 193 -172l151 -37q128 -31 195 -109.5t67 -173.5q0 -122 -97 -210.5t-263 -88.5zM186 1442h99l200 -230h17l200 230h99l-221 -307h-172z" />
    <glyph glyph-name="scommaaccent.sc" horiz-adv-x="925" 
d="M471 -33q-207 0 -377 144v229h115v-180q125 -94 270 -94q113 0 175.5 53.5t62.5 126.5q0 65 -46 119.5t-134 76.5l-164 41q-131 33 -196.5 103.5t-65.5 163.5q0 114 98.5 198t265.5 84q91 0 180.5 -26.5t155.5 -75.5v-230h-115v177q-100 57 -225 57q-115 0 -180.5 -51
t-65.5 -125q0 -123 193 -172l151 -37q128 -31 195 -109.5t67 -173.5q0 -122 -97 -210.5t-263 -88.5zM367 -492l65 365h119l-102 -365h-82z" />
    <glyph glyph-name="germandbls.sc" horiz-adv-x="1120" 
d="M74 0v102h159v570q0 112 58 195.5t148 124t196 40.5q101 0 196 -40.5t164 -117.5l-194 -241l-53 -53v-11q138 -10 212 -88t74 -207q0 -136 -89 -220.5t-234 -84.5q-116 0 -207 43v250h114v-182q36 -8 80 -8q98 0 162 51.5t64 146.5q0 80 -56 140.5t-155 60.5h-68v125
l207 260q-95 74 -219 74q-119 0 -204 -72t-85 -192v-666h-270z" />
    <glyph glyph-name="t.sc" horiz-adv-x="1130" 
d="M348 0v102h160v795h-307v-160h-103v262h934v-262h-102v160h-312v-795h160v-102h-430z" />
    <glyph glyph-name="tcommaaccent.sc" horiz-adv-x="1130" 
d="M348 0v102h160v795h-307v-160h-103v262h934v-262h-102v160h-312v-795h160v-102h-430zM424 -492l65 365h119l-102 -365h-82z" />
    <glyph glyph-name="u.sc" horiz-adv-x="1363" 
d="M684 -33q-211 0 -331 120t-120 327v483h-159v102h274v-610q0 -141 94 -230t242 -89q145 0 238.5 89t93.5 230v508h-160v102h434v-102h-160v-483q0 -207 -119 -327t-327 -120z" />
    <glyph glyph-name="uacute.sc" horiz-adv-x="1363" 
d="M684 -33q-211 0 -331 120t-120 327v483h-159v102h274v-610q0 -141 94 -230t242 -89q145 0 238.5 89t93.5 230v508h-160v102h434v-102h-160v-483q0 -207 -119 -327t-327 -120zM629 1135l135 307h139l-180 -307h-94z" />
    <glyph glyph-name="ucircumflex.sc" horiz-adv-x="1363" 
d="M684 -33q-211 0 -331 120t-120 327v483h-159v102h274v-610q0 -141 94 -230t242 -89q145 0 238.5 89t93.5 230v508h-160v102h434v-102h-160v-483q0 -207 -119 -327t-327 -120zM375 1135l221 307h172l221 -307h-98l-201 229h-16l-201 -229h-98z" />
    <glyph glyph-name="udieresis.sc" horiz-adv-x="1363" 
d="M684 -33q-211 0 -331 120t-120 327v483h-159v102h274v-610q0 -141 94 -230t242 -89q145 0 238.5 89t93.5 230v508h-160v102h434v-102h-160v-483q0 -207 -119 -327t-327 -120zM356 1331l133 133l134 -133l-134 -133zM741 1331l133 133l134 -133l-134 -133z" />
    <glyph glyph-name="ugrave.sc" horiz-adv-x="1363" 
d="M684 -33q-211 0 -331 120t-120 327v483h-159v102h274v-610q0 -141 94 -230t242 -89q145 0 238.5 89t93.5 230v508h-160v102h434v-102h-160v-483q0 -207 -119 -327t-327 -120zM457 1442h139l139 -307h-94z" />
    <glyph glyph-name="v.sc" horiz-adv-x="1261" 
d="M567 0l-360 897h-146v102h265v-102l241 -598l45 -143h17l49 143l250 598h-146v102h418v-102h-160l-370 -897h-103z" />
    <glyph glyph-name="w.sc" horiz-adv-x="1900" 
d="M508 0l-287 897h-160v102h275v-102l192 -598l37 -143h13l49 143l235 598h-119v102h261l282 -700l45 -143h12l33 143l193 598h-160v102h430v-102h-160l-286 -897h-99l-286 705l-45 139h-17l-45 -144l-274 -700h-119z" />
    <glyph glyph-name="wacute.sc" horiz-adv-x="1900" 
d="M508 0l-287 897h-160v102h275v-102l192 -598l37 -143h13l49 143l235 598h-119v102h261l282 -700l45 -143h12l33 143l193 598h-160v102h430v-102h-160l-286 -897h-99l-286 705l-45 139h-17l-45 -144l-274 -700h-119zM897 1135l135 307h139l-180 -307h-94z" />
    <glyph glyph-name="wcircumflex.sc" horiz-adv-x="1900" 
d="M508 0l-287 897h-160v102h275v-102l192 -598l37 -143h13l49 143l235 598h-119v102h261l282 -700l45 -143h12l33 143l193 598h-160v102h430v-102h-160l-286 -897h-99l-286 705l-45 139h-17l-45 -144l-274 -700h-119zM643 1135l221 307h172l221 -307h-98l-201 229h-16
l-201 -229h-98z" />
    <glyph glyph-name="wdieresis.sc" horiz-adv-x="1900" 
d="M508 0l-287 897h-160v102h275v-102l192 -598l37 -143h13l49 143l235 598h-119v102h261l282 -700l45 -143h12l33 143l193 598h-160v102h430v-102h-160l-286 -897h-99l-286 705l-45 139h-17l-45 -144l-274 -700h-119zM625 1331l133 133l133 -133l-133 -133zM1010 1331
l133 133l133 -133l-133 -133z" />
    <glyph glyph-name="wgrave.sc" horiz-adv-x="1900" 
d="M508 0l-287 897h-160v102h275v-102l192 -598l37 -143h13l49 143l235 598h-119v102h261l282 -700l45 -143h12l33 143l193 598h-160v102h430v-102h-160l-286 -897h-99l-286 705l-45 139h-17l-45 -144l-274 -700h-119zM725 1442h139l140 -307h-95z" />
    <glyph glyph-name="x.sc" horiz-adv-x="1208" 
d="M862 0v100l-262 340l-260 -338h98v-102h-356v102h129l326 422l-287 373h-125v102h260v-100l219 -287l219 285h-104v102h356v-102h-123l-282 -367l327 -428h129v-102h-264z" />
    <glyph glyph-name="y.sc" horiz-adv-x="1206" 
d="M383 0v102h160v242l-322 553h-160v102h287v-102l244 -424h16l254 424h-155v102h438v-102h-160l-328 -545v-250h160v-102h-434z" />
    <glyph glyph-name="yacute.sc" horiz-adv-x="1206" 
d="M383 0v102h160v242l-322 553h-160v102h287v-102l244 -424h16l254 424h-155v102h438v-102h-160l-328 -545v-250h160v-102h-434zM551 1135l135 307h139l-180 -307h-94z" />
    <glyph glyph-name="ycircumflex.sc" horiz-adv-x="1206" 
d="M383 0v102h160v242l-322 553h-160v102h287v-102l244 -424h16l254 424h-155v102h438v-102h-160l-328 -545v-250h160v-102h-434zM297 1135l221 307h172l221 -307h-98l-201 229h-16l-201 -229h-98z" />
    <glyph glyph-name="ydieresis.sc" horiz-adv-x="1206" 
d="M383 0v102h160v242l-322 553h-160v102h287v-102l244 -424h16l254 424h-155v102h438v-102h-160l-328 -545v-250h160v-102h-434zM279 1331l133 133l133 -133l-133 -133zM664 1331l133 133l133 -133l-133 -133z" />
    <glyph glyph-name="ygrave.sc" horiz-adv-x="1206" 
d="M383 0v102h160v242l-322 553h-160v102h287v-102l244 -424h16l254 424h-155v102h438v-102h-160l-328 -545v-250h160v-102h-434zM379 1442h139l139 -307h-94z" />
    <glyph glyph-name="z.sc" horiz-adv-x="1056" 
d="M106 0v70l586 712l90 99l-8 12h-553v-203h-115v309h832v-65l-578 -705l-94 -106l8 -17h562v203h114v-309h-844z" />
    <glyph glyph-name="zcaron.sc" horiz-adv-x="1056" 
d="M106 0v70l586 712l90 99l-8 12h-553v-203h-115v309h832v-65l-578 -705l-94 -106l8 -17h562v203h114v-309h-844zM201 1442h98l201 -230h16l201 230h98l-221 -307h-172z" />
    <glyph glyph-name="g.sc.ss03" horiz-adv-x="1171" 
d="M602 -33q-227 0 -373.5 150t-146.5 383q0 235 146 383.5t374 148.5q210 0 332 -110l4 110h106v-250h-114q-50 68 -137.5 108t-178.5 40q-182 0 -299.5 -121.5t-117.5 -308.5q0 -186 116.5 -308t296.5 -122q158 0 253 95t95 245h-413v94h524v-94q0 -189 -131.5 -316
t-335.5 -127z" />
    <glyph glyph-name="a-cyrl.ss01" horiz-adv-x="1183" 
d="M426 -33q-151 0 -247.5 79.5t-96.5 203.5q0 126 83 206t232 97l357 41q46 5 64 23.5t18 62.5q0 116 -87 183t-233 67q-101 0 -183 -41t-128 -115l-99 57q157 201 431 201q194 0 303.5 -99.5t109.5 -277.5v-553h160v-102h-195q-32 0 -53.5 22t-21.5 54v84h-17
q-56 -94 -163.5 -143.5t-233.5 -49.5zM197 262q0 -83 69 -137.5t176 -54.5q74 0 143 20.5t126 59t91 102t34 141.5v119l-414 -49q-106 -12 -165.5 -65t-59.5 -136z" />
    <glyph glyph-name="de-cyrl.ss02" horiz-adv-x="1294" 
d="M98 102h146l309 795h-160v102h455l211 -897h137v-262h-102v160h-893v-160h-103v262zM362 102h578l-186 795h-82z" />
    <glyph glyph-name="te-cyrl.ss02" horiz-adv-x="1130" 
d="M348 0v102h160v795h-307v-160h-103v262h934v-262h-102v160h-312v-795h160v-102h-430z" />
    <glyph glyph-name="ibyelorussianukrainian_yi-cyrl" horiz-adv-x="1179" 
d="M549 1399l133 133l133 -133l-133 -133zM82 0v102h160v795h-160v102h274v-897h160v-102h-434zM170 1401l129 129l129 -127l-129 -129zM672 0v102h159v795h-159v102h274v-897h160v-102h-434zM928 1399l133 133l133 -133l-133 -133z" />
    <glyph glyph-name="yi_yi-cyrl" horiz-adv-x="1179" 
d="M82 0v102h160v795h-160v102h274v-897h160v-102h-434zM-39 1399l133 133l133 -133l-133 -133zM297 1399l133 133l133 -133l-133 -133zM633 1399l133 133l133 -133l-133 -133zM672 0v102h159v795h-159v102h274v-897h160v-102h-434zM969 1399l133 133l133 -133l-133 -133z
" />
    <glyph glyph-name="zero.zero" horiz-adv-x="1163" 
d="M586 -33q-218 0 -353 194.5t-135 510.5q0 209 61 369t172 247.5t255 87.5q213 0 346 -194.5t133 -509.5q0 -317 -132 -511t-347 -194zM217 676q0 -204 53 -346l570 796q-96 148 -250 148q-172 0 -272.5 -162t-100.5 -436zM324 221q97 -151 266 -151q163 0 259.5 164.5
t96.5 441.5q0 200 -53 342z" />
    <glyph glyph-name="zero.dnom" horiz-adv-x="661" 
d="M334 -16q-122 0 -197.5 108t-75.5 285t75.5 285t197.5 108q119 0 192.5 -108t73.5 -285t-73 -285t-193 -108zM164 379q0 -142 45.5 -221.5t126.5 -79.5q76 0 119 80t43 221q0 139 -43 218t-119 79q-81 0 -126.5 -79t-45.5 -218z" />
    <glyph glyph-name="one.dnom" horiz-adv-x="401" 
d="M242 0v643l-181 -78v90l218 99h61v-754h-98z" />
    <glyph glyph-name="two.dnom" horiz-adv-x="606" 
d="M82 0v115l270 274q90 90 90 172q0 55 -37.5 87t-97.5 32q-58 0 -98.5 -30t-52.5 -81l-95 25q25 83 93 129.5t161 46.5q102 0 166 -58t64 -155q0 -52 -26 -101.5t-97 -123.5l-152 -160l-86 -68l4 -10h357v-94h-463z" />
    <glyph glyph-name="three.dnom" horiz-adv-x="622" 
d="M309 -16q-82 0 -147.5 39.5t-100.5 111.5l84 51q20 -51 63.5 -81.5t98.5 -30.5q65 0 108.5 39t43.5 100q0 63 -46 103t-110 40h-49v78h49q62 0 96.5 36t34.5 91q0 58 -37 88.5t-92 30.5q-80 0 -125 -57l-76 55q74 92 209 92q103 0 163.5 -58.5t60.5 -136.5
q0 -107 -107 -161v-13q131 -56 131 -186q0 -93 -69.5 -162t-182.5 -69z" />
    <glyph glyph-name="four.dnom" horiz-adv-x="643" 
d="M393 0v172h-332v74l312 508h119v-500h90v-82h-90v-172h-99zM168 254h225v270l13 107l-9 4z" />
    <glyph glyph-name="five.dnom" horiz-adv-x="610" 
d="M293 -16q-68 0 -134 36.5t-98 92.5l86 49q22 -44 61 -66t83 -22q71 0 115.5 44.5t44.5 114.5q0 73 -47 116.5t-111 43.5q-71 0 -123 -55l-92 43l51 375h385v-94h-303l-29 -216l11 -4q58 39 116 39q106 0 173 -69.5t67 -178.5t-72 -179t-184 -70z" />
    <glyph glyph-name="six.dnom" horiz-adv-x="636" 
d="M317 -16q-114 0 -185 70.5t-71 185.5q0 48 18 91t68 111l232 314h117l-181 -246l-43 -43l4 -6q31 8 74 8q100 0 162.5 -69.5t62.5 -170.5q0 -107 -72 -176t-186 -69zM164 227q0 -67 43.5 -110t109.5 -43q68 0 112 43t44 110q0 69 -44 112.5t-112 43.5q-66 0 -109.5 -43.5
t-43.5 -112.5z" />
    <glyph glyph-name="seven.dnom" horiz-adv-x="657" 
d="M141 0l291 584l41 63l-4 10h-408v97h535v-62l-348 -692h-107z" />
    <glyph glyph-name="eight.dnom" horiz-adv-x="630" 
d="M315 -16q-113 0 -183.5 60.5t-70.5 152.5q0 68 34.5 121.5t97.5 76.5v8q-49 20 -77 68.5t-28 106.5q0 84 64 139t163 55q98 0 162 -55t64 -139q0 -58 -27.5 -107t-77.5 -68v-8q64 -23 98.5 -76.5t34.5 -121.5q0 -92 -71 -152.5t-183 -60.5zM164 213q0 -62 41.5 -100.5
t109.5 -38.5q69 0 110.5 38.5t41.5 100.5q0 61 -42 99t-110 38t-109.5 -38t-41.5 -99zM190 567q0 -51 34 -83.5t91 -32.5q56 0 89.5 32t33.5 84t-33.5 83.5t-89.5 31.5q-57 0 -91 -32t-34 -83z" />
    <glyph glyph-name="nine.dnom" horiz-adv-x="636" 
d="M141 -2l181 246l43 43l-5 6q-35 -8 -73 -8q-100 0 -163 69t-63 170q0 108 72 177t186 69t185 -70.5t71 -185.5q0 -48 -18 -91.5t-68 -111.5l-231 -313h-117zM164 526q0 -69 43.5 -112t111.5 -43q67 0 110.5 43.5t43.5 111.5q0 67 -44 110.5t-110 43.5q-68 0 -111.5 -43.5
t-43.5 -110.5z" />
    <glyph glyph-name="zero.numr" horiz-adv-x="661" 
d="M334 672q-122 0 -197.5 108t-75.5 285t75.5 285t197.5 108q119 0 192.5 -108t73.5 -285t-73 -285t-193 -108zM164 1067q0 -142 45.5 -221.5t126.5 -79.5q76 0 119 80t43 221q0 139 -43 218t-119 79q-81 0 -126.5 -79t-45.5 -218z" />
    <glyph glyph-name="one.numr" horiz-adv-x="401" 
d="M242 688v643l-181 -78v90l218 99h61v-754h-98z" />
    <glyph glyph-name="two.numr" horiz-adv-x="606" 
d="M82 688v115l270 274q90 90 90 172q0 55 -37.5 87t-97.5 32q-58 0 -98.5 -30t-52.5 -81l-95 25q25 83 93 129.5t161 46.5q102 0 166 -58t64 -155q0 -52 -26 -101.5t-97 -123.5l-152 -160l-86 -67l4 -11h357v-94h-463z" />
    <glyph glyph-name="three.numr" horiz-adv-x="622" 
d="M309 672q-82 0 -147.5 39.5t-100.5 111.5l84 51q20 -51 63.5 -81.5t98.5 -30.5q65 0 108.5 39t43.5 100q0 63 -46 103t-110 40h-49v78h49q62 0 96.5 36t34.5 91q0 58 -37 88.5t-92 30.5q-80 0 -125 -57l-76 55q74 92 209 92q103 0 163.5 -58.5t60.5 -135.5
q0 -108 -107 -162v-12q66 -28 98.5 -77.5t32.5 -109.5q0 -93 -69.5 -162t-182.5 -69z" />
    <glyph glyph-name="four.numr" horiz-adv-x="643" 
d="M393 688v172h-332v74l312 508h119v-500h90v-82h-90v-172h-99zM168 942h225v270l13 107l-9 4z" />
    <glyph glyph-name="five.numr" horiz-adv-x="610" 
d="M293 670q-68 0 -134 36.5t-98 92.5l86 49q22 -44 61 -66t83 -22q71 0 115.5 45t44.5 115q0 73 -47 116t-111 43q-71 0 -123 -55l-92 43l51 375h385v-94h-303l-29 -215l11 -5q58 39 116 39q106 0 173 -69t67 -178t-72 -179.5t-184 -70.5z" />
    <glyph glyph-name="six.numr" horiz-adv-x="636" 
d="M317 670q-114 0 -185 70.5t-71 185.5q0 48 18 91t68 111l232 314h117l-181 -246l-43 -43l4 -6q31 8 74 8q100 0 162.5 -69.5t62.5 -170.5q0 -107 -72 -176t-186 -69zM164 913q0 -67 43.5 -110t109.5 -43q68 0 112 43t44 110q0 69 -44 112.5t-112 43.5q-66 0 -109.5 -43.5
t-43.5 -112.5z" />
    <glyph glyph-name="seven.numr" horiz-adv-x="657" 
d="M141 688l291 584l41 63l-4 11h-408v96h535v-62l-348 -692h-107z" />
    <glyph glyph-name="eight.numr" horiz-adv-x="630" 
d="M315 670q-113 0 -183.5 60.5t-70.5 152.5q0 68 34.5 121.5t97.5 76.5v9q-49 20 -77 68t-28 106q0 84 64 139t163 55q98 0 162 -55t64 -139q0 -58 -27.5 -106.5t-77.5 -67.5v-9q64 -23 98.5 -76.5t34.5 -121.5q0 -92 -71 -152.5t-183 -60.5zM164 899q0 -62 41.5 -100.5
t109.5 -38.5q69 0 110.5 38.5t41.5 100.5q0 61 -42 99t-110 38t-109.5 -38t-41.5 -99zM190 1253q0 -51 34 -83.5t91 -32.5q56 0 89.5 32t33.5 84t-33.5 83.5t-89.5 31.5q-57 0 -91 -32t-34 -83z" />
    <glyph glyph-name="nine.numr" horiz-adv-x="636" 
d="M141 686l181 246l43 43l-5 6q-35 -8 -73 -8q-100 0 -163 69t-63 170q0 108 72 177t186 69t185 -70.5t71 -185.5q0 -48 -18 -91.5t-68 -111.5l-231 -313h-117zM164 1214q0 -69 43.5 -112t111.5 -43q67 0 110.5 43.5t43.5 111.5q0 67 -44 110.5t-110 43.5
q-68 0 -111.5 -43.5t-43.5 -110.5z" />
    <glyph glyph-name="colon.alt" horiz-adv-x="483" 
d="M262 385l139 -139l-139 -140l-139 140zM123 1081l139 140l139 -140l-139 -139z" />
    <glyph glyph-name="ampersand.ss04" horiz-adv-x="1363" 
d="M643 -33q-202 0 -342.5 136.5t-140.5 330.5q0 132 67.5 240t178.5 166q-84 105 -116 171.5t-32 139.5q0 133 103 226t253 93q109 0 195.5 -52.5t128.5 -139.5v-160h-102v119q-28 60 -89 97.5t-133 37.5q-101 0 -171 -64.5t-70 -156.5q0 -57 28 -109.5t91 -128.5l518 -632
q72 101 125 235v143h102v-159q-65 -181 -160 -301l164 -199h-139l-96 117q-156 -150 -363 -150zM274 426q0 -148 107.5 -252t261.5 -104q170 0 297 127l-457 553q-95 -45 -152 -131.5t-57 -192.5z" />
    <glyph glyph-name="brevecomb.cy" 
d="M377 1556q-129 0 -220 86t-91 209h102q0 -83 60 -139.5t149 -56.5q86 0 145.5 56.5t59.5 139.5h102q0 -123 -90.5 -209t-216.5 -86z" />
    <glyph glyph-name="dieresiscomb.case" 
d="M250 1591l-133 133l133 134l133 -134zM571 1724l134 134l133 -134l-133 -133z" />
    <glyph glyph-name="dotaccentcomb.case" 
d="M246 1878l133 -133l-133 -133l-133 133z" />
    <glyph glyph-name="gravecomb.case" 
d="M340 1573l-225 274h147l180 -274h-102z" />
    <glyph glyph-name="acutecomb.case" 
d="M82 1573l180 274h148l-226 -274h-102z" />
    <glyph glyph-name="circumflexcomb.case" 
d="M33 1569l266 274h172l266 -274h-106l-238 192h-16l-238 -192h-106z" />
    <glyph glyph-name="caroncomb.case" 
d="M299 1569l-266 274h106l238 -192h16l238 192h106l-266 -274h-172z" />
    <glyph glyph-name="brevecomb.case" 
d="M377 1556q-129 0 -220 86t-91 209h102q0 -83 60 -139.5t149 -56.5q86 0 145.5 56.5t59.5 139.5h102q0 -123 -90.5 -209t-216.5 -86z" />
    <glyph glyph-name="ringcomb.case" 
d="M303 1421q-83 0 -140 57t-57 140t57 140t140 57t140 -57t57 -140t-57 -140t-140 -57zM205 1618q0 -42 29 -70t69 -28t69 28t29 70q0 40 -29 69t-69 29t-69 -29t-29 -69z" />
    <glyph glyph-name="tildecomb.case" 
d="M74 1589q0 98 55.5 153.5t149.5 55.5q12 0 24.5 -1.5t28.5 -6t26.5 -8t30.5 -11.5t28 -11t32 -13.5t30 -13.5q104 -45 144 -45q98 0 98 106h106q0 -95 -55 -150t-149 -55q-65 0 -201 62q-103 49 -143 49q-99 0 -99 -111h-106z" />
    <glyph glyph-name="cedillacomb.case" 
d="M311 -418q-55 0 -107.5 19t-88.5 55l51 70q28 -25 66.5 -41.5t70.5 -16.5q53 0 82 19.5t29 54.5q0 32 -30.5 51t-84.5 19q-9 0 -49 -5l-51 74l94 152h117l-95 -133l4 -9q86 9 140.5 -33t54.5 -116q0 -70 -57 -115t-146 -45z" />
    <glyph glyph-name="strokeshortcomb.case" 
d="M115 541v102h577v-102h-577z" />
    <glyph glyph-name="soliduslongcomb.case" 
d="M225 -78l-82 66l1094 1536l82 -66z" />
    <glyph glyph-name="dieresiscomb.narrow" 
d="M258 1266l-133 133l133 133l133 -133zM461 1399l133 133l133 -133l-133 -133z" />
    <glyph glyph-name="circumflexcomb.narrow" 
d="M33 1155l160 287h163l160 -287h-94l-139 209h-17l-139 -209h-94z" />
    <glyph glyph-name="dieresiscomb.case.narrow" 
d="M113 1724l133 134l133 -134l-133 -133zM473 1724l133 134l133 -134l-133 -133z" />
    <glyph glyph-name="wsc" horiz-adv-x="1900" 
d="M508 0l-287 897h-160v102h275v-102l192 -598l37 -143h13l49 143l235 598h-119v102h261l282 -700l45 -143h12l33 143l193 598h-160v102h430v-102h-160l-286 -897h-99l-286 705l-45 139h-17l-45 -144l-274 -700h-119z" />
    </font>
</defs>
</svg>
