<?xml version="1.0" standalone="no"?>
<!DOCTYPE svg PUBLIC "-//W3C//DTD SVG 1.1//EN" "http://www.w3.org/Graphics/SVG/1.1/DTD/svg11.dtd" >
<svg xmlns="http://www.w3.org/2000/svg">
<metadata>Generated by IcoMoon</metadata>
<defs>
<font id="Fonts-Icon" horiz-adv-x="1024">
<font-face units-per-em="1024" ascent="960" descent="-64" />
<missing-glyph horiz-adv-x="1024" />
<glyph unicode="&#x20;" horiz-adv-x="512" d="" />
<glyph unicode="&#xe900;" glyph-name="arrow-up" d="M257.291 148.038c-12.482-12.482-32.768-12.482-45.25 0s-12.482 32.768 0 45.25l500.052 500.052h-455.238c-17.658 0-31.994 14.336-31.994 31.994s14.336 31.994 31.994 31.994h532.482c2.532 0 4.999-0.29 7.37-0.855l0.629-0.161c1.129-0.29 2.225-0.645 3.322-1.048l1.887-0.79c0.919-0.419 1.822-0.871 2.709-1.387 0.984-0.564 1.951-1.177 2.887-1.871l5.822-5.451 1.258-1.629c0.677-0.935 1.306-1.903 1.871-2.887 0.5-0.871 0.968-1.774 1.387-2.709l0.79-1.887c0.403-1.080 0.758-2.177 1.048-3.322l0.161-0.629c0.564-2.419 0.855-4.886 0.855-7.37v-532.482c0-17.658-14.336-31.994-31.994-31.994s-31.994 14.336-31.994 31.994v455.238l-500.052-500.052z" />
<glyph unicode="&#xe901;" glyph-name="arrow-down" d="M212.040 702.71c-12.481 12.481-12.481 32.768 0 45.249s32.768 12.481 45.249 0l500.051-500.051v455.237c0 17.658 14.336 31.994 31.994 31.994s31.994-14.336 31.994-31.994v-532.48c0-2.532-0.29-4.999-0.855-7.37l-0.161-0.629c-0.29-1.129-0.645-2.225-1.048-3.322l-0.79-1.887c-0.419-0.919-0.871-1.822-1.387-2.709-0.564-0.984-1.177-1.951-1.871-2.887l-7.079-7.079c-0.935-0.677-1.903-1.306-2.887-1.871-0.871-0.5-1.774-0.968-2.709-1.387l-1.887-0.79c-1.080-0.403-2.177-0.758-3.322-1.048l-0.629-0.161c-2.419-0.564-4.886-0.855-7.37-0.855h-532.48c-17.658 0-31.994 14.336-31.994 31.994s14.336 31.994 31.994 31.994h455.237l-500.051 500.051z" />
<glyph unicode="&#xe902;" glyph-name="google" d="M677.566 648.752c-22.996 18.98-49.249 34.090-77.614 44.282-26.898 9.643-56.538 14.933-87.967 14.933-71.874 0-136.925-29.059-183.949-76.002l0.145-0.145c-47.040-47.040-76.147-112.044-76.147-183.804s29.107-136.78 76.147-183.821l-0.145-0.145c47.023-46.943 112.076-76.002 183.949-76.002 71.777 0 136.78 29.107 183.821 76.147l0.145-0.145c30.494 30.543 53.441 68.713 65.778 111.399h-253.501v145.134h408.859v-72.567c0-111.64-45.379-212.863-118.655-286.156v-0.29c-73.293-73.293-174.596-118.655-286.446-118.655-111.64 0-212.847 45.379-286.14 118.655h-0.29c-73.293 73.293-118.655 174.613-118.655 286.446s45.362 213.137 118.655 286.43h0.29c73.293 73.277 174.499 118.655 286.14 118.655 47.394 0 93.482-8.482 136.732-23.996 44.411-15.949 85.21-39.364 120.703-68.664l-91.854-111.689z" />
<glyph unicode="&#xe903;" glyph-name="facebook" d="M733.719 810.673v-128.009h-128.009c-5.773 0-11.337-1.097-16.32-3.161h-0.161c-4.854-2-9.53-5.176-13.691-9.337s-7.337-8.837-9.337-13.691v-0.161c-2.064-4.983-3.161-10.546-3.161-16.32v-85.758h170.533l-4.66-46.83-8.402-84.468-3.822-38.509h-153.649v-341.775h-170.662v341.775h-102.11l4.66 46.83 12.256 122.977h85.194v85.758c0 28.011 5.66 55.715 16.32 81.485 10.643 25.705 26.269 49.281 46.153 69.197v0.177c19.803 19.803 43.476 35.429 69.374 46.153 25.769 10.675 53.442 16.336 81.485 16.336h128.009v-42.67z" />
<glyph unicode="&#xe904;" glyph-name="star" d="M362.407 744.539l0.339 0.532c60.109 107.809 90.199 161.75 149.256 161.75 59.045 0 89.123-53.892 149.196-161.617l0.157-0.29 13.993-25.084c7.196-12.917 12.614-22.629 17.525-30.030 3.326-4.995 6.096-8.345 8.962-10.534l-0.048-0.060c2.6-1.947 6.35-3.568 11.828-5.285 8.236-2.588 18.686-4.971 32.594-8.091l27.914-6.325c116.432-26.341 174.679-39.669 192.615-97.226v-0.133c9.373-30.187 2.104-58.645-19.411-92.861-17.561-27.89-45.051-60.061-81.685-102.899l-18.735-21.867c-17.319-20.27-26.051-30.49-28.603-38.726-1.197-3.87-1.596-8.514-1.476-14.779 0.169-8.466 1.294-19.919 2.758-35.146l2.733-28.023 0.109-1.052c11.913-123.241 17.863-184.886-28.99-220.431-47.942-36.428-102.875-11.139-212.558 39.367l-0.544 0.314-24.926 11.429h-0.121c-13.388 6.18-23.439 10.824-30.744 13.473-5.152 1.875-9.059 2.818-12.542 2.818s-7.39-0.943-12.554-2.818c-7.293-2.649-17.367-7.293-30.768-13.473l-25.386-11.683c-50.542-23.257-88.482-40.734-119.262-49.55-38.75-11.103-67.777-9.373-93.429 10.075-46.878 35.582-40.927 97.214-29.026 220.419l0.024 0.254 2.697 27.575 0.121 1.282c2.649 27.369 3.967 41.084 1.246 49.768v0.133c-2.516 8.188-10.994 18.202-27.756 37.795l-1.016 1.173-18.516 21.673c-36.634 42.802-64.112 74.961-81.685 102.875-21.528 34.215-28.797 62.661-19.424 92.884v0.133c9.555 30.671 31.832 49.575 69.18 64.294 29.764 11.731 70.292 20.911 124.269 33.114l27.128 6.144c13.872 3.12 24.298 5.503 32.534 8.091 5.334 1.681 9.095 3.338 11.925 5.479l0.012-0.024c2.806 2.177 5.539 5.503 8.817 10.425 4.91 7.402 10.329 17.113 17.525 30.030l13.788 24.685-0.036 0.024zM418.718 714.461l-0.302-0.556-14.005-25.084c-8.139-14.61-14.271-25.616-20.016-34.263-7.317-11.006-14.416-19.145-23.463-26.039l-0.121-0.133c-9.143-6.918-18.891-11.526-31.421-15.469-9.651-3.036-21.625-5.769-37.541-9.349l-27.128-6.144c-50.966-11.514-89.22-20.185-115.029-30.357-18.238-7.184-28.482-14.356-31.421-23.802l-0.036 0.012c-2.999-9.893 1.415-22.435 12.469-40.008 15.070-23.947 41.266-54.582 76.17-95.376l17.96-21.032 0.605-0.689c23.076-26.97 34.711-40.564 41.193-61.56l0.036 0.012c6.325-20.137 4.814-37.819 1.5-72.155l-0.254-2.637-2.818-28.845-0.024-0.254c-9.639-99.742-14.441-149.643 4.040-163.673 6.966-5.285 18.879-4.62 37.408 0.689 26.487 7.583 62.298 24.080 110.022 46.043l25.386 11.683c14.513 6.688 25.434 11.731 35.775 15.481 12.493 4.547 23.003 6.809 34.3 6.809s21.806-2.262 34.287-6.809c10.341-3.749 21.262-8.793 35.751-15.481l-0.024-0.048 25.592-11.744 0.024 0.048c86.571-39.863 129.917-59.819 147.297-46.624 18.432 13.969 13.691 63.64 4.088 162.826l-0.109 1.052-2.818 28.881c-1.596 16.472-2.794 28.881-3.024 39.887-0.254 13.243 0.883 23.983 4.233 34.783 6.507 20.972 18.069 34.517 40.988 61.342l0.327 0.387 18.529 21.625c34.904 40.818 61.101 71.465 76.17 95.4 11.042 17.561 15.457 30.103 12.457 39.984l-0.036-0.012c-7.039 22.592-53.457 33.126-146.353 54.146l-0.786 0.181-26.39 5.975c-15.94 3.58-27.938 6.313-37.601 9.349-12.36 3.882-22.072 8.526-31.397 15.602h-0.121c-9.059 6.894-16.158 15.033-23.475 26.039-5.745 8.647-11.877 19.653-20.016 34.263l-14.102 25.277c-47.845 85.797-71.78 128.72-93.489 128.72-21.661 0-45.584-42.802-93.283-128.357zM204.165 253.219l0.133 1.342z" />
<glyph unicode="&#xe905;" glyph-name="favorites" d="M490.749 38.198l-61.862 55.464h-0.121c-35.327 31.82-68.285 62.116-98.786 90.792-31.203 29.329-58.101 55.283-80.608 77.791-22.967 22.967-44.471 45.777-64.438 68.309-19.363 21.866-36.247 42.463-50.554 61.741-14.477 19.496-26.982 38.532-37.456 57.097-10.679 18.903-19.085 37.021-25.156 54.315-6.144 17.476-10.752 35.037-13.775 52.61-2.999 17.428-4.523 35.424-4.535 53.892h-0.121c0 75.674 25.531 139.048 76.569 190.086 25.386 25.386 54.146 44.531 86.22 57.4 31.844 12.772 66.482 19.169 103.878 19.169 20.451 0 40.806-2.262 61.015-6.737 19.895-4.414 39.282-11.042 58.077-19.847 18.928-8.841 36.452-19.46 52.55-31.772 7.039-5.382 13.812-11.090 20.355-17.138 6.543 6.047 13.316 11.756 20.355 17.138 16.097 12.312 33.622 22.931 52.55 31.772 18.795 8.805 38.182 15.432 58.077 19.847 20.21 4.475 40.564 6.737 61.015 6.737 75.674 0 139.048-25.531 190.086-76.569l-0.073-0.060c25.507-25.507 44.688-54.243 57.484-86.147 12.772-31.844 19.169-66.482 19.169-103.878 0-18.008-1.548-35.993-4.632-53.904-3.072-17.754-7.68-35.352-13.8-52.731-6.023-17.053-14.416-35.134-25.18-54.182-10.474-18.565-22.955-37.601-37.432-57.097-14.308-19.278-31.191-39.887-50.554-61.741-19.968-22.532-41.471-45.341-64.438-68.309-22.507-22.507-49.405-48.462-80.608-77.791-30.502-28.675-63.459-58.971-98.786-90.792h-0.121l-83.112-74.525-21.25 19.061zM471.459 141.108l40.54-36.355 40.54 36.355-0.048 0.060c36.367 32.763 68.974 62.709 97.77 89.776 28.252 26.559 54.642 52.090 79.109 76.557 23.935 23.935 44.604 45.728 61.947 65.309 17.936 20.258 33.658 39.439 47.047 57.484 13.231 17.815 24.285 34.602 33.175 50.348 8.599 15.227 15.42 29.982 20.439 44.192 4.898 13.896 8.587 27.986 11.042 42.209 2.419 14.066 3.64 28.482 3.64 43.164 0 29.437-4.814 56.154-14.428 80.125-9.579 23.862-24.019 45.462-43.273 64.704h-0.133c-38.532 38.532-86.825 57.823-144.829 57.823-16.521 0-32.304-1.681-47.276-4.995-15.275-3.386-30.236-8.514-44.821-15.348-14.477-6.761-28.095-15.045-40.794-24.757-12.554-9.603-24.128-20.657-34.723-33.114l-24.382-28.675-24.382 28.675c-10.595 12.457-22.169 23.511-34.723 33.114-12.699 9.712-26.317 17.996-40.794 24.757-14.586 6.833-29.546 11.961-44.821 15.348-14.973 3.314-30.756 4.995-47.276 4.995-29.437 0-56.154-4.814-80.125-14.428-23.717-9.518-45.329-24.007-64.716-43.394-38.532-38.532-57.823-86.825-57.823-144.829h-0.121c0-14.199 1.282-28.603 3.786-43.152 2.479-14.404 6.168-28.555 11.018-42.354 4.922-13.993 11.731-28.688 20.415-44.059 8.877-15.735 19.968-32.534 33.199-50.348 13.388-18.045 29.111-37.226 47.047-57.484 17.343-19.581 38.012-41.374 61.947-65.309 24.467-24.467 50.856-49.998 79.109-76.557 28.796-27.067 61.403-57.012 97.77-89.776l-0.048-0.060z" />
<glyph unicode="&#xe906;" glyph-name="map" d="M511.988 846.193c-85.35 0-162.705-34.686-218.713-90.671-55.948-55.9-90.61-133.194-90.61-218.447l-0.121-0.121c-0.992-225.026 239.552-420.41 309.348-472.56 69.107 52.344 310.545 251.101 309.553 472.355l-0.121 0.121c0 85.252-34.699 162.596-90.719 218.604-56.021 56.021-133.352 90.719-218.616 90.719zM248.284 800.779c67.571 67.547 160.866 109.417 263.704 109.417 102.934 0 196.29-41.883 263.873-109.466 67.595-67.583 109.466-160.939 109.466-263.861h-0.121c1.209-291.63-353.843-537.422-354.846-538.121l-18.371-12.941-19.23 13.546c-23.366 16.472-355.161 250.521-353.976 537.725h-0.121c0 102.753 41.943 196.073 109.622 263.704zM511.988 334.205c-55.972 0-106.66 22.689-143.317 59.347s-59.347 87.345-59.347 143.317c0 55.972 22.689 106.66 59.347 143.317s87.345 59.347 143.317 59.347c55.972 0 106.66-22.689 143.317-59.347s59.347-87.345 59.347-143.317c0-55.851-22.701-106.502-59.419-143.245l0.073-0.073c-36.658-36.658-87.333-59.347-143.317-59.347zM413.927 438.808c25.071-25.071 59.758-40.601 98.060-40.601 38.315 0 72.989 15.529 98.060 40.601h0.133c24.999 24.999 40.467 59.673 40.467 98.060 0 38.303-15.529 72.989-40.601 98.060s-59.758 40.601-98.060 40.601c-38.303 0-72.989-15.529-98.060-40.601s-40.601-59.758-40.601-98.060c0-38.303 15.529-72.989 40.601-98.060z" />
<glyph unicode="&#xe907;" glyph-name="share" d="M684.077 699.997l1.983-3.398c3.979-6.495 8.696-12.469 14.054-17.827 17.367-17.367 41.375-28.119 67.885-28.119 26.499 0 50.506 10.752 67.873 28.119s28.119 41.375 28.119 67.885c0 26.595-10.703 50.602-27.986 67.873l-0.133 0.133c-17.271 17.283-41.278 27.986-67.873 27.986-26.511 0-50.518-10.752-67.885-28.119s-28.119-41.375-28.119-67.873c0-16.932 4.39-32.848 12.082-46.66zM648.665 640.070l-241.088-140.693c5.467-16.134 8.43-33.404 8.43-51.377 0-17.984-2.975-35.279-8.442-51.413l241.184-140.547c1.983 2.201 4.015 4.354 6.108 6.446 28.942 28.942 68.962 46.865 113.142 46.865 44.168 0 84.189-17.924 113.13-46.865s46.865-68.962 46.865-113.142c0-44.168-17.924-84.189-46.865-113.13s-68.962-46.865-113.13-46.865c-43.14 0-82.362 17.174-111.146 45.039-0.689 0.581-1.355 1.185-1.996 1.826-28.942 28.942-46.865 68.962-46.865 113.13 0 18.057 2.987 35.4 8.502 51.594l-241.124 140.512c-2.020-2.25-4.088-4.439-6.229-6.579-28.942-28.942-68.962-46.865-113.142-46.865-44.011 0-83.946 17.887-112.961 46.829l-0.169 0.169c-28.954 29.002-46.865 68.974-46.865 112.997 0 44.011 17.887 83.946 46.829 112.961l0.169 0.169c29.002 28.954 68.962 46.865 112.997 46.865 44.18 0 84.201-17.924 113.142-46.865 2.116-2.116 4.173-4.281 6.168-6.519l241.1 140.693c-5.455 16.122-8.418 33.392-8.418 51.352 0 44.168 17.924 84.189 46.865 113.13s68.962 46.865 113.142 46.865c43.999 0 83.946-17.887 112.961-46.829l0.169-0.169c28.954-29.002 46.865-68.962 46.865-112.997 0-44.18-17.924-84.201-46.865-113.142s-68.962-46.865-113.13-46.865c-44.18 0-84.201 17.924-113.142 46.865-2.129 2.129-4.197 4.306-6.192 6.555zM339.849 494.757l-1.887 3.241c-3.979 6.519-8.72 12.518-14.078 17.875-17.367 17.367-41.375 28.119-67.885 28.119-26.595 0-50.602-10.703-67.873-27.986l-0.133-0.133c-17.283-17.271-27.986-41.278-27.986-67.873s10.703-50.602 27.986-67.873l0.133-0.133c17.271-17.283 41.278-27.986 67.873-27.986 26.511 0 50.518 10.752 67.885 28.119 5.6 5.6 10.498 11.877 14.598 18.722l0.822 1.415c8.091 14.054 12.699 30.357 12.699 47.736 0 16.968-4.427 32.921-12.155 46.757zM767.999 53.352c26.499 0 50.506 10.752 67.873 28.119s28.119 41.375 28.119 67.873c0 26.511-10.752 50.518-28.119 67.885s-41.375 28.119-67.873 28.119c-26.511 0-50.518-10.752-67.885-28.119-4.777-4.777-9.047-10.050-12.735-15.747-0.532-1.258-1.149-2.504-1.85-3.725-0.75-1.306-1.584-2.516-2.491-3.677-7.051-13.352-11.042-28.591-11.042-44.737 0-26.499 10.752-50.506 28.119-67.873l1.427-1.524c17.246-16.472 40.661-26.595 66.458-26.595z" />
<glyph unicode="&#xe908;" glyph-name="close" d="M360.878 245.579c-14.165-14.165-37.135-14.165-51.3 0s-14.165 37.135 0 51.3l151.122 151.122-151.122 151.122c-14.165 14.165-14.165 37.135 0 51.3s37.135 14.165 51.3 0l151.122-151.122 151.122 151.122c14.165 14.165 37.135 14.165 51.3 0s14.165-37.135 0-51.3l-151.122-151.122 151.122-151.122c14.165-14.165 14.165-37.135 0-51.3s-37.135-14.165-51.3 0l-151.122 151.122-151.122-151.122zM511.981 959.335c141.166 0 269.009-57.26 361.536-149.787 92.537-92.537 149.787-220.38 149.787-361.546s-57.25-269.009-149.787-361.546c-92.527-92.527-220.37-149.787-361.536-149.787-141.156 0-268.999 57.26-361.526 149.787-92.527 92.537-149.777 220.38-149.777 361.546s57.25 269.009 149.777 361.546c92.527 92.527 220.37 149.787 361.526 149.787zM822.217 758.248c-79.388 79.388-189.089 128.52-310.236 128.52-121.138 0-230.839-49.132-310.227-128.52-79.388-79.397-128.51-189.099-128.51-310.246s49.123-230.849 128.51-310.246c79.388-79.388 189.089-128.52 310.227-128.52 121.147 0 230.849 49.132 310.236 128.52 79.397 79.397 128.52 189.099 128.52 310.246s-49.123 230.849-128.52 310.246z" />
<glyph unicode="&#xe909;" glyph-name="search" d="M617.647 334.15l-11.524-9.917c-15.258-13.139-32.161-24.663-50.332-34.358-17.958-9.588-36.941-17.203-56.553-22.641-19.699-5.457-39.912-8.718-60.22-9.724-20.319-1.026-40.695 0.184-60.695 3.609v0.010c-59.321 10.034-112.72 39.863-153.028 82.058-40.076 41.963-67.351 96.301-74.724 155.689l-0.039 0.813c-2.651 21.044-2.893 42.205-0.764 62.997h0.010c2.148 21.015 6.657 41.682 13.449 61.536 6.879 20.086 15.994 39.234 27.091 57.037 11.204 17.958 24.363 34.561 39.224 49.423s31.465 28.020 49.423 39.224c17.803 11.098 36.951 20.212 57.037 27.091 19.854 6.792 40.521 11.301 61.536 13.449v0.010c20.793 2.129 41.953 1.887 62.997-0.764l0.813-0.039c59.379-7.373 113.736-34.648 155.689-74.724 42.195-40.308 72.025-93.707 82.058-153.028h0.010c3.425-19.999 4.635-40.376 3.609-60.695-1.006-20.309-4.267-40.521-9.724-60.22-5.438-19.622-13.052-38.595-22.641-56.553-9.705-18.161-21.228-35.074-34.367-50.332l-0.048 0.039-9.946-11.562h55.557l181.716-182.606c8.253-8.65 12.404-19.825 12.404-30.933 0-11.504-4.393-23.066-13.12-31.794s-20.299-13.12-31.784-13.12c-11.485 0-23.057 4.393-31.784 13.12l-181.329 181.338v55.566zM233.644 534.579c0-53.157 21.441-101.187 56.108-135.893 34.706-34.667 82.735-56.108 135.893-56.108 53.186 0 101.187 21.412 135.835 56.060l0.106 0.106c34.648 34.648 56.060 82.658 56.060 135.835 0 53.157-21.441 101.187-56.108 135.893-34.706 34.667-82.735 56.108-135.893 56.108s-101.187-21.441-135.893-56.108l0.048-0.048c-34.706-34.706-56.157-82.726-56.157-135.844z" />
<glyph unicode="&#xe90a;" glyph-name="filter" d="M422.724 277.042l3.309 0.194 1.403 0.097h169.873c5.273 0 10.546-1.035 15.578-3.019l0.010 0.010c5.022-1.974 9.676-4.925 13.613-8.65l0.097-0.097c3.919-3.725 7.102-8.147 9.347-13.004 2.206-4.751 3.561-10.005 3.87-15.5 0.31-5.341-0.387-10.672-2.022-15.665l-0.106-0.097c-1.722-5.186-4.315-9.946-7.721-14-3.309-3.967-7.344-7.315-11.804-9.811l-0.039 0.077c-4.441-2.506-9.318-4.199-14.349-4.983l-2.496-0.3-3.309-0.194-1.403-0.097h-169.873c-5.273 0-10.585 1.074-15.674 3.096l-0.029-0.087c-4.905 1.935-9.492 4.867-13.497 8.65-3.986 3.744-7.189 8.224-9.453 13.091-2.206 4.76-3.561 10.043-3.87 15.51-0.3 5.234 0.397 10.566 2.071 15.645l-0.039 0.010c1.645 5.012 4.306 9.792 7.818 14.010v0.097c3.232 3.87 7.257 7.15 11.814 9.724v0.097c4.441 2.487 9.356 4.219 14.484 4.993l2.4 0.203zM342.098 490.667l340.657-0.097c5.525-0.019 10.827-1.026 15.597-2.912l0.097-0.097c4.925-1.964 9.482-4.867 13.391-8.553 3.986-3.764 7.199-8.215 9.453-13.101 2.206-4.751 3.561-10.024 3.87-15.51 0.31-5.418-0.397-10.798-2.032-15.752l-0.029 0.010c-1.645-4.993-4.296-9.724-7.789-13.913v-0.097c-3.338-3.986-7.363-7.334-11.814-9.821l-0.039 0.077c-4.606-2.593-9.501-4.325-14.446-5.070l-2.303-0.203-4.809-0.3-340.647 0.097c-5.534 0.019-10.837 1.035-15.597 2.912l-0.097 0.097c-4.905 1.964-9.492 4.867-13.401 8.553-3.986 3.764-7.189 8.244-9.443 13.091l0.039 0.019c-2.264 4.867-3.59 10.101-3.919 15.403v0.097c-0.31 5.389 0.406 10.701 2.032 15.665l0.106 0.194c1.693 5.070 4.306 9.821 7.721 13.894l0.048-0.039c3.386 4.064 7.392 7.421 11.756 9.859l0.039-0.077c4.606 2.593 9.492 4.325 14.446 5.070l2.303 0.203 4.809 0.3zM214.1 704.003h596.545c5.438 0 10.769-1.064 15.694-3.009l0.097-0.097c4.915-1.964 9.472-4.857 13.401-8.563 3.977-3.735 7.189-8.205 9.453-13.091 2.206-4.751 3.561-10.024 3.87-15.51 0.31-5.37-0.406-10.701-2.032-15.665-1.645-5.022-4.306-9.782-7.818-14v-0.097c-3.232-3.861-7.266-7.15-11.814-9.724v-0.097c-4.451-2.487-9.366-4.228-14.484-4.993l-2.4-0.203-3.309-0.194-1.403-0.097-596.641 0.097c-5.534 0.019-10.837 1.035-15.597 2.912l-0.097 0.097c-4.905 1.964-9.492 4.867-13.401 8.553-3.986 3.773-7.189 8.215-9.453 13.091-2.206 4.76-3.561 10.043-3.87 15.51-0.31 5.38 0.406 10.701 2.032 15.665 1.645 5.022 4.306 9.782 7.818 14l0.097 0.097c3.406 4.044 7.382 7.382 11.717 9.811l0.039-0.077c4.441 2.506 9.308 4.199 14.349 4.983l2.4 0.3 4.809 0.3z" />
<glyph unicode="&#xe90b;" glyph-name="arrow-up-down" d="M707.232 572.766c9.995 9.995 26.211 9.995 36.206 0s9.995-26.211 0-36.206l-213.336-213.326c-9.995-9.995-26.211-9.995-36.206 0l-213.336 213.326c-9.995 9.995-9.995 26.211 0 36.206s26.211 9.995 36.206 0l195.233-195.223 195.233 195.223z" />
<glyph unicode="&#xe90c;" glyph-name="Instagram-small" d="M669.413 763.732h-314.822c-43.782 0-83.374-17.687-111.946-46.268v-0.106c-28.64-28.64-46.375-68.232-46.375-111.946v-314.822c0-43.714 17.735-83.306 46.375-111.946s68.232-46.365 111.956-46.365h314.795c43.724 0 83.326 17.735 111.965 46.375s46.375 68.232 46.375 111.956v314.803c0 43.724-17.726 83.316-46.365 111.956s-68.232 46.365-111.956 46.365zM354.59 814.935h314.822c57.86 0 110.253-23.454 148.162-61.362s61.362-90.302 61.362-148.162v-314.803c0-57.86-23.463-110.253-61.372-148.162s-90.311-61.372-148.171-61.372h-314.795c-57.86 0-110.253 23.454-148.162 61.362s-61.372 90.302-61.372 148.152v314.822c0 57.85 23.463 110.243 61.372 148.152l0.058-0.058c37.957 37.947 90.35 61.43 148.094 61.43zM516.143 277.535c45.988 0 87.602 18.616 117.713 48.687 30.071 30.11 48.687 71.725 48.687 117.713s-18.616 87.602-48.687 117.713c-30.11 30.071-71.725 48.687-117.713 48.687s-87.602-18.616-117.713-48.687c-30.071-30.11-48.687-71.725-48.687-117.713s18.616-87.602 48.687-117.713c30.11-30.071 71.725-48.687 117.713-48.687zM669.906 290.064c-39.379-39.37-93.746-63.733-153.764-63.733s-114.384 24.363-153.764 63.733l-0.106 0.106c-39.37 39.379-63.733 93.746-63.733 153.764s24.363 114.384 63.733 153.764l0.106 0.106c39.379 39.37 93.746 63.733 153.764 63.733s114.384-24.363 153.764-63.733l0.106-0.106c39.37-39.379 63.733-93.746 63.733-153.764s-24.363-114.384-63.733-153.764l-0.106-0.106zM706.509 600.774c23.56 0 42.669 19.1 42.669 42.669 0 23.56-19.109 42.669-42.669 42.669-23.57 0-42.669-19.109-42.669-42.669 0-23.57 19.1-42.669 42.669-42.669z" />
<glyph unicode="&#xe90d;" glyph-name="favorites-big" d="M509.824 199.562l-37.275 33.421h-0.073c-21.286 19.174-41.145 37.428-59.521 54.707-18.803 17.674-35.010 33.308-48.572 46.87-13.844 13.844-26.793 27.584-38.831 41.162-11.667 13.175-21.835 25.584-30.462 37.203-8.716 11.748-16.255 23.221-22.568 34.405-6.434 11.393-11.498 22.302-15.158 32.728-3.701 10.53-6.475 21.109-8.297 31.696-1.806 10.506-2.725 21.351-2.733 32.478h-0.073c0 45.596 15.384 83.783 46.136 114.535 15.296 15.296 32.623 26.834 51.95 34.582 19.19 7.7 40.057 11.554 62.593 11.554 12.32 0 24.592-1.363 36.767-4.056 11.99-2.661 23.665-6.66 34.993-11.966 11.401-5.322 21.964-11.724 31.663-19.142 4.241-3.241 8.321-6.684 12.264-10.329 3.943 3.644 8.023 7.087 12.264 10.329 9.7 7.418 20.262 13.82 31.663 19.142 11.329 5.305 23.004 9.305 34.993 11.966 12.183 2.693 24.447 4.056 36.767 4.056 45.596 0 83.783-15.384 114.535-46.136l-0.040-0.040c15.368-15.368 26.922-32.679 34.631-51.902 7.7-19.19 11.554-40.065 11.554-62.593 0-10.853-0.935-21.689-2.79-32.478-1.854-10.7-4.628-21.302-8.313-31.776-3.628-10.272-8.692-21.173-15.175-32.647-6.313-11.183-13.836-22.657-22.552-34.405-8.627-11.619-18.795-24.036-30.462-37.203-12.038-13.578-24.987-27.318-38.831-41.162-13.562-13.562-29.769-29.196-48.572-46.87-18.376-17.279-38.235-35.534-59.521-54.707h-0.073l-50.079-44.903-12.804 11.482zM498.198 261.574l24.431-21.907 24.431 21.907-0.032 0.032c21.915 19.746 41.557 37.791 58.908 54.095 17.029 16.005 32.929 31.389 47.668 46.128 14.425 14.425 26.874 27.559 37.324 39.356 10.812 12.207 20.287 23.762 28.349 34.639 7.974 10.732 14.634 20.851 19.988 30.333 5.185 9.176 9.297 18.069 12.32 26.632 2.951 8.369 5.176 16.86 6.652 25.431 1.459 8.474 2.193 17.166 2.193 26.011 0 17.739-2.903 33.832-8.692 48.281-5.773 14.376-14.473 27.39-26.076 38.985h-0.081c-23.213 23.213-52.313 34.84-87.266 34.84-9.958 0-19.464-1.016-28.487-3.007-9.208-2.040-18.222-5.136-27.011-9.248-8.716-4.072-16.924-9.063-24.576-14.917-7.563-5.789-14.538-12.449-20.923-19.956l-14.691-17.279-14.691 17.279c-6.386 7.507-13.36 14.167-20.923 19.956-7.652 5.854-15.86 10.845-24.576 14.917-8.789 4.112-17.803 7.208-27.011 9.248-9.022 1.992-18.529 3.007-28.487 3.007-17.739 0-33.832-2.903-48.281-8.692-14.288-5.733-27.309-14.465-38.993-26.148-23.213-23.221-34.84-52.313-34.84-87.266h-0.073c0-8.555 0.774-17.239 2.282-26.003 1.492-8.676 3.717-17.206 6.636-25.519 2.967-8.434 7.071-17.287 12.304-26.552 5.346-9.474 12.030-19.601 20.004-30.333 8.063-10.877 17.537-22.431 28.349-34.639 10.45-11.796 22.899-24.931 37.324-39.356 14.739-14.739 30.639-30.123 47.668-46.128 17.352-16.303 36.993-34.348 58.908-54.095l-0.032-0.032zM511.993 959.999c141.352 0 269.378-57.328 362.029-149.98s149.98-220.66 149.98-362.022c0-141.361-57.328-269.368-149.98-362.022-92.652-92.652-220.676-149.98-362.029-149.98-141.344 0-269.36 57.328-362.014 149.98-92.652 92.652-149.98 220.66-149.98 362.022s57.328 269.368 149.98 362.022c92.652 92.652 220.668 149.98 362.014 149.98zM831.119 767.116c-81.67 81.67-194.512 132.201-319.125 132.201-124.598 0-237.439-50.531-319.11-132.201s-132.201-194.512-132.201-319.118c0-124.606 50.531-237.447 132.201-319.118s194.512-132.201 319.11-132.201c124.614 0 237.455 50.531 319.125 132.201s132.201 194.512 132.201 319.118c0 124.606-50.531 237.447-132.201 319.118z" />
<glyph unicode="&#xe90e;" glyph-name="account" d="M511.992 960c141.352 0 269.376-57.328 362.029-149.98s149.98-220.66 149.98-362.019c0-141.36-57.328-269.369-149.98-362.019-92.652-92.652-220.676-149.98-362.029-149.98-141.344 0-269.36 57.328-362.012 149.98s-149.98 220.66-149.98 362.019c0 141.36 57.328 269.369 149.98 362.019 92.652 92.652 220.668 149.98 362.012 149.98zM831.118 767.117c-81.67 81.67-194.512 132.201-319.126 132.201-124.597 0-237.439-50.531-319.109-132.201s-132.201-194.512-132.201-319.116c0-124.605 50.531-237.447 132.201-319.116s194.512-132.201 319.109-132.201c124.613 0 237.455 50.531 319.126 132.201s132.201 194.512 132.201 319.116c0 124.605-50.531 237.447-132.201 319.116zM316.408 190.493c0-11.78-9.555-21.335-21.335-21.335s-21.335 9.555-21.335 21.335v28.446c0 52.909 21.504 100.908 56.239 135.676l0.089 0.089c34.768 34.735 82.767 56.239 135.676 56.239h113.777c53.006 0 101.021-21.496 135.765-56.239 34.735-34.735 56.231-82.759 56.231-135.765v-28.446c0-11.78-9.555-21.335-21.335-21.335s-21.335 9.555-21.335 21.335v28.446c0 41.234-16.723 78.582-43.734 105.593-27.019 27.019-64.359 43.742-105.593 43.742h-113.777c-41.291 0-78.63-16.682-105.593-43.653l-0.089-0.089c-26.971-26.963-43.653-64.302-43.653-105.593v-28.446zM522.643 453.612c-37.203 0-70.962 15.118-95.45 39.573l-0.089 0.089c-24.455 24.487-39.573 58.247-39.573 95.45 0 37.307 15.126 71.091 39.573 95.538l0.048-0.048c24.495 24.479 58.263 39.621 95.49 39.621 37.243 0 71.003-15.134 95.45-39.573h0.089c24.447-24.447 39.573-58.231 39.573-95.538 0-37.227-15.142-70.995-39.621-95.49l0.048-0.048c-24.447-24.447-58.231-39.573-95.538-39.573zM457.277 523.268c16.666-16.666 39.783-26.987 65.367-26.987 25.527 0 48.644 10.353 65.367 27.075h0.089c16.666 16.666 26.987 39.783 26.987 65.367 0 25.527-10.353 48.644-27.075 65.367l0.040 0.040c-16.731 16.698-39.855 27.035-65.407 27.035-25.584 0-48.7-10.321-65.367-26.987v-0.089c-16.723-16.723-27.075-39.839-27.075-65.367 0-25.584 10.321-48.7 26.987-65.367l0.089-0.089z" />
<glyph unicode="&#xe90f;" glyph-name="YouTube" d="M511.993 960c141.352 0 269.376-57.328 362.029-149.98s149.98-220.659 149.98-362.020-57.328-269.37-149.98-362.020c-92.652-92.652-220.677-149.98-362.029-149.98-141.344 0-269.361 57.328-362.012 149.98s-149.98 220.659-149.98 362.020 57.328 269.37 149.98 362.020c92.652 92.652 220.668 149.98 362.012 149.98zM831.118 767.117c-81.67 81.67-194.512 132.201-319.125 132.201-124.598 0-237.44-50.531-319.109-132.201s-132.201-194.512-132.201-319.118c0-124.606 50.531-237.446 132.201-319.118 81.67-81.67 194.512-132.201 319.109-132.201 124.614 0 237.455 50.531 319.125 132.201s132.201 194.512 132.201 319.118c0 124.606-50.531 237.446-132.201 319.118zM245.333 447.999c0-23.617 0.056-45.032 0.645-61.867v-0.081c0.629-18.061 1.83-34.227 4.104-48.386 2.177-13.53 5.443-25.834 10.466-36.566 4.685-9.982 11.070-18.827 19.819-26.294 8.7-7.426 19.416-13.159 32.050-17.634 13.675-4.838 29.47-8.224 47.29-10.651 18.779-2.556 40.541-4.209 65.568-5.209 24.237-0.968 53.24-1.314 86.726-1.314s62.488 0.347 86.726 1.314c25.028 1 46.79 2.653 65.568 5.209 17.819 2.427 33.607 5.813 47.281 10.651 12.643 4.475 23.359 10.208 32.050 17.634 8.748 7.466 15.142 16.311 19.827 26.294 5.023 10.732 8.289 23.036 10.458 36.566 2.274 14.167 3.483 30.325 4.112 48.386v0.081c0.589 16.836 0.645 38.251 0.645 61.867s-0.056 45.032-0.645 61.867v0.081c-0.629 18.061-1.838 34.236-4.112 48.394-2.169 13.522-5.434 25.826-10.458 36.558-4.685 9.982-11.079 18.827-19.827 26.302-8.684 7.426-19.4 13.151-32.050 17.626-13.675 4.838-29.462 8.224-47.281 10.651-18.779 2.556-40.541 4.209-65.568 5.209-24.237 0.968-53.24 1.314-86.726 1.314s-62.488-0.347-86.726-1.314c-25.028-1-46.79-2.653-65.568-5.209-17.819-2.427-33.615-5.813-47.29-10.651-12.643-4.475-23.35-10.2-32.050-17.626-8.748-7.466-15.134-16.32-19.819-26.302-5.023-10.732-8.289-23.036-10.466-36.558-2.274-14.159-3.475-30.325-4.104-48.394v-0.081c-0.589-16.836-0.645-38.251-0.645-61.867zM203.47 384.631c-0.742 21.044-0.806 41.404-0.806 63.367s0.065 42.323 0.806 63.367c0.685 19.779 2.032 37.654 4.604 53.635 2.766 17.198 7.104 33.236 13.965 47.894 7.216 15.392 17.094 29.051 30.656 40.637 12.933 11.046 28.116 19.295 45.548 25.463 16.416 5.805 35.018 9.821 55.804 12.651 20.077 2.733 43.145 4.491 69.567 5.547 27.213 1.089 56.368 1.476 88.387 1.476s61.174-0.387 88.387-1.476c26.423-1.056 49.491-2.814 69.567-5.547 20.794-2.838 39.388-6.845 55.796-12.651 17.44-6.168 32.623-14.417 45.548-25.463 13.554-11.57 23.439-25.229 30.664-40.637 6.862-14.659 11.2-30.696 13.957-47.894 2.572-15.973 3.927-33.856 4.612-53.635 0.742-21.044 0.806-41.404 0.806-63.367s-0.065-42.323-0.806-63.367c-0.685-19.779-2.040-37.654-4.612-53.627-2.758-17.198-7.095-33.244-13.957-47.902-7.224-15.4-17.11-29.059-30.664-40.629-12.925-11.046-28.108-19.303-45.548-25.471-16.408-5.805-35.001-9.813-55.796-12.651-20.077-2.733-43.145-4.491-69.567-5.547-27.213-1.089-56.368-1.476-88.387-1.476s-61.174 0.387-88.387 1.476c-26.423 1.056-49.491 2.814-69.567 5.547-20.786 2.83-39.388 6.845-55.804 12.651-17.432 6.168-32.615 14.425-45.548 25.471-13.554 11.57-23.431 25.221-30.656 40.629-6.862 14.659-11.2 30.696-13.965 47.902-2.572 15.981-3.919 33.849-4.604 53.627zM458.737 408.054v113.438l157.793-73.631-157.793-73.244v33.437z" />
<glyph unicode="&#xe910;" glyph-name="Instagram-big" d="M643.177 711.111h-262.353c-36.485 0-69.479-14.739-93.289-38.557v-0.089c-23.867-23.867-38.646-56.86-38.646-93.289v-262.353c0-36.429 14.779-69.422 38.646-93.289s56.86-38.638 93.297-38.638h262.329c36.437 0 69.438 14.779 93.305 38.646s38.646 56.86 38.646 93.297v262.337c0 36.437-14.771 69.43-38.638 93.297s-56.86 38.638-93.297 38.638zM380.823 753.78h262.353c48.217 0 91.878-19.545 123.469-51.135s51.135-75.252 51.135-123.469v-262.337c0-48.217-19.553-91.878-51.143-123.469s-75.26-51.143-123.477-51.143h-262.329c-48.217 0-91.878 19.545-123.469 51.135s-51.143 75.252-51.143 123.46v262.353c0 48.209 19.553 91.87 51.143 123.46l0.048-0.048c31.631 31.623 75.292 51.192 123.412 51.192zM515.451 305.945c38.323 0 73.002 15.513 98.094 40.573 25.060 25.092 40.573 59.771 40.573 98.094s-15.513 73.002-40.573 98.094c-25.092 25.060-59.771 40.573-98.094 40.573s-73.002-15.513-98.094-40.573c-25.060-25.092-40.573-59.771-40.573-98.094s15.513-73.002 40.573-98.094c25.092-25.060 59.771-40.573 98.094-40.573zM643.588 316.386c-32.816-32.808-78.122-53.111-128.137-53.111s-95.321 20.303-128.137 53.111l-0.089 0.089c-32.808 32.816-53.111 78.122-53.111 128.137s20.303 95.321 53.111 128.137l0.089 0.089c32.816 32.808 78.122 53.111 128.137 53.111s95.321-20.303 128.137-53.111l0.089-0.089c32.808-32.816 53.111-78.122 53.111-128.137s-20.303-95.321-53.111-128.137l-0.089-0.089zM674.090 575.313c19.633 0 35.558 15.916 35.558 35.558 0 19.633-15.924 35.558-35.558 35.558-19.641 0-35.558-15.924-35.558-35.558 0-19.641 15.916-35.558 35.558-35.558zM511.992 959.998c141.352 0 269.377-57.328 362.029-149.98s149.98-220.66 149.98-362.021c0-141.36-57.328-269.369-149.98-362.021s-220.676-149.98-362.029-149.98c-141.344 0-269.361 57.328-362.013 149.98s-149.98 220.66-149.98 362.021c0 141.36 57.328 269.369 149.98 362.021s220.668 149.98 362.013 149.98zM831.118 767.115c-81.67 81.67-194.512 132.201-319.126 132.201-124.597 0-237.439-50.531-319.11-132.201s-132.201-194.512-132.201-319.118c0-124.606 50.531-237.447 132.201-319.118s194.512-132.201 319.11-132.201c124.614 0 237.455 50.531 319.126 132.201s132.201 194.512 132.201 319.118c0 124.606-50.531 237.447-132.201 319.118z" />
<glyph unicode="&#xe911;" glyph-name="Linkendin" d="M831.117 767.117c-81.67 81.67-194.512 132.201-319.126 132.201-124.598 0-237.439-50.531-319.108-132.201s-132.201-194.512-132.201-319.117c0-124.606 50.531-237.448 132.201-319.117s194.512-132.201 319.108-132.201c124.614 0 237.455 50.531 319.126 132.201s132.201 194.512 132.201 319.117-50.531 237.448-132.201 319.117zM511.991 960c141.352 0 269.377-57.328 362.028-149.98s149.98-220.659 149.98-362.021-57.328-269.368-149.98-362.021c-92.652-92.652-220.677-149.98-362.028-149.98-141.344 0-269.361 57.328-362.012 149.98s-149.98 220.659-149.98 362.021 57.328 269.368 149.98 362.021c92.652 92.652 220.668 149.98 362.012 149.98zM605.829 574.040l-8.66-2.169-9.748-3.241-2.161-1.089-6.499-3.241-1.080 1.080-1.080 2.161-1.080 1.089-1.089 1.080-2.161 2.161-1.080 1.089-2.169 1.080h-110.407l-2.169-1.080-1.080-1.089-1.080-1.080-1.089-1.080-1.080-1.080-1.080-2.169v-369.109l1.080-2.169 1.080-1.080 1.089-1.080 1.080-1.089 1.080-1.080 2.169-1.080h109.326l4.33 2.161 1.080 1.089 1.080 1.080 1.089 1.080 1.080 1.080 1.080 2.169 1.080 3.249 1.089 222.983 1.080 3.241 1.080 3.249 1.080 2.169 1.089 1.080 2.161 2.161 1.080 1.089 2.169 1.080 1.080 1.080 3.249 1.080 3.249 1.089 6.491 1.080h14.070l5.418-1.080 3.241-1.089 4.33-2.161 1.089-1.080 2.161-1.089 1.080-1.080 1.089-2.161 1.080-1.089 1.080-2.161 1.080-2.169 1.089-3.241 1.080-3.249 1.080-225.151 1.080-1.080 1.089-1.080 1.080-1.080 1.080-1.089 1.080-1.080 2.169-1.080h114.736l2.169 1.080 1.080 1.080 1.080 1.089 1.089 1.080 1.080 1.080 1.080 2.169v8.66l-1.080 246.792-1.080 8.66-1.089 5.41-1.080 5.418-1.080 4.33-1.080 4.322-1.089 3.249-2.161 6.499-1.080 2.161-1.089 3.249-1.080 2.161-1.080 2.169-1.080 2.161-1.089 2.169-1.080 2.161-1.080 2.169-1.080 2.161-1.089 2.169-1.080 1.080-1.080 2.169-1.080 1.080-1.089 2.161-1.080 1.089-1.080 1.080-1.080 2.161-3.249 3.249-1.080 2.169-1.089 1.080-2.161 2.161-1.080 1.089-1.089 1.080-2.161 2.161-1.080 1.089-1.089 1.080-2.161 2.161-2.169 1.089-3.241 3.241-2.169 1.089-2.161 2.161-2.169 1.080-1.080 1.089-2.169 1.080-1.080 1.080-4.33 2.169-1.080 1.080-10.829 5.41-3.241 1.080-2.169 1.089-3.249 1.080-2.161 1.080-3.249 1.080-3.249 1.089-4.33 1.080-3.241 1.080-4.33 1.080-5.418 1.089-6.491 1.080-8.66 1.080h-33.558l-6.491-1.080zM590.671 477.704l-4.33-1.080-6.491-2.169-2.169-1.080-3.249-1.080-1.080-1.089-4.33-2.161-1.080-1.080-2.169-1.089-10.821-10.821-1.080-2.169-1.089-1.080-1.080-2.161-1.080-2.169-1.080-2.161-1.089-2.169-1.080-2.161-1.080-3.249-1.080-4.33v-18.4l1.080-2.169 1.080-191.593h-63.867v318.238h60.618v-16.239l1.089-3.241 1.080-1.089 2.161-2.161 1.089-1.080 1.080-1.089 1.080-1.080 2.169-1.080 3.241-1.080h7.579l3.249 1.080 4.33 2.161 1.080 1.089 1.080 1.080 2.169 1.080 1.080 1.080 1.080 1.089 1.089 1.080 2.161 1.080 2.169 2.169 2.161 1.080 1.080 1.080 2.169 1.080 1.080 1.089 6.499 3.241 2.161 1.089 2.169 1.080 6.491 2.161 4.33 1.089 7.579 1.080h18.4l9.74-1.080 6.499-1.089 5.41-1.080 4.33-1.080 3.249-1.080 9.74-3.249 2.169-1.080 2.161-1.089 3.249-1.080 2.161-1.080 1.089-1.080 2.161-1.089 2.169-1.080 1.080-1.080 4.33-2.169 2.161-2.161 2.169-1.080 1.080-1.089 1.080-1.080 1.089-1.080 1.080-1.080 1.080-1.089 2.169-1.080 1.080-2.161 1.080-1.089 1.080-1.080 1.089-1.080 1.080-1.080 1.080-1.089 1.080-1.080 1.089-2.161 1.080-1.089 1.080-2.161 1.080-1.080 1.089-2.169 1.080-1.080 1.080-2.169 1.080-2.161 1.089-2.169 1.080-2.161 1.080-2.169 1.080-3.241 1.089-2.169 1.080-3.241 1.080-3.249 1.080-4.33 1.089-4.33 1.080-4.33 1.080-6.499 1.080-9.74 1.089-217.573h-64.947v200.253l-1.089 9.74-2.161 8.66-1.080 2.169-1.089 3.249-1.080 2.161-1.080 2.169-1.080 1.080-1.089 2.161-1.080 1.089-1.080 2.161-9.74 9.74-2.169 1.089-1.080 1.080-2.169 1.080-1.080 1.080-2.161 1.089-2.169 1.080-3.249 1.080-2.161 1.080-3.249 1.089-4.33 1.080-6.491 1.080h-25.979l-6.499-1.080zM321.609 542.272v-318.795h64.101v318.795h-64.101zM302.016 575.121h103.287c7.273 0 13.215-5.991 13.215-13.336v-357.812c0-7.345-5.942-13.344-13.215-13.344h-103.287c-7.273 0-13.215 5.999-13.215 13.344v357.812c0 7.345 5.942 13.336 13.215 13.336zM353.659 699.138c-16.884 0-30.575-13.489-30.575-30.131 0-16.634 13.691-30.131 30.575-30.131s30.575 13.497 30.575 30.131c0 16.642-13.691 30.131-30.575 30.131zM353.651 733.663c36.235 0 65.617-28.954 65.617-64.649 0-35.703-29.382-64.657-65.617-64.657-36.219 0-65.601 28.954-65.601 64.657 0 35.695 29.382 64.649 65.601 64.649z" />
<glyph unicode="&#xe912;" glyph-name="chat-invite-friend" horiz-adv-x="1021" d="M878.665 197.669c21.944-10.641 41.553-23.938 58.839-39.899 17.293-15.955 32.25-33.91 44.885-53.853 12.629-19.95 22.272-41.224 28.924-63.831 6.646-22.607 9.972-46.21 9.972-70.811h-63.831c0 26.267-4.986 51.029-14.957 74.305-9.972 23.269-23.771 43.547-41.392 60.84-17.621 17.286-37.899 30.912-60.84 40.89-22.935 9.972-47.703 15.125-74.298 15.459-26.267 0-51.035-4.992-74.305-14.964s-43.553-23.771-60.84-41.385c-17.286-17.621-30.918-37.905-40.89-60.84-9.972-22.941-15.131-47.709-15.459-74.305h-63.831c0 24.266 3.326 47.703 9.972 70.316 6.652 22.607 16.128 43.881 28.429 63.831 12.3 19.943 27.258 37.892 44.879 53.853 17.621 15.955 37.397 29.419 59.341 40.395-24.929 17.949-44.216 40.388-57.842 67.318-13.632 26.93-20.619 56.021-20.947 87.268 0 26.267 4.986 51.029 14.957 74.305 9.972 23.269 23.604 43.547 40.89 60.84 17.293 17.286 37.57 31.079 60.84 41.385 23.276 10.313 48.205 15.292 74.806 14.964 26.261 0 51.029-4.986 74.298-14.964 23.269-9.972 43.553-23.604 60.84-40.89s31.086-37.731 41.392-61.335c10.306-23.604 15.292-48.372 14.957-74.305 0-30.918-6.813-59.836-20.445-86.766s-33.080-49.536-58.343-67.82zM765.967 224.592c17.614 0 34.071 3.326 49.363 9.978 15.292 6.646 28.924 15.787 40.896 27.425 11.966 11.638 21.108 25.103 27.425 40.395s9.643 31.916 9.972 49.864c0 17.621-3.32 34.077-9.972 49.369s-15.794 28.924-27.425 40.89c-11.638 11.972-25.103 21.114-40.395 27.432s-31.916 9.637-49.864 9.972c-17.621 0-34.077-3.326-49.369-9.972-15.292-6.652-28.924-15.794-40.896-27.432-11.966-11.631-21.108-25.096-27.425-40.388-6.317-15.298-9.643-31.916-9.972-49.871 0-17.621 3.32-34.077 9.972-49.369s15.794-28.924 27.425-40.89c11.638-11.966 25.103-21.108 40.395-27.425s31.916-9.643 49.871-9.978zM1021.285 926.727v-510.642c0 15.961-1.499 29.921-4.49 41.887-2.991 11.972-7.147 23.108-12.468 33.414-5.314 10.306-11.966 20.278-19.943 29.921-7.977 9.637-16.958 20.111-26.93 31.414v310.174h-893.623v-574.473h127.662v-133.143l133.143 133.143h194.484c2.657-11.303 6.15-22.272 10.473-32.913 4.317-10.634 9.47-20.94 15.459-30.918h-193.989l-223.402-223.402v223.402h-127.662v702.135h1021.284z" />
<glyph unicode="&#xe913;" glyph-name="date-time-mirrored" horiz-adv-x="1021" d="M861.708 463.46c19.95-13.632 37.738-29.091 53.358-46.378 15.626-17.286 29.091-36.239 40.395-56.845 11.303-20.619 19.615-42.389 24.935-65.33s8.312-46.378 8.974-70.316c0-39.558-7.482-76.794-22.439-111.701-14.964-34.907-35.576-65.324-61.837-91.256s-56.684-46.378-91.256-61.335c-34.579-14.964-71.808-22.607-111.701-22.941-30.256 0-59.514 4.49-87.769 13.465s-54.188 21.944-77.791 38.896c-23.604 16.958-44.551 37.236-62.834 60.84s-32.417 49.697-42.389 78.293h-399.436v765.961h127.662v63.831h63.825v-63.831h446.818v63.831h63.831v-63.831h127.656v-431.352zM95.747 830.981v-127.656h702.129v127.656h-63.825v-63.831h-63.831v63.831h-446.818v-63.831h-63.825v63.831h-63.831zM416.394 192.677c-0.997 10.313-1.499 20.947-1.499 31.916 0 28.596 3.989 56.349 11.966 83.279 7.984 26.93 20.117 52.367 36.406 76.299h-48.372v63.831h63.831v-42.884c13.632 16.952 28.757 31.916 45.38 44.879s34.573 24.105 53.853 33.415c19.287 9.309 39.397 16.289 60.344 20.94 20.94 4.658 42.222 7.147 63.831 7.482 33.241 0 65.156-5.488 95.74-16.456v144.119h-702.129v-446.818h320.647zM702.135 1.19c30.912 0 59.836 5.816 86.766 17.454s50.533 27.592 70.811 47.87c20.278 20.284 36.239 43.888 47.876 70.811 11.631 26.93 17.621 56.021 17.949 87.268 0 30.918-5.816 59.842-17.454 86.772s-27.592 50.533-47.87 70.811c-20.284 20.278-43.888 36.239-70.811 47.87-26.93 11.638-56.021 17.621-87.268 17.955-30.918 0-59.842-5.816-86.772-17.454s-50.533-27.592-70.811-47.87c-20.278-20.284-36.239-43.888-47.87-70.811-11.638-26.93-17.621-56.021-17.955-87.274 0-30.912 5.816-59.836 17.454-86.766s27.592-50.533 47.87-70.811c20.284-20.278 43.888-36.239 70.811-47.876 26.93-11.631 56.021-17.621 87.274-17.949zM734.051 256.508h95.74v-63.831h-159.571v191.493h63.831v-127.662zM159.577 448.001h63.825v-63.831h-63.825v63.831zM287.233 448.001h63.831v-63.831h-63.831v63.831zM287.233 575.663h63.831v-63.831h-63.831v63.831zM287.233 320.338h63.831v-63.831h-63.831v63.831zM478.726 511.831h-63.831v63.831h63.831v-63.831zM606.388 511.831h-63.831v63.831h63.831v-63.831zM159.577 575.662h63.825v-63.831h-63.825v63.831z" />
<glyph unicode="&#xe914;" glyph-name="road-map-line" horiz-adv-x="1021" d="M170.212 675.976v-545.704l215.535 92.337 255.325-127.656 210.002 90.085v545.659l55.442 23.745c3.242 1.39 6.774 1.956 10.28 1.64 3.513-0.315 6.884-1.493 9.824-3.435s5.353-4.581 7.025-7.681c1.666-3.101 2.535-6.575 2.535-10.094v-606.010l-297.874-127.656-255.325 127.656-268.21-114.937c-3.242-1.383-6.774-1.949-10.28-1.634-3.513 0.315-6.884 1.493-9.824 3.435s-5.353 4.581-7.025 7.681c-1.666 3.101-2.535 6.575-2.535 10.094v606.003l85.106 36.47zM691.2 458.956l-180.557-180.511-180.557 180.511c-35.698 35.705-60.016 81.201-69.866 130.731-9.843 49.524-4.786 100.855 14.539 147.509s52.052 86.528 94.035 114.577c41.99 28.056 91.353 43.026 141.848 43.026s99.858-14.97 141.848-43.026c41.984-28.049 74.71-67.923 94.035-114.577s24.382-97.986 14.539-147.509c-9.849-49.53-34.167-95.026-69.866-130.731zM510.643 398.785l120.341 120.38c23.81 23.803 40.028 54.136 46.596 87.158 6.575 33.016 3.204 67.241-9.676 98.346-12.879 31.111-34.695 57.694-62.692 76.402-27.991 18.708-60.904 28.686-94.569 28.686s-66.578-9.978-94.569-28.686c-27.998-18.708-49.813-45.29-62.692-76.402-12.879-31.105-16.25-65.33-9.676-98.346 6.568-33.022 22.787-63.355 46.596-87.158l120.341-120.38z" />
<glyph unicode="&#xe915;" glyph-name="Sun" horiz-adv-x="1021" d="M60.138 95.397c-13.439-13.066-34.939-12.77-48.005 0.669s-12.77 34.939 0.669 48.005c0.418 0.399 131.471 131.329 417.932 152.669 3.030 0.63 6.144 0.836 9.232 0.637 22.613 1.486 46.146 2.303 70.67 2.303s48.057-0.823 70.67-2.303c3.088 0.206 6.202-0.006 9.232-0.637 286.468-21.333 417.521-152.27 417.939-152.669 13.439-13.066 13.735-34.566 0.669-48.005s-34.566-13.735-48.005-0.669c-0.322 0.315-90.266 90.311-293.217 123.815l196.518-222.907c12.41-14.102 11.040-35.595-3.062-48.005s-35.595-11.040-48.005 3.062l-245.701 278.69c-7.533 0.412-15.221 0.721-22.993 0.971v-257.19c0-18.798-15.247-34.045-34.045-34.045s-34.045 15.247-34.045 34.045v257.19c-7.771-0.251-15.453-0.56-22.993-0.971l-245.701-278.69c-12.41-14.102-33.903-15.472-48.005-3.062s-15.472 33.903-3.062 48.005l196.518 222.907c-202.958-33.492-292.883-123.5-293.21-123.815zM292.006 414.585c1.686-18.65-12.069-35.145-30.719-36.831s-35.145 12.069-36.831 30.719c-0.727 8.022-1.107 15.15-1.107 21.294 0 5.353 0.289 11.458 0.843 18.238h-0.006c0 38.162 7.649 75.713 22.098 110.601 14.43 34.836 35.608 66.816 62.66 93.875v0.129c26.988 26.988 59.019 48.166 94.003 62.66 34.888 14.449 72.439 22.098 110.608 22.098s75.72-7.649 110.608-22.098c34.978-14.494 67.009-35.673 93.997-62.66s48.166-59.019 62.66-93.997c14.449-34.888 22.098-72.439 22.098-110.608v-0.045c0.553-6.755 0.836-12.834 0.836-18.193 0-6.17-0.367-13.278-1.107-21.294-1.686-18.65-18.18-32.405-36.831-30.719s-32.405 18.18-30.719 36.831c0.373 4.098 0.566 9.18 0.566 15.183 0 4.78-0.122 8.968-0.36 12.551-0.315 1.846-0.476 3.751-0.476 5.687 0 29.542-5.803 58.337-16.772 84.81-10.924 26.37-27.155 50.784-48.031 71.66-20.87 20.87-45.29 37.107-71.66 48.031-26.473 10.969-55.268 16.772-84.81 16.772s-58.337-5.803-84.81-16.772c-26.383-10.924-50.797-27.161-71.667-48.031l-0.064 0.064c-20.78-20.805-36.991-45.233-47.967-71.731-10.969-26.473-16.772-55.268-16.772-84.804h-0.135c0-1.010-0.045-2.026-0.135-3.056-0.373-4.098-0.566-9.161-0.566-15.183s0.193-11.085 0.566-15.183zM36.469 413.96c-18.798 0-34.045 15.247-34.045 34.045s15.247 34.045 34.045 34.045h72.947c18.798 0 34.045-15.247 34.045-34.045s-15.247-34.045-34.045-34.045h-72.947zM158.296 752.21c-13.291 13.291-13.291 34.843 0 48.134s34.843 13.291 48.134 0l36.477-36.477c13.291-13.291 13.291-34.843 0-48.134s-34.843-13.291-48.134 0l-36.477 36.477zM476.59 922.172c0 18.798 15.247 34.045 34.045 34.045s34.045-15.247 34.045-34.045v-72.947c0-18.798-15.247-34.045-34.045-34.045s-34.045 15.247-34.045 34.045v72.947zM814.84 800.344c13.291 13.291 34.843 13.291 48.134 0s13.291-34.843 0-48.134l-36.477-36.477c-13.291-13.291-34.843-13.291-48.134 0s-13.291 34.843 0 48.134l36.477 36.477zM984.808 482.051c18.798 0 34.045-15.247 34.045-34.045s-15.247-34.045-34.045-34.045h-72.954c-18.798 0-34.045 15.247-34.045 34.045s15.247 34.045 34.045 34.045h72.954z" />
</font>
</defs>
</svg>
