<?xml version="1.0" encoding="UTF-8"?>
<!DOCTYPE svg PUBLIC "-//W3C//DTD SVG 1.1//EN" "http://www.w3.org/Graphics/SVG/1.1/DTD/svg11.dtd">
<!-- Creator: CorelDRAW -->
<svg xmlns="http://www.w3.org/2000/svg" xml:space="preserve" width="12.7mm" height="12.7mm" style="shape-rendering:geometricPrecision; text-rendering:geometricPrecision; image-rendering:optimizeQuality; fill-rule:evenodd; clip-rule:evenodd"
viewBox="0 0 0.430289 0.430289"
 xmlns:xlink="http://www.w3.org/1999/xlink">
 <defs>
  <style type="text/css">
   <![CDATA[
    .fil0 {fill:none}
    .fil1 {fill:#1D1D1B;fill-rule:nonzero}
   ]]>
  </style>
 </defs>
 <g id="Слой_x0020_1">
  <metadata id="CorelCorpID_0Corel-Layer"/>
  <g id="_124210120">
   <rect id="_124595584" class="fil0" width="0.430288" height="0.430288"/>
   <path id="_123431336" class="fil1" d="M0.215141 0c0.0593968,0 0.113193,0.0240894 0.152126,0.0630221 0.0389327,0.0389327 0.0630221,0.0927222 0.0630221,0.152122 0,0.0594002 -0.0240894,0.11319 -0.0630221,0.152122 -0.0389327,0.0389327 -0.0927289,0.0630221 -0.152126,0.0630221 -0.0593934,0 -0.113186,-0.0240894 -0.152119,-0.0630221 -0.0389327,-0.0389327 -0.0630221,-0.0927222 -0.0630221,-0.152122 0,-0.0594002 0.0240894,-0.11319 0.0630221,-0.152122 0.0389327,-0.0389327 0.0927256,-0.0630221 0.152119,-0.0630221zm0.134098 0.0810502c-0.0343181,-0.0343181 -0.0817346,-0.0555513 -0.134098,-0.0555513 -0.0523563,0 -0.0997728,0.0212332 -0.134091,0.0555513 -0.0343181,0.0343181 -0.0555513,0.0817346 -0.0555513,0.134094 0,0.0523597 0.0212332,0.0997762 0.0555513,0.134094 0.0343181,0.0343181 0.0817346,0.0555513 0.134091,0.0555513 0.0523631,0 0.0997796,-0.0212332 0.134098,-0.0555513 0.0343181,-0.0343181 0.0555513,-0.0817346 0.0555513,-0.134094 0,-0.0523597 -0.0212332,-0.0997762 -0.0555513,-0.134094zm-0.216283 0.2423c0,0.00495002 -0.0040149,0.00896492 -0.00896492,0.00896492 -0.00495002,0 -0.00896492,-0.0040149 -0.00896492,-0.00896492l0 -0.0119532c0,-0.0222327 0.00903607,-0.0424021 0.023632,-0.0570116l2.03286e-005 -1.69405e-005 1.69405e-005 -2.03286e-005c0.0146095,-0.0145959 0.0347789,-0.023632 0.0570116,-0.023632l0.0478095 0c0.0222734,0 0.0424495,0.00903268 0.0570489,0.023632 0.0145959,0.0145959 0.0236286,0.0347755 0.0236286,0.0570489l0 0.0119532c0,0.00495002 -0.0040149,0.00896492 -0.00896492,0.00896492 -0.00495002,0 -0.00896492,-0.0040149 -0.00896492,-0.00896492l0 -0.0119532c0,-0.0173268 -0.00702692,-0.0330204 -0.0183771,-0.0443706 -0.0113535,-0.0113535 -0.0270438,-0.0183805 -0.0443706,-0.0183805l-0.0478095 0c-0.0173505,0 -0.0330408,0.00700998 -0.0443706,0.0183432l-3.72691e-005 3.72691e-005c-0.0113332,0.0113298 -0.0183432,0.0270201 -0.0183432,0.0443706l0 0.0119532zm0.0866609 -0.110564c-0.0156327,0 -0.0298187,-0.00635269 -0.0401083,-0.0166288l-1.69405e-005 -2.03286e-005 -2.03286e-005 -1.69405e-005c-0.0102761,-0.0102897 -0.0166288,-0.0244756 -0.0166288,-0.0401083 0,-0.0156767 0.00635608,-0.0298729 0.0166288,-0.0401456l2.03286e-005 2.03286e-005c0.0102931,-0.0102863 0.0244824,-0.0166491 0.0401253,-0.0166491 0.0156496,0 0.0298356,0.00635947 0.0401083,0.0166288l3.72691e-005 0c0.0102727,0.0102727 0.0166288,0.0244689 0.0166288,0.0401456 0,0.0156429 -0.00636285,0.0298322 -0.0166491,0.0401253l2.03286e-005 2.03286e-005c-0.0102727,0.0102727 -0.0244689,0.0166288 -0.0401456,0.0166288zm-0.0274673 -0.0292698c0.00700321,0.00700321 0.0167169,0.01134 0.0274673,0.01134 0.0107267,0 0.0204404,-0.00435032 0.0274673,-0.0113772l3.72691e-005 0c0.00700321,-0.00700321 0.01134,-0.0167169 0.01134,-0.0274673 0,-0.0107267 -0.00435032,-0.0204404 -0.0113772,-0.0274673l1.69405e-005 -1.69405e-005c-0.00703031,-0.00701676 -0.0167474,-0.0113603 -0.0274843,-0.0113603 -0.0107504,0 -0.0204641,0.00433677 -0.0274673,0.01134l0 3.72691e-005c-0.00702692,0.00702692 -0.0113772,0.0167406 -0.0113772,0.0274673 0,0.0107504 0.00433677,0.0204641 0.01134,0.0274673l3.72691e-005 3.72691e-005z"/>
  </g>
 </g>
</svg>
