<!-- Generated by IcoMoon.io -->
<svg version="1.1" xmlns="http://www.w3.org/2000/svg" width="32" height="32" viewBox="0 0 32 32">
<title>arrow-down</title>
<path d="M6.626 8.040c-0.39-0.39-0.39-1.024 0-1.414s1.024-0.39 1.414 0l15.627 15.627v-14.226c0-0.552 0.448-1 1-1s1 0.448 1 1v16.64c0 0.079-0.009 0.156-0.027 0.23l-0.005 0.020c-0.009 0.035-0.020 0.070-0.033 0.104l-0.025 0.059c-0.013 0.029-0.027 0.057-0.043 0.085-0.018 0.031-0.037 0.061-0.058 0.090l-0.221 0.221c-0.029 0.021-0.059 0.041-0.090 0.058-0.027 0.016-0.055 0.030-0.085 0.043l-0.059 0.025c-0.034 0.013-0.068 0.024-0.104 0.033l-0.020 0.005c-0.076 0.018-0.153 0.027-0.23 0.027h-16.64c-0.552 0-1-0.448-1-1s0.448-1 1-1h14.226l-15.627-15.627z"  fill="#3A596E" stroke-width="1.5" stroke-linecap="round" stroke-linejoin="round"></path>
</svg>
