<!-- Generated by IcoMoon.io -->
<svg version="1.1" xmlns="http://www.w3.org/2000/svg" width="32" height="32" viewBox="0 0 32 32">
<title>arrow-up</title>
<path d="M8.040 25.374c-0.39 0.39-1.024 0.39-1.414 0s-0.39-1.024 0-1.414l15.627-15.627h-14.226c-0.552 0-1-0.448-1-1s0.448-1 1-1h16.64c0.079 0 0.156 0.009 0.23 0.027l0.020 0.005c0.035 0.009 0.070 0.020 0.104 0.033l0.059 0.025c0.029 0.013 0.057 0.027 0.085 0.043 0.031 0.018 0.061 0.037 0.090 0.058l0.182 0.17 0.039 0.051c0.021 0.029 0.041 0.059 0.058 0.090 0.016 0.027 0.030 0.055 0.043 0.085l0.025 0.059c0.013 0.034 0.024 0.068 0.033 0.104l0.005 0.020c0.018 0.076 0.027 0.153 0.027 0.23v16.64c0 0.552-0.448 1-1 1s-1-0.448-1-1v-14.226l-15.627 15.627z"  fill="#C9DCE2" stroke-width="1.5" stroke-linecap="round" stroke-linejoin="round"></path>
</svg>
