<?xml version="1.0" encoding="UTF-8"?>
<!DOCTYPE svg PUBLIC "-//W3C//DTD SVG 1.1//EN" "http://www.w3.org/Graphics/SVG/1.1/DTD/svg11.dtd">
<!-- Creator: CorelDRAW -->
<svg xmlns="http://www.w3.org/2000/svg" xml:space="preserve" width="15.875mm" height="15.9172mm" style="shape-rendering:geometricPrecision; text-rendering:geometricPrecision; image-rendering:optimizeQuality; fill-rule:evenodd; clip-rule:evenodd"
viewBox="0 0 0.623444 0.625102"
 xmlns:xlink="http://www.w3.org/1999/xlink">
 <defs>
  <style type="text/css">
   <![CDATA[
    .fil0 {fill:none}
    .fil1 {fill:#1D1D1B}
   ]]>
  </style>
 </defs>
 <g id="Слой_x0020_1">
  <metadata id="CorelCorpID_0Corel-Layer"/>
  <g id="_124278552">
   <rect id="_123819576" class="fil0" width="0.623443" height="0.625104"/>
   <g id="fluent-mdl2_chat-invite-friend.svg">
    <g id="fluent-mdl2:chat-invite-friend">
     <path id="Vector" class="fil1" d="M0.536382 0.465366c0.0133957,0.0064956 0.0253658,0.0146131 0.0359182,0.0243565 0.0105563,0.00973948 0.0196871,0.0207003 0.0274001,0.0328747 0.00770911,0.0121783 0.013596,0.0251655 0.0176567,0.0389658 0.00405681,0.0138002 0.00608717,0.0282091 0.00608717,0.0432268l-0.0389658 0c0,-0.0160348 -0.00304359,-0.0311506 -0.00913076,-0.0453593 -0.00608717,-0.0142047 -0.014511,-0.0265833 -0.0252677,-0.0371396 -0.0107566,-0.0105524 -0.0231352,-0.0188702 -0.0371396,-0.0249613 -0.0140005,-0.00608717 -0.0291202,-0.00923287 -0.0453553,-0.00943708 -0.0160348,0 -0.0311545,0.00304751 -0.0453593,0.00913469 -0.0142047,0.00608717 -0.0265872,0.014511 -0.0371396,0.0252637 -0.0105524,0.0107566 -0.0188742,0.0231391 -0.0249613,0.0371396 -0.00608717,0.0140044 -0.00923679,0.0291242 -0.00943708,0.0453593l-0.0389658 0c0,-0.0148134 0.00203037,-0.0291202 0.00608717,-0.0429244 0.00406073,-0.0138002 0.00984551,-0.0267875 0.0173543,-0.0389658 0.00750882,-0.0121743 0.0166396,-0.0231313 0.0273962,-0.0328747 0.0107566,-0.00973948 0.0228289,-0.0179591 0.0362246,-0.0246589 -0.0152179,-0.0109569 -0.0269917,-0.024655 -0.0353095,-0.0410943 -0.00832175,-0.0164393 -0.0125867,-0.0341981 -0.012787,-0.0532726 0,-0.0160348 0.00304359,-0.0311506 0.00913076,-0.0453593 0.00608717,-0.0142047 0.0144089,-0.0265833 0.0249613,-0.0371396 0.0105563,-0.0105524 0.0229349,-0.0189723 0.0371396,-0.0252637 0.0142086,-0.00629531 0.0294266,-0.00933497 0.0456656,-0.00913469 0.0160309,0 0.0311506,0.00304359 0.0453553,0.00913469 0.0142047,0.00608717 0.0265872,0.0144089 0.0371396,0.0249613 0.0105524,0.0105524 0.0189763,0.0230331 0.0252677,0.037442 0.00629139,0.0144089 0.00933497,0.0295287 0.00913076,0.0453593 0,0.0188742 -0.00415891,0.036527 -0.0124807,0.0529663 -0.00832175,0.0164393 -0.0201937,0.0302395 -0.0356158,0.0414006zm-0.0687968 -0.0164354c0.0107527,0 0.0207985,-0.00203037 0.0301335,-0.0060911 0.00933497,-0.00405681 0.0176567,-0.00963737 0.0249653,-0.0167417 0.00730461,-0.00710432 0.0128852,-0.015324 0.0167417,-0.0246589 0.00385652,-0.00933497 0.00588688,-0.0194829 0.00608717,-0.0304398 0,-0.0107566 -0.00202644,-0.0208024 -0.00608717,-0.0301374 -0.00406073,-0.00933497 -0.0096413,-0.0176567 -0.0167417,-0.0249613 -0.00710432,-0.00730853 -0.015324,-0.0128891 -0.0246589,-0.0167456 -0.00933497,-0.00385652 -0.0194829,-0.00588296 -0.0304398,-0.00608717 -0.0107566,0 -0.0208024,0.00203037 -0.0301374,0.00608717 -0.00933497,0.00406073 -0.0176567,0.0096413 -0.0249653,0.0167456 -0.00730461,0.00710039 -0.0128852,0.01532 -0.0167417,0.024655 -0.00385652,0.0093389 -0.00588688,0.0194829 -0.00608717,0.0304437 0,0.0107566 0.00202644,0.0208024 0.00608717,0.0301374 0.00406073,0.00933497 0.0096413,0.0176567 0.0167417,0.0249613 0.00710432,0.00730461 0.015324,0.0128852 0.0246589,0.0167417 0.00933497,0.00385652 0.0194829,0.00588688 0.0304437,0.0060911zm0.155859 -0.428619l0 0.311722c0,-0.0097434 -0.000915039,-0.0182654 -0.00274119,-0.0255701 -0.00182615,-0.00730853 -0.00436313,-0.0141065 -0.00761093,-0.0203979 -0.00324387,-0.00629139 -0.00730461,-0.0123786 -0.0121743,-0.0182654 -0.00486974,-0.00588296 -0.0103521,-0.0122765 -0.0164393,-0.0191766l0 -0.189346 -0.545513 0 0 0.350688 0.0779315 0 0 0.0812775 0.0812775 -0.0812775 0.118723 0c0.00162194,0.0069001 0.00375441,0.013596 0.00639349,0.0200916 0.00263516,0.00649167 0.00578085,0.0127831 0.00943708,0.0188742l-0.118421 0 -0.136376 0.136376 0 -0.136376 -0.0779315 0 0 -0.428619 0.623444 0z"/>
    </g>
   </g>
  </g>
 </g>
</svg>
