<?xml version="1.0" encoding="UTF-8"?>
<!DOCTYPE svg PUBLIC "-//W3C//DTD SVG 1.1//EN" "http://www.w3.org/Graphics/SVG/1.1/DTD/svg11.dtd">
<!-- Creator: CorelDRAW -->
<svg xmlns="http://www.w3.org/2000/svg" xml:space="preserve" width="10.5834mm" height="10.5834mm" style="shape-rendering:geometricPrecision; text-rendering:geometricPrecision; image-rendering:optimizeQuality; fill-rule:evenodd; clip-rule:evenodd"
viewBox="0 0 0.275546 0.275546"
 xmlns:xlink="http://www.w3.org/1999/xlink">
 <defs>
  <style type="text/css">
   <![CDATA[
    .fil0 {fill:none}
    .fil1 {fill:#1D1D1B;fill-rule:nonzero}
   ]]>
  </style>
 </defs>
 <g id="Слой_x0020_1">
  <metadata id="CorelCorpID_0Corel-Layer"/>
  <g id="_124602712">
   <rect id="_123281792" class="fil0" width="0.27554" height="0.27554"/>
   <path id="_123615016" class="fil1" d="M0.0971079 0.192242c-0.00381163,0.00381163 -0.0099925,0.00381163 -0.0138041,0 -0.00381163,-0.00381163 -0.00381163,-0.0099925 0,-0.0138041l0.0406651 -0.0406651 -0.0406651 -0.0406651c-0.00381163,-0.00381163 -0.00381163,-0.0099925 0,-0.0138041 0.00381163,-0.00381163 0.0099925,-0.00381163 0.0138041,0l0.0406651 0.0406651 0.0406651 -0.0406651c0.00381163,-0.00381163 0.0099925,-0.00381163 0.0138041,0 0.00381163,0.00381163 0.00381163,0.0099925 0,0.0138041l-0.0406651 0.0406651 0.0406651 0.0406651c0.00381163,0.00381163 0.00381163,0.0099925 0,0.0138041 -0.00381163,0.00381163 -0.0099925,0.00381163 -0.0138041,0l-0.0406651 -0.0406651 -0.0406651 0.0406651zm0.0406599 -0.192063c0.0379861,0 0.072387,0.0154079 0.097285,0.0403059 0.0249005,0.0249005 0.0403059,0.0593015 0.0403059,0.0972876 0,0.0379861 -0.0154053,0.072387 -0.0403059,0.0972876 -0.0248979,0.0248979 -0.0592989,0.0403059 -0.097285,0.0403059 -0.0379835,0 -0.0723844,-0.0154079 -0.0972824,-0.0403059 -0.0248979,-0.0249005 -0.0403033,-0.0593015 -0.0403033,-0.0972876 0,-0.0379861 0.0154053,-0.072387 0.0403033,-0.0972876 0.0248979,-0.0248979 0.0592989,-0.0403059 0.0972824,-0.0403059zm0.0834808 0.05411c-0.0213623,-0.0213623 -0.0508816,-0.0345832 -0.0834808,-0.0345832 -0.0325967,0 -0.062116,0.0132209 -0.0834782,0.0345832 -0.0213623,0.0213649 -0.0345806,0.0508842 -0.0345806,0.0834835 0,0.0325993 0.0132183,0.0621186 0.0345806,0.0834835 0.0213623,0.0213623 0.0508816,0.0345832 0.0834782,0.0345832 0.0325993,0 0.0621186,-0.0132209 0.0834808,-0.0345832 0.0213649,-0.0213649 0.0345832,-0.0508842 0.0345832,-0.0834835 0,-0.0325993 -0.0132183,-0.0621186 -0.0345832,-0.0834835z"/>
  </g>
 </g>
</svg>
