<?xml version="1.0" encoding="UTF-8"?>
<!DOCTYPE svg PUBLIC "-//W3C//DTD SVG 1.1//EN" "http://www.w3.org/Graphics/SVG/1.1/DTD/svg11.dtd">
<!-- Creator: CorelDRAW -->
<svg xmlns="http://www.w3.org/2000/svg" xml:space="preserve" width="15.875mm" height="15.9172mm" style="shape-rendering:geometricPrecision; text-rendering:geometricPrecision; image-rendering:optimizeQuality; fill-rule:evenodd; clip-rule:evenodd"
viewBox="0 0 0.701069 0.702933"
 xmlns:xlink="http://www.w3.org/1999/xlink">
 <defs>
  <style type="text/css">
   <![CDATA[
    .fil0 {fill:none}
    .fil1 {fill:#1D1D1B}
   ]]>
  </style>
 </defs>
 <g id="Слой_x0020_1">
  <metadata id="CorelCorpID_0Corel-Layer"/>
  <g id="_123815304">
   <rect id="_122314496" class="fil0" width="0.701068" height="0.702936"/>
   <g id="fluent-mdl2_date-time-mirrored.svg">
    <g id="fluent-mdl2:date-time-mirrored">
     <path id="Vector" class="fil1" d="M0.591526 0.340854c0.0136946,0.0093579 0.0259053,0.01997 0.0366278,0.0318363 0.0107269,0.0118663 0.01997,0.0248764 0.0277292,0.0390214 0.00775924,0.0141539 0.0134649,0.0290982 0.0171171,0.0448464 0.00365218,0.0157481 0.00570571,0.0318363 0.00616058,0.0482689 0,0.0271551 -0.00513602,0.052716 -0.0154037,0.0766782 -0.010272,0.0239622 -0.0244215,0.0448419 -0.0424484,0.0626436 -0.0180269,0.0178016 -0.038911,0.0318363 -0.0626436,0.0421039 -0.023737,0.010272 -0.0492935,0.0155185 -0.0766782,0.0157481 -0.0207693,0 -0.0408541,-0.0030825 -0.06025,-0.00924307 -0.0193959,-0.00616058 -0.0371975,-0.0150636 -0.0534005,-0.0267003 -0.016203,-0.0116411 -0.0305821,-0.0255609 -0.0431329,-0.0417639 -0.0125508,-0.016203 -0.0222532,-0.034115 -0.0290982,-0.053745l-0.274196 0 0 -0.5258 0.0876348 0 0 -0.0438174 0.043813 0 0 0.0438174 0.306722 0 0 -0.0438174 0.0438174 0 0 0.0438174 0.0876304 0 0 0.296105zm-0.5258 -0.252288l0 0.0876304 0.481982 0 0 -0.0876304 -0.043813 0 0 0.0438174 -0.0438174 0 0 -0.0438174 -0.306722 0 0 0.0438174 -0.043813 0 0 -0.0438174 -0.0438174 0zm0.220111 0.438169c-0.000684509,-0.00707914 -0.00102897,-0.0143791 -0.00102897,-0.0219087 0,-0.0196299 0.00273803,-0.0386814 0.0082141,-0.0571675 0.00548049,-0.0184861 0.0138094,-0.0359477 0.0249912,-0.0523759l-0.0332053 0 0 -0.0438174 0.0438174 0 0 0.0294383c0.0093579,-0.0116366 0.0197403,-0.0219087 0.0311518,-0.0308073 0.0114114,-0.00889861 0.0237326,-0.0165474 0.0369679,-0.0229377 0.0132397,-0.00639022 0.0270447,-0.0111818 0.0414238,-0.0143747 0.0143747,-0.00319732 0.0289834,-0.00490638 0.0438174,-0.00513602 0.0228184,0 0.0447271,0.00376701 0.0657217,0.0112966l0 -0.0989314 -0.481982 0 0 0.306722 0.220111 0zm0.196149 0.131448c0.0212198,0 0.0410749,-0.00399223 0.0595611,-0.0119811 0.0184861,-0.00798888 0.0346891,-0.018941 0.0486089,-0.0328608 0.0139198,-0.0139242 0.0248764,-0.0301272 0.0328652,-0.0486089 0.00798446,-0.0184861 0.0120959,-0.0384561 0.0123212,-0.0599055 0,-0.0212242 -0.00399223,-0.0410793 -0.0119811,-0.0595655 -0.00798888,-0.0184861 -0.018941,-0.0346891 -0.0328608,-0.0486089 -0.0139242,-0.0139198 -0.0301272,-0.0248764 -0.0486089,-0.0328608 -0.0184861,-0.00798888 -0.0384561,-0.0120959 -0.0599055,-0.0123256 -0.0212242,0 -0.0410793,0.00399223 -0.0595655,0.0119811 -0.0184861,0.00798888 -0.0346891,0.018941 -0.0486089,0.0328608 -0.0139198,0.0139242 -0.0248764,0.0301272 -0.0328608,0.0486089 -0.00798888,0.0184861 -0.0120959,0.0384561 -0.0123256,0.05991 0,0.0212198 0.00399223,0.0410749 0.0119811,0.0595611 0.00798888,0.0184861 0.018941,0.0346891 0.0328608,0.0486089 0.0139242,0.0139198 0.0301272,0.0248764 0.0486089,0.0328652 0.0184861,0.00798446 0.0384561,0.0120959 0.05991,0.0123212zm0.0219087 -0.175265l0.0657217 0 0 0.0438174 -0.109539 0 0 -0.131452 0.0438174 0 0 0.0876348zm-0.394352 -0.131452l0.043813 0 0 0.0438174 -0.043813 0 0 -0.0438174zm0.0876304 0l0.0438174 0 0 0.0438174 -0.0438174 0 0 -0.0438174zm0 -0.0876348l0.0438174 0 0 0.0438174 -0.0438174 0 0 -0.0438174zm0 0.17527l0.0438174 0 0 0.0438174 -0.0438174 0 0 -0.0438174zm0.131452 -0.131452l-0.0438174 0 0 -0.0438174 0.0438174 0 0 0.0438174zm0.0876348 0l-0.0438174 0 0 -0.0438174 0.0438174 0 0 0.0438174zm-0.306717 -0.0438174l0.043813 0 0 0.0438174 -0.043813 0 0 -0.0438174z"/>
    </g>
   </g>
  </g>
 </g>
</svg>
