<?xml version="1.0" encoding="UTF-8"?>
<!DOCTYPE svg PUBLIC "-//W3C//DTD SVG 1.1//EN" "http://www.w3.org/Graphics/SVG/1.1/DTD/svg11.dtd">
<!-- Creator: CorelDRAW -->
<svg xmlns="http://www.w3.org/2000/svg" xml:space="preserve" width="6.35mm" height="6.35mm" style="shape-rendering:geometricPrecision; text-rendering:geometricPrecision; image-rendering:optimizeQuality; fill-rule:evenodd; clip-rule:evenodd"
viewBox="0 0 0.113592 0.113592"
 xmlns:xlink="http://www.w3.org/1999/xlink">
 <defs>
  <style type="text/css">
   <![CDATA[
    .fil0 {fill:none}
    .fil1 {fill:#1D1D1B;fill-rule:nonzero}
   ]]>
  </style>
 </defs>
 <g id="Слой_x0020_1">
  <metadata id="CorelCorpID_0Corel-Layer"/>
  <g id="_123620464">
   <rect id="_124195936" class="fil0" width="0.113592" height="0.113592"/>
   <path id="_124592608" class="fil1" d="M0.0813912 0.0165648l0 0.00946663 0 0.00473332 -0.00473332 0 -0.00946663 0c-0.000640411,0 -0.00125757,0.000121642 -0.00181032,0.000350616l-1.78886e-005 0c-0.000538446,0.000221818 -0.00105721,0.000574223 -0.00151874,0.00103575 -0.000461525,0.000461525 -0.00081393,0.000980294 -0.00103575,0.00151874l0 1.78886e-005c-0.000228974,0.000552757 -0.000350616,0.00116991 -0.000350616,0.00181032l0 0.00951314 0.0137044 0 0.00521273 0 -0.00051698 0.00519484 -0.000931995 0.00937003 -0.000423959 0.00427179 -0.00427179 0 -0.0127724 0 0 0.0331797 0 0.00473332 -0.00473332 0 -0.00946484 0 -0.00473332 0 0 -0.00473332 0 -0.0331797 -0.00611431 0 -0.00521273 0 0.00051698 -0.00519484 0.000933784 -0.00937003 0.000425748 -0.00427179 0.00427 0 0.00518053 0 0 -0.00951314c0,-0.00310725 0.000627889,-0.0061805 0.00181032,-0.0090391 0.00118065,-0.00285144 0.00291405,-0.00546675 0.00511971,-0.00767599l0 -1.96774e-005c0.00219672,-0.00219672 0.00482276,-0.00393012 0.00769566,-0.00511971 0.00285859,-0.00118422 0.00592827,-0.00181211 0.0090391,-0.00181211l0.00946663 0 0.00473332 0 0 0.00473332z"/>
  </g>
 </g>
</svg>
