<?xml version="1.0" encoding="UTF-8"?>
<!DOCTYPE svg PUBLIC "-//W3C//DTD SVG 1.1//EN" "http://www.w3.org/Graphics/SVG/1.1/DTD/svg11.dtd">
<!-- Creator: CorelDRAW -->
<svg xmlns="http://www.w3.org/2000/svg" xml:space="preserve" width="12.7mm" height="12.7mm" style="shape-rendering:geometricPrecision; text-rendering:geometricPrecision; image-rendering:optimizeQuality; fill-rule:evenodd; clip-rule:evenodd"
viewBox="0 0 0.397724 0.397724"
 xmlns:xlink="http://www.w3.org/1999/xlink">
 <defs>
  <style type="text/css">
   <![CDATA[
    .fil0 {fill:none}
    .fil1 {fill:#1D1D1B;fill-rule:nonzero}
   ]]>
  </style>
 </defs>
 <g id="Слой_x0020_1">
  <metadata id="CorelCorpID_0Corel-Layer"/>
  <g id="_124211512">
   <rect id="_123285032" class="fil0" width="0.397724" height="0.397724"/>
   <path id="_124587496" class="fil1" d="M0.198017 0.295356l-0.0144778 -0.0129808 -2.81852e-005 0c-0.00826766,-0.00744716 -0.015981,-0.0145373 -0.0231181,-0.0212485 -0.0073031,-0.00686466 -0.0135978,-0.012937 -0.0188653,-0.0182045 -0.00537711,-0.00537711 -0.0104066,-0.0107135 -0.0150822,-0.0159873 -0.00453155,-0.00511718 -0.00848061,-0.00993685 -0.0118315,-0.0144496 -0.00338536,-0.00456287 -0.00631348,-0.00901926 -0.0087656,-0.0133629 -0.00249909,-0.00442508 -0.00446579,-0.00866225 -0.00588757,-0.0127115 -0.00143745,-0.00408999 -0.00251475,-0.00819876 -0.00322251,-0.0123107 -0.000701498,-0.00408059 -0.00105851,-0.00829271 -0.00106164,-0.0126144l-2.81852e-005 0c0,-0.0177097 0.00597526,-0.0325414 0.0179195,-0.0444856 0.00594081,-0.00594081 0.0126708,-0.0104223 0.0201775,-0.0134318 0.00745342,-0.00299076 0.0155582,-0.00448771 0.0243113,-0.00448771 0.00478522,0 0.00955165,0.000529255 0.0142805,0.00157524 0.00465682,0.00103346 0.00919151,0.00258677 0.0135915,0.00464743 0.00442821,0.00206691 0.00853072,0.00455348 0.0122981,0.00743463 0.00164727,0.00125894 0.0032319,0.00259617 0.0047633,0.00401169 0.0015314,-0.00141552 0.00311603,-0.00275275 0.0047633,-0.00401169 0.00376742,-0.00288115 0.00786993,-0.00536771 0.0122981,-0.00743463 0.00440002,-0.00206065 0.00893471,-0.00361397 0.0135915,-0.00464743 0.00473198,-0.00104598 0.00949528,-0.00157524 0.0142805,-0.00157524 0.0177097,0 0.0325414,0.00597526 0.0444856,0.0179195l-1.56584e-005 1.56584e-005c0.005969,0.005969 0.0104567,0.0126927 0.0134506,0.0201587 0.00299076,0.00745342 0.00448771,0.0155614 0.00448771,0.0243113 0,0.00421525 -0.000363276,0.00842424 -0.00108356,0.0126144 -0.000720288,0.00415575 -0.00179759,0.00827392 -0.00322877,0.012342 -0.00140926,0.00398977 -0.00337596,0.00822381 -0.00589384,0.0126802 -0.00245211,0.00434365 -0.00537398,0.00880005 -0.00875933,0.0133629 -0.00335091,0.00451276 -0.00729997,0.00933556 -0.0118315,0.0144496 -0.00467561,0.00527376 -0.0097051,0.0106102 -0.0150822,0.0159873 -0.0052675,0.0052675 -0.0115622,0.0113398 -0.0188653,0.0182045 -0.00713712,0.00671121 -0.0148505,0.0138014 -0.0231181,0.0212485l-2.81852e-005 0 -0.0144778 0.0129808 -0.00497312 0.00445952 -0.00497312 -0.00445952zm-0.0045159 -0.0240858l0.00948902 0.0085088 0.00948902 -0.0085088 -1.25268e-005 -1.25268e-005c0.00851193,-0.00766951 0.0161407,-0.0146782 0.0228801,-0.0210105 0.00661413,-0.0062164 0.0127898,-0.0121917 0.0185145,-0.0179164 0.00560259,-0.00560259 0.0104379,-0.0107041 0.0144966,-0.0152858 0.00419959,-0.00474138 0.00787933,-0.00922909 0.011011,-0.0134537 0.00309724,-0.00416828 0.00568402,-0.00809855 0.00776346,-0.0117814 0.00201368,-0.00356386 0.00361084,-0.00701811 0.00478522,-0.010344 0.0011462,-0.00325069 0.00201054,-0.00654836 0.00258364,-0.00987735 0.000566836,-0.0032914 0.000851819,-0.00666737 0.000851819,-0.0101028 0,-0.00688972 -0.00112741,-0.0131406 -0.00337596,-0.0187526 -0.00224229,-0.0055838 -0.00562138,-0.0106383 -0.0101279,-0.0151417l-3.13169e-005 0c-0.00901613,-0.00901613 -0.0203184,-0.013532 -0.0338943,-0.013532 -0.00386764,0 -0.0075599,0.000394593 -0.0110643,0.00116812 -0.00357639,0.000792317 -0.00707762,0.00199489 -0.0104912,0.00359205 -0.00338536,0.0015815 -0.00657341,0.00352002 -0.00954539,0.00579362 -0.00293752,0.00224855 -0.00564643,0.00483533 -0.00812673,0.00775093l-0.00570594 0.00671121 -0.00570594 -0.00671121c-0.0024803,-0.0029156 -0.00518921,-0.00550238 -0.00812673,-0.00775093 -0.00297197,-0.00227361 -0.00616003,-0.00421212 -0.00954539,-0.00579362 -0.00341354,-0.00159716 -0.00691477,-0.00279973 -0.0104912,-0.00359205 -0.00350436,-0.000773527 -0.00719662,-0.00116812 -0.0110643,-0.00116812 -0.00688972,0 -0.0131406,0.00112741 -0.0187526,0.00337596 -0.00554935,0.00222663 -0.010607,0.00561825 -0.0151448,0.0101561 -0.00901613,0.00901926 -0.013532,0.0203184 -0.013532,0.0338943l-2.81852e-005 0c0,0.00332272 0.000300642,0.00669555 0.000886268,0.0100997 0.000579362,0.0033697 0.00144371,0.00668302 0.00257738,0.00991179 0.00115246,0.00327575 0.00274649,0.00671434 0.00477896,0.0103127 0.00207631,0.00367973 0.00467248,0.00761314 0.00776972,0.0117814 0.00313169,0.00422465 0.00681142,0.00871236 0.011011,0.0134537 0.00405867,0.00458166 0.008894,0.00968318 0.0144966,0.0152858 0.00572473,0.00572473 0.0119004,0.0117 0.0185145,0.0179164 0.00673939,0.00633227 0.0143682,0.013341 0.0228801,0.0210105l-1.25268e-005 1.25268e-005zm0.00535832 -0.27127c0.0549016,0 0.104627,0.0222663 0.140613,0.0582525 0.0359862,0.0359862 0.0582525,0.0857049 0.0582525,0.14061 0,0.0549048 -0.0222663,0.104623 -0.0582525,0.14061 -0.0359862,0.0359862 -0.0857112,0.0582525 -0.140613,0.0582525 -0.0548985,0 -0.10462,-0.0222663 -0.140607,-0.0582525 -0.0359862,-0.0359862 -0.0582525,-0.0857049 -0.0582525,-0.14061 0,-0.0549048 0.0222663,-0.104623 0.0582525,-0.14061 0.0359862,-0.0359862 0.0857081,-0.0582525 0.140607,-0.0582525zm0.123949 0.0749163c-0.0317209,-0.0317209 -0.0755489,-0.0513472 -0.123949,-0.0513472 -0.048394,0 -0.092222,0.0196263 -0.123943,0.0513472 -0.0317209,0.0317209 -0.0513472,0.0755489 -0.0513472,0.123946 0,0.0483971 0.0196263,0.0922251 0.0513472,0.123946 0.0317209,0.0317209 0.0755489,0.0513472 0.123943,0.0513472 0.0484002,0 0.0922282,-0.0196263 0.123949,-0.0513472 0.0317209,-0.0317209 0.0513472,-0.0755489 0.0513472,-0.123946 0,-0.0483971 -0.0196263,-0.0922251 -0.0513472,-0.123946z"/>
  </g>
 </g>
</svg>
