<?xml version="1.0" encoding="UTF-8"?>
<!DOCTYPE svg PUBLIC "-//W3C//DTD SVG 1.1//EN" "http://www.w3.org/Graphics/SVG/1.1/DTD/svg11.dtd">
<!-- Creator: CorelDRAW -->
<svg xmlns="http://www.w3.org/2000/svg" xml:space="preserve" width="8.4668mm" height="8.4668mm" style="shape-rendering:geometricPrecision; text-rendering:geometricPrecision; image-rendering:optimizeQuality; fill-rule:evenodd; clip-rule:evenodd"
viewBox="0 0 0.18737 0.18737"
 xmlns:xlink="http://www.w3.org/1999/xlink">
 <defs>
  <style type="text/css">
   <![CDATA[
    .fil0 {fill:none}
    .fil1 {fill:#021F3E;fill-rule:nonzero}
   ]]>
  </style>
 </defs>
 <g id="Слой_x0020_1">
  <metadata id="CorelCorpID_0Corel-Layer"/>
  <g id="_124210600">
   <rect id="_124589992" class="fil0" width="0.187367" height="0.187367"/>
   <path id="_123288320" class="fil1" d="M0.0897966 0.16867l-0.0113195 -0.0101488 -2.21299e-005 0c-0.00646415,-0.00582238 -0.0124946,-0.0113659 -0.0180757,-0.0166129 -0.00570952,-0.0053665 -0.0106312,-0.0101156 -0.0147496,-0.014234 -0.00420247,-0.00420247 -0.00813717,-0.00837617 -0.0117908,-0.012499 -0.003543,-0.00400109 -0.00663234,-0.00776981 -0.00925031,-0.0112973 -0.00264895,-0.00356734 -0.00493718,-0.00705059 -0.00685364,-0.0104475 -0.00195407,-0.00345891 -0.0034921,-0.00677397 -0.00460302,-0.00993855 -0.0011242,-0.00319777 -0.00196735,-0.00641104 -0.0025206,-0.00962651 -0.000548822,-0.00318892 -0.000827659,-0.00648185 -0.000829872,-0.00986109l-2.21299e-005 0c0,-0.0138467 0.00467163,-0.0254428 0.0140105,-0.0347816 0.00464507,-0.00464507 0.00990756,-0.00814824 0.0157764,-0.0105029 0.00582681,-0.00233692 0.0121648,-0.00350759 0.0190074,-0.00350759 0.00374217,0 0.00746663,0.000413829 0.0111645,0.00123264 0.00364037,0.000807742 0.0071878,0.00202046 0.0106268,0.00363152 0.00346333,0.0016177 0.00666996,0.0035607 0.00961545,0.00581353 0.00128796,0.000984781 0.00252724,0.00202931 0.00372447,0.00313581 0.00119723,-0.0011065 0.0024365,-0.00215103 0.00372447,-0.00313581 0.00294549,-0.00225283 0.00615212,-0.00419583 0.00961545,-0.00581353 0.00343899,-0.00161106 0.00698641,-0.00282378 0.0106268,-0.00363152 0.00369791,-0.000818807 0.00742237,-0.00123264 0.0111645,-0.00123264 0.0138467,0 0.0254428,0.00467163 0.0347816,0.0140105l-1.3278e-005 1.1065e-005c0.0046672,0.0046672 0.008177,0.00992527 0.0105183,0.0157631 0.00233692,0.00582681 0.00350759,0.0121648 0.00350759,0.0190074 0,0.00329514 -0.000283263,0.00658586 -0.000847576,0.0098633 -0.0005621,0.00324867 -0.00140525,0.00646857 -0.00252502,0.00964864 -0.00110207,0.00312032 -0.00263789,0.00642874 -0.00460745,0.0099142 -0.00191645,0.00339694 -0.00420026,0.00688019 -0.00684921,0.0104475 -0.00261797,0.00352751 -0.00570731,0.00729845 -0.00925031,0.0112973 -0.00365365,0.0041228 -0.00758835,0.00829651 -0.0117908,0.012499 -0.00411838,0.00411838 -0.00904007,0.00886746 -0.0147496,0.014234 -0.00558117,0.005247 -0.0116116,0.0107905 -0.0180757,0.0166129l-2.21299e-005 0 -0.0113195 0.0101488 -0.00388823 0.00348767 -0.00388823 -0.00348767zm-0.00352972 -0.0188303l0.00741795 0.00665225 0.00741795 -0.00665225 -8.85197e-006 -1.1065e-005c0.00665447,-0.00599499 0.0126207,-0.0114744 0.0178898,-0.016427 0.00516955,-0.00485973 0.0099983,-0.00953136 0.0144752,-0.0140082 0.00437951,-0.00437951 0.00816151,-0.00836732 0.0113349,-0.0119502 0.00328187,-0.00370676 0.00615876,-0.00721657 0.00860854,-0.0105183 0.00242101,-0.00325974 0.00444369,-0.00633137 0.00607024,-0.00921268 0.00157344,-0.00278616 0.00282156,-0.00548601 0.00373996,-0.00808627 0.000896262,-0.00254273 0.00157122,-0.00512086 0.00202046,-0.00772334 0.000442598,-0.00257371 0.000666111,-0.0052116 0.000666111,-0.00789817 0,-0.00538642 -0.000880771,-0.0102749 -0.0026401,-0.0146611 -0.00175269,-0.00436623 -0.004395,-0.00831864 -0.00791808,-0.0118395l-2.43429e-005 0c-0.00705059,-0.00705059 -0.0158871,-0.0105803 -0.0265006,-0.0105803 -0.00302295,0 -0.0059109,0.000307606 -0.00865058,0.000913966 -0.00279501,0.000619638 -0.00553248,0.00155795 -0.00820135,0.00280829 -0.00264895,0.00123706 -0.00514078,0.00275296 -0.00746442,0.00452999 -0.00229709,0.00175712 -0.00441492,0.00377979 -0.0063535,0.00605917l-0.00446139 0.005247 -0.00446139 -0.005247c-0.00193858,-0.00227938 -0.00405641,-0.00430206 -0.0063535,-0.00605917 -0.00232364,-0.00177703 -0.00481547,-0.00329293 -0.00746442,-0.00452999 -0.00266887,-0.00125034 -0.00540634,-0.00218865 -0.00820135,-0.00280829 -0.00273968,-0.00060636 -0.00562764,-0.000913966 -0.00865058,-0.000913966 -0.00538642,0 -0.0102749,0.000880771 -0.0146611,0.0026401 -0.00433968,0.00174162 -0.00829429,0.00439279 -0.0118417,0.00794021 -0.00705059,0.00705059 -0.0105803,0.0158871 -0.0105803,0.0265006l-2.21299e-005 0c0,0.00259805 0.000234577,0.00523373 0.000692666,0.00789595 0.000453663,0.00263567 0.00112863,0.00522487 0.00201604,0.0077499 0.000900688,0.00256043 0.0021466,0.00524922 0.00373553,0.00806193 0.00162434,0.0028791 0.00365365,0.00595295 0.00607466,0.00921268 0.00244978,0.00330178 0.00532667,0.00681159 0.00860854,0.0105183 0.00317343,0.00358283 0.00695543,0.00757064 0.0113349,0.0119502 0.00447688,0.00447688 0.00930563,0.00914851 0.0144752,0.0140082 0.00526913,0.00495268 0.0112354,0.010432 0.0178898,0.016427l-8.85197e-006 1.1065e-005z"/>
  </g>
 </g>
</svg>
