<?xml version="1.0" encoding="UTF-8"?>
<!DOCTYPE svg PUBLIC "-//W3C//DTD SVG 1.1//EN" "http://www.w3.org/Graphics/SVG/1.1/DTD/svg11.dtd">
<!-- Creator: CorelDRAW -->
<svg xmlns="http://www.w3.org/2000/svg" xml:space="preserve" width="10.5834mm" height="10.5834mm" style="shape-rendering:geometricPrecision; text-rendering:geometricPrecision; image-rendering:optimizeQuality; fill-rule:evenodd; clip-rule:evenodd"
viewBox="0 0 0.314687 0.314687"
 xmlns:xlink="http://www.w3.org/1999/xlink">
 <defs>
  <style type="text/css">
   <![CDATA[
    .fil0 {fill:none}
    .fil1 {fill:#021F3E;fill-rule:nonzero}
   ]]>
  </style>
 </defs>
 <g id="Слой_x0020_1">
  <metadata id="CorelCorpID_0Corel-Layer"/>
  <g id="_123343960">
   <rect id="_123876648" class="fil0" width="0.31468" height="0.31468"/>
   <path id="_124602448" class="fil1" d="M0.129908 0.209881l0.0010169 -5.9468e-005 0.000431143 -2.9734e-005 0.052204 0c0.0016205,0 0.00324101,0.000318154 0.00478718,0.000927701l2.9734e-006 -2.9734e-006c0.0015432,0.000606574 0.0029734,0.00151346 0.00418358,0.00265822l2.9734e-005 2.9734e-005c0.00120423,0.00114476 0.00218248,0.0025036 0.00287231,0.00399625 0.000677936,0.00145994 0.00109421,0.0030745 0.00118936,0.00476339 9.51488e-005,0.00164132 -0.000118936,0.00327966 -0.000621441,0.00481394l-3.27074e-005 2.9734e-005c-0.000529265,0.00159374 -0.00132614,0.00305666 -0.00237277,0.00430251 -0.0010169,0.00121909 -0.00225681,0.00224789 -0.00362755,0.00301503l-1.18936e-005 -2.37872e-005c-0.00136479,0.000770111 -0.00286339,0.00129046 -0.00440955,0.0015313l-0.000484664 7.73084e-005 -0.000282473 1.4867e-005 -0.0010169 5.9468e-005 -0.000431143 2.9734e-005 -0.052204 0c-0.0016205,0 -0.0032529,-0.000330048 -0.00481691,-0.000951488l-8.9202e-006 2.67606e-005c-0.00150751,-0.00059468 -0.00291691,-0.00149562 -0.00414789,-0.00265822 -0.00122504,-0.00115071 -0.00220924,-0.00252739 -0.00290501,-0.00402301 -0.000677936,-0.00146291 -0.00109421,-0.00308639 -0.00118936,-0.00476636 -9.21754e-005,-0.00160861 0.000121909,-0.00324695 0.000636308,-0.00480799l-1.18936e-005 -2.9734e-006c0.000505478,-0.00154022 0.00132316,-0.00300908 0.00240251,-0.00430549l0 -2.9734e-005c0.000993116,-0.00118936 0.00223005,-0.00219734 0.00363052,-0.00298827l0 -2.9734e-005c0.00136479,-0.000764164 0.00287528,-0.0012964 0.00445118,-0.00153428l0.000211111 -2.9734e-005 0.000526292 -3.27074e-005zm-0.0247774 -0.0656497l0.104652 0 5.9468e-006 0 2.9734e-005 2.9734e-005c0.00169781,5.9468e-006 0.00332724,0.000315181 0.00479312,0.000894994l2.9734e-005 2.9734e-005c0.00151346,0.0006036 0.00291393,0.00149562 0.00411519,0.00262849 0.00122504,0.00115665 0.00221221,0.00252442 0.00290501,0.00402599 0.000677936,0.00145994 0.00109421,0.00308044 0.00118936,0.00476636 9.51488e-005,0.0016651 -0.000121909,0.00331832 -0.000624414,0.0048407l-8.9202e-006 -2.9734e-006c-0.000505478,0.00153428 -0.00132019,0.00298827 -0.00239359,0.00427575l0 2.9734e-005c-0.00102582,0.00122504 -0.00226276,0.00225384 -0.00363052,0.003018l-1.18936e-005 -2.37872e-005c-0.00141534,0.000796872 -0.00291988,0.00132911 -0.00443929,0.00155806l-0.000211111 3.27074e-005 -0.000496558 2.9734e-005 -0.0010169 6.24414e-005 -0.000460877 2.9734e-005 -0.104652 0 -2.9734e-006 0 -2.9734e-005 -2.9734e-005c-0.00170079,-5.9468e-006 -0.00333021,-0.000318154 -0.00479312,-0.000894994l-2.9734e-005 -2.9734e-005c-0.00150751,-0.0006036 -0.00291691,-0.00149562 -0.00411816,-0.00262849 -0.00122504,-0.00115665 -0.00220924,-0.00253334 -0.00290204,-0.00402301l1.18936e-005 -5.9468e-006c-0.000695776,-0.00149562 -0.00110313,-0.00310423 -0.00120423,-0.00473366l0 -2.9734e-005c-9.51488e-005,-0.00165618 0.000124883,-0.00328858 0.000624414,-0.00481394l3.27074e-005 -5.9468e-005c0.000520345,-0.00155806 0.00132316,-0.003018 0.00237277,-0.0042698l1.4867e-005 1.18936e-005c0.00104069,-0.00124883 0.00227168,-0.0022806 0.00361268,-0.0030299l1.18936e-005 2.37872e-005c0.00141534,-0.000796872 0.00291691,-0.00132911 0.00443929,-0.00155806l0.000214085 -2.9734e-005 0.000493585 -3.27074e-005 0.0010169 -6.24414e-005 0.000460877 -2.9734e-005zm-0.0393351 -0.0655605l0.183325 0c0.00167105,0 0.0033094,0.000327074 0.00482286,0.000924728l2.9734e-005 2.9734e-005c0.00151049,0.0006036 0.00291096,0.00149265 0.00411816,0.00263146 0.00122207,0.00114773 0.00220924,0.00252144 0.00290501,0.00402301 0.000677936,0.00145994 0.00109421,0.00308044 0.00118936,0.00476636 9.51488e-005,0.00165024 -0.000124883,0.00328858 -0.000624414,0.00481394 -0.000505478,0.0015432 -0.00132316,0.00300611 -0.00240251,0.00430251l0 2.9734e-005c-0.000993116,0.00118639 -0.00223302,0.00219734 -0.00363052,0.00298827l0 2.9734e-005c-0.00136776,0.000764164 -0.00287825,0.00129938 -0.00445118,0.00153428l-0.000208138 3.27074e-005 -0.000529265 2.9734e-005 -0.0010169 5.9468e-005 -0.000431143 2.9734e-005 -0.183325 0 -2.9734e-005 -2.9734e-005c-0.00170079,-5.9468e-006 -0.00333021,-0.000318154 -0.00479312,-0.000894994l-2.9734e-005 -2.9734e-005c-0.00150751,-0.0006036 -0.00291691,-0.00149562 -0.00411816,-0.00262849 -0.00122504,-0.00115963 -0.00220924,-0.00252442 -0.00290501,-0.00402301 -0.000677936,-0.00146291 -0.00109421,-0.00308639 -0.00118936,-0.00476636 -9.51488e-005,-0.00165321 0.000124883,-0.00328858 0.000624414,-0.00481394 0.000505478,-0.0015432 0.00132316,-0.00300611 0.00240251,-0.00430251l2.9734e-005 -2.9734e-005c0.00104664,-0.00124288 0.00226871,-0.00226871 0.00360079,-0.00301503l1.18936e-005 2.37872e-005c0.00136479,-0.000770111 0.00286041,-0.00129046 0.00440955,-0.0015313l0.000499531 -7.73084e-005 0.000237872 -1.4867e-005 0.0010169 -6.24414e-005 0.000460877 -2.9734e-005z"/>
  </g>
 </g>
</svg>
