<?xml version="1.0" encoding="UTF-8"?>
<!DOCTYPE svg PUBLIC "-//W3C//DTD SVG 1.1//EN" "http://www.w3.org/Graphics/SVG/1.1/DTD/svg11.dtd">
<!-- Creator: CorelDRAW -->
<svg xmlns="http://www.w3.org/2000/svg" xml:space="preserve" width="6.35mm" height="6.35mm" style="shape-rendering:geometricPrecision; text-rendering:geometricPrecision; image-rendering:optimizeQuality; fill-rule:evenodd; clip-rule:evenodd"
viewBox="0 0 0.108138 0.108138"
 xmlns:xlink="http://www.w3.org/1999/xlink">
 <defs>
  <style type="text/css">
   <![CDATA[
    .fil0 {fill:none}
    .fil1 {fill:#1D1D1B;fill-rule:nonzero}
   ]]>
  </style>
 </defs>
 <g id="Слой_x0020_1">
  <metadata id="CorelCorpID_0Corel-Layer"/>
  <g id="_124287624">
   <rect id="_123791536" class="fil0" width="0.108138" height="0.108138"/>
   <path id="_122150016" class="fil1" d="M0.0715533 0.0328689c-0.00242842,-0.00200439 -0.00520084,-0.00360006 -0.00819635,-0.00467633 -0.00284054,-0.00101837 -0.00597058,-0.00157694 -0.00928966,-0.00157694 -0.0075901,0 -0.0144598,0.00306874 -0.0194257,0.00802606l1.53267e-005 1.53267e-005c-0.00496754,0.00496754 -0.00804138,0.0118322 -0.00804138,0.0194104 0,0.00757818 0.00307385,0.0144445 0.00804138,0.0194121l-1.53267e-005 1.53267e-005c0.00496584,0.00495732 0.0118356,0.00802606 0.0194257,0.00802606 0.00757988,0 0.0144445,-0.00307385 0.0194121,-0.00804138l1.53267e-005 1.53267e-005c0.0032203,-0.00322541 0.00564361,-0.00725632 0.00694638,-0.0117641l-0.0267706 0 0 -0.0153267 0.0355136 0 0.00766333 0 0 0.00766333c0,0.0117896 -0.00479213,0.0224791 -0.0125304,0.0302191l0 3.06533e-005c-0.00773996,0.00773996 -0.018438,0.0125304 -0.0302497,0.0125304 -0.0117896,0 -0.0224774,-0.00479213 -0.0302174,-0.0125304l-3.06533e-005 0c-0.00773996,-0.00773996 -0.0125304,-0.0184397 -0.0125304,-0.0302497 0,-0.01181 0.00479043,-0.022508 0.0125304,-0.030248l3.06533e-005 0c0.00773996,-0.00773826 0.0184277,-0.0125304 0.0302174,-0.0125304 0.005005,0 0.00987207,0.000895758 0.0144394,0.00253401 0.00468996,0.00168423 0.00899845,0.00415693 0.0127467,0.00725121l-0.00970007 0.0117947z"/>
  </g>
 </g>
</svg>
