<?xml version="1.0" encoding="UTF-8"?>
<!DOCTYPE svg PUBLIC "-//W3C//DTD SVG 1.1//EN" "http://www.w3.org/Graphics/SVG/1.1/DTD/svg11.dtd">
<!-- Creator: CorelDRAW -->
<svg xmlns="http://www.w3.org/2000/svg" xml:space="preserve" width="10.5834mm" height="10.5834mm" style="shape-rendering:geometricPrecision; text-rendering:geometricPrecision; image-rendering:optimizeQuality; fill-rule:evenodd; clip-rule:evenodd"
viewBox="0 0 0.368217 0.368217"
 xmlns:xlink="http://www.w3.org/1999/xlink">
 <defs>
  <style type="text/css">
   <![CDATA[
    .fil0 {fill:none}
    .fil1 {fill:#021F3E;fill-rule:nonzero}
   ]]>
  </style>
 </defs>
 <g id="Слой_x0020_1">
  <metadata id="CorelCorpID_0Corel-Layer"/>
  <g id="_123991624">
   <rect id="_124588288" class="fil0" width="0.36821" height="0.36821"/>
   <path id="_123747880" class="fil1" d="M0.240712 0.0705755l-0.113206 0c-0.0157434,0 -0.0299802,0.00635997 -0.0402543,0.0166375l0 3.82712e-005c-0.0102984,0.0102984 -0.0166758,0.0245353 -0.0166758,0.0402543l0 0.113206c0,0.015719 0.00637737,0.0299559 0.0166758,0.0402543 0.0102984,0.0102984 0.0245353,0.0166723 0.0402578,0.0166723l0.113196 0c0.0157225,0 0.0299629,-0.00637737 0.0402613,-0.0166758 0.0102984,-0.0102984 0.0166758,-0.0245353 0.0166758,-0.0402578l0 -0.113199c0,-0.0157225 -0.00637389,-0.0299594 -0.0166723,-0.0402578 -0.0102984,-0.0102984 -0.0245353,-0.0166723 -0.0402578,-0.0166723zm-0.113206 -0.0184119l0.113206 0c0.0208056,0 0.0396455,0.00843358 0.053277,0.0220651 0.0136315,0.0136315 0.0220651,0.0324714 0.0220651,0.053277l0 0.113199c0,0.0208056 -0.00843705,0.0396455 -0.0220686,0.053277 -0.0136315,0.0136315 -0.0324748,0.0220686 -0.0532804,0.0220686l-0.113196 0c-0.0208056,0 -0.0396455,-0.00843358 -0.053277,-0.0220651 -0.0136315,-0.0136315 -0.0220686,-0.0324714 -0.0220686,-0.0532735l0 -0.113206c0,-0.0208021 0.00843705,-0.039642 0.0220686,-0.0532735l2.08752e-005 2.08752e-005c0.0136489,-0.0136454 0.0324888,-0.0220894 0.0532526,-0.0220894zm0.0580922 0.193242c0.0165366,0 0.0315007,-0.00669398 0.0423279,-0.0175073 0.0108133,-0.0108273 0.0175073,-0.0257913 0.0175073,-0.0423279 0,-0.0165366 -0.00669398,-0.0315007 -0.0175073,-0.0423279 -0.0108273,-0.0108133 -0.0257913,-0.0175073 -0.0423279,-0.0175073 -0.0165366,0 -0.0315007,0.00669398 -0.0423279,0.0175073 -0.0108133,0.0108273 -0.0175073,0.0257913 -0.0175073,0.0423279 0,0.0165366 0.00669398,0.0315007 0.0175073,0.0423279 0.0108273,0.0108133 0.0257913,0.0175073 0.0423279,0.0175073zm0.0552914 -0.00450556c-0.0141603,0.0141569 -0.0337099,0.0229175 -0.0552914,0.0229175 -0.0215815,0 -0.0411311,-0.00876062 -0.0552914,-0.0229175l-3.82712e-005 -3.82712e-005c-0.0141569,-0.0141603 -0.0229175,-0.0337099 -0.0229175,-0.0552914 0,-0.0215815 0.00876062,-0.0411311 0.0229175,-0.0552914l3.82712e-005 -3.82712e-005c0.0141603,-0.0141569 0.0337099,-0.0229175 0.0552914,-0.0229175 0.0215815,0 0.0411311,0.00876062 0.0552914,0.0229175l3.82712e-005 3.82712e-005c0.0141569,0.0141603 0.0229175,0.0337099 0.0229175,0.0552914 0,0.0215815 -0.00876062,0.0411311 -0.0229175,0.0552914l-3.82712e-005 3.82712e-005zm0.0131618 -0.111727c0.00847185,0 0.0153433,-0.00686794 0.0153433,-0.0153433 0,-0.00847185 -0.00687142,-0.0153433 -0.0153433,-0.0153433 -0.00847533,0 -0.0153433,0.00687142 -0.0153433,0.0153433 0,0.00847533 0.00686794,0.0153433 0.0153433,0.0153433z"/>
  </g>
 </g>
</svg>
