<svg xmlns="http://www.w3.org/2000/svg" xml:space="preserve" style="shape-rendering:geometricPrecision;text-rendering:geometricPrecision;image-rendering:optimizeQuality;fill-rule:evenodd;clip-rule:evenodd" viewBox="0 0 0.511 0.511">
<path d="M.321.124H.19A.066.066 0 0 0 .124.19v.131A.066.066 0 0 0 .19.387h.131A.066.066 0 0 0 .387.32V.19A.066.066 0 0 0 .32.124zM.19.103h.131A.087.087 0 0 1 .408.19v.131a.087.087 0 0 1-.087.087H.19A.087.087 0 0 1 .103.321V.19c0-.024.01-.046.025-.062A.087.087 0 0 1 .19.103zm.067.223a.07.07 0 1 0 0-.138.07.07 0 1 0 0 .138zM.321.321a.09.09 0 0 1-.128 0 .09.09 0 0 1 0-.128.09.09 0 0 1 .128 0 .09.09 0 0 1 0 .128zM.336.192a.018.018 0 1 0 0-.036.018.018 0 0 0 0 .036zM.256 0a.255.255 0 0 1 .18.436A.255.255 0 0 1 0 .256.255.255 0 0 1 .255 0zm.159.096a.225.225 0 0 0-.385.16.225.225 0 0 0 .385.159.225.225 0 0 0 0-.319z" style="fill-rule:nonzero"/>
<path style="fill:none" d="M0 0h.511v.511H0z"/></svg>
