<svg xmlns="http://www.w3.org/2000/svg" xml:space="preserve" style="shape-rendering:geometricPrecision;text-rendering:geometricPrecision;image-rendering:optimizeQuality;fill-rule:evenodd;clip-rule:evenodd" viewBox="0 0 0.574 0.574"><path style="fill:none" d="M0 0h.574v.574H0z"/>
<path d="M.466.108a.252.252 0 0 0-.432.18.252.252 0 0 0 .432.178.252.252 0 0 0 0-.358zM.287 0A.286.286 0 0 1 .49.49.286.286 0 0 1 0 .287.286.286 0 0 1 .287 0z" style="fill-rule:nonzero"/>
<path d="M.34.216.337.217H.335L.333.219H.331L.33.22H.326v.002H.324L.322.218H.321L.32.217.318.215H.257L.256.217.254.219.253.22v.208L.255.43h.001l.001.001h.066V.428h.001V.425L.326.3V.298L.327.297V.295h.001V.293h.004V.291h.002L.335.29h.014l.002.001h.001l.002.001.002.002v.001l.001.001.001.001v.001L.36.3v.128h.001V.43h.001l.001.001h.068L.432.43V.429L.434.428V.284L.432.28V.277L.43.274V.27L.429.267V.265L.427.263V.262L.426.26V.258L.424.257V.255H.423V.252L.421.25.42.249V.247H.418V.245L.416.244.415.242V.24H.413L.412.239V.237H.41V.235H.408V.234H.406V.232L.403.231V.23H.402L.4.228H.397V.226L.394.225H.393L.39.223.387.222H.384V.22H.381L.38.218H.376L.374.217H.37L.367.215H.34zM.33.27v.001H.327L.325.273H.324L.322.275H.32v.001H.317v.002H.316L.314.279V.28H.313v.001L.311.282.31.285v.002H.308v.002L.307.29v.002L.305.295v.011l.001.108H.271V.235h.034v.011h.001l.001.001v.001h.001V.25h.003l.001.001h.006L.32.25.323.248h.001V.246L.326.245h.001V.243H.33V.242h.001L.332.24h.002L.337.239h.001L.34.237h.002L.343.235h.02l.004.001H.37l.003.001h.001L.376.24H.38v.002h.001l.002.002h.001l.002.001.001.001.002.001H.39l.001.001v.001h.002V.25h.001l.001.001.002.001v.001L.4.254v.002h.001v.002h.001v.001h.001L.404.26l.001.002.002.002v.002l.001.001V.27H.41v.004l.001.001.001.003V.28l.001.003v.003l.001.006.001.122H.379V.3L.378.296V.294L.376.29.375.288V.286L.373.285V.284H.372V.281L.37.28H.368V.279L.367.277.365.276H.364L.363.274.362.273H.36L.357.271H.356L.353.27H.331zM.181.234h.035v.179H.18V.234zM.168.216h.058c.004 0 .008.003.008.007v.201a.007.007 0 0 1-.008.007H.17A.007.007 0 0 1 .162.424v-.2c0-.005.003-.008.007-.008zM.2.146c.009 0 .016.008.016.017C.215.173.208.18.198.18A.017.017 0 0 1 .181.163c0-.01.008-.017.017-.017zm0-.02c.02 0 .036.017.036.037A.038.038 0 0 1 .198.2.037.037 0 0 1 .162.163c0-.02.016-.036.036-.036z" />
</svg>
