<svg width="160" height="60" viewBox="0 0 160 60" fill="none" xmlns="http://www.w3.org/2000/svg">
<g clip-path="url(#clip0_53_41)">
<path d="M136.93 33.6211C137.992 34.9139 139.089 36.1977 140.231 37.4456C141.373 38.7019 142.566 39.9594 143.822 41.2163C142.777 42.066 141.689 42.987 140.556 43.9777C139.423 44.978 138.212 46.0759 136.93 47.289C135.595 46.0231 134.357 44.8988 133.225 43.916C132.092 42.9337 131.013 42.0302 129.985 41.2163C131.223 39.9773 132.417 38.7199 133.576 37.4456C134.726 36.1797 135.85 34.9045 136.93 33.6211Z" fill="#FFCC00"/>
<path d="M137.518 25.6119C134.945 29.2236 132.408 32.9679 129.905 36.8537C127.403 40.7306 124.918 44.75 122.442 48.9188L119.281 44.3603C122.407 39.6776 125.19 35.4198 127.64 31.6048C130.098 27.7808 132.364 24.1601 134.462 20.7344L131.091 15.8308C132.565 14.8655 134.023 13.8652 135.463 12.8386C136.903 11.8114 138.308 10.7759 139.678 9.74023C142.909 15.3086 146.21 20.8051 149.599 26.2493C152.988 31.684 156.456 37.0665 160.003 42.3866C158.634 43.2538 157.211 44.2275 155.736 45.3075C154.261 46.3876 152.716 47.591 151.1 48.9187C148.87 44.9262 146.631 40.9966 144.375 37.1367C142.118 33.2689 139.835 29.4269 137.518 25.6119Z" fill="#004E9C"/>
<path d="M106.995 47.5465C107.039 46.6619 107.082 45.7854 107.109 44.8997C107.135 44.0147 107.144 43.1384 107.144 42.2802C104.264 44.2004 101.7 45.5989 99.4526 46.476C97.205 47.3607 95.1155 47.8036 93.1749 47.8036C89.9176 47.8036 87.5993 46.8209 86.2033 44.8563C84.8162 42.8991 84.1227 39.562 84.1227 34.862V28.3822C84.1227 26.3019 84.0875 24.0179 84.017 21.5221C83.9468 19.0257 83.8503 16.1749 83.71 12.9799L85.5098 11.2715C86.6601 11.3507 87.5291 11.4129 88.1174 11.4394C88.7145 11.4664 89.2766 11.4748 89.8035 11.4748C90.769 11.4748 92.2088 11.4129 94.1229 11.2889H94.2811C94.158 14.0065 94.0706 16.9545 94.0087 20.1494C93.9474 23.3367 93.9213 26.8242 93.9213 30.6127C93.9213 34.7906 94.4042 37.6325 95.3785 39.1284C96.3444 40.6241 98.074 41.3682 100.559 41.3682C101.621 41.3682 102.692 41.1907 103.773 40.8368C104.852 40.4826 105.958 39.9344 107.091 39.1903V38.4382C107.161 32.8878 107.197 28.8246 107.197 26.249C107.197 23.4162 107.179 20.7694 107.144 18.3173C107.109 15.8655 107.056 13.5196 106.995 11.2888C108.189 11.3596 109.093 11.4129 109.69 11.4393C110.287 11.4663 110.849 11.4748 111.367 11.4748C111.876 11.4748 112.438 11.4663 113.044 11.4393C113.659 11.4129 114.492 11.3506 115.555 11.2715L117.355 12.9799C117.232 15.5025 117.145 18.105 117.083 20.7958C117.021 23.487 116.995 26.3018 116.995 29.2582C116.995 32.2149 117.021 35.083 117.083 37.8447C117.145 40.6067 117.232 43.3328 117.355 46.0149L115.661 47.5465C114.975 47.4937 114.265 47.4492 113.535 47.4224C112.807 47.3961 112.087 47.3869 111.367 47.3869C110.647 47.3869 109.918 47.3961 109.181 47.4224C108.443 47.4492 107.714 47.4937 106.995 47.5465Z" fill="#004E9C"/>
<path fill-rule="evenodd" clip-rule="evenodd" d="M1.17188 25.377L1.22599 25.4043L1.26442 25.4429L1.34076 25.4809H1.4166V25.6351L1.45503 25.6736L1.4932 25.7501L1.53137 25.8273L1.56979 25.8652L1.60721 25.9422L1.64563 26.0194L1.68381 26.0959L1.72198 26.1352L1.7604 26.2116L1.83674 26.2501L2.25613 26.2888L2.29455 26.3265L2.37039 26.3653L2.48516 26.4038L2.52333 26.4423V26.558V27.0965L2.561 27.1737L2.59917 27.2111L2.67577 27.2497H2.82871L2.86637 27.2111L2.90455 27.1737H3.01931H3.36235L3.40053 27.2111H3.51529L3.59113 27.1737V27.0965H3.7059L3.74407 27.0189L3.78174 26.8654L3.82004 26.7881L3.85833 26.7507L3.89651 26.7116L3.93468 26.6731L4.04945 26.6344H4.12529L4.20188 26.6731L4.24005 26.7116L4.27772 26.7507L4.39249 26.7881L4.43066 26.8274L4.46883 26.8654H4.54543V26.9423H4.62127V27.0575L4.65957 27.0965L4.69786 27.1345L4.73603 27.1737L4.77421 27.2111L4.81187 27.2882L4.85017 27.3266L4.88847 27.3652L4.92664 27.4038L4.96481 27.4431L5.72801 27.4803H6.22399H6.26217L6.45277 27.5196L6.5287 27.5574L6.56689 27.6345L6.64337 27.673L6.68166 27.7111L6.71996 27.7496L6.75815 27.7887L6.79628 27.8267L7.44472 27.8653L7.48291 27.9804L7.52071 28.0189L7.59713 28.0575L7.63532 28.1345L7.7113 28.1725H8.81787L8.93265 28.1345L9.00852 28.0954L9.08495 28.0575L9.12325 28.0189L9.19973 27.9804L9.23742 27.9418L9.2756 27.9033H9.35203H9.42862V27.9804L9.5045 28.0189H9.61928V28.0954L9.65741 28.1345L9.6957 28.1725H9.77158V28.2882L9.80988 28.3261L9.84801 28.3648L9.8863 28.4418L9.92399 28.5189L9.96218 28.5955L10.0005 28.634L10.0388 28.6726L10.077 28.7112H10.1534V28.7877L10.1916 28.8268L10.2294 28.8647L10.2676 28.904L10.3057 28.9418L10.344 28.9798L10.4205 29.0183L10.4582 29.0571L10.4963 29.4419L10.5347 29.519L10.5729 29.5961L10.6111 29.634L10.7635 29.672L11.2213 29.7105H11.6407L11.7173 29.672L11.7937 29.634L11.832 29.5961L11.8701 29.5571L11.9084 29.519L11.9461 29.4799L11.9843 29.4034L12.0226 29.3648L12.0609 29.3262L12.099 29.2877L12.1372 29.2497V29.0955H12.2133L12.2515 29.0571L12.2896 29.0183L12.3278 28.9418L12.4044 28.904L12.4421 28.8647L12.4802 28.8268L12.5184 28.7492L12.595 28.7112L12.6327 28.6726L12.6708 28.634L14.426 28.5955L14.6171 28.5581L14.6929 28.5189L14.8077 28.4809L14.8836 28.4418L14.9602 28.4033L15.9903 28.3648L16.2956 28.3261L16.4097 28.2882L16.4478 28.2117L16.5244 28.1725L16.6769 28.1345L16.7532 28.0954L16.7917 28.0189L16.8298 27.9804L16.8675 27.4431L16.9057 27.3652L16.9438 27.2882L17.0963 27.2497L17.1729 27.2111L17.2876 27.1737L17.3258 27.1345L17.707 27.0965L17.7836 27.0575L17.8211 27.0189L17.8976 26.9803H18.0505L18.1648 27.0189L18.203 27.0575H18.6224L18.699 27.0189L18.7372 26.9803L18.813 26.9423L18.8513 26.9038L18.8896 26.8654L18.9278 26.7881L19.0044 26.7507L19.0425 26.7116L19.0802 26.6344L19.0813 26.014L19.1949 26.0574L19.2331 26.1352L19.309 26.1731L19.3473 26.2116L19.4237 26.2501L19.5003 26.2888L19.5761 26.3265L19.6143 26.3653H19.7673L19.8432 26.3265L19.8815 26.2888L19.9197 26.2501L19.9579 26.2116L19.9586 26.014L20.1103 26.0574L20.1485 26.1352L20.1869 26.1731L20.2251 26.2116L20.3009 26.2501L20.3775 26.2888L20.4539 26.3265H20.9498L21.0258 26.2888L21.064 26.2116L21.1023 26.1731L21.1404 26.0194L21.1787 25.9037L21.1793 25.8218L21.2929 25.8652H21.484L21.5599 25.8273L21.5982 25.7893L21.6364 25.7501L21.6746 25.7122H21.7506L21.7889 25.7501L21.8653 25.7893L22.2466 25.8273L22.7807 25.8652L22.9719 25.9037L23.0479 25.9422L23.0861 26.0194L23.1244 26.0574L23.1625 26.1352L23.2008 26.1731L23.2385 26.2116H23.315V26.2888L23.3531 26.3265L23.3914 26.3653H23.5056V26.4423L23.5821 26.4815H23.6585V26.558L23.7727 26.5959L23.8492 26.6344L23.8875 26.6731L23.9633 26.7116H24.0399V26.7881L24.0781 26.9038L24.1164 26.9423L24.1545 26.9803L24.1927 27.0575L24.2305 27.0965L24.4593 27.1345L24.4975 27.1737L24.5358 27.2111L24.574 27.2882L24.6122 27.3266L24.6505 27.3652H24.8794L24.917 27.3266L24.9552 27.2882L24.9934 27.2497L25.0318 27.2111L25.07 27.1737H25.1465H25.2606V27.2497H25.1846L25.1465 27.2882L25.1082 27.3266V27.7496L25.1465 27.7887L25.1846 27.8267H25.4512V27.9418L25.4894 28.0189L25.566 28.0575L25.6042 28.0954L25.6425 28.1345L25.68 28.1725H25.9472L25.9854 28.1345L26.0237 28.0954L26.062 28.0189L26.1001 27.8267L26.1384 27.7496L26.2907 27.7111H26.4055L26.5579 27.7496L26.6338 27.7887L26.7104 27.8267L26.8249 27.8653L26.8632 27.9033L26.9015 27.9418L26.9392 27.9804L27.0155 28.0189H27.0921V28.0954L27.1298 28.1725L27.1679 28.2117L27.2061 28.2496L27.2445 28.3648L27.3209 28.4033L27.3592 28.4809L27.3967 28.5955L27.4352 28.6726L27.4733 28.7112L27.5115 28.7492L27.5499 28.7877L27.5881 28.904H27.6639V28.9798L27.7021 29.0183L27.7405 29.0571L27.7787 29.0955L27.8169 29.134L27.8552 29.1731L27.9311 29.2112L27.9693 29.2497H28.3128L28.3505 29.2112L28.3887 29.1731L28.4271 29.134L28.4653 29.0955H28.58V29.3262L28.6182 29.4034V29.5961V29.9027V30.2493L28.58 30.2883V30.3642H28.5034L28.4653 30.4027L28.4271 30.4799L28.3887 30.5184L28.3505 30.6342L28.3128 30.7106L28.2746 31.0949L28.2365 31.2491V31.7487L28.2746 31.7872L28.3128 31.9022L28.3505 31.9413H28.4653V32.0186L28.5034 32.0566L28.5416 32.095L28.6182 32.133L28.694 32.1716L28.7322 32.2101L28.8088 32.2487L28.8465 32.3253L28.8847 32.3649L28.9228 32.4023L28.9613 32.4409L28.9994 32.4794L29.076 32.518L29.1142 32.5559L29.1524 32.5944L29.1901 32.6716L29.2282 32.7108L29.2667 32.7481L29.3048 32.7866L29.343 32.8252L29.3807 32.8638L29.4188 32.9023L29.4572 32.9799L29.4954 33.0175L29.5336 33.0566L29.572 33.1331L29.6094 33.1717L29.6478 33.2102H29.9148L29.9532 33.0175L29.9914 32.9023H30.068L30.1054 32.9409V33.0175L30.068 33.0945L30.0295 33.2482L29.9914 33.3258L29.9532 33.403L29.9148 33.7867L29.8766 33.8253L29.8008 33.8639L29.7626 33.9019L29.7242 33.9404V34.171L29.7626 34.2483L29.8008 34.2868L29.8766 34.3252L29.9148 34.4019L29.9914 34.4409L30.068 34.4789L30.182 34.5174V34.5554L30.1438 34.6326L30.1054 34.7103L30.068 34.7868V35.0939L30.1054 35.1711L30.1438 35.2091L30.182 35.2862L30.2202 35.3248L30.2586 35.4026L30.2968 35.479L30.3349 35.5554L30.4108 35.5939L30.4492 35.6705L30.4874 35.7091L30.5632 35.7484L30.7543 35.7863L30.8309 35.8249L30.9068 35.8633L30.945 35.9013L31.0215 35.9398L31.0974 35.9784L31.174 36.017L31.3263 36.0555L31.4027 36.094H31.5175V36.5171L31.5557 37.5935L31.5933 37.7472L31.6315 37.9008L31.6699 38.1707L31.7081 38.2472L31.7847 38.2857L31.8229 38.3237L31.8605 38.4009L31.9369 38.4394H32.0516V38.5171L32.1275 38.5551L32.2041 38.593L32.2799 38.6315L32.3181 38.7088H32.2041H31.6699L31.4409 38.7473L31.3646 38.7853L31.3263 38.8237H31.2887L31.2503 38.7853L31.2121 38.7473L31.174 38.5551L31.1356 38.4779L31.0974 38.4009L31.0592 38.3622L31.0215 38.3237L30.9834 38.2857L30.945 38.2472H30.678L30.6014 38.2857L30.5632 38.3622L30.5255 38.4009L30.4874 38.4394L30.4492 38.5171L30.4108 38.6315L30.3726 38.593L30.3349 38.5551L30.2968 38.4009L30.2586 38.3622L30.2202 38.2857L30.182 38.2472L30.1438 38.2087L30.0295 38.1707L29.9532 38.1315L29.9148 38.093L29.8389 38.0551L29.8008 38.0166H29.5336L29.4954 38.0551L29.4572 38.093L29.4188 38.1315L29.3807 38.1707L29.3048 38.2087L29.2282 38.2472L29.1901 38.2857L29.1524 38.3622L29.0376 38.4009L28.9994 38.4394L28.9228 38.4779L28.8088 38.5171V38.4394L28.7706 38.3622L28.7322 38.2087V38.0551V37.9008L28.694 37.7856L28.6559 37.7472H28.3505L28.2746 37.7856L28.1981 37.8249L28.084 37.8628L28.0075 37.9008L27.9311 37.9393L27.8927 37.9778L27.7787 38.0166V38.093H27.7021L27.6639 38.1315L27.5881 38.1707L27.5115 38.2087L27.4733 38.2472L27.4352 38.2857L27.3967 38.3237L27.3592 38.4009V38.7853L27.3967 38.9774L27.4352 39.1322L27.4733 39.6701L27.5115 39.7467L27.5499 39.8238L27.5881 39.9011L27.6263 39.9775L27.6639 40.016V40.2474L27.6263 40.3239L27.5881 40.3618L27.5499 40.4775V40.5545H27.4733L27.4352 40.6311L27.3967 40.6697L27.3592 40.7082L27.3209 40.7848L27.2827 40.9396V41.0925V41.1311L27.2445 41.1696V41.2462H26.9773L26.7867 41.2853L26.7104 41.3233L26.6719 41.4004L26.5961 41.439L26.5579 41.477L26.5196 41.5155L26.4813 41.6692V42.1692H26.3672L26.329 42.2077L26.2907 42.2468L26.2144 42.2849L26.1384 42.324L26.1001 42.3614L26.062 42.3999L26.0237 42.4383L25.9854 42.4771L25.9472 42.5927L25.9095 42.6697L25.8331 42.7077L25.7566 42.7457L25.6425 42.7842L25.6042 42.8227L25.5277 42.8614L25.4512 42.8999L25.4136 43.0156L25.3754 43.0536L25.3371 43.092V43.3999L25.3754 43.5149L25.4136 43.5921V43.938L25.2988 43.977L25.2606 44.0149L25.1846 44.0542L25.1082 44.0922H24.6886H24.3834L24.2305 44.1301L24.1927 44.1686L24.1545 44.2458L24.1164 44.2843L24.0781 44.3608V44.6692L24.1164 44.8223L24.1545 44.8994L24.1927 44.9765L24.2305 45.015L24.2687 45.0923L24.3451 45.1301L24.3834 45.2072L24.4211 45.2453L24.5358 45.2838L24.574 45.3222L24.6122 45.3614L24.6886 45.3995L24.7264 45.438L24.8411 45.476H24.917V45.5916L24.9552 45.6296L24.9934 45.6681L25.0318 45.7072L25.07 45.7845L25.1082 45.8223L25.1465 45.8609L25.1846 45.8988L25.2606 45.9375L25.2988 45.976L25.566 46.0145L25.68 46.0536L25.7948 46.0917L25.8331 46.1302L25.9095 46.1682L26.1384 46.2067H26.6338L26.7104 46.1682L26.7485 46.0145V45.8988V45.6681V45.5144H26.9015V45.5916L26.9392 45.6296L26.9773 45.7453L27.0155 45.7845L27.0539 45.8609L27.0921 45.8988L27.1679 45.9375H27.4352L27.5115 45.8988L27.5881 45.8609L27.6263 45.8223L27.7787 45.7845L27.8169 45.7453L27.8927 45.7072L27.9311 45.6681L28.0075 45.6296L28.0458 45.5916L28.1222 45.553L28.1981 45.5144L28.2746 45.476L28.3887 45.438L28.4653 45.3995L28.5034 45.3614L28.58 45.3222L28.6559 45.2838L28.8088 45.2453L28.9228 45.2072L29.0376 45.1687L29.1142 45.1301H29.6478L29.7242 45.1687L29.7626 45.2072L29.8008 45.2453L29.8766 45.2838L29.9148 45.3222L29.9532 45.3614L29.9914 45.3995L30.0295 45.438L30.068 45.5916L30.1054 46.0536L30.1438 46.2454L30.182 46.3218L30.2202 46.3603L30.2586 46.4375L30.3349 46.4765H30.4492H30.6014H30.7928L30.8309 46.4375L30.8686 46.3218L30.9068 46.1682L30.945 46.0536L30.9834 45.976L31.0215 45.9375L31.0592 45.8609L31.0974 45.8223L31.174 45.7845L31.2121 45.7072L31.2503 45.6296V45.2072L31.2121 45.0923L31.174 44.9765L31.1356 44.9379L31.0974 44.8994L31.0592 44.8608H30.9834V44.7837L30.945 44.7464L30.9068 44.7072L30.8686 44.6692L30.7928 44.6302L30.7543 44.5915L30.7162 44.5531L30.6398 44.515L30.6014 44.4765L30.5632 44.3608L30.5255 44.2843L30.4874 44.1686L30.4492 43.977L30.4108 43.8615V43.6314L30.4492 43.4384L30.4874 43.0156H30.5255L30.5632 43.1305L30.6014 43.6686L30.6398 43.7843L30.678 43.8227L30.7543 43.8615L30.7928 43.8994L30.9068 43.938L31.0215 43.977H31.2121L31.2887 43.938L31.3646 43.8994L31.4027 43.8227L31.4409 43.7843L31.4793 43.7078L31.5175 43.6314V43.2849L31.4793 43.2458L31.4409 43.1693L31.4027 43.1305L31.6315 43.092L31.6699 43.0536L31.7081 43.0156L31.7463 42.939L31.7847 42.8614L31.8229 42.6305V42.5535H31.8987L31.9369 42.5156L32.0135 42.4771L32.0516 42.4383L32.1659 42.3999H32.2799L32.3181 42.4383L32.3565 42.4771L32.3947 42.5156L32.4713 42.5535H32.6235L32.6619 42.5156L32.7383 42.4771L32.7759 42.3999L33.1195 42.3614L33.196 42.324L33.2342 42.2849L33.2719 42.2468L33.3101 42.2077L33.3484 42.1692L33.3866 42.0926V42.0155H33.463L33.5014 41.9383L33.5396 41.8234L33.5772 41.7849L33.6154 41.7077L33.6536 41.6692L33.692 41.477L33.7302 41.439L33.7684 41.4004L33.806 41.3233L33.8443 41.2853L33.8826 41.1696L33.9208 41.0541V40.8232L33.8826 40.5165L33.8443 40.3618L33.806 40.2854L33.7684 40.2082L33.7302 40.1702H33.6536V40.0925L33.6154 40.0544L33.5396 40.016L33.463 39.9775L33.4248 39.9011L33.3866 39.8623L33.3484 39.8238L33.3101 39.7853L33.2719 39.7467L33.2342 39.7081L33.1576 39.6701L33.1195 39.6316L33.0813 39.5552L33.0436 39.516L33.0055 39.4775L32.967 39.401L32.9289 39.3622L32.8907 39.2853L32.8525 39.2088L32.8141 39.0931L32.7759 38.9009V38.7853L32.967 38.7473L33.0055 38.7853L33.0436 38.8237L33.0813 38.9009L33.1195 38.9774L33.196 39.0159L33.2342 39.0544L33.2719 39.1322L33.3101 39.2853L33.3484 39.3622L33.3866 39.4395L33.4248 39.516L33.463 39.5552L33.5014 39.5932L33.5396 39.6316L33.6154 39.6701H33.692V39.7853L33.7302 39.9389L33.7684 40.0544L33.806 40.0925L33.8443 40.131L33.9208 40.1702L33.9974 40.2082L34.0356 40.2854L34.0733 40.3239L34.1114 40.3618L34.188 40.4003H34.455L34.531 40.3618L34.5693 40.3239L34.6074 40.2854L34.6456 40.2474L34.6839 40.2082L34.7222 40.1702V40.0544H34.798L34.8362 39.9389L34.8745 39.7081L34.9128 39.6316L34.9509 39.5552L35.0269 39.516L35.1034 39.4775L35.1415 39.401L35.1798 39.3622L35.2563 39.3237L35.294 39.2088L35.3321 39.1322L35.3704 38.4394L35.4087 38.2472L35.4469 38.0551L35.5229 38.0166L35.5994 37.9778H35.8281H36.0571L36.2101 37.9393L36.3242 37.9008L36.3624 37.8628L36.4389 37.8249L36.5147 37.7856V37.7087H36.6295L36.706 37.6707L36.7436 37.5935H37.0107L37.5067 37.6321L37.545 37.6707L37.6215 37.7087H38.0027L38.0792 37.6707L38.1175 37.6321V37.5165H38.1938L38.2316 37.4393L38.2698 37.4013V37.3244H38.3462L38.4228 37.2858V37.3628L38.4604 37.4013L38.5369 37.4393L38.5751 37.4785L38.6134 37.5165H38.9187L38.9946 37.4785L39.0329 37.4393H39.1476L39.2235 37.4785L39.3382 37.5165H40.0631L40.1012 37.4785L40.1771 37.4393L40.2155 37.4013L40.2537 37.3628L40.2918 37.1706H40.3301L40.3683 37.2092L40.4066 37.3244L40.4824 37.3628H40.8643V37.4393L40.9026 37.5165L40.9403 37.6321L40.9784 37.6707L41.0166 37.7087L41.0932 37.7472L41.1309 37.7856H41.322L41.3986 37.7472L41.5126 37.7087H41.7032L41.7416 37.7472H41.818V37.8249L42.0851 37.8628L42.0469 37.9008H41.665L41.5126 37.8628L41.3603 37.8249H40.7496H40.5207L40.4443 37.7856L40.3301 37.7472L40.2537 37.7087L40.1395 37.6707L39.9106 37.6321L39.3765 37.5935H38.6897L38.6134 37.6321L38.5751 37.6707L38.5369 37.7087L38.4986 37.7856V37.9778L38.5369 38.0551L38.5751 38.093L38.6134 38.1707L38.6516 38.2087L38.6897 38.2472L38.7657 38.2857L38.804 38.3622L38.8805 38.4009L38.9187 38.4394L38.9946 38.4779L39.0329 38.5171L39.0711 38.5551L39.1476 38.593H39.3765L39.4142 38.5551L39.4523 38.5171L39.4905 38.4779L39.5288 38.4394L39.5671 38.3237L39.6053 38.2857H39.7196L39.7577 38.3237L39.7959 38.3622L39.8724 38.4009L39.9483 38.4394L40.3301 38.4779L40.4066 38.5171V38.593L40.3683 38.7473L40.3301 38.8237L40.2918 38.863L40.2537 38.9009L40.1771 38.9394L40.1012 38.9774H40.0631L40.0248 38.9394H39.7196L39.6818 38.9774L39.6436 39.0544L39.6053 39.0931L39.5671 39.1322L39.5288 39.2088V39.516L39.6053 39.5552L39.6436 39.5932H40.0248L40.0631 39.5552H40.2155L40.2537 39.5932L40.3301 39.6316L40.4066 39.6701L40.559 39.7081L40.5972 39.7467L40.673 39.7853H40.7496V39.8623L40.8643 39.9011L40.9026 39.9389L40.9403 39.9775L41.0166 40.016L41.0932 40.0544L41.2072 40.0925L41.2457 40.131L41.2838 40.2082L41.3603 40.2474L41.3986 40.2854L41.4744 40.3239L41.5126 40.3618L41.5892 40.4003L41.7032 40.4389L41.7416 40.4775L41.7798 40.5165L41.818 40.5931L41.8946 40.6311L41.9322 40.6697H42.0086V40.7467L42.1992 40.7848L42.7336 40.8232L42.8858 40.8618H43.1912L43.3059 40.8232L43.3818 40.7848L43.4965 40.7467L43.5731 40.7082L43.6113 40.6697L43.6489 40.6311L43.7253 40.5931L43.7637 40.5545L43.8019 40.5165L43.8777 40.4775L44.832 40.4389L44.9079 40.4003L44.9463 40.3618H45.0226L45.0603 40.4003H45.4804L45.5563 40.3618L45.5944 40.3239L45.6326 40.2854L45.671 40.2474L45.7092 40.2082L45.7474 40.1702L45.7858 40.131L45.824 40.2082L45.8998 40.2474L45.938 40.2854L45.9764 40.3239L46.0528 40.3618L46.0904 40.4003L46.167 40.4389L46.2052 40.4775L46.2434 40.5165L46.2818 40.5545L46.3192 40.5931L46.434 40.6311L46.4724 40.6697L46.5106 40.7082L46.5488 40.7467L46.663 40.7848L46.7394 40.8232L46.8152 40.8618H47.0824L47.1587 40.8232L47.1972 40.7848L47.2353 40.5545L47.273 40.4003L47.3112 40.2854L47.3494 40.2082V40.4003L47.3877 40.4775L47.4259 40.5545L47.4641 40.5931H47.5407V40.6697L47.622 40.6702L47.5784 40.8232L47.5407 40.9003L47.5025 41.0155L47.4641 41.1311V41.2853L47.5025 41.3233L47.5407 41.4004L47.5784 41.439L47.7313 41.477L47.8896 41.4793L47.8454 41.5546L47.8071 41.6318L47.7695 41.6692L47.7313 41.7077L47.6931 41.7462L47.0447 41.7849L47.0066 41.8234L46.93 41.8613L46.8918 41.8998L46.8536 41.9383L46.777 41.9775L46.7394 42.0155L46.7012 42.054L46.663 42.0926L46.6246 42.1305L46.4724 42.1692L46.3192 42.2077L46.2818 42.2468L46.2434 42.2849L46.2052 42.324L46.0904 42.3614L46.0528 42.4383L46.0146 42.4771L45.938 42.5156L45.8998 42.5535L45.8616 42.5927L45.824 42.6305L45.7858 42.6697L45.671 42.7077L45.5944 42.7457L45.5186 42.7842L45.4038 42.8227L45.328 42.8614L45.1751 42.8999L45.0985 42.939L45.0226 42.9771L44.9463 43.0156L44.7939 43.0536L44.7173 43.092L44.6791 43.1305L44.6025 43.1693L44.5267 43.2078L44.4503 43.2458L44.3737 43.2849L44.336 43.3227V43.3999H44.2597L44.1449 43.4384L44.1065 43.4764L44.0691 43.5149L43.9925 43.5536L43.9543 43.5921L43.9159 43.6314L43.8777 43.6686L43.84 43.7078L43.8019 43.7458L43.7637 43.7843L43.7253 43.8227L43.6489 43.8615L43.6113 43.8994L43.4584 43.938L43.2678 43.977L43.153 44.0149L43.0772 44.0542V44.1301H43.0006L42.9624 44.1686L42.9242 44.2071L42.8858 44.2458L42.8476 44.3608L42.8099 44.438L42.7718 44.515L42.7336 44.6302V44.8223L42.7718 44.9765L42.8099 45.0923L42.8476 45.1687L42.8858 45.2838L42.9242 45.3614L42.9624 45.438L43.0006 45.476L43.0387 45.5144L43.0772 45.5916H43.3059L43.3436 45.553L43.3818 45.5144L43.4199 45.476L43.4584 45.438L43.4965 45.3614L43.5731 45.3222L43.8019 45.2838L44.2597 45.2453L44.3737 45.2072H44.5267L44.6791 45.2453L44.7939 45.2838L44.832 45.3222L44.8697 45.3995L44.9079 45.438L44.9845 45.476L45.0226 45.5144L45.0603 45.5916L45.0985 45.6296L45.1751 45.6681L45.2132 45.7453L45.2514 45.7845L45.328 45.8223H45.4038V45.8988L45.442 45.9375L45.4804 45.976H45.5563V46.0917L45.5944 46.1302L45.6326 46.1682L45.7092 46.2067L45.7474 46.2839L45.8616 46.3218H46.3576L46.3958 46.2839L46.4724 46.2454L46.5488 46.2067H46.777L46.8536 46.2454L46.93 46.2839L46.9681 46.3218L47.0066 46.3603L47.0447 46.3994L47.0824 46.4375L47.1206 46.4765L47.1587 46.5145L47.1972 46.5525L47.2353 46.591L47.273 46.6297L47.3112 46.6682L47.3494 46.7067L47.3877 46.7458L47.4259 46.7831L47.5025 46.8224L47.5407 46.8604H47.6165V46.9376L47.6547 47.0525V47.6676L47.6165 47.9754L47.5784 48.0526L47.5025 48.0911L47.4641 48.1296L47.4259 48.2068V48.6291L47.4641 49.3599H47.273L47.1587 49.3984L47.1206 49.4364L47.0447 49.4749L46.9681 49.514L46.93 49.5522L46.8918 49.6292L46.8536 49.7058V50.0136L46.8918 50.0906L46.93 50.1671L46.9681 50.2443L47.0066 50.3208L47.0447 50.398L47.0824 50.4365L47.1206 50.475L47.1587 50.5136L47.1972 50.5527L47.2353 50.5902L47.273 50.6292L47.3494 50.6672L47.4259 50.7058H47.8837V50.8208L47.9219 50.8593L47.9601 50.9365L47.9985 50.975L48.0361 51.013L48.0744 51.0515L48.1125 51.0903L48.1891 51.1287L48.2273 51.1672H49.524L50.0965 51.1287L50.2112 51.0903V51.013H50.2871L50.3252 50.975L50.3635 50.9365L50.4018 50.8593L50.44 50.7829L50.4782 50.7058L50.5924 50.6672L50.7447 50.6292L50.783 50.5902L50.8595 50.5527L50.936 50.5136L51.0118 50.475L51.0884 50.4365L51.1266 50.398L51.1647 50.3593L51.2407 50.3208L51.279 50.2828L51.3172 50.2064L51.3554 50.1286L51.3937 50.0906L51.432 50.0136L51.4701 49.9371L51.5078 49.6292L51.5461 49.514L51.5843 49.4364L51.6226 49.3984L51.6608 49.3599L51.6985 49.2449L51.7749 49.2063L51.8132 49.1684L51.8514 49.0906L51.928 49.0521L52.0421 49.0134L52.1186 48.9755L52.1949 48.937V48.8599H52.3092L52.3473 48.8218L52.3856 48.7448V48.6676H52.4615L52.4998 48.6291L52.538 48.5527V48.4762H52.6145L52.7286 48.437L52.8816 48.3984L53.301 48.3599L53.5682 48.3212H53.9117L53.9494 48.3984L53.9876 48.437L54.0259 48.4762L54.1406 48.5139H54.5218L54.5983 48.4762L54.636 48.437L54.6742 48.3599L54.7126 47.9369L54.7508 47.861L54.7889 47.784L54.8272 47.7448L54.8654 47.7063L54.9414 47.6676L55.0178 47.6296L55.132 47.5911L55.1702 47.5526L55.2085 47.5146L55.2468 47.4374L55.3231 47.3989L55.3612 47.3604L55.5521 47.322L55.5903 47.2832L55.6661 47.2447L55.7043 46.8989L55.7425 46.7831L55.8188 46.7458L55.8958 46.7067L55.9334 46.6682L55.9716 46.5525L56.048 46.5145L56.0861 46.4375L56.1243 46.3603L56.162 46.3218L56.2001 46.2839H56.2389L56.5438 46.3218L56.8869 46.3603H56.9633V46.4765L57.0015 46.5145L57.0397 46.5525L57.0784 46.591L57.1166 46.6297L57.1542 46.6682L57.1924 46.7067L57.307 46.7458L57.3446 46.7831H57.8787L57.9169 46.7458L58.9091 46.7067L59.291 46.6682L59.3668 46.6297L59.4432 46.591L59.7105 46.5525L59.9778 46.5145L60.0154 46.4765L60.0918 46.4375L60.13 46.3994L60.2064 46.3603L60.2445 46.3218L60.2827 46.2454L60.3209 46.1682L60.3585 44.8608L60.3967 44.7072L60.4349 44.6302V44.5531H60.5118L60.7404 44.515L61.0459 44.4765L61.1599 44.438L61.1981 44.4L61.2363 44.3608L61.2745 44.3236V44.0922L61.2363 43.8615L61.1981 43.7843L61.1217 43.7458L61.0835 43.6686L61.0077 43.6314L60.8932 43.5921L60.4737 43.5536L60.3209 43.5149L60.13 43.4764L59.8251 43.4384H59.2141L59.0995 43.4764L59.0237 43.5149L58.9855 43.5536L58.9091 43.5921L58.8709 43.6314L58.7951 43.6686L58.7182 43.7078L58.6042 43.7458L58.3751 43.7843L58.3369 43.8227L58.2611 43.8615L58.2223 43.8994L58.1842 44.0149L58.1825 44.2903L58.1083 44.2458H57.8405V44.1301L57.8028 44.0149L57.7647 43.977L57.7265 43.8994L57.6883 43.8227L57.6501 43.7843L57.4974 43.7458H57.3446L57.1924 43.7843L57.1542 43.8227L57.1166 43.938L57.0784 43.977L57.0397 44.1686L57.0015 44.2458L56.9633 44.2843L56.7729 44.3236L56.6578 44.3608L56.6202 44.4L56.582 44.438L56.5438 44.4765L56.4674 44.515L56.4293 44.5531L56.3916 44.6302L56.3534 44.6692L56.3153 44.7464L56.2771 44.8223L56.2001 44.8608H55.4757L55.2085 44.8223L55.0178 44.7837L54.5983 44.7464L54.4835 44.7072L54.4077 44.6692L54.3312 44.6302L54.2929 43.8615L54.2548 43.7458L54.2166 43.6686L54.1782 43.5921L54.1406 43.5536L54.1023 43.5149L54.0642 43.4764L54.0259 43.4384L53.9876 43.3999L53.9494 43.2849L53.9117 43.2458H53.8353V43.1693L53.797 42.939L53.7588 42.8614L53.7207 42.7842L53.6829 42.7457L53.6447 42.7077L53.6064 42.6305L53.5682 42.5927L53.5299 42.5535L53.4916 42.5156L53.4158 42.4771L53.3393 42.4383L53.2628 42.3999L53.1104 42.3614L52.6474 42.3607L52.6909 42.2468V42.1305H52.8816L53.0339 42.0926L53.0722 42.054L53.2628 42.0155L53.3393 41.9775L53.3776 41.9383L53.4158 41.8998V41.8234H53.4916L53.5299 41.7077V41.4004L53.4916 41.3233L53.4534 41.2462L53.4158 41.2087L53.3393 41.1696L53.301 41.1311L53.2628 41.0925L53.1487 41.0541H53.0722V40.016L53.0339 39.9775L52.9957 39.9389L52.9574 39.9011L52.7233 39.9003L52.7668 39.7467L52.8051 39.7081L52.8433 39.6701L52.8816 39.6316V39.516H52.9957L53.0339 39.4775L53.0722 39.4395L53.1104 39.3622L53.1869 39.3237L53.2247 39.2853L53.2628 39.2467V39.1701H53.797L53.9494 39.1322L53.9876 39.0544L54.0259 39.0159L54.1023 38.9774L54.1406 38.9394L54.1782 38.863L54.2166 38.8237L54.2548 38.7853L54.2929 38.7088L54.3312 38.67L54.3694 38.593L54.4077 38.5171L54.4454 38.4779H54.4835L54.5218 38.5171L54.5601 38.5551L54.636 38.593H55.0178L55.0562 38.5171L55.0943 38.4779L55.1702 38.4394L55.2085 38.4009L55.2468 38.3237V38.2472H55.3231L55.3612 38.1707L55.3999 38.1315L55.4375 38.0551L55.5139 38.0166L55.5521 37.9778V37.9008H55.6279L55.6661 37.8628L55.7043 37.7856L55.7425 37.7472L55.8576 37.7087L55.8958 37.6707L55.9334 37.6321V37.555H56.0098L56.0861 37.5165L56.162 37.4785L56.2001 37.4393L56.2389 37.4013L56.2771 37.3628L56.3153 37.3244L56.3534 37.2858L56.3916 37.2471L56.4293 37.2092L56.4674 37.1706L56.5056 37.0935L56.5438 37.0549L56.582 37.0165L56.6202 36.9785L56.6578 36.9399L56.696 36.9014L56.7729 36.8628L56.8111 36.8243L56.8488 36.7869L56.8869 36.7477L56.9251 36.7092L56.9633 36.6706L57.0015 36.6321L57.0397 36.5935L57.0784 36.5549L57.1542 36.5171L57.3446 36.4785L57.4215 36.4403L57.4974 36.4013L57.6125 36.3627H57.9169H58.032V36.4403L58.1842 36.4785L58.2223 36.5171L58.2987 36.5549L58.4515 36.5935H58.7182L58.7569 36.5549L58.9473 36.5171L59.0619 36.4785L59.1383 36.4403L59.1764 36.3627L59.2141 36.3249L59.291 36.2861L59.3292 36.1712L59.3668 36.1321L59.405 36.094L59.4432 36.0555L59.4814 36.017L59.5196 35.9013L59.5572 35.8249L59.5954 35.7863L59.6336 35.7484L59.6723 35.7091L59.7487 35.6705L59.7869 35.6326L59.8251 35.5939L60.0154 35.5554L60.0918 35.517L60.2064 35.479L60.2827 35.4398H60.3209L60.3967 35.479L60.5118 35.517L60.5877 35.5554L60.8162 35.5939H61.0459L61.0835 35.5554L61.1217 35.4398V35.3633H61.1981L61.2363 35.3248L61.2745 35.2476L61.3121 35.1711L61.3508 35.1331L61.389 35.0939L61.4272 35.0562L61.4654 34.979L61.5418 34.9405L61.6176 34.9017L61.7327 34.8632L62.0376 34.8247L62.1134 34.7868L62.1516 34.7483L62.1904 34.7103L62.2286 34.6711L62.2667 34.6326L62.3044 34.5941L62.3426 34.5554L62.3807 34.4789L62.4189 34.4409L62.4571 34.4019L62.4959 34.364V34.2808L62.6099 34.3252L62.7244 34.364H62.953L63.0294 34.3252L63.1439 34.2868L63.1821 34.2483L63.2203 34.2098V34.0952H63.2961L63.3343 34.0561L63.4112 34.0181V33.9404H63.487L63.5252 33.9019L63.5634 33.8639L63.6016 33.7487L63.6398 33.5176L63.7162 33.4788L63.7543 33.441L63.792 33.403L63.8302 33.3258L63.8689 33.2867V33.2102H63.9829H64.1356H64.2508L64.4793 33.1717L64.517 33.1331L64.5551 33.0945L64.6315 33.0566L64.6697 33.0175L64.7084 32.9799H65.0897H65.3947L65.5474 32.9409L65.5856 32.9023H65.8142L65.8524 32.9799L65.8905 33.0175H66.4251L66.4628 32.9799L66.501 32.9409L66.5391 32.9023L66.5773 32.8638L66.6155 32.8252L66.6537 32.0566L66.6919 32.0186L66.7295 31.9793L66.8064 31.9413L66.8446 31.9022L66.8828 31.8258L66.921 31.7872L66.9586 31.7487V31.2106L66.921 31.1334L66.8446 31.0949L66.6864 31.0938L66.7295 30.98L66.7677 30.1336L66.8064 29.634L66.8446 29.5961L66.8828 29.519V29.4419H66.9586L67.035 29.4034L67.1878 29.3648L67.646 29.3262L67.6842 29.2877L67.76 29.2497L67.7982 29.2112L67.8364 29.134L67.8746 29.0183L67.9122 28.9798L67.9504 28.9418L68.3704 28.904L68.4086 28.8647L68.4462 28.8268L68.4844 28.7877L68.5232 28.634L68.5613 28.5189L68.5995 28.3648L68.6377 28.2882L68.6754 27.673L68.7517 27.6345L69.2858 27.596L69.3245 27.5574L69.4009 27.5196H69.4767L69.5149 27.5574L69.5913 27.596L69.7053 27.6345H70.1629L70.2399 27.596L70.2781 27.5574L70.3544 27.5196H70.7739H70.8503V27.596L70.8879 27.6345L71.0025 27.673H71.2316L71.308 27.6345L71.3456 27.596L71.3838 27.5574L71.4225 27.5196L71.4607 27.4803L71.7662 27.4431L72.3003 27.4038L72.4143 27.3652L72.4906 27.3266L72.567 27.2882L72.6046 27.2497L72.6434 27.2111L72.6816 27.0965V26.2501L72.6434 26.1731L72.6046 26.1352L72.567 26.0959L72.5288 26.0194H72.6434L72.6816 25.9037V25.4809V25.4043L72.6948 25.377H1.17188Z" fill="#FFCC00"/>
<path fill-rule="evenodd" clip-rule="evenodd" d="M44.2545 1.06413L44.216 1.10261L44.1779 1.14109L44.102 1.17983L44.0631 1.21832L44.0254 1.25629L43.9873 1.29478L43.9491 1.33326L43.8348 1.372L43.7959 1.41048L43.7585 1.48695L43.7201 1.52543L43.6819 1.56417L43.6442 1.60266L43.6053 1.64114L43.5294 1.67988L43.4147 1.71773H43.2625L42.4612 1.67988H42.347V1.60266L42.3087 1.56417L42.2706 1.52543L42.2324 1.48695L42.1939 1.41048L42.1181 1.372H41.2785L41.2404 1.41048L41.1638 1.44846L41.1261 1.48695V1.56417H41.0498L41.0114 1.60266L40.9732 1.67988L40.935 2.02548L40.8974 2.64072L40.8208 2.67921L40.7444 2.71769V2.79428H40.6302L40.592 2.8334L40.5538 2.90999L40.5155 2.9486L40.4772 3.02557L40.4396 3.14077H39.9437L39.7524 3.10216L39.6383 3.06367L39.5618 3.02557L39.5235 2.98645L39.3707 2.9486L39.3329 2.90999L39.0659 2.87138L38.9899 2.8334L38.837 2.79428H37.731L37.3868 2.8334L37.2726 2.87138L37.1967 2.90999L37.1584 2.9486L37.082 2.98645L37.0438 3.02557L37.042 3.10798L36.9678 3.06367L36.9296 3.02557L36.8532 2.98645H36.0901L35.9376 3.02557L35.8612 3.06367L35.7847 3.10216L35.7471 3.17925L35.7089 3.21774V3.5251H35.6323L35.5946 3.56358L35.5558 3.6022L35.5177 3.64068L35.4799 3.67866L35.4417 3.71727L35.4035 3.75588V3.87146H35.2893L35.2505 3.91007L35.1741 3.94805L35.1363 3.98654L35.0981 4.02502L35.0598 4.063L35.0223 4.14022L34.9839 4.25593L34.9457 4.37151L34.8692 4.40936L34.8309 4.52506L34.7928 4.60152L34.7551 4.64026L34.7163 4.71723V4.79445H34.6021L34.564 4.83294L34.5257 4.87092L34.4874 5.02511V5.14031H34.4115L34.3357 5.17879L34.2973 5.25589L34.2591 5.29374L34.2209 5.33248L34.1828 5.37096L34.1443 5.7938L34.1062 5.87102V6.4475L34.1443 6.486L34.1828 6.5626L34.2209 6.60172L34.2591 6.63966L34.2973 6.71677V6.75538V6.98604L34.3357 7.13975L34.4497 7.17819L34.4874 7.2168L34.5257 7.56268V7.60118V7.75484H34.4497L34.4115 7.79334L34.3357 7.83195L34.2973 7.947L34.2961 8.02941L34.1443 7.98611L34.0297 7.947L33.9914 7.9085L33.9537 7.83195H33.8774V7.75484L33.8391 7.67823L33.8016 7.63979L33.7631 7.56268L33.725 7.52407L33.6868 7.48546L33.6484 7.2933L33.6102 7.2548L33.5725 7.13975L33.5344 7.06264L33.4962 6.94692L33.4196 6.90893L33.3814 6.8711L33.3056 6.83187H31.9317L31.8553 6.8711L31.3975 6.90893V6.79388L31.3598 6.71677L31.2835 6.67816L31.1687 6.63966L31.0163 6.60172H30.8633L30.7875 6.63966L30.7109 6.67816L30.6727 6.71677L30.5969 6.75538V6.83187H30.4821L30.4445 6.8711L30.3674 6.90893L30.2534 6.94692L30.2149 7.02403V7.10109H30.1391L30.1002 7.17819L29.5668 7.2168V6.60172L29.5283 6.5626L29.4902 6.52461L29.452 6.4475L29.4135 6.40956L29.3754 6.37106L29.3377 6.33234L29.2995 5.98596L29.2614 5.90946L29.2229 5.87102L29.1848 5.83252H28.6506L28.46 5.87102V5.94746H28.3835L28.3076 5.98596L28.2694 6.02468L28.2313 6.06318L28.1547 6.10168L28.117 6.13962V6.21684H27.7734L27.7353 6.25534L27.6968 6.29384L27.6587 6.33234L27.621 6.37106L27.5821 6.40956L27.5446 6.486L27.5062 6.5626L27.468 6.98604L27.4299 7.06264V6.94692L27.3533 6.90893L27.3156 6.8711H27.2393V6.40956L27.2015 6.33234L27.1633 6.29384L27.1245 6.25534L27.0868 6.21684L27.0487 6.17812L27.0103 6.10168L26.9721 6.06318L26.9339 6.02468L26.7433 5.98596H26.4379L26.3232 6.02468L26.2855 6.06318L26.2473 6.10168L26.2092 6.13962L26.1707 6.17812L26.0944 6.21684V6.10168L26.0567 6.02468L26.0184 5.98596L25.9419 5.94746L25.9043 5.90946L25.866 5.87102L25.8278 5.7938L25.7895 5.7553L25.7513 5.7173L25.7136 5.67819H25.2935L25.2554 5.7173L25.1794 5.7553L25.1029 5.7938V5.87102H25.0266L24.9882 5.90946L24.95 5.94746H24.5688L24.5306 5.90946L24.4923 5.87102H24.4158V5.7938L24.3782 5.7553L24.3017 5.7173H24.0728L23.9963 5.7553L23.958 5.7938L23.9205 5.83252L23.8439 5.87102V6.37106H23.7674L23.6533 6.40956L23.6151 6.4475H23.5768H23.5003V5.7938L23.4627 5.7173L23.4239 5.67819L23.3479 5.64036L23.2715 5.60164L23.1567 5.56364L23.0044 5.52465H22.7373L22.6231 5.56364L22.5848 5.60164L22.5084 5.64036L22.4325 5.67819L22.3942 5.7173L22.2413 5.7553L22.0507 5.7938L22.0125 5.7173L21.9742 5.64036L21.9365 5.56364L21.8984 5.48667L21.8218 5.44818L21.7841 5.33248L21.7453 5.06309L21.7078 4.87092L21.6694 4.79445L21.6312 4.75597L21.593 4.67875L21.5547 4.56367L21.5172 4.52506L21.4788 4.48658L21.4024 4.4481H21.0206L20.9828 4.48658L20.9446 4.52506L20.9064 4.56367L20.8681 4.60152L20.8298 4.64026L20.4104 4.67875V4.60152L20.3722 4.56367L20.334 4.52506L20.2957 4.48658L20.2198 4.4481L20.1432 4.40936L19.9903 4.37151L19.9526 4.33239L19.9145 4.29441L19.7997 4.25593L19.4185 4.21719L18.9225 4.17871L18.8843 4.14022L18.846 4.10224L18.8085 4.063L18.7319 4.02502L18.6937 3.98654L18.6554 3.94805L18.6171 3.91007L17.9306 3.87146L17.8924 3.79437L17.8542 3.71727L17.8159 3.56358L17.7776 3.5251L17.6636 3.48649L17.587 3.44851L17.5112 3.41003L17.3964 3.37142H17.1292H16.977L16.7479 3.33293L15.6797 3.29432L15.6415 3.25584L15.5272 3.21774L14.8025 3.17925L14.6877 3.14077L14.6495 3.10216L14.6119 3.06367L14.5737 3.02557L14.4589 2.98645H14.2683L14.2302 3.02557L14.1917 3.06367L14.1536 3.10216V3.18052L11.6742 3.14077H11.1018L10.9871 3.17925L10.9489 3.21774L10.9107 3.25584L10.8731 3.29432L10.8348 3.33293L10.7965 3.37142L10.7583 3.41003L10.7206 3.44851L10.6823 3.48649L10.6441 3.5251L10.6058 3.56358L10.5677 3.6022L10.5295 3.64068L10.4911 3.67866L10.4529 3.71727L10.4152 3.79437L10.3771 3.94805L10.3388 4.21719L10.3005 4.25593L10.2623 4.29441L10.2241 4.33239L10.1863 4.37151L10.1481 4.40936L10.1098 4.48658L10.0717 4.60152L10.0335 4.64026H9.15618L9.0797 4.60152L8.96497 4.56367L8.92679 4.52506L8.85091 4.48658L8.77432 4.4481L8.73619 4.40936H7.97313L7.82066 4.4481L7.74424 4.48658L7.70666 4.52506L7.66825 4.56367L7.63007 4.64026L7.59188 4.9094V4.98662L7.63007 5.25589L7.66825 5.33248L7.70666 5.52465V5.67819V6.60172L7.74424 6.71677L7.78253 6.79388L7.82066 6.8711L7.85896 6.90893L7.89726 6.98604L7.97313 7.02403L8.01143 7.13975L8.04956 7.17819L8.08786 7.2548L8.12604 7.33241L8.16423 7.44757L8.20203 7.48546L8.24082 7.52407L8.27851 7.56268L8.31664 7.63979L8.35494 7.67823L8.39312 7.71634L8.43142 7.79334L8.46961 7.83195L8.50729 7.87045L8.54559 8.02411L8.58372 8.10122L8.62202 8.21638L8.6602 8.33199L8.698 8.48554L8.73619 8.60126L8.77432 8.6777L8.81262 8.75492L8.85091 8.86985L8.8891 9.13929L8.92679 9.21634L8.96497 9.29295L9.00377 9.33145L9.04157 9.36989L9.0797 9.48561L9.15618 9.52361L9.23216 9.56211H9.00377L8.92679 9.60083L8.8891 9.63933L8.85091 9.67727L8.81262 9.75427L8.77432 9.83149V10.1394L8.81262 10.2163L8.85091 10.2543L8.8891 10.3695L8.92679 10.408L8.96497 10.4851L9.00377 10.5231L9.04157 10.5622L9.0797 10.6386L9.11799 10.6772L9.15618 10.7543V10.9465L9.11799 11.2159L9.0797 11.4465L9.04157 11.5616L8.96497 11.6003L8.92679 11.6387L8.8891 11.6773L8.85091 11.7544L8.77432 11.7924L8.73619 11.8695L8.698 11.9075L8.6602 11.9846L8.62202 12.0232L8.58372 12.0617L8.54559 12.1381V12.2538H8.43142L7.89726 12.2925L7.78253 12.331L7.74424 12.3691L7.66825 12.4075L7.63007 12.446L7.59188 12.4846L7.47716 12.5232L7.43947 12.5997L7.40128 12.6382L7.2865 12.6768L7.24887 12.7154L7.21008 12.7539L7.17239 12.7925L7.13409 12.8303L7.05761 12.8691L7.01948 12.946L6.98168 12.984L6.94349 13.0233L6.90531 13.1003L6.86701 13.1382L6.82871 13.1768L6.75223 13.2154L6.71471 13.2924L6.63812 13.3304L6.56163 13.3691L6.40933 13.4076L6.37103 13.4461L6.29505 13.4846L6.25642 13.5226L6.21873 13.5613L6.14214 13.5998L6.10395 13.6382L6.06577 13.6762L6.02747 13.7147L5.95154 13.7535L5.87517 13.792V13.8689H5.79858L5.76039 13.9077L5.68457 13.9461L5.64616 13.9841L5.60798 14.0226L5.57029 14.0611L5.53214 14.0998L5.45554 14.1378L5.41737 14.1768L5.3792 14.2148L5.3409 14.2533L5.26494 14.292L5.22676 14.3305L5.18859 14.3684L5.15017 14.4077L5.112 14.5227L5.07433 14.5606L5.03616 14.6384L4.99736 14.6763L4.95956 14.7148L4.92139 14.7914L4.88322 14.8299L4.84492 14.869L4.80738 14.907L4.76895 15.0221L4.73078 15.0612L4.69261 15.1377V15.2142H4.61602L4.57784 15.2921L4.54018 15.33L4.46358 15.3686L4.42541 15.407V15.4836H4.34894L4.31064 15.5221L4.27247 15.5607L4.2348 15.5992L4.19663 15.6378L4.15833 15.6764L4.08186 15.7143L4.04419 15.7529L3.9676 15.7914L3.92943 15.83L3.89126 15.8679L3.81478 15.907L3.77649 15.9455L3.73882 15.9837L3.70065 16.0608L3.66248 16.0993L3.62405 16.2143L3.58588 16.2914L3.54821 16.368L3.51004 16.4837L3.47187 16.5222L3.43344 16.5986L3.20467 16.6372L3.0899 16.6759L3.01406 16.7144L2.97589 16.7529L2.93746 16.7915L2.86162 16.8301L2.82345 16.8681V17.7529H2.93746V19.6369L2.97589 19.7139L3.01406 19.8291L3.05223 19.9055L3.0899 19.9446L3.12883 19.9832L3.1665 20.0597H2.97589L2.74636 20.0212L2.67052 19.9832L2.59392 19.9446L2.51808 19.9055L2.40331 19.8676H2.13636L2.05977 19.9055L2.02209 19.9446L1.98392 20.0597L1.94576 20.0982L1.90733 20.1748L1.86916 20.2519L1.83099 20.4827L1.79332 20.5983L1.75515 20.7133V20.7905H1.67855L1.60195 20.829V20.9055H1.52611L1.44977 20.9442L1.41135 20.9827L1.37318 21.0592L1.33551 21.0976L1.25916 21.1364L1.22074 21.1749L1.18257 21.2898L1.1444 21.3286L1.10597 21.4055L1.0678 21.4827L1.03013 21.982L0.991962 22.0978L0.953793 22.2134L0.915369 22.2514L0.877825 22.3672L0.839528 22.4436L0.800728 22.5208L0.72476 22.5587L0.68659 22.5978L0.61075 22.6357L0.534153 22.6742V22.7515H0.419387L0.381968 22.79L0.343545 22.8287V22.9436H0.267202L0.228779 23.0208L0.191235 23.0973L0.152436 23.328L0.114264 23.4431L0.0765945 23.4817L0.0376695 23.5202L0 23.5974V24.0587L0.0376695 24.0973L0.0765945 24.1353L0.114264 24.1739L0.152436 24.2124L0.267202 24.251H0.343545V24.4051L0.381968 24.5202L0.419387 24.636L0.45781 24.751L0.495981 24.8659L0.534153 24.9817L0.571822 25.0197L0.61075 25.0969L0.648919 25.1353L0.72476 25.1733L0.763184 25.2124L0.839528 25.2503L0.877825 25.289L1.0678 25.3275L1.1444 25.366L1.16675 25.3773H72.6896L72.714 25.3275L72.7527 25.2503L72.7909 25.1733L72.8291 25.1353L72.8667 24.9432L72.9049 24.9047L72.9431 24.8659L73.0194 24.8274V24.751H73.0964L73.1346 24.6738L73.1722 24.5973V24.2124L73.1346 24.1739L73.0194 24.1353L72.6381 24.0973L72.6763 24.0587L72.714 24.0202L72.7527 23.8665V23.6358L72.714 23.5202L72.6763 23.4817L72.6381 23.4431L72.5994 23.4052L72.5618 23.3664L72.5236 23.0973L72.4854 23.0208L72.4472 22.9821L72.409 22.9436L72.3708 22.5978L72.3332 22.4821L72.295 22.4051L72.2181 22.3672H71.9895L71.761 22.4051L71.6049 22.4436L71.6459 21.9442L71.684 21.5977V21.4827H71.761L71.7986 21.4435L71.8368 21.4055L71.9126 21.367L72.0277 21.3286L72.3332 21.2898L72.4854 21.2514L72.5236 21.2129L72.5618 21.1749L72.5994 21.1364L72.6381 21.0976L72.9813 21.0592L73.0571 21.0207L73.1346 20.9827L73.1722 20.9442V20.4827L73.1346 20.4056L73.0571 20.3676L73.0194 20.329H72.714L72.6763 20.3676H72.1041L72.0277 20.329L71.9513 20.2905L71.4178 20.2519L71.3785 20.2134L71.3409 20.1368V20.0982L71.3785 20.0597L71.4178 20.0212L71.4937 19.9832L71.57 19.9446L71.6082 19.9055L71.6459 19.8291L71.684 19.7905L71.7222 19.7524L71.761 19.6747L71.9513 19.6369L72.1041 19.5983L72.1799 19.5597L72.2181 19.5217L72.2568 19.4832L72.295 19.406L72.3332 19.291L72.3708 19.2525L72.409 19.2138L72.4472 19.1753L72.4854 19.0983V19.0217H72.5618L72.5994 18.9832L72.6381 18.9447L72.6763 18.9059L72.714 18.8674L72.7909 18.829L72.8291 18.791L72.8667 18.7138L72.9049 18.6753V17.6372L72.8667 17.445L72.8291 17.2529L72.7909 17.1759L72.714 17.1372L72.6763 17.0987L72.6381 17.0607L72.5618 17.0222L72.4472 16.9837H72.367L72.409 16.5986L72.4472 16.5222L72.4854 16.4837L72.5236 16.4451L72.5618 16.4065V16.33H72.6381L72.6763 16.2143L72.714 16.1758L72.7527 16.1379V15.9837L72.5994 15.9455L72.5236 15.907L72.4854 15.83H71.9513L71.875 15.8679L71.684 15.907L71.6459 15.9455L71.6082 15.9837L71.57 16.0222V16.1379H71.4937L71.4555 16.1758L71.3785 16.2143H71.3409L71.3027 16.1758L71.2264 16.1379L71.15 16.0993L70.6541 16.0608L70.5783 16.0222H70.5014V15.907L70.4632 15.5607L70.425 15.4836L70.3874 15.4455L70.3486 15.407L70.311 15.3686L69.9673 15.33H69.5478L69.4333 15.3686L69.3956 15.407H69.2042L69.0901 15.3686L69.0138 15.33L68.9756 15.2921L68.938 15.1764L68.8998 14.907L68.8605 14.8299L68.7847 14.7914L68.7465 14.7148L68.6701 14.6763H68.2506L68.2124 14.7148L68.1742 14.7533L68.1366 14.8299L68.0984 14.869L68.0602 15.0221H67.8311L67.7166 14.9842L67.4493 14.9455H67.2971V14.869L67.2589 14.8299L67.1825 14.7914L67.1443 14.7533L67.1061 14.7148L67.0298 14.6763L66.8776 14.6384L66.8012 14.5991L66.7625 14.5606L66.7243 14.5227L66.6861 14.4842L66.6103 14.4454L66.5721 14.4077L66.4957 14.3684L65.4221 14.3667L65.4652 14.292V14.0611L65.4276 14.0226L65.3894 13.9841L65.3512 13.9461L65.2367 13.9077L65.1609 13.8689H64.779L64.6644 13.9077L64.4359 13.9461L64.3977 13.9841L64.3595 14.0226L64.3213 14.0998L64.2837 14.2148L64.2455 14.4842L64.2073 14.9455H64.0158H63.94V14.869L63.9018 14.8299L63.8636 14.7533L63.8249 14.6384L63.7867 14.5606L63.7485 14.4842L63.7109 14.4454L63.6727 14.4077L63.5963 14.3684L63.5582 14.3305L63.4823 14.292L63.3678 14.2533L63.2909 14.2148L63.2145 14.1768L63.1768 14.1378L63.0623 14.0998L63.0247 14.0611L62.9854 14.0226L62.9472 13.9461L62.9095 13.9077L62.8714 13.8689L62.8332 13.8305L62.795 13.792L62.7192 13.7535L62.3755 13.7147L62.3373 13.5226V13.4076V12.984L62.2991 12.8691L62.2609 12.8303L62.2233 12.7925L62.1851 12.7539L62.1464 12.7154H62.0318H61.8414L61.8038 12.6768L61.7651 12.5617L61.7274 12.5232L61.6893 12.4846L61.6505 12.4075L61.6123 12.2538L61.5741 12.1774L61.536 12.1381L61.4601 12.1003L61.422 12.0617L61.3838 12.0232L61.3068 11.9846H60.8879L60.7352 12.0232L60.6588 12.0617L60.6206 12.1003L60.506 12.1381L60.4684 12.2153L60.4297 12.2538L60.3915 12.2925L60.3533 12.331L60.3157 12.3691L60.2775 12.4075L60.2393 12.446L60.2011 12.4846L60.1247 12.5232L60.0871 12.5617L59.9725 12.5997L59.8192 12.6382L59.3616 12.6768L59.2857 12.7154L59.247 12.7539L59.1712 12.7925L59.0948 12.8303L58.9803 12.8691L58.9421 12.9075L58.9039 12.946V13.0233H58.8281L58.7517 13.0618V13.1382H58.6748L58.6366 13.1768L58.5602 13.2154L58.4844 13.2539L58.4075 13.2924L58.3698 13.3304V13.4076H58.2935L58.2547 13.4846L58.2171 13.5613L58.1789 13.5226L58.1413 13.4461L58.1025 13.4076L58.0649 13.3691L58.0267 13.3304L57.9503 13.2924L57.9116 13.2539L57.8734 13.2154L57.7594 13.1768L57.7212 13.1382L57.683 13.1003L57.6067 13.0618H57.3017L57.1495 13.1003L56.8059 13.1382V12.9075L56.7677 12.8691L56.7295 12.7925L56.6908 12.7539L56.6526 12.7154L56.6149 12.6768L56.5762 12.6382L56.5386 12.5997H56.4628V12.5232L56.3858 12.4846L56.3482 12.446L56.2718 12.4075H55.9281L55.8894 12.446L55.8136 12.4846L55.0891 12.5232L55.0126 12.5617L54.9743 12.5997L54.8984 12.6382L54.822 12.6768L54.7837 12.7539L54.7455 12.8303L54.7074 12.9075L54.6689 13.0233L54.5931 13.0618L54.5166 13.1003L54.479 13.1382L54.4402 12.8691L54.4025 12.7154L54.3642 12.6768L54.326 12.5617L54.2877 12.5232L54.2114 12.4846L54.1736 12.446L54.1354 12.4075L54.0589 12.3691H53.8682H53.6776L53.6006 12.331L53.5629 12.2925L53.5246 11.9846L53.4863 11.9075L53.4482 11.8309L53.4105 11.7544L53.3723 11.7153V11.5616L53.4105 11.5231L53.4482 11.485L53.4863 11.4081L53.5246 11.331L53.5629 11.2538V10.908L53.5246 10.8316L53.4863 10.7158L53.4482 10.6386L53.4105 10.408L53.3723 10.3695L53.334 10.3309L53.2957 10.2928L53.2576 10.0621L53.2194 9.98515L53.1816 9.94643L53.1434 9.90843L53.067 9.86999L53.0287 9.83149H52.9528V9.71577V9.60083L52.9905 9.52361L53.0287 9.48561L53.067 9.40867V8.75492L53.0287 8.71642L52.9905 8.6777H52.7999L52.7234 8.71642L52.6468 8.75492L52.6093 8.79291L52.571 8.83141L52.3804 8.86985L52.2656 8.90863V8.83141L52.2274 8.75492L52.1896 8.02411L52.1515 7.98611L52.1133 7.947L52.0368 7.9085L51.8844 7.87045L51.7314 7.83195H51.2738L51.1973 7.87045L51.1595 7.9085L51.1214 7.947L51.0832 7.98611V8.06501L50.2823 8.02411H50.206V7.9085L50.1675 7.87045L50.1294 7.83195L49.6716 7.79334L49.6334 7.75484L49.5569 7.71634L49.5188 7.67823H49.2517L49.1752 7.71634L49.1374 7.75484V7.83195H48.832V7.60118V7.17819L48.7939 7.06264L48.7562 7.02403L48.718 6.98604L48.6414 6.94692L48.5209 6.94581L48.5651 6.8711L48.6032 6.83187L48.6414 6.79388L48.6792 6.71677V6.25534L48.6414 6.21684L48.6032 6.17812L48.4508 6.13962L48.4126 5.94746L48.3745 5.7938L48.3362 5.7553L48.2979 5.7173L48.2602 5.67819L48.2214 5.64036V5.52465L48.2602 5.48667L48.2979 5.40945L48.3745 5.37096L48.4126 5.33248L48.7939 5.29374L48.9468 5.25589L48.985 5.21728L49.1374 5.17879L49.1752 5.10233L49.214 5.02511V4.60152L49.1752 4.4481L49.1374 4.33239L49.0993 4.25593H49.0228V4.17871L48.985 4.14022L48.9468 4.10224L48.8705 4.063L48.718 4.02502L48.6414 3.98654L48.6032 3.94805L48.5651 3.91007L48.4892 3.87146L48.4508 3.83285L48.4126 3.79437L48.3745 3.71727L48.2979 3.67866L48.2602 3.6022L48.2214 3.56358L48.1838 3.5251L48.1454 3.48649L48.1073 3.44851L48.0691 3.37142L48.0314 3.33293L47.9548 3.29432L47.9167 3.10216L47.8785 2.75643L47.8408 2.48703L47.8019 2.37133L47.7642 2.29487L47.7261 2.21765L47.6873 2.17916L47.6495 2.14068L47.6113 2.10207H47.5349V1.98699L47.4967 1.9099L47.4589 1.87205L47.4207 1.83331L47.3825 1.71773L47.2678 1.67988L47.2301 1.64114L47.1919 1.60266L47.1153 1.56417L47.0395 1.52543L47.0007 1.33326L46.9629 1.21832L46.9247 1.17983L46.8865 1.14109L46.8484 1.10261L46.8107 1.06413L46.7336 1.02539H46.2765L46.0852 1.06413L45.9328 1.10261L45.8946 1.14109L45.7806 1.17983L45.7422 1.21832L45.704 1.33326L45.6658 1.372L45.5892 1.41048V1.17983L45.551 1.14109L45.4752 1.10261H45.208L45.0932 1.14109H44.8644L44.7886 1.10261L44.712 1.06413L44.6738 1.02539H44.2926L44.2545 1.06413Z" fill="#004E9C"/>
<path d="M66.0394 5.72051C66.0394 6.65375 65.6939 7.27178 65.0014 7.57447C64.4536 7.81689 63.3072 7.93906 61.5587 7.93906C59.6873 7.93906 58.4866 7.73119 57.9588 7.31736C57.5337 6.98923 57.3223 6.30195 57.3223 5.25565H58.4668C58.4668 5.97382 58.6295 6.42956 58.9567 6.6283C59.2624 6.81237 60.1339 6.90352 61.5677 6.90352C63.0161 6.90352 63.9058 6.84161 64.2384 6.71578C64.6814 6.55172 64.9039 6.21991 64.9039 5.7205C64.9039 5.20641 64.7502 4.87828 64.4446 4.73421C64.1895 4.60851 63.3162 4.54648 61.8228 4.54648C60.0417 4.54648 58.8592 4.33317 58.2715 3.90477C57.8086 3.56386 57.5772 2.97874 57.5772 2.1493C57.5772 1.24872 57.8503 0.659935 58.3981 0.38459C58.9206 0.127606 60.0616 0 61.8228 0C63.5567 0 64.6814 0.204195 65.1967 0.610686C65.6144 0.946159 65.8241 1.59508 65.8241 2.55402H64.7085C64.7085 1.91042 64.5423 1.49305 64.2095 1.30163C63.9039 1.12478 63.1083 1.03541 61.8228 1.03541C60.7541 1.03541 60.0924 1.05554 59.8373 1.09377C59.087 1.19947 58.7127 1.55128 58.7127 2.1493C58.7127 2.6634 58.9188 3.02065 59.3293 3.22485C59.7071 3.41625 60.6746 3.51462 62.2296 3.52019C63.7846 3.5274 64.7683 3.62956 65.1786 3.82642C65.7518 4.10353 66.0394 4.73422 66.0394 5.72051ZM79.6109 1.17214H76.188V7.84058H75.0435V1.17214H71.6188V0.127612H79.6109L79.6109 1.17214ZM91.6527 7.84058H84.3261V0.127645H91.6527V1.17217H85.4706V3.41262H91.4285V4.44802H85.4706V6.80519H91.6527V7.84058ZM105.425 2.59404C105.425 3.34879 105.246 3.93758 104.886 4.35876C104.508 4.80538 103.948 5.02957 103.205 5.02957H98.1563V7.84058H97.0116V0.127645H103.253C104.702 0.127645 105.425 0.949718 105.425 2.59404ZM104.28 2.59227C104.28 1.64611 103.919 1.17214 103.194 1.17214H98.1563V3.99416H103.205C103.922 3.99416 104.28 3.52741 104.28 2.59227ZM124.193 1.17214H120.77V7.84059H119.626V1.17214H116.201V0.127619H124.193L124.193 1.17214ZM138.358 3.99416C138.358 5.24465 138.3 6.06321 138.182 6.45146C137.967 7.17343 137.315 7.6346 136.226 7.83146C135.794 7.90982 134.933 7.94995 133.642 7.94995C132.371 7.94995 131.51 7.90982 131.06 7.83146C129.965 7.62726 129.308 7.17153 129.093 6.46058C128.975 6.07953 128.918 5.25743 128.918 3.99416C128.918 2.74544 128.975 1.92322 129.093 1.52951C129.308 0.805779 129.961 0.346371 131.049 0.147617C131.5 0.0619126 132.364 0.0200102 133.642 0.0200102C134.921 0.0200102 135.781 0.0601403 136.226 0.138502C137.315 0.342697 137.967 0.802104 138.182 1.51849C138.3 1.90676 138.358 2.73266 138.358 3.99416ZM137.222 3.99416C137.222 2.5686 137.072 1.73004 136.772 1.48027C136.447 1.19772 135.403 1.05555 133.642 1.05555C132.384 1.05555 131.628 1.07923 131.373 1.1248C130.845 1.20316 130.494 1.43647 130.321 1.82474C130.149 2.21312 130.062 2.93686 130.062 3.99417C130.062 5.03324 130.152 5.74787 130.332 6.13612C130.51 6.52261 130.865 6.7596 131.393 6.8453C131.653 6.89087 132.404 6.91455 133.642 6.91455C134.893 6.91455 135.644 6.89442 135.892 6.85619C136.42 6.77048 136.774 6.53527 136.953 6.15068C137.132 5.76609 137.222 5.0478 137.222 3.99416Z" fill="#C5DDE5"/>
<path d="M30.1751 58.5964C30.1751 59.109 30.0523 59.476 29.8078 59.6952C29.614 59.8755 29.3027 59.9765 28.8763 60.0004C28.9538 60.0004 28.5359 60.0004 27.6238 60.0004C26.6986 60.0004 26.2807 60.0004 26.3701 60.0004C25.9469 59.9765 25.6367 59.8766 25.4386 59.7007C25.1941 59.4814 25.0713 59.1133 25.0713 58.5964V55.3358H25.753V58.5964C25.753 58.9016 25.8618 59.1176 26.0793 59.2425C26.2419 59.3402 26.4887 59.3913 26.8193 59.3956C25.7821 59.388 26.0503 59.3837 27.6226 59.3837C29.1961 59.3837 29.4653 59.388 28.4325 59.3956C28.7589 59.3913 29.0055 59.3402 29.1724 59.2425C29.39 59.1176 29.4987 58.9016 29.4987 58.5964V55.3358H30.1751L30.1751 58.5964ZM37.3464 59.9298H36.321L32.4407 55.9351V59.9298H31.7644V55.3304H32.7563L36.6646 59.3543V55.3304H37.3464L37.3464 59.9298ZM44.733 55.3358L42.2387 59.9298H41.4288L38.9583 55.3358H39.6593L41.7843 59.313L41.8843 59.3142L44.0049 55.3358H44.733ZM50.0056 59.9298H45.6417V55.3358H50.0056V55.9579H46.3234V57.2923H49.872V57.9091H46.3234V59.313H50.0056V59.9298ZM52.6267 59.9298H51.945V55.3358H52.6267V59.9298ZM58.497 59.9298H54.3194V55.3358H55.0011V59.313H58.497V59.9298ZM68.0805 55.9579H66.0419V59.9298H65.3602V55.9579H63.3204V55.3358H68.0806L68.0805 55.9579ZM74.7694 59.9298H74.0877V57.9027H70.1665V59.9298H69.49V55.3358H70.1665V57.2859H74.0877V55.3358H74.7694V59.9298ZM80.8164 59.9298H76.4525V55.3358H80.8164V55.9579H77.1342V57.2923H80.6828V57.9091H77.1342V59.313H80.8164V59.9298ZM94.1339 55.3358L91.6341 59.9298H90.8308L90.0564 58.4901L89.2745 59.9298H88.4646L85.9941 55.3358H86.6952L88.8201 59.313L88.9202 59.3142L89.7075 57.8418L88.3602 55.3358H89.0602L90.0521 57.1925L91.0407 55.3358H91.7689L90.4042 57.8483L91.1861 59.313L91.2809 59.3142L93.4059 55.3358H94.1339ZM100.653 57.6388C100.653 58.3836 100.619 58.8711 100.549 59.1024C100.421 59.5324 100.032 59.8071 99.3837 59.9244C99.1263 59.9711 98.6136 59.995 97.8447 59.995C97.0877 59.995 96.575 59.9711 96.3068 59.9244C95.6542 59.8027 95.2632 59.5313 95.1351 59.1078C95.0651 58.881 95.0307 58.3912 95.0307 57.6388C95.0307 56.895 95.0651 56.4053 95.1351 56.1707C95.2632 55.7397 95.6521 55.4661 96.3004 55.3477C96.5686 55.2967 97.0833 55.2718 97.8447 55.2718C98.6061 55.2718 99.1188 55.2956 99.3837 55.3423C100.032 55.464 100.421 55.7375 100.549 56.1643C100.619 56.3956 100.653 56.8874 100.653 57.6388ZM99.9772 57.6388C99.9772 56.7896 99.8878 56.2902 99.709 56.1415C99.5151 55.9731 98.8937 55.8884 97.8447 55.8884C97.0952 55.8884 96.645 55.9026 96.4931 55.9297C96.1787 55.9764 95.9698 56.1154 95.8663 56.3467C95.7641 56.578 95.7123 57.009 95.7123 57.6388C95.7123 58.2576 95.7662 58.6834 95.8728 58.9146C95.9794 59.1448 96.1905 59.2859 96.505 59.337C96.6601 59.364 97.107 59.3782 97.8447 59.3782C98.59 59.3782 99.0369 59.3663 99.1845 59.3434C99.499 59.2924 99.7101 59.1524 99.8167 58.9232C99.9233 58.6941 99.9772 58.2664 99.9772 57.6388ZM107.703 59.9298H106.678L102.798 55.9351V59.9298H102.121V55.3304H103.113L107.021 59.3543V55.3304H107.703L107.703 59.9298ZM114.985 57.6323C114.985 58.6355 114.833 59.2957 114.531 59.6128C114.328 59.8245 113.946 59.9298 113.383 59.9298H109.555V55.3358H113.383C114.082 55.3358 114.531 55.5313 114.729 55.9232C114.9 56.2674 114.985 56.8375 114.985 57.6323ZM114.304 57.6323C114.304 57.0807 114.27 56.7061 114.204 56.5106C114.081 56.1425 113.805 55.9579 113.377 55.9579H110.237V59.313H113.377C113.808 59.313 114.086 59.1274 114.21 58.755C114.272 58.5628 114.304 58.1893 114.304 57.6323ZM121.178 59.9298H116.814V55.3358H121.178V55.9579H117.495V57.2923H121.044V57.9091H117.495V59.313H121.178V59.9298ZM128.296 59.9298H127.614V58.8016C127.614 58.6334 127.53 58.4988 127.363 58.3966C127.22 58.3109 127.058 58.2675 126.88 58.2675H123.676V59.9298H122.994V55.3358H127.084C127.491 55.3358 127.801 55.4824 128.011 55.7766C128.201 56.035 128.296 56.3771 128.296 56.8048C128.296 57.1839 128.236 57.4683 128.115 57.6562C128.03 57.7853 127.894 57.8918 127.708 57.9732C128.1 58.1415 128.296 58.4184 128.296 58.8016V59.9298ZM127.614 56.8038C127.614 56.503 127.553 56.2859 127.431 56.1545C127.308 56.0231 127.104 55.9579 126.816 55.9579H123.676V57.6507H126.816C127.104 57.6507 127.312 57.5801 127.44 57.4389C127.556 57.3098 127.614 57.098 127.614 56.8038ZM135.241 58.667C135.241 59.2229 135.035 59.591 134.623 59.7713C134.297 59.9156 133.614 59.9884 132.572 59.9884C131.458 59.9884 130.743 59.8646 130.428 59.6181C130.175 59.4228 130.049 59.0134 130.049 58.3902H130.731C130.731 58.8179 130.828 59.0893 131.023 59.2077C131.204 59.3175 131.724 59.3716 132.578 59.3716C133.44 59.3716 133.97 59.3348 134.168 59.2599C134.432 59.1621 134.565 58.9645 134.565 58.667C134.565 58.3608 134.473 58.1653 134.291 58.0796C134.139 58.0047 133.619 57.9677 132.729 57.9677C131.669 57.9677 130.964 57.8408 130.614 57.5855C130.339 57.3825 130.201 57.034 130.201 56.54C130.201 56.0036 130.363 55.6528 130.69 55.4889C131.001 55.3359 131.681 55.2598 132.729 55.2598C133.762 55.2598 134.432 55.3814 134.739 55.6236C134.988 55.8234 135.113 56.2098 135.113 56.781H134.448C134.448 56.3977 134.349 56.1491 134.151 56.035C133.969 55.9297 133.495 55.8765 132.729 55.8765C132.093 55.8765 131.699 55.8884 131.547 55.9113C131.1 55.9743 130.877 56.1838 130.877 56.54C130.877 56.8461 131 57.0589 131.244 57.1806C131.469 57.2946 132.046 57.3532 132.972 57.3565C133.898 57.3608 134.484 57.4216 134.728 57.5388C135.07 57.7039 135.241 58.0796 135.241 58.667Z" fill="#C5DDE5"/>
</g>
<defs>
<clipPath id="clip0_53_41">
<rect width="160.003" height="60.0004" fill="white"/>
</clipPath>
</defs>
</svg>
