<?xml version="1.0" encoding="UTF-8"?>
<!DOCTYPE svg PUBLIC "-//W3C//DTD SVG 1.1//EN" "http://www.w3.org/Graphics/SVG/1.1/DTD/svg11.dtd">
<!-- Creator: CorelDRAW -->
<svg xmlns="http://www.w3.org/2000/svg" xml:space="preserve" width="8.4668mm" height="8.4668mm" style="shape-rendering:geometricPrecision; text-rendering:geometricPrecision; image-rendering:optimizeQuality; fill-rule:evenodd; clip-rule:evenodd"
viewBox="0 0 0.199245 0.199245"
 xmlns:xlink="http://www.w3.org/1999/xlink">
 <defs>
  <style type="text/css">
   <![CDATA[
    .fil0 {fill:none}
    .fil1 {fill:#021F3E;fill-rule:nonzero}
   ]]>
  </style>
 </defs>
 <g id="Слой_x0020_1">
  <metadata id="CorelCorpID_0Corel-Layer"/>
  <g id="_124588552">
   <rect id="_124210624" class="fil0" width="0.199243" height="0.199243"/>
   <path id="_123743440" class="fil1" d="M0.0996201 0.0221441c-0.0166069,0 -0.0316583,0.00674912 -0.0425561,0.0176423 -0.0108861,0.0108767 -0.0176305,0.0259163 -0.0176305,0.0425044l-2.35325e-005 2.35325e-005c-0.000192966,0.0437845 0.0466108,0.0818013 0.0601914,0.0919485 0.0134465,-0.0101849 0.0604244,-0.0488581 0.0602314,-0.0919085l-2.35325e-005 -2.35325e-005c0,-0.016588 -0.00675147,-0.0316371 -0.0176517,-0.042535 -0.0109002,-0.0109002 -0.0259469,-0.0176517 -0.0425373,-0.0176517zm-0.0513102 0.00883645c0.0131476,-0.0131429 0.0313006,-0.0212898 0.0513102,-0.0212898 0.0200285,0 0.0381932,0.0081493 0.0513432,0.0212993 0.0131523,0.01315 0.0212993,0.0313147 0.0212993,0.0513408l-2.35325e-005 0c0.000235325,0.0567439 -0.068849,0.104569 -0.0690443,0.104705l-0.00357458 0.00251798 -0.00357458 -0.00251798 -0.000167081 -0.000117662c-0.00454648,-0.00320512 -0.0691055,-0.0487452 -0.0688749,-0.104628l-2.35325e-005 0c0,-0.0199932 0.00816107,-0.0381509 0.0213298,-0.0513102zm0.0513102 0.0907836c-0.0108908,0 -0.0207533,-0.00441469 -0.027886,-0.0115474 -0.0071327,-0.0071327 -0.0115474,-0.0169952 -0.0115474,-0.027886 0,-0.0108908 0.00441469,-0.0207533 0.0115474,-0.027886 0.0071327,-0.0071327 0.0169952,-0.0115474 0.027886,-0.0115474 0.0108908,0 0.0207533,0.00441469 0.027886,0.0115474 0.0071327,0.0071327 0.0115474,0.0169952 0.0115474,0.027886 0,0.0108673 -0.00441705,0.0207227 -0.0115615,0.0278719l1.41195e-005 1.41195e-005c-0.0071327,0.0071327 -0.0169928,0.0115474 -0.027886,0.0115474zm-0.0190801 -0.0203532c0.00487828,0.00487828 0.0116274,0.00789986 0.0190801,0.00789986 0.00745509,0 0.0142019,-0.00302157 0.0190801,-0.00789986l2.58857e-005 0c0.00486416,-0.00486416 0.00787397,-0.0116109 0.00787397,-0.0190801 0,-0.00745274 -0.00302157,-0.0142019 -0.00789986,-0.0190801 -0.00487828,-0.00487828 -0.0116274,-0.00789986 -0.0190801,-0.00789986 -0.00745274,0 -0.0142019,0.00302157 -0.0190801,0.00789986 -0.00487828,0.00487828 -0.00789986,0.0116274 -0.00789986,0.0190801 0,0.00745274 0.00302157,0.0142019 0.00789986,0.0190801z"/>
  </g>
 </g>
</svg>
