<?xml version="1.0" encoding="UTF-8"?>
<!DOCTYPE svg PUBLIC "-//W3C//DTD SVG 1.1//EN" "http://www.w3.org/Graphics/SVG/1.1/DTD/svg11.dtd">
<!-- Creator: CorelDRAW -->
<svg xmlns="http://www.w3.org/2000/svg" xml:space="preserve" width="15.875mm" height="15.9172mm" style="shape-rendering:geometricPrecision; text-rendering:geometricPrecision; image-rendering:optimizeQuality; fill-rule:evenodd; clip-rule:evenodd"
viewBox="0 0 0.79915 0.801274"
 xmlns:xlink="http://www.w3.org/1999/xlink">
 <defs>
  <style type="text/css">
   <![CDATA[
    .fil0 {fill:none}
    .fil1 {fill:#1D1D1B}
   ]]>
  </style>
 </defs>
 <g id="Слой_x0020_1">
  <metadata id="CorelCorpID_0Corel-Layer"/>
  <g id="_123876816">
   <rect id="_124210696" class="fil0" width="0.799148" height="0.801277"/>
   <g id="ri_road-map-line.svg">
    <g id="ri:road-map-line">
     <path id="Vector" class="fil1" d="M0.13319 0.222247l0 0.42701 0.168655 -0.0722532 0.19979 0.09989 0.164325 -0.0704913 0 -0.426975 0.0433831 -0.0185806c0.00253714,-0.00108735 0.00530082,-0.00153034 0.00804436,-0.00128367 0.00274857,0.000246667 0.0053864,0.00116789 0.00768694,0.00268816 0.00230055,0.00152027 0.0041883,0.00358422 0.00549715,0.00601061 0.00130381,0.0024264 0.0019834,0.00514476 0.0019834,0.00789837l0 0.474199 -0.233085 0.09989 -0.19979 -0.09989 -0.209873 0.0899377c-0.00253714,0.00108231 -0.00530082,0.00152531 -0.00804436,0.00127864 -0.00274857,-0.000246667 -0.0053864,-0.00116789 -0.00768694,-0.00268816 -0.00230055,-0.00152027 -0.0041883,-0.00358422 -0.00549715,-0.00601061 -0.00130381,-0.0024264 -0.0019834,-0.00514476 -0.0019834,-0.00789837l0 -0.474194 0.066595 -0.0285378zm0.40767 0.169817l-0.141285 0.141249 -0.141285 -0.141249c-0.0279338,-0.0279388 -0.0469623,-0.0635393 -0.0546694,-0.102296 -0.00770204,-0.0387519 -0.00374531,-0.0789183 0.0113769,-0.115425 0.0151222,-0.0365067 0.0407302,-0.0677075 0.0735822,-0.0896558 0.032857,-0.0219533 0.071483,-0.0336675 0.110995,-0.0336675 0.039512,0 0.078138,0.0117142 0.110995,0.0336675 0.032852,0.0219483 0.05846,0.0531491 0.0735822,0.0896558 0.0151222,0.0365067 0.0190789,0.0766731 0.0113769,0.115425 -0.00770708,0.0387569 -0.0267357,0.0743574 -0.0546694,0.102296zm-0.141285 0.0470831l0.0941663 -0.0941965c0.0186309,-0.0186259 0.0313216,-0.0423612 0.0364614,-0.0682008 0.00514476,-0.0258346 0.00250694,-0.0526155 -0.00757116,-0.076955 -0.0100781,-0.0243445 -0.0271484,-0.0451451 -0.0490565,-0.059784 -0.021903,-0.0146389 -0.047657,-0.0224467 -0.074,-0.0224467 -0.026343,0 -0.052097,0.00780776 -0.074,0.0224467 -0.021908,0.0146389 -0.0389784,0.0354395 -0.0490565,0.059784 -0.0100781,0.0243395 -0.0127159,0.0511204 -0.00757116,0.076955 0.00513973,0.0258396 0.0178305,0.049575 0.0364614,0.0682008l0.0941663 0.0941965z"/>
    </g>
   </g>
  </g>
 </g>
</svg>
