<?xml version="1.0" encoding="UTF-8"?>
<!DOCTYPE svg PUBLIC "-//W3C//DTD SVG 1.1//EN" "http://www.w3.org/Graphics/SVG/1.1/DTD/svg11.dtd">
<!-- Creator: CorelDRAW -->
<svg xmlns="http://www.w3.org/2000/svg" xml:space="preserve" width="10.5834mm" height="10.5834mm" style="shape-rendering:geometricPrecision; text-rendering:geometricPrecision; image-rendering:optimizeQuality; fill-rule:evenodd; clip-rule:evenodd"
viewBox="0 0 0.29388 0.29388"
 xmlns:xlink="http://www.w3.org/1999/xlink">
 <defs>
  <style type="text/css">
   <![CDATA[
    .fil0 {fill:none}
    .fil1 {fill:#021F3E;fill-rule:nonzero}
   ]]>
  </style>
 </defs>
 <g id="Слой_x0020_1">
  <metadata id="CorelCorpID_0Corel-Layer"/>
  <g id="_124591960">
   <rect id="_123746968" class="fil0" width="0.293873" height="0.293873"/>
   <path id="_123747952" class="fil1" d="M0.17726 0.179614l-0.00330717 0.00284622c-0.00437901,0.00377089 -0.00923008,0.00707806 -0.0144449,0.00986041 -0.00515374,0.00275181 -0.0106018,0.00493715 -0.0162304,0.00649771 -0.00565356,0.00156611 -0.0114543,0.0025019 -0.0172828,0.00279068 -0.00583128,0.000294341 -0.0116792,-5.27592e-005 -0.0174189,-0.00103575l0 -2.7768e-006c-0.0170246,-0.00287954 -0.0323497,-0.0114404 -0.0439178,-0.02355 -0.0115015,-0.012043 -0.0193293,-0.0276375 -0.0214452,-0.0446815l-2.7768e-006 0 -5.5536e-006 -3.60984e-005 0 -2.22144e-005 -2.22144e-005 -0.000172161 1.94376e-005 -2.7768e-006c-0.000760843,-0.00603954 -0.000830263,-0.0121124 -0.000219367,-0.0180797l2.7768e-006 0c0.000616449,-0.00603121 0.00191044,-0.0119624 0.00385975,-0.0176604 0.0019743,-0.00576463 0.00459005,-0.0112599 0.00777504,-0.0163692 0.00321553,-0.00515374 0.00699198,-0.00991872 0.0112571,-0.0141839 0.00426516,-0.00426516 0.00903015,-0.00804161 0.0141839,-0.0112571 0.00510931,-0.00318499 0.0106046,-0.00580073 0.0163692,-0.00777504 0.00569799,-0.00194931 0.0116292,-0.0032433 0.0176604,-0.00385975l0 -2.7768e-006c0.00596734,-0.000610896 0.0120402,-0.000541476 0.0180797,0.000219367l2.7768e-006 -1.94376e-005 0.000172161 2.22144e-005 2.22144e-005 0 3.60984e-005 5.5536e-006 0 2.7768e-006c0.0170412,0.00211592 0.0326413,0.00994371 0.0446815,0.0214452 0.0121096,0.0115681 0.0206705,0.0268933 0.02355,0.0439178l2.7768e-006 0c0.000982987,0.00573964 0.00133009,0.0115876 0.00103575,0.0174189 -0.000288787,0.0058285 -0.00122457,0.0116292 -0.00279068,0.0172828 -0.00156056,0.00563135 -0.0037459,0.0110766 -0.00649771,0.0162304 -0.00278513,0.00521205 -0.0060923,0.0100659 -0.00986319,0.0144449l-1.3884e-005 -1.11072e-005 -0.00285455 0.00331827 0.00495381 0 0.00134397 0 0.00662266 0 0.00302393 0 0.00217146 0.00218256 0.049763 0.0499963 0.000177715 0.000177715 3.88752e-005 4.99824e-005c0.00236861,0.00248246 0.00355986,0.00568966 0.00355986,0.00887742 0,0.00330161 -0.00126067,0.00661989 -0.00376534,0.00912456 -0.00250467,0.00250467 -0.00582572,0.00376534 -0.00912178,0.00376534 -0.00329606,0 -0.00661711,-0.00126067 -0.00912178,-0.00376534l-0.049888 -0.0498907 -0.00215202 -0.00215202 0 -0.00304337 0 -0.00663099 0 -0.00134397 0 -0.00492882zm-0.110206 -0.0575214c0,0.0152557 0.00615338,0.0290398 0.0161027,0.0390001 0.00996038,0.00994927 0.0237444,0.0161027 0.0390001,0.0161027 0.0152641,0 0.0290398,-0.00614505 0.0389835,-0.0160888l3.05448e-005 -3.05448e-005c0.00994371,-0.00994371 0.0160888,-0.0237222 0.0160888,-0.0389835 0,-0.0152557 -0.00615338,-0.0290398 -0.0161027,-0.0390001 -0.00996038,-0.00994927 -0.0237444,-0.0161027 -0.0390001,-0.0161027 -0.0152557,0 -0.0290398,0.00615338 -0.0390001,0.0161027l1.3884e-005 1.3884e-005c-0.00996038,0.00996038 -0.0161165,0.0237416 -0.0161165,0.0389862z"/>
  </g>
 </g>
</svg>
