<?xml version="1.0" encoding="UTF-8"?>
<!DOCTYPE svg PUBLIC "-//W3C//DTD SVG 1.1//EN" "http://www.w3.org/Graphics/SVG/1.1/DTD/svg11.dtd">
<!-- Creator: CorelDRAW -->
<svg xmlns="http://www.w3.org/2000/svg" xml:space="preserve" width="8.4668mm" height="8.4668mm" style="shape-rendering:geometricPrecision; text-rendering:geometricPrecision; image-rendering:optimizeQuality; fill-rule:evenodd; clip-rule:evenodd"
viewBox="0 0 0.211323 0.211323"
 xmlns:xlink="http://www.w3.org/1999/xlink">
 <defs>
  <style type="text/css">
   <![CDATA[
    .fil0 {fill:none}
    .fil1 {fill:#021F3E;fill-rule:nonzero}
   ]]>
  </style>
 </defs>
 <g id="Слой_x0020_1">
  <metadata id="CorelCorpID_0Corel-Layer"/>
  <g id="_123987952">
   <rect id="_124211104" class="fil0" width="0.21132" height="0.21132"/>
   <path id="_124591552" class="fil1" d="M0.141173 0.0536568l0.000212151 0.000336946 0.000197176 0.000364401c0.000821151,0.0013403 0.00179455,0.00257327 0.00290024,0.00367896 0.00358411,0.00358411 0.00853847,0.00580297 0.0140095,0.00580297 0.00546852,0 0.0104229,-0.00221885 0.014007,-0.00580297 0.00358411,-0.00358411 0.00580297,-0.00853847 0.00580297,-0.0140095 0,-0.00548848 -0.00220887,-0.0104428 -0.00577551,-0.014007l-2.74549e-005 -2.74549e-005c-0.00356414,-0.00356664 -0.00851851,-0.00577551 -0.014007,-0.00577551 -0.00547101,0 -0.0104254,0.00221885 -0.0140095,0.00580297 -0.00358411,0.00358411 -0.00580297,0.00853847 -0.00580297,0.014007 0,0.00349426 0.000906012,0.00677886 0.0024934,0.00962918zm-0.00730799 0.0123672l-0.0497533 0.0290348c0.00112815,0.00332953 0.00173964,0.00689367 0.00173964,0.0106026 0,0.0037114 -0.000613991,0.00728054 -0.00174214,0.0106101l0.0497732 0.0290048c0.000409328,-0.000454254 0.000828639,-0.000898524 0.00126043,-0.00133031 0.00597269,-0.00597269 0.0142316,-0.00967161 0.0233491,-0.00967161 0.00911503,0 0.017374,0.00369892 0.0233466,0.00967161 0.00597269,0.00597269 0.00967161,0.0142316 0.00967161,0.0233491 0,0.00911503 -0.00369892,0.017374 -0.00967161,0.0233466 -0.00597269,0.00597269 -0.0142316,0.00967161 -0.0233466,0.00967161 -0.00890287,0 -0.0169971,-0.00354418 -0.0229373,-0.00929473 -0.000142266,-0.000119803 -0.000279541,-0.000244598 -0.000411823,-0.000376881 -0.00597269,-0.00597269 -0.00967161,-0.0142316 -0.00967161,-0.0233466 0,-0.00372638 0.000616487,-0.0073055 0.00175462,-0.0106475l-0.0497607 -0.0289974c-0.000416815,0.000464237 -0.000843614,0.000915995 -0.00128539,0.00135777 -0.00597269,0.00597269 -0.0142316,0.00967161 -0.0233491,0.00967161 -0.00908258,0 -0.017324,-0.00369144 -0.0233117,-0.00966412l-7.4877e-006 -7.4877e-006 -1.24795e-005 -1.49754e-005 -1.49754e-005 -1.24795e-005c-0.00597518,-0.00598517 -0.00967161,-0.0142341 -0.00967161,-0.0233192 0,-0.00908258 0.00369144,-0.017324 0.00966412,-0.0233117l7.4877e-006 -7.4877e-006 1.49754e-005 -1.24795e-005 1.24795e-005 -1.49754e-005c0.00598517,-0.00597518 0.0142316,-0.00967161 0.0233192,-0.00967161 0.00911752,0 0.0173765,0.00369892 0.0233491,0.00967161 0.000436782,0.000436782 0.000861085,0.000883548 0.00127291,0.00134529l0.0497558 -0.0290348c-0.00112565,-0.00332703 -0.00173715,-0.00689118 -0.00173715,-0.0105976 0,-0.00911503 0.00369892,-0.017374 0.00967161,-0.0233466 0.00597269,-0.00597269 0.0142316,-0.00967161 0.0233491,-0.00967161 0.00908008,0 0.017324,0.00369144 0.0233117,0.00966412l7.4877e-006 7.4877e-006 1.24795e-005 1.49754e-005 1.49754e-005 1.24795e-005c0.00597518,0.00598517 0.00967161,0.0142316 0.00967161,0.0233192 0,0.00911752 -0.00369892,0.0173765 -0.00967161,0.0233491 -0.00597269,0.00597269 -0.0142316,0.00967161 -0.0233466,0.00967161 -0.00911752,0 -0.0173765,-0.00369892 -0.0233491,-0.00967161 -0.000439278,-0.000439278 -0.000866077,-0.00088854 -0.0012779,-0.00135278zm-0.0637303 0.0299882l-0.000199672 -0.000321971 -0.000189688 -0.00034693c-0.000821151,-0.00134529 -0.00179954,-0.00258326 -0.00290523,-0.00368894 -0.00358411,-0.00358411 -0.00853847,-0.00580297 -0.0140095,-0.00580297 -0.00548848,0 -0.0104428,0.00220887 -0.014007,0.00577551l-2.74549e-005 2.74549e-005c-0.00356664,0.00356414 -0.00577551,0.00851851 -0.00577551,0.014007 0,0.00548848 0.00220887,0.0104428 0.00577551,0.014007l2.74549e-005 2.74549e-005c0.00356414,0.00356664 0.00851851,0.00577551 0.014007,0.00577551 0.00547101,0 0.0104254,-0.00221885 0.0140095,-0.00580297 0.0011556,-0.0011556 0.00216644,-0.00245097 0.00301255,-0.00386365l4.49262e-005 -7.73729e-005 3.74385e-005 -6.98852e-005 7.23811e-005 -0.000117307 9.9836e-006 -1.99672e-005 4.9918e-006 -7.4877e-006c0.00166976,-0.00290024 0.00262069,-0.00626471 0.00262069,-0.00985132 0,-0.00350175 -0.000913499,-0.00679384 -0.00250838,-0.00964915zm0.0883573 0.0910928c0.00546852,0 0.0104229,-0.00221885 0.014007,-0.00580297 0.00358411,-0.00358411 0.00580297,-0.00853847 0.00580297,-0.014007 0,-0.00547101 -0.00221885,-0.0104254 -0.00580297,-0.0140095 -0.00358411,-0.00358411 -0.00853847,-0.00580297 -0.014007,-0.00580297 -0.00547101,0 -0.0104254,0.00221885 -0.0140095,0.00580297 -0.00098588,0.00098588 -0.00186693,0.00207409 -0.00262818,0.00324966 -0.00010982,0.000259574 -0.00023711,0.000516651 -0.000381873,0.000768737 -0.000154746,0.000269557 -0.000326963,0.000519147 -0.000514155,0.000758753 -0.00145511,0.00275547 -0.00227876,0.00590031 -0.00227876,0.00923233 0,0.00546852 0.00221885,0.0104229 0.00580297,0.014007l0.000294516 0.000314483c0.00355915,0.00339942 0.00839121,0.00548848 0.013715,0.00548848z"/>
  </g>
 </g>
</svg>
