<?xml version="1.0" encoding="UTF-8"?>
<!DOCTYPE svg PUBLIC "-//W3C//DTD SVG 1.1//EN" "http://www.w3.org/Graphics/SVG/1.1/DTD/svg11.dtd">
<!-- Creator: CorelDRAW -->
<svg xmlns="http://www.w3.org/2000/svg" xml:space="preserve" width="8.4668mm" height="8.4668mm" style="shape-rendering:geometricPrecision; text-rendering:geometricPrecision; image-rendering:optimizeQuality; fill-rule:evenodd; clip-rule:evenodd"
viewBox="0 0 0.176741 0.176741"
 xmlns:xlink="http://www.w3.org/1999/xlink">
 <defs>
  <style type="text/css">
   <![CDATA[
    .fil0 {fill:none}
    .fil1 {fill:#021F3E;fill-rule:nonzero}
   ]]>
  </style>
 </defs>
 <g id="Слой_x0020_1">
  <metadata id="CorelCorpID_0Corel-Layer"/>
  <g id="_123992128">
   <rect id="_123338296" class="fil0" width="0.176739" height="0.176739"/>
   <path id="_124592512" class="fil1" d="M0.0625509 0.0371882l1.46123e-005 -2.7137e-005 4.38368e-005 -6.47114e-005c0.0103747,-0.0186077 0.0155683,-0.0279178 0.0257614,-0.0279178 0.010191,0 0.0153825,0.00930174 0.025751,0.0278948l8.34986e-006 -4.17493e-006 1.87872e-005 3.33994e-005 0 2.08747e-005 0.0024152 0.0043294c0.00124204,0.00222941 0.00217723,0.00390565 0.00302474,0.00518318 0.000574053,0.000862123 0.00105208,0.00144035 0.00154681,0.00181818l-8.34986e-006 1.04373e-005c0.000448805,0.000336082 0.00109592,0.000615802 0.00204154,0.000912222 0.00142156,0.000446718 0.00322513,0.000857948 0.00562572,0.00139651l0.00468218 0.00106043 0.000129423 2.29621e-005 8.34986e-006 2.08747e-006 -2.08747e-006 6.2624e-006c0.020096,0.0045465 0.0301493,0.00684689 0.033245,0.0167811l0 2.29621e-005c0.00161779,0.00521031 0.000363219,0.0101221 -0.00335038,0.0160276 -0.003031,0.00481369 -0.00777581,0.0103664 -0.0140987,0.0177602l-0.00317712 0.00370734 2.08747e-006 2.08747e-006 -3.54869e-005 4.17493e-005 -2.29621e-005 2.29621e-005c-0.00298925,0.00349859 -0.0044964,0.0052625 -0.00493685,0.00668406 -0.000206659,0.000667989 -0.000275545,0.00146958 -0.000254671,0.00255088 2.92245e-005,0.00146123 0.000223359,0.00343805 0.000475942,0.00606617l0.000471767 0.00483666 1.46123e-005 -2.08747e-006 4.17493e-006 3.33994e-005 0 0.000150297c0.00205615,0.0212713 0.00308319,0.0319111 -0.00500365,0.0380461 -0.00827471,0.00628744 -0.017756,0.00192256 -0.0366872,-0.0067947l-9.39359e-005 -5.42741e-005 -0.00430227 -0.00197265 -2.08747e-005 0c-0.00231082,-0.00106669 -0.00404551,-0.00186828 -0.00530634,-0.00232544 -0.00088926,-0.000323557 -0.00156351,-0.000486379 -0.0021647,-0.000486379 -0.00060119,0 -0.00127544,0.000162822 -0.00216679,0.000486379 -0.00125874,0.000457155 -0.0029976,0.00125874 -0.00531051,0.00232544l-0.00438159 0.00201649c-0.00872352,0.0040142 -0.0152719,0.00703058 -0.0205845,0.00855234 -0.00668824,0.00191629 -0.0116982,0.00161779 -0.0161257,-0.00173886 -0.00809101,-0.00614132 -0.00706398,-0.016779 -0.00500992,-0.0380441l4.17493e-006 -4.38368e-005 0.000465505 -0.00475942 2.08747e-005 -0.000221271c0.000457155,-0.00472393 0.000684689,-0.00709112 0.000215009,-0.00858992l0 -2.29621e-005c-0.000434193,-0.00141321 -0.00189751,-0.00314163 -0.00479073,-0.00652333l-0.000175347 -0.000202484 -0.00319591 -0.00374074c-0.00632293,-0.00738754 -0.0110657,-0.0129381 -0.0140987,-0.017756 -0.00371569,-0.00590544 -0.00497025,-0.0108152 -0.00335247,-0.0160317l0 -2.29621e-005c0.0016491,-0.00529381 0.00549421,-0.00855652 0.0119403,-0.011097 0.00513725,-0.00202484 0.0121323,-0.00360923 0.0214487,-0.00571548l0.00468218 -0.00106043c0.00239432,-0.000538566 0.00419372,-0.000949797 0.00561528,-0.00139651 0.000920572,-0.000290158 0.00156977,-0.00057614 0.00205824,-0.000945622l2.08747e-006 4.17493e-006c0.000484292,-0.000375744 0.000956059,-0.000949797 0.00152176,-0.00179939 0.000847511,-0.00127753 0.0017827,-0.00295376 0.00302474,-0.00518318l0.00237971 -0.00426052 -6.2624e-006 -4.17493e-006zm0.00971924 0.00519153l6.2624e-006 4.17493e-006 -1.46123e-005 2.7137e-005 -4.38368e-005 6.47114e-005 -0.00241728 0.0043294c-0.00140486,0.00252166 -0.00246321,0.00442125 -0.00345475,0.00591379 -0.00126292,0.00189959 -0.00248826,0.00330446 -0.00404968,0.00449431l-2.08747e-005 2.29621e-005c-0.00157812,0.00119403 -0.00326062,0.00198935 -0.00542323,0.00266987 -0.0016658,0.000523954 -0.00373239,0.000995721 -0.00647949,0.00161361l-0.00468218 0.00106043c-0.00879658,0.00198727 -0.0153992,0.00348398 -0.0198539,0.00523954 -0.0031479,0.00123995 -0.00491598,0.00247782 -0.00542323,0.00410813l-6.2624e-006 -2.08747e-006c-0.000517691,0.00170755 0.000244233,0.00387225 0.00215218,0.00690533 0.00260098,0.00413318 0.00712243,0.00942073 0.0131469,0.0164617l0.00309989 0.0036301 0.000104373 0.000118986c0.00398288,0.00465505 0.00599102,0.00700136 0.00710991,0.0106252l6.2624e-006 -2.08747e-006c0.00109174,0.00347563 0.000830811,0.0065275 0.000258846,0.0124538l0 8.34986e-006 -4.38368e-005 0.000446718 -0.000486379 0.0049786 -4.17493e-006 4.38368e-005c-0.00166371,0.0172153 -0.00249243,0.0258282 0.000697213,0.0282497 0.00120238,0.000912222 0.00325853,0.000797412 0.00645653,-0.000118986 0.00457155,-0.00130884 0.0107525,-0.00415614 0.0189897,-0.00794698l0.00438159 -0.00201649c0.00250496,-0.00115437 0.00438994,-0.00202484 0.00617472,-0.00267196 0.00215635,-0.000784887 0.00397036,-0.00117524 0.00592005,-0.00117524 0.00194969,0 0.0037637,0.000390356 0.00591796,0.00117524 0.00178478,0.000647114 0.00366976,0.00151759 0.00617055,0.00267196l-4.17493e-006 8.34986e-006 0.0043795 0.00200814 3.75744e-005 1.87872e-005 4.17493e-006 -8.34986e-006c0.0149421,0.00688028 0.0224235,0.0103246 0.0254232,0.00804718 0.0031813,-0.00241102 0.00236301,-0.0109842 0.000705563,-0.0281035l-1.46123e-005 2.08747e-006 -4.17493e-006 -3.33994e-005 0 -0.000150297 -0.000486379 -0.00498487c-0.000275545,-0.00284313 -0.000482204,-0.00498487 -0.000521866,-0.00688446 -4.38368e-005,-0.00228577 0.000152385,-0.00413944 0.000730613,-0.00600355 0.00112306,-0.00361966 0.00311867,-0.00595763 0.00707442,-0.0105876l-2.08747e-006 -2.08747e-006 3.54869e-005 -4.17493e-005 2.29621e-005 -2.29621e-005 0.003198 -0.00373239c0.00602442,-0.00704519 0.0105459,-0.0123348 0.0131469,-0.0164659 0.00190586,-0.003031 0.00266778,-0.0051957 0.00215009,-0.00690116l-6.2624e-006 2.08747e-006c-0.0012149,-0.00389938 -0.0092266,-0.00571757 -0.0252604,-0.00934558l-0.000129423 -2.29621e-005 -8.34986e-006 -2.08747e-006 2.08747e-006 -6.2624e-006 -0.00455485 -0.00103121c-0.00275128,-0.00061789 -0.00482204,-0.00108966 -0.00648993,-0.00161361 -0.00213339,-0.000670076 -0.00380962,-0.00147166 -0.00541906,-0.00269283l-2.08747e-005 0c-0.00156351,-0.00118986 -0.00278885,-0.00259472 -0.00405177,-0.00449431 -0.000991546,-0.00149254 -0.00204989,-0.00339213 -0.00345475,-0.00591379l-0.00240685 -0.0043127 -8.34986e-006 4.17493e-006 -1.87872e-005 -3.33994e-005 0 -2.08747e-005c-0.00825801,-0.0148085 -0.0123891,-0.0222169 -0.0161361,-0.0222169 -0.00373865,0 -0.00786766,0.00738754 -0.0161006,0.0221543zm-0.0370316 0.0796097l2.29621e-005 -0.000231709"/>
  </g>
 </g>
</svg>
