<?xml version="1.0" encoding="UTF-8"?>
<!DOCTYPE svg PUBLIC "-//W3C//DTD SVG 1.1//EN" "http://www.w3.org/Graphics/SVG/1.1/DTD/svg11.dtd">
<!-- Creator: CorelDRAW -->
<svg xmlns="http://www.w3.org/2000/svg" xml:space="preserve" width="15.875mm" height="15.9172mm" style="shape-rendering:geometricPrecision; text-rendering:geometricPrecision; image-rendering:optimizeQuality; fill-rule:evenodd; clip-rule:evenodd"
viewBox="0 0 0.914055 0.916484"
 xmlns:xlink="http://www.w3.org/1999/xlink">
 <defs>
  <style type="text/css">
   <![CDATA[
    .fil0 {fill:none}
    .fil1 {fill:#1D1D1B;fill-rule:nonzero}
   ]]>
  </style>
 </defs>
 <g id="Слой_x0020_1">
  <metadata id="CorelCorpID_0Corel-Layer"/>
  <g id="_123876456">
   <rect id="_124591600" class="fil0" width="0.914052" height="0.916488"/>
   <path id="_124291152" class="fil1" d="M0.0538241 0.773823c-0.0120281,0.0116941 -0.0312707,0.0114293 -0.0429649,-0.000598814 -0.0116941,-0.0120281 -0.0114293,-0.0312707 0.000598814,-0.0429649 0.000374259,-0.000356985 0.117667,-0.11754 0.374051,-0.136639 0.00271194,-0.000564267 0.00549872,-0.000748517 0.00826248,-0.000570025 0.0202388,-0.00133006 0.0413009,-0.0020613 0.0632497,-0.0020613 0.0219488,0 0.0430109,0.000737001 0.0632497,0.0020613 0.00276376,-0.00018425 0.00555054,5.75782e-006 0.00826248,0.000570025 0.25639,0.0190929 0.373683,0.136282 0.374057,0.136639 0.0120281,0.0116941 0.012293,0.0309368 0.000598814,0.0429649 -0.0116941,0.0120281 -0.0309368,0.012293 -0.0429649,0.000598814 -0.000287891,-0.000282133 -0.080788,-0.0808283 -0.26243,-0.110815l0.175884 0.199503c0.0111068,0.0126212 0.00988043,0.031858 -0.00274072,0.0429649 -0.0126212,0.0111068 -0.031858,0.00988043 -0.0429649,-0.00274072l-0.219903 -0.249429c-0.00674241,-0.000368501 -0.013623,-0.000644876 -0.0205785,-0.000869431l0 0.230186c0,0.0168244 -0.013646,0.0304704 -0.0304704,0.0304704 -0.0168244,0 -0.0304704,-0.013646 -0.0304704,-0.0304704l0 -0.230186c-0.00695545,0.000224555 -0.0138303,0.000500931 -0.0205785,0.000869431l-0.219903 0.249429c-0.0111068,0.0126212 -0.0303437,0.0138476 -0.0429649,0.00274072 -0.0126212,-0.0111068 -0.0138476,-0.0303437 -0.00274072,-0.0429649l0.175884 -0.199503c-0.181648,0.0299752 -0.262131,0.110533 -0.262424,0.110815zm0.207523 -0.285674c0.00150855,0.0166919 -0.0108017,0.031455 -0.0274936,0.0329635 -0.0166919,0.00150855 -0.031455,-0.0108017 -0.0329635,-0.0274936 -0.000650634,-0.00718001 -0.000990346,-0.0135597 -0.000990346,-0.0190584 0,-0.00479051 0.000259102,-0.0102547 0.000754275,-0.0163234l-5.75782e-006 0c0,-0.0341554 0.00684605,-0.0677638 0.0197781,-0.0989885 0.0129148,-0.0311786 0.0318696,-0.0598008 0.0560812,-0.0840182l5.75782e-005 -5.75782e-005 -5.75782e-005 -5.75782e-005c0.0241541,-0.0241541 0.0528223,-0.0431088 0.0841333,-0.0560812 0.0312247,-0.0129321 0.0648331,-0.0197781 0.0989943,-0.0197781 0.0341612,0 0.0677696,0.00684605 0.0989943,0.0197781 0.0313053,0.0129724 0.0599735,0.0319271 0.0841276,0.0560812 0.0241541,0.0241541 0.0431088,0.0528223 0.0560812,0.0841276 0.0129321,0.0312247 0.0197781,0.0648331 0.0197781,0.0989943l0 4.03048e-005c0.000495173,0.00604572 0.000748517,0.0114869 0.000748517,0.0162831 0,0.00552175 -0.000328196,0.0118841 -0.000990346,0.0190584 -0.00150855,0.0166919 -0.0162716,0.0290022 -0.0329635,0.0274936 -0.0166919,-0.00150855 -0.0290022,-0.0162716 -0.0274936,-0.0329635 0.000333954,-0.00366773 0.000506689,-0.00821641 0.000506689,-0.0135885 0,-0.00427806 -0.000109399,-0.00802641 -0.000322438,-0.0112335 -0.000282133,-0.0016525 -0.000426079,-0.00335681 -0.000426079,-0.00508992 0,-0.0264399 -0.00519356,-0.0522119 -0.0150106,-0.0759054 -0.00977679,-0.0236013 -0.0243038,-0.0454523 -0.0429879,-0.0641364 -0.0186784,-0.0186784 -0.0405351,-0.0332111 -0.0641364,-0.0429879 -0.0236934,-0.00981709 -0.0494655,-0.0150106 -0.0759054,-0.0150106 -0.0264399,0 -0.0522119,0.00519356 -0.0759054,0.0150106 -0.0236128,0.00977679 -0.0454638,0.0243095 -0.0641422,0.0429879l-5.75782e-005 -5.75782e-005c-0.0185978,0.0186208 -0.0331075,0.0404833 -0.0429303,0.0641997 -0.00981709,0.0236934 -0.0150106,0.0494655 -0.0150106,0.0758996l-0.000120914 0c0,0.000903978 -4.03048e-005,0.00181371 -0.000120914,0.00273497 -0.000333954,0.00366773 -0.000506689,0.00819914 -0.000506689,0.0135885 0,0.00538932 0.000172735,0.00992073 0.000506689,0.0135885zm-0.228707 0.000558509c-0.0168244,0 -0.0304704,-0.013646 -0.0304704,-0.0304704 0,-0.0168244 0.013646,-0.0304704 0.0304704,-0.0304704l0.065288 0c0.0168244,0 0.0304704,0.013646 0.0304704,0.0304704 0,0.0168244 -0.013646,0.0304704 -0.0304704,0.0304704l-0.065288 0zm0.109036 -0.302735c-0.0118957,-0.0118957 -0.0118957,-0.0311844 0,-0.04308 0.0118957,-0.0118957 0.0311844,-0.0118957 0.04308,0l0.0326469 0.0326469c0.0118957,0.0118957 0.0118957,0.0311844 0,0.04308 -0.0118957,0.0118957 -0.0311844,0.0118957 -0.04308,0l-0.0326469 -0.0326469zm0.284874 -0.152116c0,-0.0168244 0.013646,-0.0304704 0.0304704,-0.0304704 0.0168244,0 0.0304704,0.013646 0.0304704,0.0304704l0 0.065288c0,0.0168244 -0.013646,0.0304704 -0.0304704,0.0304704 -0.0168244,0 -0.0304704,-0.013646 -0.0304704,-0.0304704l0 -0.065288zm0.302735 0.109036c0.0118957,-0.0118957 0.0311844,-0.0118957 0.04308,0 0.0118957,0.0118957 0.0118957,0.0311844 0,0.04308l-0.0326469 0.0326469c-0.0118957,0.0118957 -0.0311844,0.0118957 -0.04308,0 -0.0118957,-0.0118957 -0.0118957,-0.0311844 0,-0.04308l0.0326469 -0.0326469zm0.152122 0.284874c0.0168244,0 0.0304704,0.013646 0.0304704,0.0304704 0,0.0168244 -0.013646,0.0304704 -0.0304704,0.0304704l-0.0652937 0c-0.0168244,0 -0.0304704,-0.013646 -0.0304704,-0.0304704 0,-0.0168244 0.013646,-0.0304704 0.0304704,-0.0304704l0.0652937 0z"/>
  </g>
 </g>
</svg>
