<svg xmlns="http://www.w3.org/2000/svg" xml:space="preserve" style="shape-rendering:geometricPrecision;text-rendering:geometricPrecision;image-rendering:optimizeQuality;fill-rule:evenodd;clip-rule:evenodd" viewBox="0 0 0.468 0.468">
<path style="fill:none" d="M0 0h.468v.468H0z"/>
<path d="M.234 0a.233.233 0 0 1 .165.4A.233.233 0 0 1 0 .233.233.233 0 0 1 .234 0zm.145.088a.205.205 0 0 0-.351.146.205.205 0 0 0 .351.145.205.205 0 0 0 0-.29zM.112.234v.028l.002.022A.063.063 0 0 0 .12.301a.035.035 0 0 0 .009.012.046.046 0 0 0 .015.008.32.32 0 0 0 .052.007A1.027 1.027 0 0 0 .302.326.11.11 0 0 0 .325.32.046.046 0 0 0 .34.313.035.035 0 0 0 .349.3.063.063 0 0 0 .353.284.878.878 0 0 0 .355.205c0-.008 0-.015-.002-.022A.063.063 0 0 0 .35.167.035.035 0 0 0 .34.155.046.046 0 0 0 .326.147.32.32 0 0 0 .273.14a1.027 1.027 0 0 0-.109.002.11.11 0 0 0-.021.005.046.046 0 0 0-.015.008.035.035 0 0 0-.009.012.063.063 0 0 0-.005.016.878.878 0 0 0-.002.05zm-.02.029A.811.811 0 0 1 .096.18.082.082 0 0 1 .101.158.054.054 0 0 1 .115.14.065.065 0 0 1 .136.128.34.34 0 0 1 .193.12a1.016 1.016 0 0 1 .113.003c.01 0 .018.003.025.005A.065.065 0 0 1 .352.14c.006.005.01.011.014.018A.082.082 0 0 1 .373.18a.811.811 0 0 1 0 .107.082.082 0 0 1-.007.022.054.054 0 0 1-.014.019.065.065 0 0 1-.02.011.34.34 0 0 1-.057.008A1.016 1.016 0 0 1 .161.346.129.129 0 0 1 .136.339a.065.065 0 0 1-.02-.011A.054.054 0 0 1 .1.309.082.082 0 0 1 .095.287.2.2 0 0 1 .093.263zM.21.252V.2l.014.007.04.018.019.009-.02.009L.224.26.21.267V.252z" style="fill-rule:nonzero"/>
</svg>